<svg width="1057" height="849" viewBox="0 0 1057 849" fill="none" xmlns="http://www.w3.org/2000/svg">
<path d="M840.057 806.806C824.296 809.571 807.755 808.984 791.815 810.766C783.842 811.657 775.903 812.228 767.873 812.454C761.243 812.639 753.502 811.475 747.065 812.943C746.524 813.066 746.344 813.909 746.978 814.053C753.367 815.503 761.182 814.353 767.733 814.191C775.346 814.002 782.956 813.557 790.514 812.663C807.202 810.686 823.688 811.118 840.2 807.538C840.692 807.43 840.555 806.719 840.057 806.806Z" fill="#0C0C22"/>
<path d="M1052 756.148C1042.71 734.732 1019.05 720.552 996.744 713.462C990.579 711.503 984.253 710.258 977.933 708.836C971.26 707.337 965.394 704.408 959.83 700.655C951.653 695.138 944.469 687.969 933.629 689.124C922.393 690.321 912.629 702.5 908.583 711.925C907.868 711.917 907.151 711.925 906.426 711.963C899.65 712.331 893.613 715.11 887.901 718.366C885.299 719.849 882.709 721.316 880.09 722.715C877.085 722.154 873.887 723.955 871.681 726.505C864.754 728.896 857.84 731.328 850.946 733.818C848.736 732.101 845.439 731.939 842.71 732.589C838.139 733.678 834.977 736.696 832.861 740.548C830.269 741.545 827.674 742.538 825.089 743.563C810.459 749.363 795.932 755.406 781.64 761.922C773.633 765.573 765.82 769.669 757.793 773.291C756.143 771.882 753.738 771.426 750.394 772.699C746.697 774.106 744.385 776.535 742.865 779.482C730.172 784.626 717.439 790.139 706.45 798.006C704.099 799.69 701.29 801.98 699.58 804.662C696.896 807.7 695.209 811.483 695.013 815.497C694.737 821.197 698.892 825.542 703.525 828.569C708.443 831.782 714.653 832.961 720.346 834.333C724.606 835.358 729.878 836.863 734.513 836.346C734.376 837.254 734.296 838.12 734.333 838.91C734.532 843.262 738.098 847.008 742.316 848.324C749.645 850.611 756.379 843.245 758.536 836.862C779.189 836.999 799.934 834.324 820.392 832C830.62 830.838 840.851 829.715 851.101 828.744C861.857 827.726 872.979 828.018 883.636 826.474C884.647 826.327 884.994 824.805 883.807 824.64C874.389 823.337 864.239 824.527 854.792 825.191C854.222 825.233 853.652 825.286 853.079 825.329C857.682 822.726 861.637 818.54 866.359 815.647C869.883 813.487 874.703 811.501 878.805 813.396C883.927 815.763 884.614 822.723 884.794 827.417C885.147 836.613 892.018 844.531 902.366 845.042C912.424 845.538 914.366 835.243 915.065 827.809C915.225 826.109 915.151 824.319 915.098 822.518C918.216 821.735 921.309 820.985 924.524 820.477C927.39 820.022 930.284 819.812 933.146 819.405C937.429 822.739 942.558 824.448 947.389 820.042C948.202 819.302 948.972 818.479 949.711 817.614C963.74 813.905 977.895 812.65 992.378 811.075C1005.47 809.649 1018.68 808.202 1031.25 804.243C1040.39 801.363 1049.67 796.676 1053.88 788.019C1058.5 778.529 1056.02 765.419 1052 756.148ZM880.887 727.271C883.599 727.165 887.053 727.013 886.569 730.407C886.142 733.389 880.597 731.247 879.818 729.418C879.426 728.5 879.923 727.798 880.887 727.271ZM873.078 730.194C873.102 730.127 873.119 730.059 873.145 729.991C873.354 729.432 873.64 728.899 874.003 728.422C874.771 727.411 875.744 726.782 876.822 726.37C876.213 727.202 875.919 728.067 875.895 728.925C875.893 728.97 875.891 729.017 875.891 729.062C875.903 730.945 877.2 732.776 879.33 734.098C883.745 736.838 890.334 736.16 890.553 730.27C890.616 728.605 889.905 727.124 888.773 725.962C889.803 725.988 890.618 726.089 890.983 726.247C894.109 727.595 893.643 731.295 893.014 733.884C892.076 737.749 887.047 738.917 883.506 739.078C879.986 739.24 876.003 738.083 873.836 735.322C872.677 733.845 872.506 731.905 873.078 730.194ZM833.692 746.298C834.994 743.31 836.758 740.584 839.021 738.461C839.183 738.309 839.353 738.162 839.53 738.018C841.132 736.712 843.285 735.793 845.384 735.839C846.324 735.86 847.253 736.068 848.117 736.53C849.502 737.273 849.811 738.461 849.584 739.753C849.222 741.827 847.462 744.166 846.498 745.338C845.238 746.868 847.415 748.808 849.067 747.997C851.046 747.025 855.27 745.24 856.987 747.672C858.768 750.19 853.506 752.948 851.925 753.712C845.452 756.84 837.892 756.659 831.027 758.508C830.968 758.524 830.922 758.549 830.867 758.568C831.076 754.536 831.993 750.195 833.692 746.298ZM743.987 785.797C744.316 784.541 744.694 783.297 745.188 782.077C745.827 780.5 747.345 778.352 749.22 776.922C750.36 776.054 751.631 775.454 752.919 775.407C753.728 775.376 754.545 775.562 755.336 776.042C756.784 776.919 757.266 778.573 757.272 780.353C757.276 782.445 756.62 784.711 756.061 786.103C755.571 787.322 756.474 789.088 758.087 788.78C760.996 788.225 764 787.813 766.789 789.016C770.118 790.449 766.084 793.189 764.536 793.933C761.073 795.602 756.713 795.914 752.93 796.573C749.096 797.239 745.241 797.859 741.385 798.404C742.478 794.243 742.902 789.948 743.987 785.797ZM734.967 833.873C726.694 832.479 718.855 830.784 710.915 827.94C705.917 826.152 700.61 822.709 699.301 817.504C698.968 816.182 699.013 814.889 699.294 813.624C701.962 817.79 708.076 818.548 713.06 818.923C719.402 819.398 730.924 818.012 734.86 824.027C736.54 826.599 735.686 830.358 734.967 833.873ZM759.297 833.166C759.824 828.774 760.357 826.152 766.297 826.021C769.71 825.946 771.466 830.162 773.94 831.818C774.355 832.096 774.773 832.319 775.19 832.496C769.904 832.794 764.609 833.019 759.297 833.166ZM822.166 828.384C808.439 829.906 794.777 831.241 781.062 832.145C785.248 830.123 788.886 824.993 790.769 822.171C797.129 812.641 806.478 822.232 814.92 822.833C818.846 823.114 823.822 820.29 827.442 821.278C829.145 821.742 831.012 823.39 832.495 824.265C834.227 825.285 836.337 826.047 838.404 826.63C832.986 827.18 827.575 827.785 822.166 828.384ZM915.092 819.072C915.174 817.201 915.456 815.376 916.236 813.686C917.37 811.228 920.107 809.972 922.828 809.972C924.746 809.969 926.324 812.303 927.333 813.545C928.252 814.675 929.3 815.867 930.442 817.003C925.322 817.107 919.913 817.825 915.092 819.072ZM943.867 813.118C942.265 815.271 941.573 816.391 938.972 814.951C937.134 813.934 935.582 812.495 934.344 810.87C931.895 807.653 929.666 804.967 925.724 803.378C921.927 801.845 916.355 803.497 913.378 805.883C909.377 809.088 908.1 813.436 907.696 818.225C907.286 823.087 907.723 827.795 906.726 832.627C906.37 834.349 905.899 836.298 904.562 837.58C902.943 839.13 898.173 836.344 896.872 835.635C892.352 833.17 892.419 828.995 891.825 824.645C891.146 819.667 889.28 815.03 885.903 811.13C880.062 804.384 870.239 806.779 863.41 810.484C858.606 813.092 855.096 817.181 850.486 819.992C845.572 822.987 839.119 821.032 834.405 818.522C831.741 817.104 829.227 815.294 826.02 815.713C820.622 816.42 815.838 818.616 810.398 816.697C806.538 815.337 803.611 813.43 799.38 812.99C795.105 812.545 791.369 813.946 788.536 816.972C785.95 819.734 784.571 823.299 781.765 825.894C777.375 829.948 775.741 826.654 772.782 823.818C767.53 818.778 757.384 821.154 754.929 827.601C753.612 831.054 754.237 834.599 752.254 837.914C750.828 840.301 748.377 842.249 745.597 843.006C740.976 844.264 740.102 838.17 740.284 835.366C740.582 830.782 741.691 826.777 739.808 822.364C738.546 819.407 735.574 817.312 732.53 816.183C725.197 813.46 717.129 814.349 709.504 813.069C701.773 811.772 704.138 807.467 708.706 803.799C715.215 798.574 723.416 794.961 731.025 791.438C734.138 789.998 737.284 788.628 740.444 787.287C739.7 791.427 739.426 795.743 738.622 799.381C738.466 800.09 738.908 800.519 739.461 800.629C739.712 801.47 740.558 802.16 741.816 801.833C748.442 800.104 755.4 799.962 762.055 798.349C765.811 797.44 769.655 796.035 771.494 792.572C774.892 786.176 766.005 784.593 760.475 784.741C760.79 782.868 760.831 780.82 760.526 778.917C768.117 775.501 775.515 771.682 783.077 768.208C797.334 761.661 811.737 755.397 826.251 749.378C827.567 748.831 828.888 748.287 830.206 747.742C829.07 752.62 828.946 757.753 829.37 761.703C829.436 762.323 830.312 762.381 830.677 762C831.002 762.129 831.394 762.166 831.842 762.063C840.635 760.046 855.667 760.214 860.412 751.282C861.847 748.58 860.951 745.818 858.563 743.99C856.903 742.719 854.754 742.552 852.63 742.894C853.279 741.377 853.606 739.787 853.383 738.198C858.582 736.07 863.784 733.95 868.993 731.842C868.936 732.194 868.905 732.542 868.903 732.882C868.893 739.267 876.034 742.819 881.917 743.112C888.265 743.428 895.06 740.976 896.911 734.73C898.279 730.111 896.801 724.475 891.776 722.714C895.516 721.232 899.256 719.758 903 718.293C910.433 717.23 917.362 718.921 924.825 721.956C925.769 722.339 926.719 722.741 927.681 723.165C927.908 723.265 928.138 723.369 928.365 723.469C928.592 723.569 928.817 723.67 929.045 723.769C930.371 724.358 931.699 724.948 933.028 725.544C933.555 725.78 934.082 726.019 934.609 726.257C935.927 726.853 937.246 727.454 938.564 728.059C939.33 728.41 940.096 728.76 940.862 729.115C942.065 729.672 943.266 730.238 944.467 730.804C945.852 731.456 947.234 732.115 948.613 732.78C950.072 733.481 951.528 734.191 952.979 734.907C954.429 735.621 955.875 736.344 957.319 737.073C958.587 737.714 959.852 738.361 961.114 739.013C961.727 739.331 962.342 739.646 962.955 739.967C964.24 740.64 965.522 741.321 966.799 742.007C966.864 742.042 966.928 742.076 966.993 742.111C968.331 742.831 969.665 743.561 970.993 744.296C971.564 744.61 972.134 744.925 972.702 745.243C974.02 745.983 975.335 746.728 976.644 747.483C977.8 748.149 978.948 748.825 980.094 749.505C981.624 750.412 983.144 751.329 984.655 752.261C986.02 753.104 987.378 753.958 988.728 754.821C989.833 755.529 990.928 756.245 992.019 756.967C992.789 757.474 993.555 757.987 994.317 758.502C995.252 759.132 996.186 759.76 997.109 760.401C997.372 760.583 997.646 760.752 997.911 760.932C998.473 761.314 999.041 761.685 999.609 762.058C1000.66 762.744 1001.71 763.423 1002.77 764.086C1003.52 764.556 1004.27 765.03 1005.03 765.495C1005.37 766.107 1005.98 766.48 1006.75 766.579C1006.77 766.581 1006.78 766.579 1006.8 766.581C1007.26 766.864 1007.72 767.147 1008.18 767.43C1010.03 768.557 1011.86 769.691 1013.67 770.871C1013.67 770.872 1013.67 770.872 1013.68 770.874C1016.35 772.622 1018.03 775.272 1018.57 778.155C1010.37 777.634 1001.64 782.611 994.128 784.86C983.599 788.011 972.369 789.179 961.451 790.395C942.599 792.495 923.671 793.049 906.065 800.299C905.317 800.607 905.856 801.658 906.599 801.373C915.241 798.074 925.266 796.952 934.482 795.803C943.623 794.662 952.845 794.245 961.982 793.088C972.468 791.76 982.769 790.093 993.07 787.818C996.945 786.961 1000.69 785.475 1004.4 784.151C1009.2 782.439 1013.88 781.588 1018.76 780.565C1018.74 781.343 1018.64 782.124 1018.45 782.898C1017.32 787.494 1013.12 790.558 1008.87 792.502C1002.22 795.55 994.053 792.47 986.997 793.386C982.05 794.028 978.061 796.397 973.804 798.688C969.174 801.179 963.536 800.084 958.507 799.635C956.046 799.415 953.644 799.827 951.983 801.694C948.91 805.145 946.62 809.42 943.867 813.118ZM1030.47 798.932C1018.34 803.702 1004.3 805.387 991.431 807.231C978.509 809.082 965.383 810.842 952.637 813.722C953.877 811.886 955.015 809.999 956.065 808.229C956.514 807.471 957.907 806.186 957.246 806.233C958.723 805.921 960.998 806.469 962.409 806.553C967.236 806.844 971.681 806.444 976.107 804.556C977.898 803.791 979.563 802.726 981.289 801.84C985.043 799.914 988.561 799.525 992.785 799.715C998.968 799.997 1005.04 801.133 1010.99 798.925C1015.92 797.096 1019.9 794.271 1023.04 790.235C1026.67 785.581 1027.51 778.942 1025.12 773.644C1022.84 768.587 1018.55 765.639 1013.9 762.994C1013.86 762.185 1013.82 761.404 1013.81 760.677C1013.76 755.213 1013.2 749.811 1011.46 744.58C1010.98 743.127 1008.65 743.484 1008.96 745.046C1009.97 750.141 1009.72 755.257 1009.26 760.394C1009.26 760.401 1009.26 760.409 1009.26 760.416C1008.83 760.177 1008.4 759.934 1007.98 759.687C1006.85 753.71 1006.15 747.675 1004.94 741.707C1004.62 740.169 1002.2 740.691 1002.45 742.217C1003.24 747.075 1003.21 752.078 1003.6 757.009C1003.3 756.82 1003 756.626 1002.7 756.434C1002.45 755.075 1002.23 753.709 1002.05 752.327C1001.26 746.315 1000.94 740.249 999.909 734.267C999.656 732.799 997.245 732.938 997.448 734.45C998.253 740.475 998.267 746.532 998.557 752.589C998.573 752.926 998.579 753.322 998.581 753.753C998.15 753.468 997.721 753.182 997.292 752.896C996.912 751.85 996.545 750.862 996.34 750.021C994.853 743.934 994.018 737.726 993.855 731.484C993.816 730.02 991.471 730.073 991.465 731.53C991.44 737.357 991.902 743.169 992.715 748.944C992.758 749.241 992.793 749.575 992.829 749.923C991.81 749.248 990.789 748.578 989.765 747.912C989.663 747.615 989.561 747.319 989.471 747.025C988.158 742.731 987.296 738.35 986.893 733.897C986.755 732.396 984.279 732.327 984.385 733.869C984.659 737.859 985.32 741.749 986.211 745.653C985.094 744.959 983.967 744.277 982.827 743.615C982.798 743.598 982.768 743.581 982.739 743.565C982.663 743.024 982.59 742.482 982.537 741.931C982.046 736.815 982.04 731.67 981.536 726.555C981.364 724.811 978.551 725.221 978.707 726.955C979.099 731.296 978.889 736.45 979.137 741.543C977.753 740.79 976.354 740.054 974.95 739.329C974.374 734.604 974.242 729.815 974.433 725.074C974.497 723.452 971.854 722.982 971.768 724.634C971.539 729.041 971.617 733.424 971.966 737.811C971.269 737.461 970.571 737.11 969.87 736.764C969.441 731.626 969.292 726.47 968.742 721.338C968.587 719.895 966.324 720.306 966.424 721.717C966.747 726.225 966.724 730.739 966.788 735.254C966.685 735.204 966.581 735.152 966.477 735.101C966.351 734.003 966.228 732.936 966.159 731.944C965.811 726.889 965.125 721.856 963.724 716.962C963.321 715.551 961.052 716.118 961.413 717.539C962.741 722.789 963.015 728.085 963.094 733.457C962.145 732.996 961.199 732.535 960.255 732.073C959.994 730.573 959.753 729.081 959.675 727.621C959.434 723.057 959.25 718.559 958.239 714.079C957.902 712.584 955.594 713.264 955.865 714.719C956.821 719.889 956.621 725.111 956.74 730.334C956.65 730.289 956.56 730.246 956.472 730.201C954.905 729.416 953.336 728.637 951.766 727.858C951.739 727.541 951.704 727.223 951.692 726.906C951.513 722.082 952.025 717.255 952.038 712.432C952.045 710.576 949.063 710.738 949.025 712.564C948.929 717.118 948.497 721.652 948.408 726.202C946.996 725.508 945.582 724.814 944.163 724.129C944.208 719.1 944.894 714.094 944.897 709.063C944.897 707.345 942.172 707.614 942.123 709.28C941.992 713.756 941.414 718.203 941.093 722.669C940.209 722.249 939.326 721.827 938.44 721.411C938.507 716.685 938.583 711.959 938.558 707.233C938.546 705.308 935.447 705.402 935.423 707.309C935.372 711.496 935.235 715.679 935.075 719.863C934.516 719.607 933.956 719.352 933.395 719.098C933.421 718.811 933.441 718.521 933.476 718.239C934.048 713.629 934.657 709.03 934.851 704.389C934.922 702.68 932.279 702.828 932.108 704.45C931.644 708.861 930.718 713.194 929.981 717.565C929.552 717.376 929.123 717.186 928.692 717.002C928.7 716.834 928.704 716.665 928.715 716.497C929.007 712.279 929.305 708.076 929.272 703.846C929.258 702.217 926.712 702.477 926.655 704.043C926.512 707.96 926.045 711.837 925.561 715.722C921.453 714.105 917.272 712.789 912.905 712.221C919.7 704.588 927.475 692.641 939.115 695.405C944.081 696.585 948.334 700.446 952.186 703.426C956.794 706.989 961.237 710.123 967.012 711.733C979.445 715.199 991.952 716.806 1004.02 721.607C1016.15 726.435 1026.7 733.893 1035.76 742.861C1044.87 751.884 1050.02 763.316 1050.1 775.872C1050.18 788.328 1041.73 794.503 1030.47 798.932Z" fill="#0C0C22"/>
<path d="M943.838 782.599C943.881 782.941 944.208 783.074 944.516 783.035C944.874 783.44 945.446 783.663 946.199 783.471C955.659 781.055 969.14 780.871 973.629 770.811C974.924 767.906 972.898 764.554 970.014 763.434C967.675 762.525 965.31 762.655 963.11 763.396C963.708 760.973 963.706 758.484 962.654 756.002C961.382 753.002 957.799 751.854 954.739 752.828C949.833 754.391 947.58 759.929 945.701 763.996C942.993 769.852 943.052 776.382 943.838 782.599ZM951.898 759.632C953.144 757.764 956.776 754.264 958.804 757.208C960.741 760.021 958.853 764.304 957.46 766.897C956.463 768.75 958.788 770.775 960.52 769.272C962.638 767.436 966.386 765.4 969.039 767.629C971.821 769.963 965.034 774.01 963.569 774.827C958.187 777.83 951.218 778.21 945.372 780.184C945.261 780.221 945.163 780.269 945.069 780.319C945.26 773.094 947.882 765.658 951.898 759.632Z" fill="#0C0C22"/>
<path d="M930.144 757.552C931.572 753.756 930.452 750.32 926.671 748.319C923.661 746.726 920.074 746.854 916.74 747.71C917.447 744.621 917.351 741.455 915.805 738.474C914.142 735.265 910.28 733.927 906.81 735.048C901.842 736.654 899.47 742.085 897.751 746.329C894.977 753.182 896.002 761.083 897.328 768.08C897.385 768.387 897.548 768.591 897.753 768.704C897.984 769.355 898.566 769.863 899.534 769.854C909.485 769.763 926.128 768.233 930.144 757.552ZM920.227 761.885C914.324 765.261 906.482 765.863 899.754 765.924C899.521 765.926 899.313 765.967 899.119 766.023C898.371 757.359 899.477 748.503 904.9 741.21C906.654 738.852 910.014 737.371 911.914 740.316C913.938 743.449 912.208 747.751 910.802 750.743C909.957 752.535 912.399 754.214 914.058 753.388C917.431 751.708 921.549 750.406 925.158 752.275C929.846 754.704 922.437 760.62 920.227 761.885Z" fill="#0C0C22"/>
<path d="M871.352 775.068C869.481 773.598 867.322 773.055 865.101 773.051C865.749 771.428 865.888 769.694 865.054 767.917C863.602 764.827 859.433 764.555 856.449 765.223C845.791 767.605 842.38 779.81 841.83 788.682C841.808 789.033 842.439 789.584 843.086 789.997C843.352 790.43 843.822 790.738 844.551 790.732C853.447 790.651 866.895 791.394 872.365 783.168C874.083 780.586 873.95 777.111 871.352 775.068ZM862.791 785.279C857.339 787.227 850.785 786.911 845.064 786.864C844.808 786.861 844.577 786.905 844.361 786.972C845.85 781.708 846.926 776.358 851.318 772.434C853.479 770.505 856.006 768.909 859.09 769.119C863.037 769.386 859.454 773.468 858.259 774.76C856.531 776.63 859.084 778.89 861.157 778.215C863.269 777.528 868.32 776.334 869.14 779.439C869.926 782.419 864.981 784.496 862.791 785.279Z" fill="#0C0C22"/>
<path d="M784.911 802.856C784.923 803.035 784.991 803.175 785.081 803.298C785.54 803.533 786.108 803.579 786.729 803.298C786.788 803.272 786.853 803.248 786.911 803.222C795.375 799.533 813.131 800.679 815.717 789.475C816.391 786.548 815.321 783.193 812.139 781.973C810.053 781.174 808.023 781.093 806.058 781.475C806.685 779.274 806.65 776.95 805.657 774.614C804.015 770.744 799.54 770.145 795.892 771.518C790.726 773.464 787.317 779.444 785.832 784.183C784.227 789.306 784.398 794.635 784.723 799.905C784.784 800.892 784.85 801.875 784.911 802.856ZM789.727 782.838C791.134 779.33 794.854 775.261 798.91 774.563C804.83 773.545 800.761 782.896 799.609 784.369C798.116 786.278 800.643 788.611 802.661 787.28C805.102 785.668 809.273 783.571 811.74 786.339C814.966 789.959 806.456 794.371 804.001 795.218C798.559 797.094 792.673 797.189 787.19 798.927C787.413 793.478 787.685 787.922 789.727 782.838Z" fill="#0C0C22"/>
<path d="M898.776 775.675C898.03 775.061 897.211 774.527 896.347 774.09C894.844 773.33 893.214 772.863 891.611 772.817C889.353 772.754 887.509 773.797 886.265 775.339C885.111 775.93 884.041 776.705 883.103 777.693C879.626 781.348 880.785 787.535 884.381 790.715C892.186 797.617 905.202 791.035 902.375 780.88C901.827 778.91 900.496 777.089 898.776 775.675ZM889.202 776.712C890.493 776.304 891.9 776.136 893.291 776.133C893.853 776.267 894.412 776.467 894.942 776.743C895.393 776.978 895.798 777.247 896.18 777.534C896.302 780.059 895.24 782.235 892.442 782.968C890.101 783.583 887.715 782.552 887.683 780.072C887.666 778.472 888.271 777.371 889.202 776.712ZM899.105 784.505C898.394 790.461 890.271 791.787 886.295 787.908C884.486 786.144 883.816 783.265 884.563 780.889C884.592 781.208 884.636 781.527 884.708 781.84C885.578 785.573 890.054 786.74 893.511 785.834C896.159 785.14 897.979 783.38 898.814 781.201C899.137 782.231 899.244 783.344 899.105 784.505Z" fill="#0C0C22"/>
<path d="M948.05 739.692C947.958 739.209 947.835 738.714 947.65 738.202C947.533 737.876 947.398 737.533 947.241 737.181C946.826 736.237 946.269 735.237 945.58 734.359C945.599 734.114 945.525 733.851 945.307 733.602C945.174 733.45 945.033 733.318 944.896 733.177C943.677 731.922 942.319 731.101 940.913 730.651C940.132 730.4 939.338 730.26 938.545 730.223C937.158 730.16 935.778 730.407 934.487 730.894C928.974 732.973 925.115 739.468 929.603 745.326C935.286 752.746 949.825 748.978 948.05 739.692ZM941.387 734.247C942.308 734.303 943.253 734.853 944.058 736.087C944.375 736.576 944.64 737.09 944.849 737.618C944.494 737.818 944.067 738.056 943.605 738.301C940.811 739.791 936.622 741.632 937.606 737.814C938.16 735.659 939.736 734.147 941.387 734.247ZM932.647 734.801C933.3 734.146 934.042 733.655 934.832 733.305C935.919 732.823 937.099 732.626 938.272 732.684C938.364 732.689 938.456 732.685 938.547 732.693C938.433 732.765 938.333 732.858 938.223 732.936C937.232 733.647 936.415 734.614 935.819 735.592C935.751 735.704 935.67 735.816 935.608 735.929C934.572 737.785 933.964 740.537 935.78 742.161C938.343 744.453 942.533 742.798 945.284 741.434C945.057 742.665 944.442 743.819 943.35 744.744C940.837 746.875 936.766 746.829 933.98 745.288C930.028 743.104 929.656 737.809 932.647 734.801Z" fill="#0C0C22"/>
<path d="M824.985 783.787C828.725 783.139 832.685 781.143 834.558 777.929C836.356 774.842 836.666 770.641 834.873 767.497C833.919 765.826 832.179 764.795 830.247 764.64C828.028 762.7 825.183 761.873 822.078 763.999C818.171 766.674 816.036 771.94 815.887 776.382C815.711 781.607 819.582 784.723 824.985 783.787ZM830.22 767.736C830.884 768.585 831.429 769.508 831.848 770.238C831.979 770.468 832.164 770.596 832.359 770.674C832.398 771.016 832.416 771.366 832.416 771.716C830.332 772.425 828.043 772.212 826.181 771.073C823.726 769.572 827.701 768.101 829.051 767.795C829.495 767.694 829.877 767.687 830.22 767.736ZM822.291 767.752C823.21 766.579 824.619 765.437 826.22 765.367C824.38 766.092 822.64 767.31 822.201 768.91C821.486 771.504 823.344 773.533 825.659 774.677C827.632 775.653 829.769 775.838 831.76 775.314C830.449 778.3 827.038 779.723 823.845 780.399C822.103 780.768 820.53 780.475 819.732 779C817.895 775.593 820.115 770.525 822.291 767.752Z" fill="#0C0C22"/>
<path d="M988.541 779.86C993.798 783.386 1001.29 778.415 1002.75 773.391C1003.73 770.013 1001.73 766.506 998.739 764.743C997.278 763.882 995.661 763.737 994.147 764.093C990.229 763.48 986.268 764.24 984.714 768.437C983.185 772.568 984.796 777.346 988.541 779.86ZM991.797 769.226C992.128 767.6 994.215 766.42 995.867 766.583C997.346 766.73 998.445 767.745 999.183 768.886C999.199 768.911 999.205 768.937 999.221 768.961C998.86 768.962 998.486 769.095 998.155 769.417C997.081 770.459 991.186 772.211 991.797 769.226ZM987.052 769.915C987.421 768.006 988.62 766.966 990.154 766.462C989.866 766.775 989.603 767.111 989.374 767.463C987.828 769.856 989.163 772.547 991.776 773.486C994.474 774.457 997.593 773.888 999.713 772.086C998.966 775.611 994.46 778.976 990.918 777.592C988.054 776.473 986.52 772.665 987.052 769.915Z" fill="#0C0C22"/>
<path d="M848.298 26.5466C848.902 26.6347 848.743 26.4819 848.298 26.5466V26.5466Z" fill="#0C0C22"/>
<path d="M899.12 75.2521C899.09 74.7302 899.041 74.2167 898.992 73.7052C899.347 70.5243 899.442 67.3195 899.251 64.139C898.048 43.9607 882.206 31.1279 866.563 22.5746C858.325 18.0694 849.301 14.9834 840.201 13.1765C834.427 12.0302 828.026 11.2462 822.111 12.3904C818.031 12.2122 813.895 12.4351 809.683 13.2201C795.549 15.8543 781.585 24.0421 771.319 34.5407C761.008 45.0857 756.759 58.9227 757.994 73.8258C757.548 77.7947 757.541 81.8901 757.962 86.0658C759.215 98.4652 765.073 109.469 773.916 117.552C789.634 131.922 812.376 136.409 833.147 135.509C833.853 135.477 834.556 135.441 835.257 135.398C835.514 135.383 835.771 135.368 836.028 135.352C836.691 135.306 837.351 135.255 838.008 135.199C838.652 135.145 839.293 135.085 839.93 135.021C840.611 134.952 841.287 134.878 841.96 134.799C842.309 134.758 842.662 134.72 843.009 134.676C843.131 134.66 843.253 134.642 843.377 134.626C844.13 134.529 844.881 134.429 845.632 134.32C846.117 134.249 846.6 134.17 847.082 134.094C847.666 134.003 848.249 133.909 848.833 133.809C848.956 133.788 849.078 133.765 849.2 133.744C849.461 133.698 849.721 133.653 849.98 133.605C850.247 133.556 850.516 133.512 850.781 133.462C851.251 133.373 851.717 133.274 852.185 133.18C852.383 133.138 852.581 133.099 852.779 133.058C853.431 132.921 854.078 132.776 854.725 132.627C854.831 132.602 854.935 132.577 855.04 132.553C855.309 132.49 855.578 132.43 855.847 132.364C855.997 132.328 856.148 132.292 856.298 132.255C856.424 132.223 856.548 132.187 856.673 132.155C856.957 132.083 857.237 132.005 857.519 131.929C857.849 131.843 858.179 131.76 858.506 131.668C858.922 131.552 859.335 131.424 859.747 131.302C860.257 131.15 860.767 131.004 861.272 130.842C861.621 130.729 861.963 130.604 862.308 130.487C862.666 130.367 863.025 130.247 863.38 130.121C863.73 129.997 864.077 129.866 864.424 129.736C864.647 129.652 864.867 129.564 865.089 129.479C865.21 129.431 865.335 129.385 865.457 129.337C866.017 129.116 866.576 128.885 867.133 128.647C867.143 128.642 867.154 128.637 867.164 128.632C867.278 128.584 867.391 128.533 867.503 128.484C867.47 128.658 867.438 128.832 867.408 129.006C867.447 128.83 867.485 128.653 867.523 128.475C868.282 128.144 869.034 127.796 869.782 127.432C869.817 127.415 869.852 127.397 869.888 127.38C869.992 127.329 870.097 127.278 870.201 127.225C870.509 127.073 870.82 126.931 871.126 126.772C871.619 126.514 872.103 126.236 872.589 125.963C872.662 125.921 872.737 125.883 872.808 125.842C873.055 125.703 873.303 125.572 873.546 125.43C873.626 125.382 873.704 125.329 873.783 125.282C874.14 125.071 874.489 124.846 874.84 124.627C875.187 124.41 875.536 124.199 875.878 123.973C876.209 123.754 876.533 123.517 876.862 123.29C877.135 123.099 877.412 122.914 877.684 122.718C877.694 122.711 877.704 122.704 877.712 122.697C877.953 122.522 878.19 122.34 878.427 122.161C878.739 121.926 879.047 121.683 879.354 121.44C879.701 121.164 880.051 120.89 880.393 120.603C880.429 120.622 880.464 120.642 880.498 120.66C880.524 120.59 880.548 120.52 880.57 120.449C880.919 120.153 881.264 119.85 881.607 119.543C881.783 119.386 881.962 119.24 882.135 119.079C882.142 119.074 882.15 119.068 882.155 119.062C882.182 119.038 882.208 119.018 882.233 118.995C882.72 118.542 883.195 118.077 883.664 117.603C884.408 116.851 885.128 116.074 885.825 115.272C886.027 115.038 886.232 114.804 886.43 114.565C887.053 113.821 887.654 113.059 888.232 112.277C888.514 111.897 888.792 111.514 889.063 111.127C896.212 100.913 899.873 87.8775 899.12 75.2521ZM770.839 107.789C767.502 103.398 765.14 98.3914 763.649 93.0961C766.33 98.0913 769.846 102.597 774.047 106.438C790.33 121.326 814.152 125.607 835.511 124.277C835.106 126.481 834.746 128.692 834.314 130.891C834.265 131.142 834.198 131.41 834.122 131.69C811.685 132.825 785.371 126.918 770.839 107.789ZM836.025 131.578C836.429 129.143 836.592 126.643 836.874 124.187C837.669 124.129 838.461 124.062 839.25 123.987C838.994 125.586 838.715 127.181 838.374 128.765C838.18 129.672 837.945 130.567 837.666 131.448C837.121 131.494 836.575 131.539 836.025 131.578ZM839.237 131.307C839.265 131.175 839.293 131.049 839.32 130.932C839.851 128.625 840.139 126.251 840.376 123.875C841.089 123.802 841.801 123.722 842.507 123.636C842.032 126.143 841.51 128.641 840.969 131.133C840.391 131.194 839.813 131.252 839.237 131.307ZM842.49 130.961C842.92 128.475 843.33 125.984 843.696 123.487C844.548 123.374 845.398 123.257 846.247 123.131C845.842 125.28 845.376 127.418 844.86 129.549C844.768 129.922 844.664 130.306 844.549 130.701C843.862 130.794 843.175 130.88 842.49 130.961ZM850.521 126.806C850.385 127.414 850.188 128.086 849.974 128.789C850.237 126.571 850.43 124.289 850.573 122.408C850.893 122.349 851.209 122.288 851.529 122.226C851.19 123.751 850.858 125.279 850.521 126.806ZM846.269 130.461C846.293 130.317 846.32 130.175 846.346 130.036C846.348 130.174 846.346 130.312 846.353 130.448C846.325 130.453 846.297 130.456 846.269 130.461ZM847.409 130.285C847.477 130.106 847.55 129.933 847.611 129.751C847.586 129.923 847.561 130.094 847.537 130.265C847.494 130.272 847.452 130.278 847.409 130.285ZM852.768 129.291C852.789 129.139 852.812 128.986 852.836 128.837C853.196 126.486 853.49 124.126 853.779 121.764C854.403 121.627 855.025 121.478 855.645 121.328C855.247 123.596 854.72 125.841 854.199 128.073C854.129 128.365 854.037 128.688 853.932 129.031C853.545 129.12 853.155 129.206 852.768 129.291ZM858.231 120.662C858.054 121.412 857.884 122.165 857.715 122.916C857.763 122.202 857.792 121.487 857.821 120.772C857.957 120.735 858.094 120.7 858.231 120.662ZM859.28 127.606C859.747 125.092 860.157 122.566 860.424 120.023C861.276 119.762 862.123 119.485 862.963 119.193C862.54 120.905 862.12 122.616 861.686 124.324C861.453 125.243 861.205 126.158 860.956 127.071C860.401 127.258 859.841 127.434 859.28 127.606ZM863.906 125.999C864.214 123.855 864.503 121.663 864.621 119.479C864.689 119.159 864.757 118.839 864.824 118.518C865.628 118.212 866.425 117.891 867.217 117.552C867.01 119.444 866.715 121.328 866.37 123.204C866.172 123.846 865.925 124.545 865.67 125.275C865.084 125.526 864.497 125.767 863.906 125.999ZM880.663 109.368C880.124 110.958 879.618 112.56 879.119 114.164C879.427 112.767 879.706 111.364 879.958 109.955C880.196 109.763 880.43 109.566 880.663 109.368ZM890.61 97.8552C890.483 98.6019 890.336 99.3451 890.168 100.082C890.259 99.4522 890.337 98.8199 890.407 98.1874C890.476 98.0785 890.541 97.9649 890.61 97.8552ZM884.911 110.372C885.36 109.115 885.858 107.881 886.438 106.68C886.366 106.924 886.297 107.167 886.222 107.41C886.001 108.13 885.759 108.843 885.507 109.554C885.31 109.827 885.113 110.104 884.911 110.372ZM875.515 119.7C875.78 118.784 876.042 117.867 876.311 116.951C876.187 117.557 876.06 118.161 875.934 118.766C875.854 119.035 875.774 119.303 875.69 119.571C875.632 119.614 875.574 119.658 875.515 119.7ZM884.482 107.136C884.516 106.649 884.555 106.161 884.568 105.68C884.978 105.245 885.388 104.812 885.783 104.362C885.302 105.266 884.876 106.195 884.482 107.136ZM874.155 119.075C874.497 117.214 874.786 115.349 875.028 113.477C875.35 113.275 875.675 113.082 875.991 112.871C875.366 114.931 874.791 117.019 874.155 119.075ZM870.817 122.733C870.86 122.524 870.899 122.312 870.944 122.108C871.449 119.765 871.907 117.412 872.348 115.054C872.469 114.988 872.59 114.922 872.709 114.855C872.266 117.483 871.623 120.065 870.962 122.652C870.914 122.68 870.866 122.705 870.817 122.733ZM869.75 116.397C869.891 116.33 870.03 116.261 870.169 116.192C869.956 116.761 869.745 117.331 869.535 117.902C869.613 117.401 869.685 116.901 869.75 116.397ZM868.509 123.962C868.983 121.88 869.499 119.818 870.135 117.799C869.957 118.648 869.786 119.499 869.601 120.346C869.347 121.499 869.014 122.682 868.673 123.878C868.618 123.905 868.564 123.934 868.509 123.962ZM892.434 96.4881C892.461 95.8874 892.469 95.2815 892.465 94.6707C892.965 93.7435 893.448 92.8055 893.897 91.8481C893.483 93.4164 892.99 94.964 892.434 96.4881ZM895.245 74.5732C894.427 80.7121 892.426 86.7367 889.537 92.1841C889.194 92.3125 888.905 92.6259 888.885 93.1112C888.881 93.2108 888.871 93.3083 888.865 93.4076C886.652 97.334 883.97 100.927 880.932 104.007C880.294 104.653 879.645 105.284 878.979 105.883C878.894 105.96 878.806 106.032 878.721 106.108C877.699 107.009 876.648 107.855 875.566 108.646C875.247 108.878 874.927 109.108 874.604 109.332C874.403 109.472 874.198 109.606 873.995 109.742C873.808 109.866 873.622 109.995 873.435 110.116C873.367 110.159 873.299 110.199 873.233 110.243C873.235 110.222 873.235 110.201 873.237 110.18C873.231 110.203 873.228 110.225 873.225 110.248C872.878 110.469 872.532 110.687 872.181 110.899C871.937 111.046 871.69 111.189 871.445 111.333C870.998 111.593 870.548 111.845 870.093 112.091C869.578 112.369 869.058 112.639 868.534 112.9C868.523 112.716 868.502 112.533 868.486 112.351C868.469 112.551 868.443 112.752 868.425 112.952C868.21 113.059 867.993 113.164 867.776 113.267C867.685 113.31 867.598 113.355 867.507 113.397C867.217 113.534 866.924 113.666 866.632 113.796C866.322 113.934 866.013 114.07 865.704 114.202C865.318 114.368 864.929 114.529 864.539 114.686C864.372 114.753 864.204 114.821 864.033 114.886C863.863 114.953 863.691 115.021 863.519 115.087C862.589 115.441 861.649 115.772 860.701 116.083C860.591 116.12 860.478 116.155 860.366 116.191C860.013 116.306 859.66 116.417 859.303 116.525C859.315 116.388 859.32 116.25 859.329 116.112C859.293 116.258 859.259 116.404 859.222 116.55C858.782 116.683 858.341 116.813 857.897 116.938C857.689 116.998 857.48 117.058 857.27 117.115C857.146 117.149 857.021 117.182 856.897 117.215C856.656 117.278 856.417 117.342 856.178 117.404C855.542 117.567 854.904 117.723 854.266 117.871C854.176 117.893 854.087 117.913 853.997 117.933C853.636 118.015 853.273 118.097 852.908 118.175C852.754 118.208 852.6 118.241 852.443 118.274C851.916 118.384 851.385 118.491 850.856 118.592C850.378 118.684 849.9 118.772 849.421 118.857C849.291 118.88 849.159 118.904 849.028 118.926C848.826 118.876 848.612 118.905 848.441 119.025C848.302 119.048 848.164 119.072 848.026 119.094C847.647 119.155 847.269 119.214 846.892 119.272C844.839 119.584 842.785 119.841 840.746 120.056C840.443 120.087 840.138 120.119 839.835 120.149C839.364 120.196 838.893 120.241 838.424 120.284C815.163 122.402 786.413 117.003 770.971 96.6758C765.698 89.7339 762.832 81.2653 762.064 72.5219C761.65 67.8003 761.838 62.9997 762.612 58.3124C762.662 58.0094 762.725 57.7101 762.782 57.409C765.838 41.579 779.731 29.9803 792.58 23.0289C800.055 18.986 807.872 16.3835 815.997 15.5377C817.157 15.4172 818.325 15.3412 819.497 15.2932C822.033 15.1878 824.596 15.2455 827.189 15.4925C837.403 16.4713 847.359 19.6776 857.285 22.5731C858.696 23.2227 860.097 23.8911 861.48 24.592C875.185 31.5289 889.913 41.3252 894.297 57.7129C894.449 58.285 894.587 58.8617 894.715 59.4386C895.797 64.3832 895.92 69.5158 895.245 74.5732Z" fill="#0C0C22"/>
<path d="M825.134 58.1195C824.898 59.0204 826.233 59.6335 826.714 58.8654C829.363 54.6233 827.195 49.9006 825.076 45.9272C824.399 44.6534 823.602 43.3273 822.802 41.9574C823.026 41.5885 823.134 41.1518 823.069 40.6871C823.106 40.936 823.294 40.8634 823.552 40.6214C824.207 40.0039 825.32 38.2612 825.606 37.731C825.626 37.6929 825.646 37.6545 825.658 37.6305C825.537 37.8914 826.004 38.1665 826.764 38.439C827.578 38.7309 828.732 39.0187 829.871 39.2816C831.718 39.7081 833.52 40.0669 833.743 40.2677C834.439 40.8899 834.755 41.7196 834.832 42.6608C835.065 45.5023 833.115 49.3716 832.818 51.7204C832.685 52.759 833.116 53.5973 833.766 54.1222C833.446 55.4613 833.103 56.7944 832.714 58.1076C832.561 58.6239 833.071 59.2413 833.554 58.8312C835.201 57.437 836.672 55.8131 838.45 54.605C839.783 53.701 841.282 52.2647 841.893 50.6768C843.069 47.621 843.332 43.2337 845.201 40.4805C845.592 40.2375 845.934 39.8824 846.163 39.3932C846.171 39.3741 846.178 39.3557 846.187 39.3377C846.212 39.3155 846.232 39.2904 846.256 39.2688C848.083 37.6875 850.182 36.6675 851.84 34.8328C852.506 34.0959 852.78 33.262 852.799 32.4083C852.804 32.1984 852.794 31.9887 852.77 31.7776C852.707 31.2397 852.559 30.7006 852.346 30.1817C851.964 29.247 851.389 28.3739 850.802 27.6778C849.932 26.648 848.667 26.4542 847.641 26.8346C847.651 26.8076 847.661 26.7807 847.673 26.7549C847.908 26.6295 848.122 26.5727 848.299 26.5478C848.282 26.545 848.277 26.5458 848.259 26.5427C847.75 26.4626 847.245 26.3467 846.74 26.2387C845.445 25.961 844.171 25.6007 842.858 25.4489C839.842 25.101 836.902 24.583 833.92 24.0077C831.656 23.5719 829.896 23.014 827.471 23.1909C826.287 23.2783 825.113 23.4317 823.947 23.6203C823.292 23.5705 822.636 23.5343 821.98 23.5055C820.254 23.839 818.573 24.3504 816.958 25.0516C816.498 25.1535 816.04 25.2552 815.579 25.3543C814.709 25.5439 813.791 26.0998 813.378 26.9698C813.256 27.2281 813.174 27.5117 813.156 27.8236C812.818 33.8829 815.621 38.8358 818.902 43.5484C821.7 47.5662 826.576 52.6254 825.134 58.1195ZM838.929 40.6165C839.465 38.8612 840.174 37.1855 840.781 35.465C841.368 33.8062 841.927 31.805 843.27 30.7098C845.134 29.1935 847.042 32.0525 845.786 33.8079C845.303 34.4824 844.834 34.6286 844.179 35.0456C843.52 35.4658 842.891 36.0323 842.334 36.5979C841.145 37.8006 840.313 39.3073 839.692 40.9063C839.517 41.3596 838.785 41.0842 838.929 40.6165ZM833.532 29.7208C833.699 26.8466 837.612 28.2514 836.42 30.4188C835.425 32.2254 834.994 34.2627 834.489 36.2908C834.297 37.0586 833.083 37.0171 833.125 36.1612C833.229 34.0117 833.406 31.8464 833.532 29.7208ZM826.918 26.7885C827.453 27.6076 827.57 28.9426 827.682 29.9303C827.823 31.162 828.076 32.3745 828.21 33.6067C828.286 34.3088 827.193 34.4891 827.057 33.7989C826.802 32.5129 826.513 31.243 826.003 30.0432C825.639 29.1893 825.148 28.3089 825.047 27.3787C824.924 26.2454 826.393 25.9837 826.918 26.7885ZM819.442 28.4464C820.096 29.0961 820.694 29.8303 821.206 30.6093C821.766 31.4557 822.121 32.3645 822.533 33.2973C822.78 33.8583 822.032 34.4756 821.654 33.9392C820.667 32.5374 819.197 31.421 817.818 30.4794C816.294 29.4381 818.071 27.0824 819.442 28.4464Z" fill="#0C0C22"/>
<path d="M890.789 61.5097C890.093 59.8407 888.945 58.5899 887.893 56.9995C887.693 56.6953 887.471 56.4093 887.244 56.1285C887.198 56.0723 887.153 56.0139 887.104 55.9557C885.304 53.8186 882.862 52.274 881.397 49.8424C881.295 49.6756 881.205 49.5047 881.117 49.3334C880.884 48.8684 880.695 48.3971 880.521 47.9285C879.954 46.3997 879.511 44.9249 877.93 44.0027C877.921 43.9983 877.913 43.9948 877.905 43.9895C876.009 42.89 873.955 42.4129 871.879 42.384C869.279 42.3489 866.645 43.0152 864.239 44.0543C861.124 45.3998 858.314 47.8599 855.952 50.3524C854.616 51.7636 853.206 53.0979 851.811 54.4482C847.363 56.52 842.42 57.2027 838.69 60.9177C838.464 61.1434 838.341 61.3913 838.298 61.6402C838.284 61.723 838.278 61.8056 838.28 61.8877C838.317 62.8727 839.53 63.7496 840.504 63.1331C840.831 62.9276 841.155 62.7413 841.478 62.5637C844.935 60.6561 848.292 60.2178 852.173 59.3307C852.203 59.325 852.231 59.3155 852.259 59.3092C856.462 58.3035 860.246 54.0576 864.464 52.576C865.427 52.2366 866.414 52.0424 867.434 52.0651C867.491 52.0658 867.547 52.0682 867.603 52.0709C867.945 52.087 868.29 52.1242 868.641 52.1911C868.66 52.2893 868.688 52.3873 868.712 52.4852C868.816 52.9207 868.961 53.3584 869.138 53.7994C870.107 56.2049 871.994 58.6746 873.153 61.0248C873.205 61.1273 873.255 61.2298 873.303 61.3318C873.388 61.5134 873.468 61.694 873.543 61.8737C873.303 62.1053 873.071 62.3189 872.841 62.5221C872.778 62.5786 872.716 62.6286 872.655 62.6837C870.016 64.9742 868.058 65.4507 865.186 65.4593C864.196 65.4634 863.098 65.4119 861.82 65.3619C861.623 65.3535 861.426 65.3365 861.229 65.3235C858.206 65.1325 855.229 64.4501 852.188 64.3879C851.361 64.3715 850.695 64.4051 850.164 64.48C846.874 64.9424 849.003 66.9893 852.747 68.4569C855.288 69.4532 857.905 70.2485 860.52 70.9925C865.744 72.4796 871.074 73.5734 876.255 75.223C878.898 76.0644 881.823 78.0772 884.614 78.1258C887.551 78.1782 889.342 75.3682 890.173 72.7233C891.118 69.7109 891.829 66.5195 891.31 63.3466C891.201 62.6694 891.019 62.0671 890.789 61.5097ZM872.8 52.9782C871.611 52.8596 871.613 50.9042 872.797 50.7716C873.533 50.6879 873.779 50.5068 874.394 49.9412C874.896 49.4815 875.71 49.6377 876.099 50.1699C876.534 50.7637 876.366 51.4978 875.881 51.9788C875.029 52.8249 873.944 53.092 872.8 52.9782ZM875.804 59.5842C874.629 59.2722 874.994 57.2759 876.187 57.3868C877.112 57.4738 878.012 57.4948 878.925 57.2839C879.545 57.1406 880.229 56.8878 880.862 56.9177C881.834 56.9661 882.665 58.3205 881.976 59.2196C880.548 61.0901 877.661 60.0774 875.804 59.5842ZM883.156 71.7097C880.951 71.1419 879.14 69.4582 877.04 68.5976C875.82 68.0973 876.334 66.1638 877.625 66.5166C879.783 67.1038 881.827 68.2295 883.888 69.1078C885.403 69.7538 884.781 72.1276 883.156 71.7097Z" fill="#0C0C22"/>
<path d="M878.382 85.2771C878.342 85.2078 878.303 85.1347 878.261 85.0668C871.028 73.2503 854.782 76.4182 843.923 72.6483C842.552 72.1725 841.799 74.2532 843.122 74.8647C848.058 77.1418 853.343 78.4724 858.422 80.3313C861.777 81.5569 866.328 83.5228 868.622 86.903C868.356 86.8756 868.087 86.8575 867.814 86.8508C866.247 86.8124 865.101 88.0423 865.262 89.7215C865.269 89.7913 865.282 89.8576 865.291 89.9277C864.753 90.2004 864.305 90.6798 864.128 91.256C864.068 91.4534 863.98 91.6635 863.876 91.882C863.809 92.0206 863.736 92.1628 863.654 92.3093C862.916 93.6296 861.632 95.2289 860.781 96.7956C859.947 95.596 859.106 94.4018 858.258 93.2079C854.751 88.2625 851.108 83.9545 846.293 80.5197C845.366 79.0654 844.376 77.6644 843.256 76.3742C841.604 74.468 838.208 76.3746 839.444 78.8801C839.993 79.9933 840.589 81.1592 841.228 82.3251C845.885 91.6304 850.439 102.527 859.454 107.23C860.077 107.555 860.711 107.435 861.216 107.073C861.43 107.168 861.658 107.238 861.894 107.269C862.369 107.333 862.851 107.33 863.335 107.283C863.777 107.5 864.248 107.655 864.751 107.724C866.242 107.931 867.167 107.061 867.735 105.843C868.649 105.396 869.523 104.91 870.324 104.484C873.672 102.71 876.904 100.627 879.992 98.3872C882.618 96.483 884.128 94.2733 882.702 90.6989C881.934 88.7796 880.321 86.6562 878.382 85.2771ZM858.777 102.979C858.596 103.506 858.229 103.732 857.708 103.666C856.815 103.553 856.469 102.322 856.284 101.521C856.087 100.671 856.031 99.8245 856.086 98.9532C856.161 97.7436 857.792 97.6598 857.876 98.896C857.928 99.6555 858.066 100.425 858.323 101.138C858.546 101.758 859.015 102.282 858.777 102.979ZM865.482 103.155C865.097 103.592 864.386 103.645 863.978 103.209C863.231 102.409 862.855 101.416 862.586 100.339C862.265 99.0387 864.001 98.5239 864.452 99.7483C864.691 100.401 865.037 101.051 865.434 101.562C865.801 102.035 865.916 102.663 865.482 103.155ZM869.758 99.6115C869.17 98.9897 868.87 98.0424 868.456 97.2859C867.975 96.4064 867.437 95.6325 866.814 94.8609C866.462 94.4259 867.051 93.7108 867.47 94.1098C868.222 94.8268 869.01 95.4363 869.819 96.0772C870.589 96.6845 871.436 97.244 871.899 98.1618C872.63 99.6078 870.726 100.634 869.758 99.6115ZM875.946 91.3896C874.994 91.0226 874.018 90.9437 872.996 90.8674C871.793 90.7771 871.782 88.6683 872.995 88.6084C874.21 88.5467 875.452 88.5102 876.663 88.6265C878.589 88.8123 877.881 92.1394 875.946 91.3896Z" fill="#0C0C22"/>
<path d="M833.675 88.8171C832.731 85.6243 831.838 82.3303 831.736 78.9651C831.689 77.4166 829.609 77.3508 829.076 78.5883C827.914 81.2923 826.722 84.1921 825.701 87.1843C824.882 85.3188 822.518 85.4247 821.684 87.2185C820.341 90.107 818.492 91.7214 816.231 88.6699C815.536 87.7318 814.405 87.579 813.504 88.0743C814.095 85.5522 814.856 83.0998 816.196 81.0208C816.665 80.9126 817.09 80.8045 817.432 80.6847C820.136 79.7347 822.158 77.3507 823.718 74.7186C824.307 74.4831 824.511 73.9481 824.439 73.432C824.943 72.4775 825.395 71.5167 825.799 70.6022C826.46 69.1004 824.451 67.9996 823.513 69.2023C822.131 70.9695 820.272 72.2777 818.204 73.3257C817.948 73.4159 817.69 73.5062 817.436 73.6043C816.717 73.0857 815.804 72.9099 814.862 73.3996C813.879 73.9098 812.903 74.4307 811.926 74.9565C811.312 74.5907 810.54 74.4978 809.675 74.8976C801.989 78.6927 794.182 80.643 788.07 87.3055C787.396 88.0423 787.249 88.857 787.434 89.5985C785.566 92.0038 784.542 94.8488 785.458 98.1404C786.519 101.953 791.609 102.943 794.726 103.625C799.485 104.665 802.743 106.004 806.015 109.998C808.773 113.368 811.656 115.716 815.89 116.489C820.082 117.252 824.418 115.531 828.646 114.787C829.149 114.699 829.649 114.623 830.148 114.569C831.977 114.368 833.778 114.43 835.533 115.043C836.543 115.397 837.881 115.265 838.513 114.204C841.294 109.549 838.763 103.398 836.873 98.921C835.525 95.7219 834.664 92.1623 833.675 88.8171ZM796.538 92.972C796.199 93.4196 796.077 93.8561 795.656 94.2376C794.833 94.9859 793.162 94.2577 793.661 92.9745C794.181 91.6375 795.637 90.5892 796.832 89.9263C798.169 89.187 799.543 88.511 800.897 87.7984C801.385 87.5418 801.767 88.2752 801.304 88.5819C800.041 89.422 798.941 90.3107 797.884 91.4268C797.417 91.92 796.95 92.4266 796.538 92.972ZM804.202 94.1528C803.321 95.4533 802.799 96.8712 802.398 98.4069C802.107 99.5301 802.036 101.026 801.246 101.878C800.519 102.662 799.225 102.128 799.033 101.113C798.784 99.7778 799.919 98.123 800.572 97.0407C801.364 95.7279 802.216 94.4124 803.215 93.2668C803.721 92.6873 804.63 93.5211 804.202 94.1528ZM812.421 96.6248C810.818 99.6375 810.304 102.927 809.89 106.306C809.637 108.358 806.381 107.626 806.955 105.677C807.983 102.195 809.386 98.8701 811.3 95.8349C811.731 95.1525 812.795 95.9202 812.421 96.6248ZM818.117 109.842C817.396 106.524 818.382 103.042 818.007 99.6791C817.907 98.7996 819.079 98.442 819.3 99.3471C820.033 102.359 819.867 105.787 820.958 108.683C821.8 110.919 818.605 112.094 818.117 109.842ZM828.543 106.653C827.532 105.647 827.245 103.657 827.013 102.282C826.742 100.685 826.628 99.0877 826.575 97.4669C826.537 96.2975 828.234 96.2637 828.449 97.3413C828.985 100.005 830.071 102.37 831.045 104.853C831.722 106.579 829.8 107.904 828.543 106.653Z" fill="#0C0C22"/>
<path d="M806.286 70.4175C810.041 68.7361 813.892 67.702 817.772 66.4554C819.732 65.8255 819.988 62.4038 817.595 62.3527C816.554 62.33 815.497 62.3993 814.437 62.5175C814.608 61.93 814.367 61.2434 813.607 61.2307C811.191 61.1935 808.819 60.7835 806.401 60.9398C803.734 61.1138 801.404 61.9585 798.888 62.8601C797.849 63.2334 796.779 63.6366 795.687 64.0277C795.69 63.8535 795.681 63.6875 795.66 63.5277C795.66 63.5157 795.655 63.5032 795.654 63.4902C795.538 62.6952 795.118 62.0728 794.501 61.6588C794.248 61.4894 793.962 61.3544 793.649 61.2582C794.014 61.0059 794.328 60.764 794.602 60.5106C795.483 59.702 795.953 58.7866 796.28 57.1127C796.28 57.1101 796.28 57.1066 796.282 57.1041C796.335 56.8334 796.267 56.284 796.163 55.608C796.015 54.6458 795.794 53.431 795.729 52.3932C795.718 52.1967 795.713 52.0083 795.713 51.8277C795.715 51.3785 795.764 50.992 795.881 50.7057C795.999 50.4165 796.181 50.2243 796.464 50.1945C797.349 50.1013 797.952 49.5702 798.273 48.8727C798.664 49.0412 799.052 49.2152 799.439 49.3908C802.958 52.2905 807.013 54.7227 810.244 57.4396C811.136 58.1902 812.195 58.0069 812.986 57.3969C813.085 57.5645 813.187 57.7295 813.285 57.8983C813.867 58.9002 815.54 58.5713 815.273 57.237C814.114 51.4751 810.988 46.0334 807.579 41.465C806.027 39.3849 804.141 37.2194 801.986 35.5621C801.095 33.5944 799.619 32.0805 797.282 31.9691C797.119 31.9619 796.96 31.9707 796.8 31.9757C795.744 32.0102 794.73 32.3078 793.766 32.7899C793.749 32.7926 793.731 32.7904 793.711 32.7931C792.98 32.8725 792.431 33.2914 792.054 33.8574C791.445 34.3093 790.86 34.8124 790.303 35.3454C789.195 36.4042 788.194 37.5665 787.321 38.605C783.786 42.8228 780.82 47.5617 778.286 52.517C778.173 52.7346 778.059 52.9581 777.939 53.1862C777.137 53.8527 776.349 54.5593 775.58 55.3214C772.13 58.7376 770.89 63.7707 770.748 68.6358C770.658 71.6551 771.369 75.0779 773.336 77.3371C773.133 78.9414 774.08 80.7989 775.773 80.7144C782.914 80.3584 789.409 78.1869 795.954 75.2426C799.417 73.6826 802.818 71.9699 806.286 70.4175ZM798.977 36.84C800.195 38.9858 801.657 41.0971 802.557 43.4407C802.878 44.2783 801.711 44.8698 801.351 44.0387C800.862 42.9129 800.289 41.7916 799.525 40.8466C798.745 39.8827 797.986 39.2701 796.999 38.5886C795.307 37.4235 797.77 34.7168 798.977 36.84ZM790.826 40.4056C790.874 40.1504 790.953 39.9684 791.095 39.759C791.434 39.2596 792.096 39.1532 792.605 39.3723C794.492 40.1846 796.014 42.3072 797.159 44.017C797.589 44.6589 796.732 45.2826 796.252 44.7265C794.918 43.1827 793.254 42.767 791.567 41.8402C791.075 41.5711 790.714 41.0173 790.826 40.4056ZM782.038 49.6081C785.11 48.9326 788.805 49.988 791.611 51.3051C792.256 51.6074 792.059 52.8071 791.303 52.6386C789.791 52.3007 788.336 52.2374 786.798 52.1939C785.266 52.1495 783.581 52.3652 782.093 52.0011C780.874 51.7033 780.712 49.9003 782.038 49.6081ZM777.771 60.4464C781.019 59.1861 784.468 58.6426 787.786 57.637C788.694 57.3618 789.364 58.8445 788.463 59.29C785.248 60.8785 781.852 61.9503 778.542 63.2882C776.866 63.9653 776.082 61.1015 777.771 60.4464ZM780.722 71.2907C779.761 71.9472 779.1 72.9119 778.129 73.523C777.178 74.1223 775.585 73.2548 776.02 71.9455C777.664 67.0027 784.974 67.8947 788.285 64.9504C788.805 64.4874 789.42 65.3713 789.019 65.876C787.654 67.5953 785.974 68.7423 784.036 69.6202C782.918 70.1262 781.746 70.5886 780.722 71.2907ZM792.937 70.1855C792.17 70.9393 791.351 71.6205 790.617 72.415C789.957 73.1277 789.356 73.895 788.697 74.606C787.409 75.9976 785.558 73.8878 786.741 72.4635C788.121 70.8021 790.421 70.2098 792.156 69.06C792.8 68.6339 793.485 69.6494 792.937 70.1855Z" fill="#0C0C22"/>
<path d="M839.692 40.9063C840.313 39.3073 841.145 37.8003 842.333 36.5979C842.891 36.0326 843.52 35.466 844.179 35.0456C844.834 34.6283 845.302 34.4824 845.786 33.8079C847.042 32.0525 845.133 29.1935 843.27 30.7098C841.926 31.805 841.368 33.8062 840.781 35.465C840.173 37.1855 839.464 38.8612 838.929 40.6165C838.785 41.0842 839.517 41.3596 839.692 40.9063Z" fill="white"/>
<path d="M834.489 36.2905C834.994 34.2624 835.425 32.2254 836.42 30.4186C837.612 28.2514 833.699 26.8464 833.532 29.7205C833.406 31.8464 833.229 34.0114 833.125 36.1609C833.084 37.0169 834.297 37.0583 834.489 36.2905Z" fill="white"/>
<path d="M826.003 30.0432C826.513 31.2433 826.802 32.513 827.057 33.799C827.193 34.4894 828.286 34.3089 828.211 33.6067C828.075 32.3745 827.823 31.1617 827.682 29.9303C827.57 28.9426 827.453 27.6076 826.918 26.7885C826.393 25.9837 824.925 26.2451 825.048 27.3787C825.148 28.3089 825.64 29.1893 826.003 30.0432Z" fill="white"/>
<path d="M821.654 33.9389C822.032 34.4755 822.78 33.858 822.533 33.297C822.121 32.3639 821.766 31.4554 821.206 30.609C820.694 29.83 820.096 29.0957 819.442 28.4461C818.071 27.0821 816.294 29.4378 817.818 30.4788C819.197 31.421 820.667 32.5371 821.654 33.9389Z" fill="white"/>
<path d="M796.999 38.5886C797.986 39.2701 798.745 39.8827 799.525 40.8467C800.289 41.7917 800.863 42.913 801.351 44.0387C801.711 44.8698 802.878 44.2783 802.557 43.4407C801.657 41.0968 800.195 38.9858 798.977 36.84C797.771 34.7168 795.307 37.4235 796.999 38.5886Z" fill="white"/>
<path d="M791.567 41.8402C793.254 42.767 794.918 43.1827 796.252 44.7266C796.732 45.2826 797.589 44.6589 797.159 44.017C796.014 42.3069 794.492 40.1846 792.605 39.3723C792.096 39.1535 791.434 39.2597 791.095 39.7591C790.953 39.9682 790.874 40.1504 790.826 40.4056C790.714 41.0174 791.075 41.5711 791.567 41.8402Z" fill="white"/>
<path d="M782.093 52.0011C783.581 52.3649 785.266 52.1496 786.798 52.1939C788.335 52.2375 789.79 52.3008 791.303 52.6386C792.059 52.8074 792.256 51.6077 791.611 51.3051C788.805 49.9881 785.11 48.9326 782.037 49.6081C780.712 49.9003 780.874 51.7033 782.093 52.0011Z" fill="white"/>
<path d="M778.542 63.2882C781.852 61.9502 785.248 60.8785 788.463 59.29C789.365 58.8445 788.694 57.3618 787.787 57.637C784.468 58.6426 781.019 59.1861 777.771 60.4464C776.083 61.1015 776.866 63.9653 778.542 63.2882Z" fill="white"/>
<path d="M789.02 65.8763C789.421 65.3716 788.806 64.4877 788.286 64.9506C784.974 67.895 777.664 67.0029 776.02 71.9458C775.585 73.2547 777.179 74.1226 778.13 73.5233C779.101 72.9122 779.762 71.9475 780.722 71.291C781.747 70.5889 782.918 70.1265 784.036 69.6205C785.974 68.7426 787.654 67.5955 789.02 65.8763Z" fill="white"/>
<path d="M792.156 69.0597C790.421 70.2096 788.121 70.8018 786.741 72.4633C785.558 73.8875 787.41 75.9973 788.698 74.6058C789.356 73.895 789.957 73.1275 790.617 72.4147C791.352 71.6202 792.171 70.939 792.938 70.1852C793.485 69.6494 792.8 68.6339 792.156 69.0597Z" fill="white"/>
<path d="M800.897 87.7983C799.543 88.5106 798.168 89.187 796.832 89.9263C795.637 90.5892 794.18 91.6375 793.661 92.9745C793.163 94.2576 794.833 94.9859 795.656 94.2376C796.077 93.8561 796.199 93.4198 796.537 92.972C796.95 92.4265 797.417 91.9203 797.883 91.4267C798.941 90.3106 800.04 89.422 801.304 88.5819C801.766 88.2752 801.385 87.5418 800.897 87.7983Z" fill="white"/>
<path d="M803.216 93.2664C802.217 94.412 801.364 95.7275 800.572 97.0403C799.92 98.1226 798.785 99.7775 799.034 101.112C799.226 102.128 800.519 102.661 801.247 101.878C802.037 101.026 802.107 99.53 802.399 98.4065C802.8 96.8708 803.322 95.4529 804.202 94.1524C804.631 93.521 803.721 92.6872 803.216 93.2664Z" fill="white"/>
<path d="M811.3 95.8345C809.386 98.8697 807.983 102.195 806.955 105.677C806.381 107.625 809.637 108.358 809.89 106.306C810.304 102.926 810.818 99.6375 812.421 96.6245C812.795 95.9202 811.731 95.1525 811.3 95.8345Z" fill="white"/>
<path d="M819.3 99.3471C819.079 98.4419 817.907 98.7996 818.007 99.6791C818.382 103.042 817.396 106.524 818.117 109.841C818.605 112.094 821.8 110.919 820.958 108.683C819.867 105.787 820.033 102.359 819.3 99.3471Z" fill="white"/>
<path d="M828.449 97.3413C828.234 96.2637 826.538 96.2974 826.575 97.4668C826.628 99.0877 826.742 100.685 827.013 102.282C827.245 103.657 827.532 105.647 828.543 106.653C829.8 107.904 831.722 106.579 831.045 104.852C830.071 102.369 828.985 100.005 828.449 97.3413Z" fill="white"/>
<path d="M857.876 98.896C857.792 97.6601 856.162 97.7436 856.086 98.9532C856.032 99.8245 856.087 100.671 856.285 101.521C856.469 102.322 856.815 103.553 857.708 103.666C858.229 103.732 858.597 103.506 858.777 102.979C859.016 102.282 858.547 101.758 858.324 101.137C858.065 100.424 857.928 99.6552 857.876 98.896Z" fill="white"/>
<path d="M864.452 99.7483C864.001 98.5239 862.265 99.0387 862.587 100.339C862.855 101.416 863.231 102.409 863.978 103.21C864.386 103.645 865.097 103.592 865.482 103.155C865.916 102.663 865.801 102.035 865.434 101.562C865.037 101.051 864.691 100.401 864.452 99.7483Z" fill="white"/>
<path d="M869.819 96.0772C869.01 95.4364 868.222 94.8269 867.47 94.1098C867.052 93.7109 866.462 94.4259 866.814 94.8609C867.437 95.6323 867.975 96.4062 868.457 97.2859C868.87 98.0425 869.17 98.99 869.758 99.6116C870.726 100.634 872.63 99.6078 871.899 98.1621C871.436 97.2443 870.589 96.6848 869.819 96.0772Z" fill="white"/>
<path d="M876.663 88.6265C875.452 88.5102 874.21 88.5468 872.995 88.6084C871.782 88.6684 871.793 90.7771 872.996 90.8674C874.019 90.944 874.995 91.0227 875.946 91.3896C877.881 92.1394 878.589 88.8123 876.663 88.6265Z" fill="white"/>
<path d="M883.887 69.1081C881.827 68.2298 879.783 67.1041 877.625 66.5169C876.334 66.1641 875.82 68.0977 877.04 68.5979C879.14 69.4582 880.951 71.1422 883.156 71.7101C884.781 72.1276 885.403 69.7539 883.887 69.1081Z" fill="white"/>
<path d="M881.977 59.2199C882.665 58.3209 881.834 56.9664 880.863 56.9181C880.23 56.8881 879.546 57.1407 878.926 57.2842C878.012 57.4952 877.113 57.4739 876.188 57.3872C874.995 57.2763 874.629 59.2726 875.805 59.5846C877.661 60.0774 880.548 61.0902 881.977 59.2199Z" fill="white"/>
<path d="M876.098 50.1697C875.71 49.6375 874.896 49.4812 874.394 49.941C873.779 50.5065 873.533 50.6876 872.797 50.7713C871.613 50.9039 871.611 52.8593 872.8 52.9779C873.944 53.0917 875.029 52.8246 875.881 51.9782C876.366 51.4976 876.534 50.7635 876.098 50.1697Z" fill="white"/>
<path d="M500.716 76.4113C500.406 74.8547 499.931 73.3512 499.34 71.8893C499.024 71.11 498.668 70.3471 498.282 69.5923C497.143 67.3619 495.712 65.2392 494.079 63.2039C493.623 62.6347 493.151 62.074 492.666 61.519C492.226 61.0158 491.779 60.5188 491.318 60.0282C490.826 59.5045 490.324 58.985 489.812 58.4716C488.957 57.6157 488.074 56.7744 487.174 55.9475C486.695 55.5083 486.21 55.0732 485.722 54.6411C484.831 53.8543 483.934 53.0771 483.022 52.3141C482.462 51.8419 481.9 51.3768 481.335 50.9142C480.917 50.5696 480.5 50.2315 480.08 49.8911C479.631 49.5285 479.186 49.1652 478.739 48.8064C478.283 48.4414 477.829 48.0761 477.378 47.7156C477.294 47.6465 477.21 47.5773 477.126 47.5096C476.53 47.0312 475.94 46.5519 475.357 46.0701C474.606 45.4495 473.866 44.8248 473.138 44.1976C472.693 43.8139 472.254 43.4285 471.818 43.0428C463.411 35.6025 456.753 27.6348 453.039 17.5297C451.894 14.4138 450.038 8.55561 445.013 8.26554C444.026 8.20902 443.126 8.40887 442.296 8.77282C442.334 7.85938 442.379 6.94797 442.443 6.03657C442.47 5.65084 442.193 5.36417 441.826 5.19122C441.803 4.94473 441.79 4.69722 441.765 4.45073C441.608 2.91663 439.698 2.6538 438.621 3.40553C437.679 3.03205 436.343 3.43855 436.327 4.58725C436.297 6.61399 436.084 8.63732 435.935 10.66C435.594 10.026 435.24 9.39585 434.864 8.7752C434.422 8.04118 432.983 7.57918 432.296 8.42487C430.361 10.8013 429.653 12.9758 428.335 15.5585C427.891 16.431 427.063 17.3887 426.139 18.2794C425.953 18.4588 425.765 18.6362 425.572 18.8084C425.171 18.6631 424.678 18.693 424.302 19.0427C424.277 19.0651 424.252 19.088 424.225 19.1108C423.701 19.5963 423.156 20.0675 422.616 20.5417C421.979 21.1045 421.337 21.6615 420.683 22.2086C420.228 22.5923 419.771 22.9746 419.309 23.3518C418.76 23.7992 418.204 24.2408 417.648 24.681C416.759 25.381 415.865 26.0738 414.96 26.7584C414.416 27.1711 413.871 27.5844 413.32 27.9926C412.719 28.4393 412.109 28.8825 411.5 29.3258C411.001 29.6887 410.505 30.0537 410.003 30.4156C409.668 30.657 409.33 30.895 408.994 31.1364C408.499 31.4887 408.007 31.8425 407.513 32.1938C406.886 32.6412 406.258 33.0879 405.628 33.5345C405.085 33.9189 404.543 34.3036 404.001 34.6894C403.831 34.8092 403.665 34.9294 403.495 35.0492C403.034 35.3761 402.576 35.7039 402.118 36.0321C400.698 37.0457 399.287 38.0633 397.887 39.0942C397.309 39.5211 396.735 39.9549 396.161 40.3869C394.793 41.4151 393.441 42.4552 392.118 43.5194C391.672 43.8783 391.236 44.2463 390.796 44.6103C389.262 45.8774 387.765 47.1753 386.322 48.518C385.866 48.9426 385.419 49.3739 384.975 49.8056C383.242 51.4892 381.594 53.248 380.05 55.0936C379.932 55.2339 379.807 55.37 379.689 55.512C379.608 55.6121 379.519 55.7057 379.438 55.8048C379.154 56.1565 378.877 56.5119 378.603 56.8701C378.246 57.3328 377.899 57.8009 377.564 58.2731C376.91 59.1927 376.293 60.1289 375.722 61.0815C375.449 61.5333 375.189 61.9868 374.937 62.4447C374.381 63.4572 373.88 64.4881 373.428 65.5316C373.108 66.2718 372.818 67.0205 372.555 67.7753C371.348 71.254 370.781 74.8687 371.078 78.5412C371.831 87.8063 379.317 95.6872 387.25 101.81C394.927 107.733 403.479 113.601 413.905 115.751C417.231 116.437 420.706 116.828 424.24 117.058C424.139 117.465 424.054 117.882 423.975 118.372C423.952 118.508 423.955 118.647 423.966 118.783C423.413 119.706 422.959 120.739 422.991 121.688C423.014 122.428 423.976 122.582 424.484 122.197C424.563 123.298 424.856 124.373 425.352 125.255C425.854 126.154 426.348 127.032 426.834 127.906C426.598 128.149 426.369 128.393 426.124 128.637C422.991 131.769 420.513 134.819 419.595 138.848C419.497 139.273 420.348 139.428 420.5 139.015C421.841 135.308 424.683 132.313 427.639 129.385C428.465 130.931 429.234 132.497 429.894 134.18C430.15 134.835 428.218 136.507 427.718 137.5C426.893 139.142 427.392 141.292 428.469 142.735C428.817 143.201 429.608 142.983 429.56 142.444C429.356 140.217 429.002 137.947 430.507 136.054C430.554 138.05 430.985 140.005 431.856 141.641C432.004 141.92 432.437 141.773 432.541 141.564C434.597 137.46 432.993 132.959 435 128.849C435.987 130.096 436.936 131.346 437.713 132.651C436.922 135.925 436.729 139.223 437.117 142.556C437.135 142.712 437.446 142.691 437.451 142.537C437.525 139.968 438.129 137.459 438.848 134.965C439.524 136.747 439.773 138.675 439.284 140.869C439.157 141.452 440.193 141.634 440.382 141.064C441.436 137.856 441.146 135.089 439.64 132.299C439.983 131.171 440.318 130.042 440.611 128.909C440.699 128.564 440.79 128.211 440.881 127.853C443.333 130.14 445.266 132.643 445.64 135.837C445.704 136.366 446.781 136.34 446.788 135.806C446.843 131.499 444.284 128.556 441.362 125.766C441.502 125.069 441.616 124.364 441.684 123.659C442.936 126.445 444.442 129.401 446.545 131.821C446.779 132.088 447.208 131.855 447.26 131.61C447.766 129.176 446.793 126.727 445.731 124.459C445.311 123.56 444.626 122.563 443.977 121.533C444.014 121.547 444.045 121.561 444.082 121.574C449.962 123.9 452.589 127.143 450.089 132.481C449.801 133.093 450.962 133.379 451.264 132.787C453.14 129.084 452.58 125.933 450.674 123.199C451.915 123.92 452.927 124.823 453.6 125.99C455.474 129.23 454.578 133.161 453.616 136.485C452.656 139.809 451.987 143.271 450.688 146.496C450.415 147.166 451.663 147.564 451.942 146.893C454.692 140.281 459.152 133.298 456.205 126.052C454.9 122.837 452.716 119.111 448.684 117.661C448.51 117.598 448.335 117.545 448.158 117.489C463.87 117.554 480.691 115.873 491.485 105.584C499.524 97.9209 502.681 86.2082 500.716 76.4113ZM421.28 24.6881C421.379 25.0596 421.468 25.4347 421.577 25.8038C422.08 27.5316 422.711 30.292 424.882 31.1445C424.072 32.0583 423.224 32.9581 422.353 33.8563C422.412 32.4767 421.527 30.7343 421.209 29.6693C420.821 28.3732 420.447 27.07 420.061 25.7711C420.468 25.4099 420.876 25.0511 421.28 24.6881ZM418.199 27.4247C418.408 28.5155 418.612 29.6074 418.828 30.6948C419.079 31.9736 419.15 34.6911 420.983 35.2532C420.425 35.8193 419.862 36.3862 419.302 36.9585C418.687 35.3553 417.421 33.6479 416.881 32.2892C416.505 31.3447 416.165 30.3877 415.836 29.43C416.627 28.763 417.419 28.0992 418.199 27.4247ZM410.917 33.5199C410.976 33.7157 411.03 33.9118 411.089 34.1079C411.706 36.0771 412.294 38.4228 413.762 40.1064C414.456 40.8993 416.268 40.2929 415.735 39.3312C414.444 36.9977 413.43 34.6152 412.527 32.1962C413.038 31.7747 413.55 31.3549 414.061 30.9311C414.304 31.8428 414.562 32.7532 414.841 33.6585C415.283 35.0925 415.855 37.7187 417.386 38.9601C416.236 40.2218 415.177 41.525 414.167 42.8511C413.761 40.981 412.141 38.83 411.479 37.2319C411.046 36.1904 410.629 35.1452 410.211 34.1007C410.448 33.9077 410.681 33.714 410.917 33.5199ZM429.054 122.386C428.941 121.874 428.873 121.34 428.898 120.812C429.211 120.755 429.513 120.71 429.803 120.68C430.084 121.513 430.449 122.311 430.873 123.08C430.751 123.264 430.624 123.447 430.49 123.626C430.098 124.15 429.698 124.654 429.292 125.151C429.272 124.227 429.254 123.301 429.054 122.386ZM432.33 128.458C431.769 129.432 431.334 130.526 431.028 131.677C430.642 130.669 430.152 129.673 429.791 128.733C429.646 128.35 429.553 127.962 429.483 127.572C430.295 126.792 431.238 125.95 432.103 125.052C432.532 125.669 432.981 126.275 433.444 126.873C433.037 127.367 432.656 127.889 432.33 128.458ZM434.585 125.61C434.292 125.194 434.017 124.769 433.779 124.321C433.702 124.175 433.591 123.841 433.489 123.428C433.766 123.05 434.006 122.662 434.206 122.268C434.868 122.843 435.556 123.409 436.247 123.968C435.696 124.509 435.131 125.05 434.585 125.61ZM438.346 130.256C437.595 129.244 436.744 128.304 435.932 127.342C435.964 127.302 435.987 127.26 436.018 127.221C436.597 126.478 437.171 125.804 437.718 125.155C438.239 125.575 438.754 125.998 439.263 126.425C439.019 127.711 438.693 128.988 438.346 130.256ZM436.728 121.267C437.454 120.973 438.076 120.521 438.412 119.973C438.684 120.018 438.958 120.063 439.233 120.107C438.854 120.933 438.346 121.668 437.765 122.356C437.409 122 437.064 121.637 436.728 121.267ZM439.609 123.814C439.602 123.909 439.591 124.005 439.582 124.101C439.387 123.919 439.19 123.736 438.997 123.553C439.23 123.241 439.448 122.921 439.655 122.6C439.646 123 439.637 123.404 439.609 123.814ZM456.599 114.415C468.733 109.567 477.163 100.315 477.893 88.8686C477.918 88.4706 477.081 88.427 477.045 88.8229C476.035 99.1622 466.587 107.606 455.566 112.336C462.662 106.421 466.979 97.0838 468.801 90.0513C473.288 72.7309 463.964 58.4757 455.884 43.0309C455.827 42.9216 455.625 42.9853 455.673 43.0966C461.741 56.9784 470.397 70.5449 467.959 85.7095C466.97 91.8595 464.683 98.02 461.036 103.46C457.494 108.742 452.903 112.364 446.415 114.571C444.891 114.546 443.389 114.507 441.912 114.459C444.394 111.648 445.936 108.111 447.599 104.99C449.85 100.772 450.891 96.2037 451.243 91.6344C451.338 90.3713 448.954 90.0724 448.836 91.3563C448.423 95.8411 447.132 99.961 445.272 104.184C443.78 107.575 441.182 110.802 440.313 114.343C440.127 114.336 439.943 114.349 439.769 114.384C438.693 114.343 437.636 114.301 436.601 114.258C431.627 114.05 426.52 113.853 421.554 113.208C419.386 110.307 413.61 108.2 410.523 106.068C405.303 102.465 401.174 98.194 399.214 92.7995C398.912 91.9687 397.438 92.3378 397.481 93.1304C397.753 97.9938 401.995 101.869 406.029 105.15C408.672 107.3 411.6 109.179 414.509 111.079C415.103 111.468 415.725 111.909 416.371 112.34C412.311 111.481 408.42 110.19 404.868 108.182C400.308 105.604 396.159 101.961 392.182 98.8065C387.531 95.1173 383.192 90.9045 380.302 86.1401C378.104 82.5119 377.248 78.8578 377.364 75.2575C378.931 77.4534 380.647 79.695 382.6 81.3591C382.969 81.6747 383.725 81.5436 383.641 81.0261C383.257 78.6351 381.127 76.4865 379.483 74.5503C378.866 73.8265 378.253 73.1037 377.659 72.3748C377.863 71.1921 378.172 70.0175 378.561 68.8545C379.732 70.5724 381.086 72.2951 382.717 73.5456C383.046 73.7972 383.695 73.5695 383.536 73.1725C382.733 71.1434 380.889 69.3781 379.48 67.5965C379.376 67.4634 379.276 67.3286 379.174 67.1944C379.651 66.0212 380.206 64.8592 380.832 63.7133C382.223 65.9579 383.573 68.2543 385.136 70.378C385.476 70.8397 386.279 70.5139 386.159 70.0202C385.442 67.1383 383.652 64.5651 381.844 61.9824C382.087 61.5875 382.336 61.1956 382.593 60.8047C383.771 62.6102 385.143 64.2937 386.767 65.5888C386.917 65.7094 387.164 65.5364 387.083 65.3921C386.157 63.7442 384.689 62.3062 383.521 60.7656C383.358 60.5525 383.213 60.3288 383.059 60.1109C384.297 58.2986 385.681 56.5375 387.153 54.8423C388.29 57.5599 389.54 60.2873 391.518 62.5397C391.867 62.9377 392.623 62.7542 392.525 62.2347C391.949 59.1209 390.336 56.0465 388.739 53.0801C389.943 51.7769 391.189 50.5182 392.448 49.3096C393.013 51.5202 393.21 53.904 394.573 55.8549C394.955 56.4013 395.817 56.0939 395.896 55.5621C396.263 53.0876 395.016 50.4729 394.176 48.1119C394.14 48.0128 394.095 47.9151 394.058 47.815C394.73 47.1923 395.408 46.5744 396.091 45.9612C397.706 49.9153 399.328 53.871 401.386 57.6882C401.479 57.8635 401.817 57.7951 401.744 57.6014C400.199 53.4774 398.482 49.3964 396.808 45.3075C396.999 45.1404 397.187 44.9742 397.377 44.8074C398.455 48.5596 399.75 52.2235 402.075 55.4242C402.608 56.1582 403.94 55.623 403.7 54.8325C402.52 50.9475 401.125 46.9223 399.528 42.9567C400.099 42.4671 400.664 41.971 401.24 41.4856C401.556 42.5587 401.869 43.6315 402.182 44.7036C402.753 46.6561 403.032 48.7948 404.214 50.5659C404.475 50.9567 405.344 50.9155 405.348 50.399C405.369 48.3822 404.412 46.413 403.79 44.4686C403.359 43.1252 402.932 41.7814 402.501 40.4393C402.751 40.231 403.001 40.0247 403.252 39.8187C403.622 41.0436 403.999 42.2683 404.42 43.483C404.783 44.5306 405.392 47.24 407.388 46.9751C407.635 46.9421 407.721 46.6527 407.546 46.5185C407.376 46.3874 407.215 45.2193 407.113 44.9841C406.598 43.7881 406.108 42.59 405.664 41.3753C405.328 40.4577 405.013 39.5371 404.702 38.6155C404.842 38.5011 404.979 38.3833 405.119 38.2679C405.5 39.3958 405.902 40.5146 406.312 41.6207C406.596 42.3796 408.077 47.7162 410.144 46.4664C410.269 46.3922 410.325 46.2417 410.296 46.1202C409.509 42.9703 408.168 39.9028 406.902 36.8077C407.494 36.3239 408.087 35.8405 408.678 35.3567C409.075 36.4652 409.475 37.5727 409.888 38.6778C410.545 40.4356 411.058 43.2246 413.073 44.3236C409.479 49.2551 406.369 54.4083 401.759 58.8757C401.344 59.2802 401.957 59.9665 402.519 59.621C411.249 54.2506 415.711 44.8547 422.28 37.92C428.403 31.4544 433.437 25.5049 433.076 16.9928C433.035 16.0463 431.28 16.1144 431.284 17.0568C431.307 21.8613 429.263 25.7568 426.384 29.3633C425.717 27.5544 424.315 25.7463 423.669 23.9361C423.535 23.5646 423.419 23.1894 423.297 22.8163C423.515 22.612 423.73 22.4037 423.945 22.1977C424.188 22.3267 424.476 22.3812 424.778 22.3192C424.991 23.6079 425.254 24.8866 425.982 26.0537C426.223 26.4405 426.851 26.3063 426.942 25.9134C427.321 24.2724 426.906 22.6103 426.606 20.9707C427.416 20.2098 428.23 19.4529 429.487 19.1353C429.948 19.0199 430.298 18.6321 430.372 18.2549C430.796 16.0875 431.808 13.8388 433.162 11.8652C434.047 13.7357 434.832 15.6378 435.68 17.5205C436.077 18.4009 437.257 18.5967 438.112 18.2133C438.176 19.5517 438.344 20.8784 438.831 22.1354C439.015 22.6076 439.399 22.88 439.836 23.0035C440.093 23.7706 440.365 24.5026 440.628 25.1729C441.801 28.1424 440.853 32.25 440.646 35.3185C440.458 38.1157 440.349 40.855 440.946 43.6192C440.98 43.7802 441.266 43.7315 441.277 43.5834C441.61 38.1242 443.468 32.872 443.795 27.4363C443.883 25.9587 443.808 24.5111 443.611 23.0689C443.777 23.4441 443.942 23.808 444.108 24.1505C446.61 29.3326 449.74 34.5127 450.755 40.0655C450.855 40.6079 451.909 40.4553 451.894 39.9314C451.751 35.3556 449.925 31.279 448.023 27.0196C447.016 24.7566 446.281 22.4575 445.673 20.1025C444.981 17.4299 445.848 14.7492 445.124 12.1491C445.018 11.7634 444.446 11.5533 444.006 11.6718C444.006 11.6109 444.006 11.5513 444.004 11.4903C446.263 10.1697 448.114 14.9579 448.589 15.9932C450.866 20.9666 452.418 25.9138 455.473 30.6543C459.153 36.3579 464.114 41.3627 469.427 46.097C469.336 46.2952 469.264 46.4974 469.232 46.7119C469.173 47.1075 469.754 47.2396 470.101 47.1177C470.21 47.081 470.314 47.0258 470.418 46.9734C471.389 47.8272 472.369 48.6716 473.354 49.5098C472.165 51.3057 470.686 52.9957 470.413 55.0466C470.361 55.4371 471.046 55.7592 471.43 55.5124C473.165 54.3997 474.245 52.7451 475.189 51.0667C475.32 51.1777 475.452 51.288 475.581 51.3976C475.933 51.6935 476.284 51.9924 476.638 52.2893C475.289 54.3218 473.412 56.3911 473.004 58.6384C472.918 59.1253 473.633 59.3268 474.05 59.0817C476.121 57.8588 477.16 55.5287 478.172 53.5925C478.53 53.8976 478.889 54.205 479.245 54.5145C477.203 58.2404 475.559 62.0593 475.009 65.9507C474.937 66.4744 475.835 66.5568 476.064 66.1196C477.795 62.7998 479.447 59.4695 481.103 56.1412C481.949 56.8919 482.786 57.6487 483.603 58.4185C481.602 61.8602 479.125 65.2977 478.11 69.0247C477.977 69.5153 478.879 69.8497 479.231 69.4292C481.633 66.5731 483.133 63.2203 484.902 60.0816C484.952 59.9931 485 59.9042 485.05 59.8167C486.027 60.7809 486.969 61.7645 487.869 62.7709C487.386 63.6772 486.871 64.5733 486.338 65.4608C484.732 68.1198 482.094 70.7311 481.284 73.6338C481.134 74.1741 481.878 74.5534 482.398 74.1833C485.428 72.0211 487.159 68.259 488.845 65.3349C489.01 65.0451 489.169 64.7557 489.328 64.4657C489.7 64.9205 490.061 65.3832 490.412 65.8493C489.48 67.4474 488.475 69.0237 487.447 70.6065C485.619 73.4255 482.944 76.2856 482.549 79.5138C482.493 79.985 483.282 80.2077 483.659 79.9016C486.701 77.4279 488.375 73.5119 490.328 70.4128C490.861 69.5695 491.365 68.7159 491.841 67.8519C492.1 68.2376 492.338 68.6315 492.579 69.0251C491.576 71.2925 490.303 73.4748 488.99 75.6486C487.386 78.3005 485.049 81.146 485.011 84.1597C485.002 84.7916 485.912 85.0228 486.379 84.541C488.865 81.9832 490.167 78.3747 491.873 75.4175C492.637 74.0945 493.318 72.7687 493.903 71.4202C494.339 72.303 494.717 73.2089 495.058 74.1329C491.367 79.1387 487.331 84.6557 487.69 89.91C487.721 90.37 488.488 90.6771 488.824 90.2048C491.254 86.8003 492.665 82.8391 494.792 79.283C495.187 78.6222 495.593 77.9665 495.997 77.3107C496.219 78.3168 496.373 79.345 496.45 80.3915C495.811 82.8411 494.715 85.1249 493.325 87.4128C491.923 89.7163 489.67 92.0011 489.472 94.6175C489.429 95.197 490.289 95.3621 490.747 95.0516C493.215 93.3803 494.577 90.3778 495.883 87.9568C494.694 93.5389 491.895 99.0159 488.023 103.233C480.692 111.213 468.726 113.782 456.599 114.415Z" fill="#0C0C22"/>
<path d="M395.843 75.3399C395.682 78.564 395.081 82.146 396.224 85.2914C396.292 85.478 396.621 85.4967 396.693 85.3006C397.837 82.1582 397.24 78.5865 397.077 75.3617C397.045 74.7172 395.877 74.6855 395.843 75.3399Z" fill="#0C0C22"/>
<path d="M446.789 35.8731C450.199 51.7326 454.269 67.4753 454.714 83.6534C454.725 84.0981 455.562 84.1702 455.569 83.7134C455.816 67.588 453.663 51.2355 448.187 35.6712C447.94 34.9665 446.626 35.1224 446.789 35.8731Z" fill="#0C0C22"/>
<path d="M87.84 49.6255C87.4209 42.9778 86.1829 36.2208 82.5573 30.2439C79.499 25.2005 74.4098 20.8608 67.8993 19.1582C64.7136 18.3248 61.5056 18.6325 58.5361 19.6116C58.0045 19.2591 57.4594 18.9334 56.9009 18.6337C56.2627 18.2924 55.6052 17.9886 54.9149 17.7319C54.7341 17.6647 54.552 17.5987 54.3669 17.5378C54.0529 17.4356 53.7313 17.3447 53.4042 17.2624C52.6725 17.0794 51.9037 16.9474 51.0892 16.8795C50.7664 16.8528 50.439 16.8334 50.1013 16.8267C50.0805 16.826 50.06 16.8279 50.0377 16.8267C49.7519 16.8217 49.4675 16.8242 49.1816 16.8341C48.7789 16.8491 48.3745 16.8814 47.9732 16.9225C46.6121 17.0607 45.2628 17.3324 43.949 17.6524C43.1049 13.3207 40.0065 9.03157 36.7511 5.98789C34.1784 3.58339 30.7794 1.27842 27.068 0.268664C23.158 -0.79436 20.4166 1.45816 18.8599 4.19727C18.2244 5.31458 19.5382 6.37329 20.7306 6.52835C21.0074 6.60732 21.2698 6.71385 21.5184 6.84547C22.8276 7.44269 24.8137 7.14757 25.2314 5.75057C25.3543 5.38306 25.4551 5.01001 25.5307 4.63325C25.3883 3.78945 25.55 3.9258 26.018 5.04188C27.1881 5.55622 28.1672 6.39344 29.0986 7.16444C31.1751 8.88329 32.8797 10.7144 34.1874 12.9135C35.627 15.3342 36.1217 17.6413 35.8255 19.8747C35.5441 19.9793 35.2702 20.0914 35.0005 20.2072C34.4674 20.2072 33.9238 20.2701 33.3981 20.2944C31.3854 20.388 29.5089 20.1482 27.5228 19.9306C24.6171 19.6131 21.6742 20.1225 18.9445 20.9408C16.0699 21.8027 13.1698 23.686 11.4253 26.0352C6.46529 27.2708 3.1314 31.5905 1.56006 36.5083C-1.16667 45.0419 0.126394 54.5857 2.05327 63.1281C5.40331 77.97 12.914 91.8331 17.0534 106.498C17.3272 107.467 17.585 108.441 17.831 109.417C18.1657 110.747 18.4709 112.085 18.7626 113.426C18.933 114.204 19.1003 114.983 19.2573 115.764C19.5786 117.359 19.872 118.959 20.152 120.561C20.4007 121.978 20.6408 123.396 20.8687 124.814C21.1101 126.319 21.3441 127.822 21.5752 129.322C21.6062 129.528 21.6373 129.733 21.67 129.937C21.7145 130.231 21.7605 130.524 21.8048 130.817C22.0537 132.434 22.3127 134.049 22.5763 135.665C22.8384 137.285 23.1052 138.904 23.3761 140.523C23.3688 140.742 23.3553 140.962 23.3627 141.181C23.37 141.354 23.4456 141.498 23.5566 141.607C23.6187 141.975 23.6796 142.344 23.7402 142.711C24.1075 144.89 24.4748 147.069 24.8391 149.248C24.857 149.356 24.8748 149.465 24.8939 149.573C25.1308 150.993 25.3678 152.412 25.6003 153.832C25.6434 154.099 25.6864 154.372 25.7307 154.644C25.75 154.774 25.772 154.904 25.7928 155.034C26.0297 156.469 26.3215 157.903 26.9629 159.006C26.9822 159.038 27.0015 159.071 27.0206 159.103C27.5536 159.976 28.3239 160.626 29.482 160.882C29.7116 160.933 29.9559 160.967 30.218 160.986C30.8802 161.031 31.6458 160.971 32.5403 160.777C32.9535 160.689 33.3622 160.575 33.7666 160.451C35.7453 159.84 37.6204 158.826 39.3932 157.632C39.6744 157.441 39.9544 157.247 40.2314 157.047C40.7616 156.667 41.2814 156.275 41.7925 155.873C42.0962 155.634 42.3967 155.393 42.6943 155.151C43.066 154.847 43.4303 154.542 43.7918 154.238C44.2463 153.851 44.6936 153.468 45.132 153.09C45.7749 152.534 46.3984 151.994 47.0027 151.481C47.1198 151.383 47.2381 151.281 47.3538 151.183C47.6411 150.943 47.927 150.705 48.2143 150.466C48.663 150.09 49.1132 149.713 49.5621 149.339C49.9754 148.995 50.3857 148.651 50.7958 148.307C51.1985 147.968 51.6 147.628 51.9998 147.288C52.4101 146.94 52.8219 146.592 53.2276 146.242C53.8673 145.69 54.4999 145.135 55.1249 144.573C55.5071 144.231 55.8788 143.883 56.2534 143.535C56.6368 143.18 57.019 142.823 57.3951 142.462C57.8365 142.038 58.2749 141.611 58.7043 141.177C58.9576 140.922 59.2004 140.659 59.4491 140.4C59.8536 139.978 60.2578 139.557 60.6488 139.123C61.1909 138.521 61.721 137.908 62.235 137.279C62.2986 137.201 62.3566 137.119 62.4201 137.041C62.7889 136.587 63.1415 136.124 63.4939 135.662C64.1323 134.825 64.7498 133.979 65.3423 133.119C65.6799 132.627 66.0074 132.13 66.3316 131.631C67.0442 130.536 67.7298 129.43 68.3798 128.308C68.6803 127.789 68.9693 127.267 69.2581 126.743C70.8295 123.894 72.2426 120.982 73.5486 118.043C76.6722 111.02 78.851 103.79 80.7052 96.4687C82.6839 88.6493 84.7707 80.8569 86.2325 72.9541C87.6608 65.2404 88.3315 57.428 87.84 49.6255ZM56.7495 20.1714C56.7955 20.1914 56.8412 20.2119 56.8872 20.2325C56.8354 20.2543 56.785 20.2755 56.7346 20.2973C56.7407 20.2555 56.7437 20.2132 56.7495 20.1714ZM54.1458 19.2702C54.3192 19.3151 54.4923 19.3624 54.6642 19.4134C54.5813 20.0388 54.5043 20.664 54.4185 21.2881C54.4111 21.3422 54.4229 21.3946 54.4317 21.4475C54.3162 21.5135 54.1991 21.5808 54.0837 21.6492C54.1104 21.293 54.0676 20.9231 54.0705 20.5607C54.0761 20.1272 54.1059 19.6976 54.1458 19.2702ZM50.8268 21.1261C50.898 20.3501 50.9677 19.5752 51.0178 18.8005C51.668 18.8217 52.3079 18.8951 52.9388 19.006C52.8796 19.4002 52.8276 19.7951 52.7936 20.1942C52.7344 20.9142 52.5759 21.7101 52.9359 22.3684C52.2485 22.8237 51.5942 23.3058 50.9735 23.8051C50.8833 23.7366 50.7884 23.6731 50.6862 23.6176C50.7425 22.7865 50.7513 21.9483 50.8268 21.1261ZM49.7294 18.8293C49.6064 19.4769 49.4717 20.1297 49.3501 20.783C49.3589 20.1404 49.3352 19.4944 49.3012 18.8591C49.445 18.8456 49.5873 18.8392 49.7294 18.8293ZM44.1696 20.0001C45.3795 19.6501 46.6029 19.3375 47.8529 19.0926C47.8204 19.5952 47.7893 20.0972 47.7404 20.5992C47.6531 21.4835 47.4308 22.3705 47.2768 23.2566C46.9183 23.2523 46.5703 23.2361 46.2356 23.2038C46.2326 23.1252 46.2297 23.0481 46.2282 22.9726C46.2236 22.0883 46.2192 21.2044 46.2148 20.3201C46.2119 19.8393 45.3247 19.7831 45.3218 20.2703C45.3174 21.0524 45.313 21.8347 45.3086 22.617C45.3086 22.7503 45.2983 22.8924 45.2863 23.038C44.7782 22.9048 44.2703 22.8001 43.7651 22.7116C44.0331 21.8236 44.1605 20.9163 44.1696 20.0001ZM28.7694 4.07572C31.1599 4.80497 33.6096 7.19405 35.0254 8.57789C37.5076 11.0056 40.2759 14.8271 40.7215 18.4643C40.831 19.3611 40.7985 20.2463 40.5867 21.0962C40.4667 21.574 40.2906 22.0404 40.0505 22.4914C39.3174 22.5362 38.5858 22.6333 37.8527 22.7865C37.9815 22.4702 38.0911 22.1475 38.183 21.8199C38.4378 20.9167 38.5562 19.9734 38.5579 19.0179C38.5608 16.3343 37.6485 13.5516 36.2503 11.2629C34.5085 8.41481 31.7788 6.00825 28.7694 4.07572ZM35.3306 26.189C35.692 26.1648 36.0578 26.1685 36.428 26.1909C36.4474 26.2133 36.4562 26.2382 36.4784 26.2594C37.0176 26.7626 37.635 27.0678 38.3268 27.2658C38.632 26.9607 39.0851 26.9134 39.4849 27.0466C39.8211 26.5284 40.831 26.4949 41.3822 26.9084C41.3851 26.9072 41.388 26.9066 41.3895 26.9047C41.4132 26.3293 42.096 25.7588 42.8484 25.9443C43.0601 25.9966 43.2675 26.0527 43.4763 26.1074C43.4614 25.3975 44.3679 24.7122 45.4061 25.0911C46.6134 25.5314 47.8839 25.7712 49.1222 26.13C50.7483 26.601 50.1382 28.6435 48.4395 28.3122C48.3862 28.3017 48.3329 28.2873 48.2796 28.276C48.2617 28.2892 48.2439 28.2997 48.2263 28.3122C48.0678 28.8535 47.4176 29.2315 46.6386 29.1324C46.3053 29.0894 45.981 29.0285 45.658 28.9635C45.6773 29.7053 44.5028 30.1438 43.7399 29.8293C43.5592 29.7545 43.3861 29.6767 43.2142 29.5988C42.8173 30.1294 41.8886 30.3747 41.311 29.8591C41.2814 29.9601 41.2518 30.0596 41.2223 30.1631C41.0076 30.893 40.0982 30.9995 39.5103 30.6507C39.5074 30.69 39.503 30.7299 39.5013 30.7698C39.4732 32.0329 37.1137 32.0278 37.1731 30.7673C37.1954 30.3196 37.2472 29.9079 37.3418 29.5155C37.3477 29.4867 37.3536 29.4581 37.3612 29.4295C37.3656 29.4083 37.3714 29.3872 37.3773 29.366C37.4869 28.9063 37.6438 28.4611 37.8602 28.0183C37.7715 27.8968 37.6693 27.7829 37.5448 27.687C37.5419 27.6109 37.527 27.5363 37.5035 27.4616C37.5035 27.4629 37.5035 27.4635 37.5049 27.4641C37.5035 27.4629 37.5035 27.4616 37.502 27.4602C37.4768 27.3818 37.4399 27.3057 37.3895 27.2323C36.9807 26.4813 36.0224 26.3131 35.1027 26.3704C35.1795 26.3104 35.2565 26.2505 35.3306 26.189ZM34.9883 28.5499C34.1055 28.973 33.0983 29.346 32.34 29.9212C31.561 30.5129 30.6811 30.3099 30.2324 29.803C29.997 29.947 29.7585 30.0882 29.514 30.2252C27.7974 31.1924 26.2408 28.9323 27.8789 27.9332C27.9825 27.8696 28.0833 27.8088 28.187 27.7463C28.2168 27.3613 28.433 27.0008 28.8729 26.8371C29.3881 26.6458 29.84 26.5208 30.3496 26.537C31.2974 26.0848 32.3031 25.7387 33.4746 25.6116C34.6344 25.4859 35.135 26.4498 34.9083 27.2334C35.4756 27.4863 35.6888 28.2137 34.9883 28.5499ZM15.0103 25.3687C16.8025 23.676 19.3676 22.6894 21.9297 22.1362C25.157 21.4386 28.0953 22.041 31.3049 22.3367C32.2853 22.4276 33.8952 22.6569 35.0817 22.5623C34.9156 22.9523 34.7203 23.3395 34.5085 23.727C32.9357 24.1586 31.4414 24.4918 30.0209 25.2079C28.2036 24.4145 26.0799 24.1056 24.1796 24.9152C22.4706 25.6445 21.7197 26.8173 21.5287 28.1613C21.5258 27.919 21.5228 27.6774 21.5214 27.4363C21.5167 26.9319 20.8577 26.7412 20.4758 26.9306C20.7587 26.0835 19.2984 25.6278 18.8866 26.4037C17.4069 25.9503 16.0119 25.7218 14.7042 25.6881C14.8059 25.5817 14.8993 25.474 15.0103 25.3687ZM27.5446 148.873C28.1236 147.498 28.7797 146.141 29.381 144.782C29.7529 143.942 30.1112 143.097 30.443 142.247C29.8534 144.914 28.8465 147.475 27.7727 150.047C27.6972 149.656 27.6216 149.264 27.5446 148.873ZM28.5738 155.212C28.5577 155.065 28.5427 154.918 28.5278 154.771C28.9736 153.608 29.4343 152.448 29.8859 151.287C30.3657 150.049 30.7997 148.797 31.1805 147.534C30.7036 150.181 29.6522 152.699 28.5738 155.212ZM80.1621 87.6439C77.1659 100.238 73.8601 112.997 67.5227 124.726C67.1332 124.341 66.7304 123.967 66.3023 123.617C65.6966 123.121 64.8522 123.878 65.4004 124.397C65.9352 124.902 66.4001 125.436 66.8283 125.988C66.1944 127.113 65.5396 128.228 64.8466 129.331C64.1076 128.194 63.3462 127.07 62.5021 125.982C61.9274 125.243 60.6018 126.023 61.1691 126.762C62.1629 128.06 63.0471 129.406 63.9061 130.768C63.687 131.098 63.4794 131.433 63.2559 131.761C62.862 132.337 62.4488 132.894 62.0355 133.451C61.0774 131.946 60.1663 130.42 59.3 128.877C58.9104 128.183 57.5614 128.557 57.9433 129.271C58.906 131.076 59.9308 132.852 61.0031 134.611C61.0239 134.644 61.0432 134.679 61.064 134.713C60.4419 135.498 59.8005 136.266 59.1415 137.018C57.8277 134.845 56.9317 132.417 55.9898 130.237C55.7127 129.595 54.596 129.975 54.8256 130.615C55.6269 132.844 56.4104 135.926 57.9032 138.397C57.6692 138.65 57.4279 138.898 57.188 139.147C57.0931 139.007 56.9953 138.869 56.9021 138.726C55.3973 136.416 54.1859 133.969 52.8515 131.588C52.4752 130.918 51.1736 131.274 51.5377 131.967C52.8855 134.53 54.1622 137.666 55.9321 140.433C55.5589 140.804 55.1811 141.173 54.7992 141.539C54.6835 141.368 54.5681 141.197 54.4556 141.028C52.7657 138.502 51.4149 135.823 49.9813 133.191C49.614 132.517 48.4292 133.071 48.7831 133.741C50.3011 136.611 51.7688 139.495 53.5638 142.253C53.6186 142.337 53.678 142.429 53.7416 142.53C53.0706 143.151 52.3864 143.768 51.6903 144.378C51.5362 144.17 51.3851 143.959 51.2401 143.744C49.882 141.727 48.8955 139.527 47.9876 137.345C47.7106 136.682 46.5006 137.03 46.7613 137.696C47.6839 140.058 48.8021 142.962 50.4965 145.419C50.1397 145.723 49.7751 146.027 49.4137 146.329C49.1648 145.971 48.9264 145.612 48.7175 145.251C47.635 143.378 46.6975 141.449 45.5986 139.582C45.1795 138.868 43.9236 139.481 44.3292 140.189C45.4091 142.065 46.3569 143.992 47.3922 145.885C47.6455 146.349 47.9091 146.848 48.1933 147.35C48.1727 147.367 48.1532 147.383 48.1326 147.4C47.7519 147.712 47.3714 148.037 46.9877 148.366C45.9214 146.479 44.9484 144.555 43.9502 142.641C43.5947 141.959 42.4337 142.539 42.7638 143.209C43.7783 145.261 44.7794 147.317 45.868 149.34C45.2342 149.9 44.5914 150.47 43.9397 151.042C42.8674 149.197 41.8128 147.344 40.8428 145.45C40.4769 144.737 39.0875 145.068 39.446 145.806C40.465 147.914 41.4915 150.071 42.6273 152.179C42.2542 152.497 41.8749 152.812 41.4942 153.124C40.9834 152.092 40.5581 151.024 40.1715 149.958C40.0101 149.517 39.1599 149.622 39.3125 150.081C39.7211 151.318 40.1938 152.533 40.7418 153.73C40.2116 154.148 39.6739 154.556 39.1245 154.947C38.8254 154.263 38.5633 153.566 38.3366 152.861C38.1204 152.191 36.8733 152.587 37.1311 153.259C37.4362 154.055 37.7945 154.828 38.196 155.587C37.0083 156.378 35.773 157.081 34.4772 157.653C34.72 156.221 34.7868 154.769 34.6608 153.285C34.5823 152.367 32.9012 152.415 32.7724 153.296C32.5029 155.12 31.9444 156.91 31.2409 158.658C30.7951 158.688 30.4293 158.633 30.1241 158.51C30.3078 157.875 30.5017 157.246 30.7283 156.63C31.8881 153.483 32.8063 150.344 32.9323 147.034C32.9604 146.286 31.8823 146.093 31.4541 146.571C32.0466 144.41 32.4525 142.218 32.5577 139.999C32.5828 139.438 31.9696 139.125 31.472 139.187C31.9608 137.413 32.2481 135.607 32.1874 133.749C32.1564 132.786 30.4205 132.911 30.4263 133.859C30.4559 137.87 28.6535 141.506 26.8289 145.13C26.7059 144.436 26.589 143.741 26.4882 143.045C26.466 142.886 26.4437 142.728 26.4215 142.57C26.5518 141.939 26.6912 141.313 26.8614 140.7C27.8745 137.069 29.0193 133.507 30.8098 130.085C31.2245 129.292 29.85 128.612 29.3952 129.415C28.4696 131.042 27.6326 132.707 26.8731 134.396C26.9812 133.923 27.0893 133.453 27.2064 132.992C27.9869 129.926 28.6741 126.867 28.9022 123.731C28.9658 122.854 27.3751 122.726 27.2849 123.607C26.9709 126.674 26.2229 129.658 25.3641 132.646C25.2915 132.901 25.2101 133.158 25.1286 133.416C24.9078 131.859 24.6843 130.303 24.4547 128.749C24.474 128.681 24.4946 128.614 24.5154 128.548C25.7478 124.536 27.3649 120.621 29.3067 116.814C29.7466 115.953 28.1398 115.498 27.6849 116.336C26.2366 119.004 24.9541 121.73 23.8045 124.497C23.6815 123.714 23.5573 122.933 23.4282 122.151C23.5896 121.555 23.763 120.963 23.9718 120.383C25.136 117.146 26.5058 113.969 27.5514 110.701C27.7854 109.968 26.4687 109.548 26.2273 110.287C25.2512 113.26 24.0412 116.169 22.9098 119.101C22.9039 119.07 22.8995 119.04 22.8934 119.009C22.575 117.203 22.2373 115.405 21.8715 113.613C21.9975 113.184 22.1263 112.755 22.2625 112.327C23.3822 108.814 24.656 105.343 25.6615 101.804C25.8984 100.969 24.3432 100.797 24.0989 101.617C23.2727 104.402 22.1545 107.233 21.1103 110.092C20.8511 108.946 20.5785 107.804 20.2926 106.664C20.934 104.448 21.7679 102.274 22.6445 100.119C22.8592 99.593 21.7679 99.2761 21.5426 99.7984C20.9695 101.131 20.2777 102.6 19.629 104.131C19.0455 101.987 18.4115 99.849 17.7021 97.7176C15.2465 90.3431 12.1347 83.1409 9.4703 75.8205C5.59966 65.1845 3.39745 54.6081 4.46677 43.5096C4.84138 39.6209 5.54342 35.5477 7.65981 32.0333C8.26111 31.0336 9.00618 30.2484 9.85616 29.6411C9.80579 29.9943 9.77474 30.3498 9.78794 30.7099C9.82364 31.6629 11.4008 32.0315 11.8038 31.0449C11.974 30.6252 12.1325 30.218 12.2926 29.8155C12.3592 29.9264 12.5875 29.8978 12.5932 29.7458C12.6034 29.4655 12.6272 29.1603 12.6836 28.8597C12.7665 28.6672 12.8555 28.4774 12.9443 28.2886C12.9754 28.2818 13.0052 28.2756 13.036 28.2686C13.0627 28.2873 13.0849 28.306 13.1145 28.3246C13.2018 28.3832 13.2923 28.413 13.3825 28.4317C13.024 29.0719 12.6582 29.7078 12.4611 30.3953C12.233 31.1875 13.7542 31.5955 14.0916 30.8269C14.499 29.904 14.9463 28.9685 15.2898 28.0175C15.4187 28.015 15.5505 28.02 15.6808 28.0206C15.1861 28.8416 14.7301 29.6835 14.4413 30.5629C14.1212 31.5395 15.8454 32.0463 16.2229 31.0698C16.611 30.0664 17.0732 29.1054 17.584 28.1526C17.7884 28.1783 17.9926 28.2088 18.1987 28.2417C17.9899 28.8658 17.8016 29.4935 17.6329 30.1281C17.3989 31.0151 16.8863 31.9897 17.661 32.7432C17.8033 32.8808 18.0787 32.9456 18.2758 32.8498C19.191 32.402 19.1556 31.6738 19.3272 30.8494C19.5478 29.7907 19.8471 28.7492 20.1995 27.7179C20.1904 28.4901 20.1728 29.2611 20.1078 30.0329C20.0439 30.7796 19.7062 31.5582 20.1092 32.2562C20.2129 32.4368 20.521 32.5172 20.709 32.3716C21.3563 31.8665 21.3622 31.1683 21.4421 30.4559C21.4747 30.152 21.494 29.8468 21.5074 29.5416C21.5385 29.8766 21.5918 30.2162 21.6659 30.5579C21.8317 31.3154 22.8225 31.8589 23.6935 31.8453C26.2156 31.8042 28.7557 31.4972 31.278 31.3952C33.002 31.3255 31.7299 31.9457 32.4481 32.9571C33.1619 33.966 34.4564 34.2513 35.7507 34.3185C37.8272 34.4269 40.5153 34.0121 42.7621 33.0754C46.4305 32.7379 50.3243 31.0289 51.9402 28.8722C52.6791 27.8838 52.6926 26.4276 52.1654 25.3864C52.1624 25.379 52.158 25.3714 52.1534 25.364C54.5808 23.6688 57.1638 22.4213 59.8536 21.8016C60.2862 21.7019 60.7214 21.6184 61.1599 21.5526C64.5219 21.043 68.0365 21.5339 71.6161 23.3786C77.9002 26.6172 81.5332 33.0756 83.1209 38.8914C87.486 54.8621 83.9181 71.8596 80.1621 87.6439Z" fill="#0C0C22"/>
<path d="M21.244 52.0521C22.4688 51.2749 22.8437 49.7851 23.399 48.6166C24.2255 46.8766 25.1452 45.1839 26.247 43.5545C26.6676 42.933 25.5849 42.3806 25.1212 42.979C23.9913 44.4363 23.0227 45.9561 22.1206 47.5186C21.3993 48.7674 20.1524 50.2894 20.3109 51.7051C20.3583 52.123 20.8442 52.3048 21.244 52.0521Z" fill="#0C0C22"/>
<path d="M22.2189 55.171C23.1801 54.0693 23.8213 52.7159 24.5233 51.4926C25.9142 49.0707 27.2929 46.6927 27.9741 44.0488C28.1668 43.3027 26.8471 43.1234 26.6087 43.8372C25.6208 46.7854 23.6746 49.3526 21.9404 52.0171C21.434 52.793 20.0935 53.929 20.5141 54.8944C20.7527 55.442 21.7641 55.7178 22.2189 55.171Z" fill="#0C0C22"/>
<path d="M22.9771 59.0187C24.8566 54.8454 27.5004 50.8189 28.6275 46.4319C28.7769 45.8491 27.767 45.6042 27.5611 46.1839C26.0237 50.5349 22.6157 54.2318 21.1615 58.5959C20.8297 59.5954 22.5534 59.958 22.9771 59.0187Z" fill="#0C0C22"/>
<path d="M22.5163 69.5865C24.2388 67.2821 24.7779 64.2292 26.1507 61.7093C27.6778 58.9036 29.3912 56.1813 30.6916 53.2903C30.9848 52.639 29.8282 52.183 29.5127 52.838C28.14 55.7067 26.3537 58.3958 24.6757 61.1425C24.2833 61.7852 23.8167 62.5064 23.3607 63.2682C25.8221 58.6739 28.1089 53.9181 29.9883 49.1437C30.2757 48.4126 28.9102 48.166 28.6109 48.8771C26.4825 53.943 23.3443 58.6576 21.2086 63.7072C20.9005 64.4396 22.1979 64.9004 22.7281 64.3772C21.8453 66.0221 21.1804 67.7746 21.4944 69.3222C21.5685 69.6872 22.2172 69.9862 22.5163 69.5865Z" fill="#0C0C22"/>
<path d="M23.4882 72.8249C24.4375 70.8209 25.0403 68.717 26.0238 66.7115C27.1344 64.4507 28.4793 62.269 29.7516 60.0711C30.0524 59.5535 29.1696 59.0453 28.8466 59.571C26.3954 63.5551 22.8319 68.1021 22.2262 72.6343C22.1404 73.2772 23.232 73.3668 23.4882 72.8249Z" fill="#0C0C22"/>
<path d="M22.8365 83.364C24.6093 81.4914 25.1825 78.744 26.1569 76.5174C27.4216 73.6307 28.9086 70.8243 30.6357 68.1128C30.9438 67.6307 29.9723 67.1606 29.6434 67.6344C28.3459 69.5065 27.17 71.4242 26.0814 73.3828C26.4044 72.5619 26.7005 71.7442 27.0189 70.9864C27.9816 68.6894 28.7 66.3415 29.1279 63.9337C29.2495 63.2486 28.0038 63.1415 27.8645 63.8154C27.3297 66.4213 26.3909 68.8975 25.2801 71.3625C24.409 73.2956 22.9622 75.2638 22.8067 77.3437C22.7768 77.7398 23.3532 77.9354 23.6522 77.624C23.7782 77.492 23.8892 77.3462 24.0048 77.2061C22.9636 79.1274 21.9623 81.1971 22.0141 83.1775C22.0247 83.536 22.6069 83.6069 22.8365 83.364Z" fill="#0C0C22"/>
<path d="M30.0388 74.1298C30.3187 73.3425 28.8479 73.1227 28.5606 73.8894C27.5211 76.6601 25.9571 79.2362 24.4479 81.8395C23.3888 83.6668 21.8026 85.7982 22.0129 87.8855C22.0454 88.2131 22.5594 88.3814 22.82 88.1109C24.5188 86.3454 25.2445 83.7028 26.3968 81.6363C27.7695 79.1782 29.1115 76.7369 30.0388 74.1298Z" fill="#0C0C22"/>
<path d="M30.4149 79.2049C30.6844 78.4425 29.2595 78.1997 28.9871 78.9483C28.0613 81.4979 26.7876 83.9337 25.7674 86.4544C24.8952 88.6025 23.7058 91.1172 24.4345 93.3893C24.5692 93.8096 25.2062 93.6846 25.3424 93.3481C26.2949 90.9815 26.5406 88.4412 27.5461 86.0415C28.5044 83.7589 29.5928 81.5267 30.4149 79.2049Z" fill="#0C0C22"/>
<path d="M30.6208 83.7439C28.2554 87.4545 26.1212 91.7829 26.4899 96.0817C26.5582 96.8788 27.9962 96.7729 28.0999 96.0311C28.6746 91.8937 29.6771 88.2654 31.9935 84.5435C32.4867 83.7558 31.1316 82.9412 30.6208 83.7439Z" fill="#0C0C22"/>
<path d="M29.3325 102.224C30.5558 100.558 30.8476 98.437 31.5051 96.5649C32.3463 94.1734 33.3696 91.8316 34.4925 89.5242C34.9101 88.6647 33.3623 88.0344 32.9434 88.8988C31.9142 91.0244 31.0001 93.1805 30.1692 95.3666C29.3726 97.4643 28.1758 99.8595 28.4157 102.077C28.4629 102.508 29.0879 102.557 29.3325 102.224Z" fill="#0C0C22"/>
<path d="M35.6993 94.1722C36.003 93.3208 34.4566 92.8519 34.1456 93.7095C33.1401 96.479 31.736 99.1241 30.5525 101.841C29.6252 103.973 28.3723 106.735 29.2626 108.975C29.4078 109.34 30.0121 109.236 30.1556 108.941C31.2946 106.605 31.4619 103.91 32.5045 101.483C33.5548 99.0376 34.806 96.6658 35.6993 94.1722Z" fill="#0C0C22"/>
<path d="M35.4625 100.063C33.4586 104.376 30.378 109.175 30.3425 113.893C30.3381 114.461 31.2727 114.462 31.4564 113.98C33.1803 109.493 34.7607 105.072 36.7942 100.656C37.1404 99.9031 35.8148 99.3028 35.4625 100.063Z" fill="#0C0C22"/>
<path d="M34.1872 113.67C34.8524 111.634 35.4197 109.61 35.6625 107.506C35.7542 106.703 34.2851 106.605 34.1846 107.402C33.8571 109.98 32.9908 112.433 32.1599 114.918C31.5747 116.673 30.8565 118.541 31.2593 120.362C31.3453 120.752 31.973 120.77 32.142 120.422C33.1668 118.302 33.463 115.886 34.1872 113.67Z" fill="#0C0C22"/>
<path d="M35.791 115.735C34.1368 118.701 31.4442 122.36 32.2512 125.754C32.306 125.985 32.7075 125.965 32.774 125.754C33.2672 124.214 33.5232 122.64 34.0759 121.111C34.7023 119.379 35.6205 117.725 36.4634 116.064C36.6559 115.685 36.0071 115.349 35.791 115.735Z" fill="#0C0C22"/>
<path d="M35.2193 121.513C34.7957 122.694 34.3661 123.874 33.9042 125.044C33.4318 126.243 32.5801 127.462 32.4793 128.724C32.4556 129.019 32.9518 129.25 33.208 129.008C34.1294 128.131 34.427 126.944 34.8491 125.844C35.3645 124.5 35.7939 123.134 36.2324 121.772C36.4101 121.22 35.4178 120.96 35.2193 121.513Z" fill="#0C0C22"/>
<path d="M34.8787 128.426C34.8714 129.249 34.4552 129.991 34.7115 130.824C34.7721 131.025 35.0846 130.96 35.1423 130.798C35.4177 130.024 35.7231 129.183 35.7703 128.371C35.7984 127.895 34.8831 127.938 34.8787 128.426Z" fill="#0C0C22"/>
<path d="M54.1637 31.9255C54.5369 30.9178 55.0183 29.9402 55.547 28.9847C55.8759 28.3862 54.8362 27.9048 54.4672 28.4977C53.9163 29.3872 53.423 30.2963 52.9861 31.2294C52.6855 31.8733 52.0485 32.7975 52.7181 33.3867C52.8156 33.4733 52.9846 33.4976 53.1179 33.4638C53.8823 33.2701 53.9534 32.4923 54.1637 31.9255Z" fill="#0C0C22"/>
<path d="M57.6899 28.6372C57.9418 27.8923 56.6341 27.4065 56.3406 28.1695C55.8445 29.4592 55.1928 30.69 54.5338 31.9256C53.9562 33.0061 52.8957 34.3469 53.2527 35.5552C53.3432 35.8573 53.7904 36.1306 54.134 35.8702C55.1129 35.1253 55.3351 33.9377 55.8137 32.9244C56.4844 31.5058 57.1923 30.1082 57.6899 28.6372Z" fill="#0C0C22"/>
<path d="M59.9975 30.3673C60.3575 29.7271 59.2378 29.1753 58.8527 29.8167C57.976 31.2835 57.2058 32.7876 56.4402 34.2973C55.7589 35.6419 54.8228 36.986 54.4717 38.4227C54.368 38.8449 55.0212 39.2386 55.4004 38.8649C56.4343 37.8436 56.9199 36.5618 57.5109 35.3299C58.3106 33.6637 59.0837 31.9922 59.9975 30.3673Z" fill="#0C0C22"/>
<path d="M62.9981 32.7488C63.398 31.9093 61.8814 31.3238 61.4772 32.1653C60.5781 34.0343 59.6481 35.8916 58.715 37.7486C57.9743 39.2228 57.0072 40.672 56.9718 42.2913C56.9644 42.6487 57.5285 42.7037 57.764 42.4918C59.0243 41.3527 59.5442 39.7577 60.2506 38.3378C61.1764 36.4783 62.1049 34.6204 62.9981 32.7488Z" fill="#0C0C22"/>
<path d="M64.9547 36.4409C65.4301 35.6942 64.0216 35.179 63.5374 35.9054C62.6058 37.3042 61.9187 38.7901 61.2849 40.2998C60.7843 41.4868 59.8512 43.0506 60.0348 44.3343C60.0984 44.7865 60.7427 44.9171 61.0939 44.6033C62.1172 43.684 62.3512 42.0423 62.8014 40.874C63.3849 39.3526 64.0558 37.8521 64.9547 36.4409Z" fill="#0C0C22"/>
<path d="M67.0667 37.3887C67.3836 36.5106 65.7619 36.1038 65.4418 36.984C64.1947 40.4168 61.9866 44.0702 61.5555 47.6426C61.4875 48.2057 62.5021 48.4591 62.8175 47.9628C64.8229 44.7988 65.8286 40.8199 67.0667 37.3887Z" fill="#0C0C22"/>
<path d="M70.1888 45.2499C70.4509 44.6284 69.6675 44.1362 69.1312 44.3106C69.7044 42.8497 70.103 41.3741 70.2746 39.9709C70.3815 39.0965 68.7803 38.9307 68.6617 39.8079C68.3492 42.1171 67.4266 44.1887 66.2076 46.2563C65.1591 48.0344 63.6085 49.6301 62.7449 51.4729C62.4265 52.1555 63.4897 52.6357 64.0379 52.1008C65.399 50.771 66.6194 49.16 67.6193 47.4335C67.1718 48.5732 66.7365 49.7167 66.3159 50.8652C65.6552 52.6596 64.3223 54.9108 64.626 56.8043C64.6749 57.107 65.1148 57.2602 65.3711 57.0122C66.5588 55.8632 66.8402 54.0963 67.3469 52.6663C68.2308 50.1761 69.1505 47.6961 70.1888 45.2499Z" fill="#0C0C22"/>
<path d="M73.8352 48.8334C74.155 48.1508 72.7392 47.67 72.4074 48.3501C70.4049 52.4693 65.3872 57.9792 66.5468 62.6408C66.6355 62.9984 67.339 63.1041 67.5183 62.7436C68.6485 60.4709 69.0334 57.9934 70.1961 55.6927C71.3615 53.3868 72.7451 51.1682 73.8352 48.8334Z" fill="#0C0C22"/>
<path d="M73.5065 53.3948C71.6077 57.6685 69.3979 62.0367 68.1259 66.4723C67.9762 66.9918 68.8575 67.2577 69.1536 66.7931C71.6833 62.824 73.1318 58.2718 75.0705 54.0849C75.4791 53.1998 73.9033 52.503 73.5065 53.3948Z" fill="#0C0C22"/>
<path d="M70.5161 69.5408C72.8369 65.669 74.6082 61.594 77.0714 57.7686C77.5971 56.9497 76.0422 56.3194 75.5223 57.1428C73.1259 60.9344 70.8481 64.9428 69.2218 69.0185C68.9359 69.736 70.0881 70.2577 70.5161 69.5408Z" fill="#0C0C22"/>
<path d="M70.3887 74.9388C71.2506 73.8489 71.5365 72.5615 72.163 71.3602C72.7716 70.1944 73.5419 69.0839 74.272 67.9696C75.6641 65.8471 76.8728 63.7266 77.5052 61.3505C77.7407 60.4699 76.1397 60.1079 75.8908 60.993C75.1117 63.7445 73.4766 66.1111 71.8431 68.5508C70.6672 70.3077 68.9445 72.6133 69.269 74.6867C69.3445 75.1761 70.0363 75.3835 70.3887 74.9388Z" fill="#0C0C22"/>
<path d="M77.9214 65.6334C76.464 68.053 74.8748 70.411 73.3093 72.7813C71.9691 74.8079 70.1295 77.0338 69.7681 79.3606C69.7001 79.8015 70.3591 79.986 70.676 79.6695C72.4784 77.8678 73.4959 75.3734 74.854 73.3095C76.4165 70.9354 78.0248 68.5874 79.4912 66.1696C79.9891 65.3494 78.4116 64.8195 77.9214 65.6334Z" fill="#0C0C22"/>
<path d="M71.5527 83.3827C72.7377 81.667 73.6055 79.7928 74.7401 78.0442C75.8982 76.2554 77.0817 74.4862 78.1095 72.6414C78.4976 71.9432 77.2832 71.2956 76.8937 71.9992C74.9194 75.556 71.4906 79.1158 70.534 82.9897C70.4108 83.4897 71.2106 83.8784 71.5527 83.3827Z" fill="#0C0C22"/>
<path d="M77.622 76.1563C75.6093 79.9011 71.6771 83.9625 71.2105 88.1377C71.1513 88.6695 72.0651 89.0327 72.4251 88.5258C73.6142 86.8404 74.3297 84.9122 75.3384 83.1385C76.5752 80.9612 77.8976 78.8269 78.9863 76.5921C79.3462 75.8544 78.0074 75.4408 77.622 76.1563Z" fill="#0C0C22"/>
<path d="M77.1735 83.2929C75.7369 85.6608 72.5674 89.1921 73.1405 91.9817C73.1895 92.2203 73.6499 92.3063 73.7819 92.0733C74.4661 90.8687 74.6366 89.465 75.2007 88.2018C75.9071 86.6212 76.9278 85.1483 77.8296 83.6441C78.0516 83.2711 77.4014 82.9174 77.1735 83.2929Z" fill="#0C0C22"/>
<path d="M76.0122 88.8647C74.8702 90.7779 73.2277 92.7423 72.6531 94.8479C72.5626 95.183 73.0781 95.5324 73.3935 95.2249C75.0612 93.5937 76.2283 91.467 77.3835 89.5591C77.8486 88.7898 76.4758 88.0873 76.0122 88.8647Z" fill="#0C0C22"/>
</svg>
