<svg width="719" height="814" viewBox="0 0 719 814" fill="none" xmlns="http://www.w3.org/2000/svg">
<path d="M330.057 771.806C314.296 774.571 297.755 773.984 281.815 775.766C273.842 776.657 265.903 777.228 257.873 777.454C251.243 777.639 243.502 776.475 237.065 777.943C236.524 778.066 236.344 778.909 236.978 779.053C243.367 780.503 251.182 779.353 257.733 779.191C265.346 779.002 272.956 778.557 280.514 777.663C297.202 775.686 313.688 776.118 330.2 772.538C330.692 772.43 330.555 771.719 330.057 771.806Z" fill="#0C0C22"/>
<path d="M541.999 721.148C532.711 699.732 509.053 685.552 486.744 678.462C480.579 676.503 474.253 675.258 467.933 673.836C461.26 672.337 455.394 669.408 449.83 665.655C441.653 660.138 434.469 652.969 423.629 654.124C412.393 655.321 402.629 667.5 398.583 676.925C397.868 676.917 397.151 676.925 396.426 676.963C389.65 677.331 383.613 680.11 377.901 683.366C375.299 684.849 372.709 686.316 370.09 687.715C367.085 687.154 363.887 688.955 361.681 691.505C354.754 693.896 347.84 696.328 340.946 698.818C338.736 697.101 335.439 696.939 332.71 697.589C328.139 698.678 324.977 701.696 322.861 705.548C320.269 706.545 317.674 707.538 315.089 708.563C300.459 714.363 285.932 720.406 271.64 726.922C263.633 730.573 255.82 734.669 247.793 738.291C246.143 736.882 243.738 736.426 240.394 737.699C236.697 739.106 234.385 741.535 232.865 744.482C220.172 749.626 207.439 755.139 196.45 763.006C194.099 764.69 191.29 766.98 189.58 769.662C186.896 772.7 185.209 776.483 185.013 780.497C184.737 786.197 188.892 790.542 193.525 793.569C198.443 796.782 204.653 797.961 210.346 799.333C214.606 800.358 219.878 801.863 224.513 801.346C224.376 802.254 224.296 803.12 224.333 803.91C224.532 808.262 228.098 812.008 232.316 813.324C239.645 815.611 246.379 808.245 248.536 801.862C269.189 801.999 289.934 799.324 310.392 797C320.62 795.838 330.851 794.715 341.101 793.744C351.857 792.726 362.979 793.018 373.636 791.474C374.647 791.327 374.994 789.805 373.807 789.64C364.389 788.337 354.239 789.527 344.792 790.191C344.222 790.233 343.652 790.286 343.079 790.329C347.682 787.726 351.637 783.54 356.359 780.647C359.883 778.487 364.703 776.501 368.805 778.396C373.927 780.763 374.614 787.723 374.794 792.417C375.147 801.613 382.018 809.531 392.366 810.042C402.424 810.538 404.366 800.243 405.065 792.809C405.225 791.109 405.151 789.319 405.098 787.518C408.216 786.735 411.309 785.985 414.524 785.477C417.39 785.022 420.284 784.812 423.146 784.405C427.429 787.739 432.558 789.448 437.389 785.042C438.202 784.302 438.972 783.479 439.711 782.614C453.74 778.905 467.895 777.65 482.378 776.075C495.471 774.649 508.682 773.202 521.246 769.243C530.387 766.363 539.673 761.676 543.883 753.019C548.498 743.529 546.022 730.419 541.999 721.148ZM370.887 692.271C373.599 692.165 377.053 692.013 376.569 695.407C376.142 698.389 370.597 696.247 369.818 694.418C369.426 693.5 369.923 692.798 370.887 692.271ZM363.078 695.194C363.102 695.127 363.119 695.059 363.145 694.991C363.354 694.432 363.64 693.899 364.003 693.422C364.771 692.411 365.744 691.782 366.822 691.37C366.213 692.202 365.919 693.067 365.895 693.925C365.893 693.97 365.891 694.017 365.891 694.062C365.903 695.945 367.2 697.776 369.33 699.098C373.745 701.838 380.334 701.16 380.553 695.27C380.616 693.605 379.905 692.124 378.773 690.962C379.803 690.988 380.618 691.089 380.983 691.247C384.109 692.595 383.643 696.295 383.014 698.884C382.076 702.749 377.047 703.917 373.506 704.078C369.986 704.24 366.003 703.083 363.836 700.322C362.677 698.845 362.506 696.905 363.078 695.194ZM323.692 711.298C324.994 708.31 326.758 705.584 329.021 703.461C329.183 703.309 329.353 703.162 329.53 703.018C331.132 701.712 333.285 700.793 335.384 700.839C336.324 700.86 337.253 701.068 338.117 701.53C339.502 702.273 339.811 703.461 339.584 704.753C339.222 706.827 337.462 709.166 336.498 710.338C335.238 711.868 337.415 713.808 339.067 712.997C341.046 712.025 345.27 710.24 346.987 712.672C348.768 715.19 343.506 717.948 341.925 718.712C335.452 721.84 327.892 721.659 321.027 723.508C320.968 723.524 320.922 723.549 320.867 723.568C321.076 719.536 321.993 715.195 323.692 711.298ZM233.987 750.797C234.316 749.541 234.694 748.297 235.188 747.077C235.827 745.5 237.345 743.352 239.22 741.922C240.36 741.054 241.631 740.454 242.919 740.407C243.728 740.376 244.545 740.562 245.336 741.042C246.784 741.919 247.266 743.573 247.272 745.353C247.276 747.445 246.62 749.711 246.061 751.103C245.571 752.322 246.474 754.088 248.087 753.78C250.996 753.225 254 752.813 256.789 754.016C260.118 755.449 256.084 758.189 254.536 758.933C251.073 760.602 246.713 760.914 242.93 761.573C239.096 762.239 235.241 762.859 231.385 763.404C232.478 759.243 232.902 754.948 233.987 750.797ZM224.967 798.873C216.694 797.479 208.855 795.784 200.915 792.94C195.917 791.152 190.61 787.709 189.301 782.504C188.968 781.182 189.013 779.889 189.294 778.624C191.962 782.79 198.076 783.548 203.06 783.923C209.402 784.398 220.924 783.012 224.86 789.027C226.54 791.599 225.686 795.358 224.967 798.873ZM249.297 798.166C249.824 793.774 250.357 791.152 256.297 791.021C259.71 790.946 261.466 795.162 263.94 796.818C264.355 797.096 264.773 797.319 265.19 797.496C259.904 797.794 254.609 798.019 249.297 798.166ZM312.166 793.384C298.439 794.906 284.777 796.241 271.062 797.145C275.248 795.123 278.886 789.993 280.769 787.171C287.129 777.641 296.478 787.232 304.92 787.833C308.846 788.114 313.822 785.29 317.442 786.278C319.145 786.742 321.012 788.39 322.495 789.265C324.227 790.285 326.337 791.047 328.404 791.63C322.986 792.18 317.575 792.785 312.166 793.384ZM405.092 784.072C405.174 782.201 405.456 780.376 406.236 778.686C407.37 776.228 410.107 774.972 412.828 774.972C414.746 774.969 416.324 777.303 417.333 778.545C418.252 779.675 419.3 780.867 420.442 782.003C415.322 782.107 409.913 782.825 405.092 784.072ZM433.867 778.118C432.265 780.271 431.573 781.391 428.972 779.951C427.134 778.934 425.582 777.495 424.344 775.87C421.895 772.653 419.666 769.967 415.724 768.378C411.927 766.845 406.355 768.497 403.378 770.883C399.377 774.088 398.1 778.436 397.696 783.225C397.286 788.087 397.723 792.795 396.726 797.627C396.37 799.349 395.899 801.298 394.562 802.58C392.943 804.13 388.173 801.344 386.872 800.635C382.352 798.17 382.419 793.995 381.825 789.645C381.146 784.667 379.28 780.03 375.903 776.13C370.062 769.384 360.239 771.779 353.41 775.484C348.606 778.092 345.096 782.181 340.486 784.992C335.572 787.987 329.119 786.032 324.405 783.522C321.741 782.104 319.227 780.294 316.02 780.713C310.622 781.42 305.838 783.616 300.398 781.697C296.538 780.337 293.611 778.43 289.38 777.99C285.105 777.545 281.369 778.946 278.536 781.972C275.95 784.734 274.571 788.299 271.765 790.894C267.375 794.948 265.741 791.654 262.782 788.818C257.53 783.778 247.384 786.154 244.929 792.601C243.612 796.054 244.237 799.599 242.254 802.914C240.828 805.301 238.377 807.249 235.597 808.006C230.976 809.264 230.102 803.17 230.284 800.366C230.582 795.782 231.691 791.777 229.808 787.364C228.546 784.407 225.574 782.312 222.53 781.183C215.197 778.46 207.129 779.349 199.504 778.069C191.773 776.772 194.138 772.467 198.706 768.799C205.215 763.574 213.416 759.961 221.025 756.438C224.138 754.998 227.284 753.628 230.444 752.287C229.7 756.427 229.426 760.743 228.622 764.381C228.466 765.09 228.908 765.519 229.461 765.629C229.712 766.47 230.558 767.16 231.816 766.833C238.442 765.104 245.4 764.962 252.055 763.349C255.811 762.44 259.655 761.035 261.494 757.572C264.892 751.176 256.005 749.593 250.475 749.741C250.79 747.868 250.831 745.82 250.526 743.917C258.117 740.501 265.515 736.682 273.077 733.208C287.334 726.661 301.737 720.397 316.251 714.378C317.567 713.831 318.888 713.287 320.206 712.742C319.07 717.62 318.946 722.753 319.37 726.703C319.436 727.323 320.312 727.381 320.677 727C321.002 727.129 321.394 727.166 321.842 727.063C330.635 725.046 345.667 725.214 350.412 716.282C351.847 713.58 350.951 710.818 348.563 708.99C346.903 707.719 344.754 707.552 342.63 707.894C343.279 706.377 343.606 704.787 343.383 703.198C348.582 701.07 353.784 698.95 358.993 696.842C358.936 697.194 358.905 697.542 358.903 697.882C358.893 704.267 366.034 707.819 371.917 708.112C378.265 708.428 385.06 705.976 386.911 699.73C388.279 695.111 386.801 689.475 381.776 687.714C385.516 686.232 389.256 684.758 393 683.293C400.433 682.23 407.362 683.921 414.825 686.956C415.769 687.339 416.719 687.741 417.681 688.165C417.908 688.265 418.138 688.369 418.365 688.469C418.592 688.569 418.817 688.67 419.045 688.769C420.371 689.358 421.699 689.948 423.028 690.544C423.555 690.78 424.082 691.019 424.609 691.257C425.927 691.853 427.246 692.454 428.564 693.059C429.33 693.41 430.096 693.76 430.862 694.115C432.065 694.672 433.266 695.238 434.467 695.804C435.852 696.456 437.234 697.115 438.613 697.78C440.072 698.481 441.528 699.191 442.979 699.907C444.429 700.621 445.875 701.344 447.319 702.073C448.587 702.714 449.852 703.361 451.114 704.013C451.727 704.331 452.342 704.646 452.955 704.967C454.24 705.64 455.522 706.321 456.799 707.007C456.864 707.042 456.928 707.076 456.993 707.111C458.331 707.831 459.665 708.561 460.993 709.296C461.564 709.61 462.134 709.925 462.702 710.243C464.02 710.983 465.335 711.728 466.644 712.483C467.8 713.149 468.948 713.825 470.094 714.505C471.624 715.412 473.144 716.329 474.655 717.261C476.02 718.104 477.378 718.958 478.728 719.821C479.833 720.529 480.928 721.245 482.019 721.967C482.789 722.474 483.555 722.987 484.317 723.502C485.252 724.132 486.186 724.76 487.109 725.401C487.372 725.583 487.646 725.752 487.911 725.932C488.473 726.314 489.041 726.685 489.609 727.058C490.655 727.744 491.705 728.423 492.765 729.086C493.52 729.556 494.272 730.03 495.03 730.495C495.369 731.107 495.984 731.48 496.752 731.579C496.77 731.581 496.781 731.579 496.799 731.581C497.262 731.864 497.722 732.147 498.184 732.43C500.026 733.557 501.861 734.691 503.672 735.871C503.674 735.872 503.674 735.872 503.676 735.874C506.354 737.622 508.031 740.272 508.574 743.155C500.371 742.634 491.639 747.611 484.128 749.86C473.599 753.011 462.369 754.179 451.451 755.395C432.599 757.495 413.671 758.049 396.065 765.299C395.317 765.607 395.856 766.658 396.599 766.373C405.241 763.074 415.266 761.952 424.482 760.803C433.623 759.662 442.845 759.245 451.982 758.088C462.468 756.76 472.769 755.093 483.07 752.818C486.945 751.961 490.687 750.475 494.401 749.151C499.201 747.439 503.876 746.588 508.762 745.565C508.738 746.343 508.64 747.124 508.45 747.898C507.322 752.494 503.118 755.558 498.87 757.502C492.215 760.55 484.053 757.47 476.997 758.386C472.05 759.028 468.061 761.397 463.804 763.688C459.174 766.179 453.536 765.084 448.507 764.635C446.046 764.415 443.644 764.827 441.983 766.694C438.91 770.145 436.62 774.42 433.867 778.118ZM520.471 763.932C508.342 768.702 494.303 770.387 481.431 772.231C468.509 774.082 455.383 775.842 442.637 778.722C443.877 776.886 445.015 774.999 446.065 773.229C446.514 772.471 447.907 771.186 447.246 771.233C448.723 770.921 450.998 771.469 452.409 771.553C457.236 771.844 461.681 771.444 466.107 769.556C467.898 768.791 469.563 767.726 471.289 766.84C475.043 764.914 478.561 764.525 482.785 764.715C488.968 764.997 495.036 766.133 500.994 763.925C505.925 762.096 509.898 759.271 513.044 755.235C516.674 750.581 517.511 743.942 515.123 738.644C512.844 733.587 508.554 730.639 503.903 727.994C503.86 727.185 503.822 726.404 503.815 725.677C503.764 720.213 503.198 714.811 501.464 709.58C500.982 708.127 498.654 708.484 498.964 710.046C499.971 715.141 499.724 720.257 499.259 725.394C499.259 725.401 499.258 725.409 499.258 725.416C498.831 725.177 498.403 724.934 497.98 724.687C496.852 718.71 496.154 712.675 494.938 706.707C494.624 705.169 492.199 705.691 492.45 707.217C493.243 712.075 493.21 717.078 493.598 722.009C493.296 721.82 492.998 721.626 492.699 721.434C492.452 720.075 492.233 718.709 492.05 717.327C491.257 711.315 490.943 705.249 489.909 699.267C489.656 697.799 487.245 697.938 487.448 699.45C488.253 705.475 488.267 711.532 488.557 717.589C488.573 717.926 488.579 718.322 488.581 718.753C488.15 718.468 487.721 718.182 487.292 717.896C486.912 716.85 486.545 715.862 486.34 715.021C484.853 708.934 484.018 702.726 483.855 696.484C483.816 695.02 481.471 695.073 481.465 696.53C481.44 702.357 481.902 708.169 482.715 713.944C482.758 714.241 482.793 714.575 482.829 714.923C481.81 714.248 480.789 713.578 479.765 712.912C479.663 712.615 479.561 712.319 479.471 712.025C478.158 707.731 477.296 703.35 476.893 698.897C476.755 697.396 474.279 697.327 474.385 698.869C474.659 702.859 475.32 706.749 476.211 710.653C475.094 709.959 473.967 709.277 472.827 708.615C472.798 708.598 472.768 708.581 472.739 708.565C472.663 708.024 472.59 707.482 472.537 706.931C472.046 701.815 472.04 696.67 471.536 691.555C471.364 689.811 468.551 690.221 468.707 691.955C469.099 696.296 468.889 701.45 469.137 706.543C467.753 705.79 466.354 705.054 464.95 704.329C464.374 699.604 464.242 694.815 464.433 690.074C464.497 688.452 461.854 687.982 461.768 689.634C461.539 694.041 461.617 698.424 461.966 702.811C461.269 702.461 460.571 702.11 459.87 701.764C459.441 696.626 459.292 691.47 458.742 686.338C458.587 684.895 456.324 685.306 456.424 686.717C456.747 691.225 456.724 695.739 456.788 700.254C456.685 700.204 456.581 700.152 456.477 700.101C456.351 699.003 456.228 697.936 456.159 696.944C455.811 691.889 455.125 686.856 453.724 681.962C453.321 680.551 451.052 681.118 451.413 682.539C452.741 687.789 453.015 693.085 453.094 698.457C452.145 697.996 451.199 697.535 450.255 697.073C449.994 695.573 449.753 694.081 449.675 692.621C449.434 688.057 449.25 683.559 448.239 679.079C447.902 677.584 445.594 678.264 445.865 679.719C446.821 684.889 446.621 690.111 446.74 695.334C446.65 695.289 446.56 695.246 446.472 695.201C444.905 694.416 443.336 693.637 441.766 692.858C441.739 692.541 441.704 692.223 441.692 691.906C441.513 687.082 442.025 682.255 442.038 677.432C442.045 675.576 439.063 675.738 439.025 677.564C438.929 682.118 438.497 686.652 438.408 691.202C436.996 690.508 435.582 689.814 434.163 689.129C434.208 684.1 434.894 679.094 434.897 674.063C434.897 672.345 432.172 672.614 432.123 674.28C431.992 678.756 431.414 683.203 431.093 687.669C430.209 687.249 429.326 686.827 428.44 686.411C428.507 681.685 428.583 676.959 428.558 672.233C428.546 670.308 425.447 670.402 425.423 672.309C425.372 676.496 425.235 680.679 425.075 684.863C424.516 684.607 423.956 684.352 423.395 684.098C423.421 683.811 423.441 683.521 423.476 683.239C424.048 678.629 424.657 674.03 424.851 669.389C424.922 667.68 422.279 667.828 422.108 669.45C421.644 673.861 420.718 678.194 419.981 682.565C419.552 682.376 419.123 682.186 418.692 682.002C418.7 681.834 418.704 681.665 418.715 681.497C419.007 677.279 419.305 673.076 419.272 668.846C419.258 667.217 416.712 667.477 416.655 669.043C416.512 672.96 416.045 676.837 415.561 680.722C411.453 679.105 407.272 677.789 402.905 677.221C409.7 669.588 417.475 657.641 429.115 660.405C434.081 661.585 438.334 665.446 442.186 668.426C446.794 671.989 451.237 675.123 457.012 676.733C469.445 680.199 481.952 681.806 494.016 686.607C506.148 691.435 516.695 698.893 525.756 707.861C534.874 716.884 540.015 728.316 540.099 740.872C540.18 753.328 531.734 759.503 520.471 763.932Z" fill="#0C0C22"/>
<path d="M433.838 747.599C433.881 747.941 434.208 748.074 434.516 748.035C434.874 748.44 435.446 748.663 436.199 748.471C445.659 746.055 459.14 745.871 463.629 735.811C464.924 732.906 462.898 729.554 460.014 728.434C457.675 727.525 455.31 727.655 453.11 728.396C453.708 725.973 453.706 723.484 452.654 721.002C451.382 718.002 447.799 716.854 444.739 717.828C439.833 719.391 437.58 724.929 435.701 728.996C432.993 734.852 433.052 741.382 433.838 747.599ZM441.898 724.632C443.144 722.764 446.776 719.264 448.804 722.208C450.741 725.021 448.853 729.304 447.46 731.897C446.463 733.75 448.788 735.775 450.52 734.272C452.638 732.436 456.386 730.4 459.039 732.629C461.821 734.963 455.034 739.01 453.569 739.827C448.187 742.83 441.218 743.21 435.372 745.184C435.261 745.221 435.163 745.269 435.069 745.319C435.26 738.094 437.882 730.658 441.898 724.632Z" fill="#0C0C22"/>
<path d="M420.144 722.552C421.572 718.756 420.452 715.32 416.671 713.319C413.661 711.726 410.074 711.854 406.74 712.71C407.447 709.621 407.351 706.455 405.805 703.474C404.142 700.265 400.28 698.927 396.81 700.048C391.842 701.654 389.47 707.085 387.751 711.329C384.977 718.182 386.002 726.083 387.328 733.08C387.385 733.387 387.548 733.591 387.753 733.704C387.984 734.355 388.566 734.863 389.534 734.854C399.485 734.763 416.128 733.233 420.144 722.552ZM410.227 726.885C404.324 730.261 396.482 730.863 389.754 730.924C389.521 730.926 389.313 730.967 389.119 731.023C388.371 722.359 389.477 713.503 394.9 706.21C396.654 703.852 400.014 702.371 401.914 705.316C403.938 708.449 402.208 712.751 400.802 715.743C399.957 717.535 402.399 719.214 404.058 718.388C407.431 716.708 411.549 715.406 415.158 717.275C419.846 719.704 412.437 725.62 410.227 726.885Z" fill="#0C0C22"/>
<path d="M361.352 740.068C359.481 738.598 357.322 738.055 355.101 738.051C355.749 736.428 355.888 734.694 355.054 732.917C353.602 729.827 349.433 729.555 346.449 730.223C335.791 732.605 332.38 744.81 331.83 753.682C331.808 754.033 332.439 754.584 333.086 754.997C333.352 755.43 333.822 755.738 334.551 755.732C343.447 755.651 356.895 756.394 362.365 748.168C364.083 745.586 363.95 742.111 361.352 740.068ZM352.791 750.279C347.339 752.227 340.785 751.911 335.064 751.864C334.808 751.861 334.577 751.905 334.361 751.972C335.85 746.708 336.926 741.358 341.318 737.434C343.479 735.505 346.006 733.909 349.09 734.119C353.037 734.386 349.454 738.468 348.259 739.76C346.531 741.63 349.084 743.89 351.157 743.215C353.269 742.528 358.32 741.334 359.14 744.439C359.926 747.419 354.981 749.496 352.791 750.279Z" fill="#0C0C22"/>
<path d="M274.911 767.856C274.923 768.035 274.991 768.175 275.081 768.298C275.54 768.533 276.108 768.579 276.729 768.298C276.788 768.272 276.853 768.248 276.911 768.222C285.375 764.533 303.131 765.679 305.717 754.475C306.391 751.548 305.321 748.193 302.139 746.973C300.053 746.174 298.023 746.093 296.058 746.475C296.685 744.274 296.65 741.95 295.657 739.614C294.015 735.744 289.54 735.145 285.892 736.518C280.726 738.464 277.317 744.444 275.832 749.183C274.227 754.306 274.398 759.635 274.723 764.905C274.784 765.892 274.85 766.875 274.911 767.856ZM279.727 747.838C281.134 744.33 284.854 740.261 288.91 739.563C294.83 738.545 290.761 747.896 289.609 749.369C288.116 751.278 290.643 753.611 292.661 752.28C295.102 750.668 299.273 748.571 301.74 751.339C304.966 754.959 296.456 759.371 294.001 760.218C288.559 762.094 282.673 762.189 277.19 763.927C277.413 758.478 277.685 752.922 279.727 747.838Z" fill="#0C0C22"/>
<path d="M388.776 740.675C388.03 740.061 387.211 739.527 386.347 739.09C384.844 738.33 383.214 737.863 381.611 737.817C379.353 737.754 377.509 738.797 376.265 740.339C375.111 740.93 374.041 741.705 373.103 742.693C369.626 746.348 370.785 752.535 374.381 755.715C382.186 762.617 395.202 756.035 392.375 745.88C391.827 743.91 390.496 742.089 388.776 740.675ZM379.202 741.712C380.493 741.304 381.9 741.136 383.291 741.133C383.853 741.267 384.412 741.467 384.942 741.743C385.393 741.978 385.798 742.247 386.18 742.534C386.302 745.059 385.24 747.235 382.442 747.968C380.101 748.583 377.715 747.552 377.683 745.072C377.666 743.472 378.271 742.371 379.202 741.712ZM389.105 749.505C388.394 755.461 380.271 756.787 376.295 752.908C374.486 751.144 373.816 748.265 374.563 745.889C374.592 746.208 374.636 746.527 374.708 746.84C375.578 750.573 380.054 751.74 383.511 750.834C386.159 750.14 387.979 748.38 388.814 746.201C389.137 747.231 389.244 748.344 389.105 749.505Z" fill="#0C0C22"/>
<path d="M438.05 704.692C437.958 704.209 437.835 703.714 437.65 703.202C437.533 702.876 437.398 702.533 437.241 702.181C436.826 701.237 436.269 700.237 435.58 699.359C435.599 699.114 435.525 698.851 435.307 698.602C435.174 698.45 435.033 698.318 434.896 698.177C433.677 696.922 432.319 696.101 430.913 695.651C430.132 695.4 429.338 695.26 428.545 695.223C427.158 695.16 425.778 695.407 424.487 695.894C418.974 697.973 415.115 704.468 419.603 710.326C425.286 717.746 439.825 713.978 438.05 704.692ZM431.387 699.247C432.308 699.303 433.253 699.853 434.058 701.087C434.375 701.576 434.64 702.09 434.849 702.618C434.494 702.818 434.067 703.056 433.605 703.301C430.811 704.791 426.622 706.632 427.606 702.814C428.16 700.659 429.736 699.147 431.387 699.247ZM422.647 699.801C423.3 699.146 424.042 698.655 424.832 698.305C425.919 697.823 427.099 697.626 428.272 697.684C428.364 697.689 428.456 697.685 428.547 697.693C428.433 697.765 428.333 697.858 428.223 697.936C427.232 698.647 426.415 699.614 425.819 700.592C425.751 700.704 425.67 700.816 425.608 700.929C424.572 702.785 423.964 705.537 425.78 707.161C428.343 709.453 432.533 707.798 435.284 706.434C435.057 707.665 434.442 708.819 433.35 709.744C430.837 711.875 426.766 711.829 423.98 710.288C420.028 708.104 419.656 702.809 422.647 699.801Z" fill="#0C0C22"/>
<path d="M314.985 748.787C318.725 748.139 322.685 746.143 324.558 742.929C326.356 739.842 326.666 735.641 324.873 732.497C323.919 730.826 322.179 729.795 320.247 729.64C318.028 727.7 315.183 726.873 312.078 728.999C308.171 731.674 306.036 736.94 305.887 741.382C305.711 746.607 309.582 749.723 314.985 748.787ZM320.22 732.736C320.884 733.585 321.429 734.508 321.848 735.238C321.979 735.468 322.164 735.596 322.359 735.674C322.398 736.016 322.416 736.366 322.416 736.716C320.332 737.425 318.043 737.212 316.181 736.073C313.726 734.572 317.701 733.101 319.051 732.795C319.495 732.694 319.877 732.687 320.22 732.736ZM312.291 732.752C313.21 731.579 314.619 730.437 316.22 730.367C314.38 731.092 312.64 732.31 312.201 733.91C311.486 736.504 313.344 738.533 315.659 739.677C317.632 740.653 319.769 740.838 321.76 740.314C320.449 743.3 317.038 744.723 313.845 745.399C312.103 745.768 310.53 745.475 309.732 744C307.895 740.593 310.115 735.525 312.291 732.752Z" fill="#0C0C22"/>
<path d="M478.541 744.86C483.798 748.386 491.29 743.415 492.751 738.391C493.733 735.013 491.731 731.506 488.739 729.743C487.278 728.882 485.661 728.737 484.147 729.093C480.229 728.48 476.268 729.24 474.714 733.437C473.185 737.568 474.796 742.346 478.541 744.86ZM481.797 734.226C482.128 732.6 484.215 731.42 485.867 731.583C487.346 731.73 488.445 732.745 489.183 733.886C489.199 733.911 489.205 733.937 489.221 733.961C488.86 733.962 488.486 734.095 488.155 734.417C487.081 735.459 481.186 737.211 481.797 734.226ZM477.052 734.915C477.421 733.006 478.62 731.966 480.154 731.462C479.866 731.775 479.603 732.111 479.374 732.463C477.828 734.856 479.163 737.547 481.776 738.486C484.474 739.457 487.593 738.888 489.713 737.086C488.966 740.611 484.46 743.976 480.918 742.592C478.054 741.473 476.52 737.665 477.052 734.915Z" fill="#0C0C22"/>
<path d="M667.298 206.547C667.902 206.635 667.743 206.482 667.298 206.547V206.547Z" fill="#0C0C22"/>
<path d="M718.119 255.252C718.089 254.73 718.041 254.217 717.991 253.705C718.346 250.524 718.442 247.32 718.251 244.139C717.047 223.961 701.205 211.128 685.562 202.575C677.324 198.069 668.301 194.983 659.201 193.176C653.426 192.03 647.026 191.246 641.111 192.39C637.031 192.212 632.895 192.435 628.683 193.22C614.549 195.854 600.585 204.042 590.319 214.541C580.008 225.086 575.758 238.923 576.993 253.826C576.548 257.795 576.541 261.89 576.962 266.066C578.214 278.465 584.073 289.469 592.915 297.552C608.634 311.922 631.376 316.409 652.147 315.509C652.853 315.477 653.556 315.441 654.257 315.398C654.514 315.383 654.771 315.368 655.027 315.352C655.691 315.306 656.351 315.255 657.008 315.199C657.651 315.145 658.292 315.085 658.929 315.021C659.611 314.952 660.286 314.878 660.96 314.799C661.309 314.758 661.662 314.72 662.009 314.676C662.131 314.66 662.253 314.642 662.376 314.626C663.129 314.529 663.88 314.429 664.632 314.32C665.116 314.249 665.599 314.17 666.082 314.094C666.665 314.003 667.249 313.909 667.832 313.809C667.956 313.788 668.078 313.765 668.2 313.744C668.46 313.698 668.721 313.653 668.979 313.605C669.246 313.556 669.515 313.512 669.78 313.462C670.25 313.373 670.717 313.274 671.185 313.18C671.383 313.138 671.581 313.099 671.779 313.058C672.43 312.921 673.078 312.776 673.724 312.627C673.83 312.602 673.934 312.577 674.039 312.553C674.308 312.49 674.577 312.43 674.846 312.364C674.996 312.328 675.148 312.292 675.298 312.255C675.423 312.223 675.547 312.187 675.672 312.155C675.956 312.083 676.237 312.005 676.519 311.929C676.849 311.843 677.179 311.76 677.506 311.668C677.921 311.552 678.334 311.424 678.747 311.302C679.257 311.15 679.767 311.004 680.272 310.842C680.62 310.729 680.962 310.604 681.308 310.487C681.666 310.367 682.024 310.247 682.379 310.121C682.73 309.997 683.077 309.866 683.423 309.736C683.647 309.652 683.866 309.564 684.088 309.479C684.21 309.431 684.334 309.385 684.457 309.337C685.017 309.116 685.575 308.885 686.133 308.647C686.143 308.642 686.154 308.637 686.164 308.632C686.278 308.584 686.39 308.533 686.503 308.484C686.47 308.658 686.438 308.832 686.408 309.006C686.446 308.83 686.485 308.653 686.523 308.475C687.281 308.144 688.034 307.796 688.782 307.432C688.817 307.415 688.851 307.397 688.888 307.38C688.992 307.329 689.096 307.278 689.201 307.225C689.508 307.073 689.819 306.931 690.125 306.772C690.619 306.514 691.102 306.236 691.589 305.963C691.662 305.921 691.736 305.883 691.808 305.842C692.054 305.703 692.303 305.572 692.546 305.43C692.626 305.382 692.703 305.329 692.783 305.282C693.139 305.071 693.489 304.846 693.84 304.627C694.186 304.41 694.536 304.199 694.877 303.973C695.209 303.754 695.533 303.517 695.861 303.29C696.135 303.099 696.412 302.914 696.684 302.718C696.693 302.711 696.703 302.704 696.712 302.697C696.953 302.522 697.19 302.34 697.427 302.161C697.739 301.926 698.046 301.683 698.353 301.44C698.7 301.164 699.051 300.89 699.393 300.603C699.429 300.622 699.463 300.642 699.498 300.66C699.523 300.59 699.547 300.52 699.569 300.449C699.918 300.153 700.264 299.85 700.606 299.543C700.783 299.386 700.962 299.24 701.135 299.079C701.141 299.074 701.15 299.068 701.155 299.062C701.181 299.038 701.208 299.018 701.233 298.995C701.72 298.542 702.194 298.077 702.664 297.603C703.408 296.851 704.127 296.074 704.825 295.272C705.026 295.038 705.231 294.804 705.43 294.565C706.052 293.821 706.653 293.059 707.232 292.277C707.514 291.897 707.792 291.514 708.063 291.127C715.212 280.913 718.873 267.877 718.119 255.252ZM589.838 287.789C586.502 283.398 584.14 278.391 582.648 273.096C585.329 278.091 588.845 282.597 593.047 286.438C609.33 301.326 633.152 305.607 654.51 304.277C654.106 306.481 653.746 308.692 653.314 310.891C653.264 311.142 653.197 311.41 653.121 311.69C630.684 312.825 604.371 306.918 589.838 287.789ZM655.024 311.578C655.428 309.143 655.591 306.643 655.874 304.187C656.669 304.129 657.461 304.062 658.249 303.987C657.993 305.586 657.715 307.181 657.374 308.765C657.18 309.672 656.944 310.567 656.666 311.448C656.121 311.494 655.574 311.539 655.024 311.578ZM658.237 311.307C658.264 311.175 658.292 311.049 658.32 310.932C658.851 308.625 659.139 306.251 659.376 303.875C660.088 303.802 660.8 303.722 661.507 303.636C661.031 306.143 660.51 308.641 659.969 311.133C659.391 311.194 658.813 311.252 658.237 311.307ZM661.489 310.961C661.92 308.475 662.329 305.984 662.696 303.487C663.548 303.374 664.398 303.257 665.246 303.131C664.841 305.28 664.375 307.418 663.859 309.549C663.768 309.922 663.663 310.306 663.548 310.701C662.861 310.794 662.174 310.88 661.489 310.961ZM669.52 306.806C669.385 307.414 669.188 308.086 668.974 308.789C669.237 306.571 669.43 304.289 669.572 302.408C669.892 302.349 670.209 302.288 670.529 302.226C670.19 303.751 669.857 305.279 669.52 306.806ZM665.268 310.461C665.293 310.317 665.319 310.175 665.346 310.036C665.347 310.174 665.346 310.312 665.352 310.448C665.324 310.453 665.296 310.456 665.268 310.461ZM666.409 310.285C666.476 310.106 666.549 309.933 666.611 309.751C666.586 309.923 666.56 310.094 666.537 310.265C666.494 310.272 666.451 310.278 666.409 310.285ZM671.767 309.291C671.789 309.139 671.812 308.986 671.835 308.837C672.195 306.486 672.49 304.126 672.779 301.764C673.402 301.627 674.024 301.478 674.645 301.328C674.246 303.596 673.72 305.841 673.198 308.073C673.129 308.365 673.036 308.688 672.932 309.031C672.544 309.12 672.155 309.206 671.767 309.291ZM677.23 300.662C677.053 301.412 676.883 302.165 676.715 302.916C676.763 302.202 676.791 301.487 676.821 300.772C676.956 300.735 677.093 300.7 677.23 300.662ZM678.28 307.606C678.747 305.092 679.157 302.566 679.424 300.023C680.276 299.762 681.122 299.485 681.963 299.193C681.54 300.905 681.12 302.616 680.685 304.324C680.452 305.243 680.205 306.158 679.955 307.071C679.4 307.258 678.841 307.434 678.28 307.606ZM682.905 305.999C683.214 303.855 683.503 301.663 683.621 299.479C683.689 299.159 683.757 298.839 683.823 298.518C684.627 298.212 685.424 297.891 686.216 297.552C686.01 299.444 685.714 301.328 685.37 303.204C685.171 303.846 684.925 304.545 684.669 305.275C684.084 305.526 683.497 305.767 682.905 305.999ZM699.662 289.368C699.124 290.958 698.618 292.56 698.118 294.164C698.426 292.767 698.706 291.364 698.958 289.955C699.195 289.763 699.429 289.566 699.662 289.368ZM709.61 277.855C709.482 278.602 709.336 279.345 709.167 280.082C709.259 279.452 709.337 278.82 709.407 278.187C709.475 278.078 709.541 277.965 709.61 277.855ZM703.91 290.372C704.36 289.115 704.858 287.881 705.437 286.68C705.366 286.924 705.297 287.167 705.222 287.41C705.001 288.13 704.759 288.843 704.507 289.554C704.31 289.827 704.113 290.104 703.91 290.372ZM694.515 299.7C694.779 298.784 695.042 297.867 695.311 296.951C695.187 297.557 695.06 298.161 694.934 298.766C694.854 299.035 694.773 299.303 694.689 299.571C694.631 299.614 694.573 299.658 694.515 299.7ZM703.482 287.136C703.515 286.649 703.554 286.161 703.568 285.68C703.978 285.245 704.387 284.812 704.783 284.362C704.301 285.266 703.876 286.195 703.482 287.136ZM693.154 299.075C693.497 297.214 693.785 295.349 694.028 293.477C694.349 293.275 694.674 293.082 694.991 292.871C694.366 294.931 693.79 297.019 693.154 299.075ZM689.816 302.733C689.86 302.524 689.898 302.312 689.943 302.108C690.448 299.765 690.907 297.412 691.348 295.054C691.468 294.988 691.589 294.922 691.709 294.855C691.266 297.483 690.622 300.065 689.962 302.652C689.914 302.68 689.866 302.705 689.816 302.733ZM688.749 296.397C688.89 296.33 689.029 296.261 689.168 296.192C688.956 296.761 688.745 297.331 688.534 297.902C688.613 297.401 688.684 296.901 688.749 296.397ZM687.509 303.962C687.982 301.88 688.499 299.818 689.135 297.799C688.957 298.648 688.785 299.499 688.601 300.346C688.347 301.499 688.014 302.682 687.672 303.878C687.618 303.905 687.563 303.934 687.509 303.962ZM711.434 276.488C711.46 275.887 711.469 275.282 711.465 274.671C711.964 273.744 712.447 272.805 712.896 271.848C712.483 273.416 711.989 274.964 711.434 276.488ZM714.244 254.573C713.426 260.712 711.426 266.737 708.537 272.184C708.193 272.312 707.905 272.626 707.885 273.111C707.88 273.211 707.871 273.308 707.865 273.408C705.652 277.334 702.97 280.927 699.931 284.007C699.294 284.653 698.645 285.284 697.978 285.883C697.893 285.96 697.805 286.032 697.721 286.108C696.698 287.009 695.647 287.855 694.566 288.646C694.247 288.878 693.927 289.108 693.603 289.332C693.403 289.472 693.197 289.606 692.995 289.742C692.807 289.866 692.622 289.995 692.434 290.116C692.366 290.159 692.299 290.199 692.232 290.243C692.234 290.222 692.234 290.201 692.236 290.18C692.231 290.203 692.228 290.225 692.224 290.248C691.877 290.469 691.531 290.687 691.18 290.899C690.936 291.046 690.69 291.189 690.445 291.333C689.998 291.593 689.547 291.845 689.092 292.091C688.577 292.369 688.058 292.639 687.533 292.9C687.522 292.716 687.501 292.533 687.486 292.351C687.468 292.551 687.443 292.752 687.424 292.952C687.209 293.059 686.992 293.164 686.776 293.267C686.685 293.31 686.597 293.355 686.506 293.397C686.217 293.534 685.924 293.666 685.631 293.796C685.322 293.934 685.013 294.07 684.704 294.202C684.317 294.368 683.929 294.529 683.538 294.686C683.372 294.753 683.203 294.821 683.033 294.886C682.863 294.953 682.691 295.021 682.519 295.087C681.589 295.441 680.649 295.772 679.701 296.083C679.59 296.12 679.478 296.155 679.366 296.191C679.012 296.306 678.659 296.417 678.303 296.525C678.314 296.388 678.319 296.25 678.329 296.112C678.293 296.258 678.258 296.404 678.222 296.55C677.781 296.683 677.341 296.813 676.896 296.938C676.689 296.998 676.479 297.058 676.269 297.115C676.146 297.149 676.02 297.182 675.897 297.215C675.656 297.278 675.416 297.342 675.177 297.404C674.542 297.567 673.903 297.723 673.265 297.871C673.176 297.893 673.087 297.913 672.996 297.933C672.635 298.015 672.272 298.097 671.908 298.175C671.753 298.208 671.599 298.241 671.443 298.274C670.915 298.384 670.384 298.491 669.855 298.592C669.377 298.684 668.899 298.772 668.421 298.857C668.291 298.88 668.159 298.904 668.027 298.926C667.825 298.876 667.611 298.905 667.44 299.025C667.302 299.048 667.163 299.072 667.025 299.094C666.646 299.155 666.269 299.214 665.892 299.272C663.838 299.584 661.784 299.841 659.746 300.056C659.442 300.087 659.138 300.119 658.835 300.149C658.364 300.196 657.893 300.241 657.424 300.284C634.162 302.402 605.413 297.003 589.971 276.676C584.697 269.734 581.832 261.265 581.064 252.522C580.649 247.8 580.838 243 581.612 238.312C581.661 238.009 581.724 237.71 581.782 237.409C584.838 221.579 598.731 209.98 611.58 203.029C619.054 198.986 626.871 196.384 634.997 195.538C636.156 195.417 637.325 195.341 638.496 195.293C641.032 195.188 643.596 195.246 646.188 195.493C656.402 196.471 666.358 199.678 676.285 202.573C677.695 203.223 679.097 203.891 680.48 204.592C694.185 211.529 708.913 221.325 713.296 237.713C713.449 238.285 713.587 238.862 713.715 239.439C714.797 244.383 714.919 249.516 714.244 254.573Z" fill="#0C0C22"/>
<path d="M644.134 238.12C643.898 239.02 645.232 239.634 645.714 238.865C648.363 234.623 646.195 229.901 644.076 225.927C643.398 224.653 642.602 223.327 641.802 221.957C642.025 221.589 642.134 221.152 642.069 220.687C642.105 220.936 642.293 220.863 642.551 220.621C643.207 220.004 644.319 218.261 644.605 217.731C644.625 217.693 644.646 217.655 644.658 217.63C644.536 217.891 645.004 218.166 645.763 218.439C646.577 218.731 647.732 219.019 648.87 219.282C650.717 219.708 652.519 220.067 652.742 220.268C653.439 220.89 653.754 221.72 653.832 222.661C654.065 225.502 652.115 229.372 651.817 231.72C651.685 232.759 652.116 233.597 652.766 234.122C652.445 235.461 652.102 236.794 651.713 238.108C651.561 238.624 652.07 239.241 652.554 238.831C654.2 237.437 655.672 235.813 657.449 234.605C658.782 233.701 660.281 232.265 660.892 230.677C662.068 227.621 662.331 223.234 664.201 220.481C664.592 220.237 664.933 219.882 665.162 219.393C665.171 219.374 665.178 219.356 665.186 219.338C665.211 219.315 665.231 219.29 665.256 219.269C667.082 217.687 669.182 216.668 670.84 214.833C671.505 214.096 671.78 213.262 671.798 212.408C671.804 212.198 671.793 211.989 671.769 211.778C671.707 211.24 671.559 210.701 671.346 210.182C670.964 209.247 670.389 208.374 669.801 207.678C668.932 206.648 667.666 206.454 666.64 206.835C666.65 206.808 666.66 206.781 666.672 206.755C666.907 206.63 667.122 206.573 667.298 206.548C667.282 206.545 667.277 206.546 667.258 206.543C666.749 206.463 666.244 206.347 665.739 206.239C664.445 205.961 663.171 205.601 661.857 205.449C658.841 205.101 655.901 204.583 652.92 204.008C650.655 203.572 648.895 203.014 646.47 203.191C645.287 203.278 644.112 203.432 642.947 203.62C642.291 203.571 641.635 203.534 640.979 203.505C639.253 203.839 637.573 204.35 635.958 205.052C635.498 205.154 635.039 205.255 634.579 205.354C633.709 205.544 632.791 206.1 632.377 206.97C632.256 207.228 632.173 207.512 632.155 207.824C631.817 213.883 634.62 218.836 637.902 223.548C640.699 227.566 645.575 232.625 644.134 238.12ZM657.929 220.617C658.464 218.861 659.173 217.185 659.781 215.465C660.368 213.806 660.926 211.805 662.27 210.71C664.133 209.193 666.042 212.052 664.786 213.808C664.302 214.482 663.833 214.629 663.179 215.046C662.519 215.466 661.891 216.032 661.333 216.598C660.145 217.801 659.313 219.307 658.692 220.906C658.517 221.36 657.785 221.084 657.929 220.617ZM652.531 209.721C652.698 206.847 656.611 208.251 655.419 210.419C654.424 212.225 653.994 214.263 653.488 216.291C653.296 217.059 652.083 217.017 652.125 216.161C652.229 214.012 652.405 211.846 652.531 209.721ZM645.917 206.789C646.452 207.608 646.57 208.943 646.681 209.93C646.823 211.162 647.075 212.375 647.21 213.607C647.286 214.309 646.193 214.489 646.056 213.799C645.802 212.513 645.513 211.243 645.002 210.043C644.639 209.189 644.148 208.309 644.047 207.379C643.924 206.245 645.392 205.984 645.917 206.789ZM638.442 208.446C639.096 209.096 639.694 209.83 640.206 210.609C640.765 211.456 641.121 212.365 641.533 213.297C641.78 213.858 641.032 214.476 640.653 213.939C639.667 212.537 638.196 211.421 636.818 210.479C635.293 209.438 637.07 207.082 638.442 208.446Z" fill="#0C0C22"/>
<path d="M709.788 241.51C709.093 239.841 707.945 238.59 706.893 237C706.692 236.695 706.47 236.409 706.243 236.128C706.198 236.072 706.153 236.014 706.104 235.956C704.303 233.819 701.861 232.274 700.396 229.842C700.295 229.676 700.205 229.505 700.116 229.333C699.883 228.868 699.695 228.397 699.521 227.928C698.954 226.4 698.51 224.925 696.929 224.003C696.921 223.998 696.913 223.995 696.904 223.989C695.008 222.89 692.954 222.413 690.879 222.384C688.279 222.349 685.644 223.015 683.239 224.054C680.124 225.4 677.313 227.86 674.952 230.352C673.616 231.764 672.205 233.098 670.811 234.448C666.362 236.52 661.419 237.203 657.69 240.918C657.463 241.143 657.34 241.391 657.298 241.64C657.284 241.723 657.278 241.806 657.28 241.888C657.316 242.873 658.529 243.75 659.504 243.133C659.83 242.928 660.155 242.741 660.478 242.564C663.935 240.656 667.292 240.218 671.173 239.331C671.202 239.325 671.23 239.316 671.258 239.309C675.461 238.303 679.245 234.058 683.463 232.576C684.426 232.237 685.414 232.042 686.433 232.065C686.491 232.066 686.547 232.068 686.603 232.071C686.945 232.087 687.289 232.124 687.641 232.191C687.659 232.289 687.688 232.387 687.711 232.485C687.816 232.921 687.961 233.358 688.138 233.799C689.106 236.205 690.993 238.675 692.153 241.025C692.204 241.127 692.254 241.23 692.302 241.332C692.387 241.513 692.467 241.694 692.542 241.874C692.303 242.105 692.07 242.319 691.841 242.522C691.777 242.579 691.716 242.629 691.654 242.684C689.015 244.974 687.057 245.451 684.185 245.459C683.195 245.463 682.097 245.412 680.82 245.362C680.622 245.353 680.425 245.336 680.228 245.323C677.205 245.132 674.228 244.45 671.188 244.388C670.361 244.371 669.694 244.405 669.164 244.48C665.873 244.942 668.002 246.989 671.747 248.457C674.288 249.453 676.905 250.248 679.519 250.992C684.744 252.48 690.073 253.573 695.254 255.223C697.898 256.064 700.823 258.077 703.614 258.126C706.55 258.178 708.342 255.368 709.172 252.723C710.118 249.711 710.828 246.519 710.31 243.347C710.2 242.669 710.019 242.067 709.788 241.51ZM691.8 232.978C690.61 232.86 690.612 230.904 691.796 230.772C692.533 230.688 692.778 230.507 693.394 229.941C693.896 229.482 694.71 229.638 695.098 230.17C695.534 230.764 695.365 231.498 694.881 231.979C694.029 232.825 692.943 233.092 691.8 232.978ZM694.804 239.584C693.628 239.272 693.994 237.276 695.187 237.387C696.112 237.474 697.011 237.495 697.925 237.284C698.545 237.141 699.229 236.888 699.862 236.918C700.833 236.966 701.664 238.321 700.976 239.22C699.548 241.09 696.66 240.077 694.804 239.584ZM702.156 251.71C699.95 251.142 698.139 249.458 696.039 248.598C694.82 248.097 695.333 246.164 696.625 246.517C698.783 247.104 700.827 248.23 702.887 249.108C704.403 249.754 703.781 252.128 702.156 251.71Z" fill="#0C0C22"/>
<path d="M697.381 265.277C697.341 265.208 697.302 265.135 697.261 265.067C690.027 253.25 673.782 256.418 662.923 252.648C661.552 252.172 660.798 254.253 662.122 254.865C667.057 257.142 672.343 258.472 677.421 260.331C680.777 261.557 685.328 263.523 687.622 266.903C687.356 266.876 687.086 266.857 686.813 266.851C685.246 266.812 684.1 268.042 684.261 269.722C684.269 269.791 684.281 269.858 684.29 269.928C683.752 270.2 683.304 270.68 683.128 271.256C683.068 271.453 682.98 271.664 682.875 271.882C682.808 272.021 682.736 272.163 682.653 272.309C681.915 273.63 680.632 275.229 679.781 276.796C678.946 275.596 678.105 274.402 677.257 273.208C673.75 268.263 670.107 263.955 665.292 260.52C664.365 259.065 663.375 257.664 662.256 256.374C660.604 254.468 657.208 256.375 658.443 258.88C658.992 259.993 659.589 261.159 660.228 262.325C664.885 271.63 669.438 282.527 678.453 287.23C679.077 287.555 679.711 287.435 680.215 287.073C680.429 287.168 680.657 287.238 680.894 287.269C681.368 287.333 681.85 287.33 682.335 287.283C682.776 287.5 683.248 287.655 683.75 287.724C685.241 287.931 686.166 287.061 686.735 285.843C687.648 285.396 688.522 284.91 689.324 284.484C692.672 282.71 695.904 280.627 698.991 278.387C701.618 276.483 703.127 274.273 701.701 270.699C700.934 268.78 699.321 266.656 697.381 265.277ZM677.776 282.979C677.596 283.506 677.228 283.732 676.708 283.666C675.814 283.553 675.468 282.322 675.284 281.522C675.087 280.671 675.031 279.825 675.086 278.953C675.161 277.744 676.792 277.66 676.876 278.896C676.928 279.656 677.065 280.425 677.323 281.138C677.546 281.758 678.015 282.282 677.776 282.979ZM684.482 283.155C684.097 283.592 683.386 283.645 682.978 283.209C682.231 282.409 681.854 281.416 681.586 280.339C681.264 279.039 683.001 278.524 683.451 279.748C683.69 280.401 684.036 281.051 684.433 281.562C684.801 282.035 684.915 282.663 684.482 283.155ZM688.758 279.612C688.17 278.99 687.87 278.042 687.456 277.286C686.974 276.406 686.436 275.633 685.814 274.861C685.462 274.426 686.051 273.711 686.469 274.11C687.222 274.827 688.009 275.436 688.819 276.077C689.588 276.684 690.435 277.244 690.898 278.162C691.629 279.608 689.725 280.634 688.758 279.612ZM694.945 271.39C693.994 271.023 693.018 270.944 691.996 270.867C690.793 270.777 690.782 268.668 691.994 268.608C693.209 268.547 694.451 268.51 695.662 268.626C697.588 268.812 696.881 272.139 694.945 271.39Z" fill="#0C0C22"/>
<path d="M652.675 268.817C651.731 265.624 650.837 262.33 650.736 258.965C650.688 257.417 648.608 257.351 648.075 258.588C646.913 261.292 645.721 264.192 644.701 267.184C643.882 265.319 641.517 265.425 640.683 267.219C639.34 270.107 637.492 271.721 635.23 268.67C634.535 267.732 633.404 267.579 632.504 268.074C633.094 265.552 633.855 263.1 635.196 261.021C635.664 260.913 636.09 260.804 636.432 260.685C639.135 259.735 641.157 257.351 642.718 254.719C643.306 254.483 643.51 253.948 643.439 253.432C643.942 252.478 644.394 251.517 644.798 250.602C645.459 249.1 643.451 248 642.512 249.202C641.131 250.969 639.272 252.278 637.203 253.326C636.948 253.416 636.69 253.506 636.435 253.604C635.716 253.086 634.804 252.91 633.862 253.4C632.879 253.91 631.902 254.431 630.926 254.957C630.312 254.591 629.54 254.498 628.675 254.898C620.988 258.693 613.182 260.643 607.07 267.306C606.395 268.042 606.249 268.857 606.434 269.598C604.565 272.004 603.541 274.849 604.458 278.14C605.518 281.953 610.608 282.943 613.726 283.625C618.485 284.665 621.742 286.004 625.014 289.998C627.772 293.368 630.655 295.716 634.89 296.489C639.082 297.252 643.418 295.531 647.646 294.787C648.148 294.699 648.649 294.623 649.148 294.569C650.976 294.368 652.778 294.43 654.533 295.043C655.543 295.397 656.88 295.265 657.513 294.204C660.293 289.549 657.762 283.398 655.873 278.921C654.524 275.722 653.663 272.162 652.675 268.817ZM615.537 272.972C615.198 273.42 615.076 273.856 614.656 274.238C613.833 274.986 612.162 274.258 612.661 272.975C613.18 271.638 614.636 270.589 615.832 269.926C617.168 269.187 618.543 268.511 619.897 267.798C620.385 267.542 620.766 268.275 620.303 268.582C619.04 269.422 617.941 270.311 616.883 271.427C616.416 271.92 615.95 272.427 615.537 272.972ZM623.201 274.153C622.32 275.453 621.799 276.871 621.397 278.407C621.106 279.53 621.036 281.026 620.246 281.878C619.518 282.662 618.225 282.128 618.033 281.113C617.784 279.778 618.919 278.123 619.571 277.041C620.363 275.728 621.216 274.412 622.215 273.267C622.72 272.687 623.63 273.521 623.201 274.153ZM631.42 276.625C629.818 279.638 629.303 282.927 628.89 286.306C628.637 288.358 625.381 287.626 625.955 285.677C626.983 282.195 628.386 278.87 630.3 275.835C630.731 275.153 631.794 275.92 631.42 276.625ZM637.116 289.842C636.396 286.524 637.381 283.042 637.006 279.679C636.907 278.8 638.079 278.442 638.3 279.347C639.032 282.359 638.866 285.787 639.957 288.683C640.799 290.919 637.604 292.094 637.116 289.842ZM647.542 286.653C646.531 285.647 646.244 283.657 646.012 282.282C645.742 280.685 645.627 279.088 645.574 277.467C645.537 276.297 647.233 276.264 647.449 277.341C647.985 280.005 649.07 282.37 650.044 284.853C650.721 286.579 648.799 287.904 647.542 286.653Z" fill="#0C0C22"/>
<path d="M625.285 250.418C629.04 248.736 632.892 247.702 636.771 246.455C638.731 245.825 638.987 242.404 636.595 242.353C635.554 242.33 634.497 242.399 633.436 242.517C633.608 241.93 633.366 241.243 632.606 241.231C630.191 241.193 627.819 240.784 625.4 240.94C622.734 241.114 620.403 241.959 617.888 242.86C616.848 243.233 615.778 243.637 614.686 244.028C614.69 243.854 614.68 243.688 614.659 243.528C614.659 243.516 614.654 243.503 614.653 243.49C614.538 242.695 614.117 242.073 613.5 241.659C613.248 241.489 612.961 241.354 612.648 241.258C613.013 241.006 613.327 240.764 613.602 240.511C614.483 239.702 614.952 238.787 615.28 237.113C615.28 237.11 615.28 237.107 615.282 237.104C615.334 236.833 615.267 236.284 615.163 235.608C615.014 234.646 614.794 233.431 614.729 232.393C614.718 232.197 614.712 232.008 614.712 231.828C614.714 231.378 614.763 230.992 614.88 230.706C614.999 230.417 615.18 230.224 615.464 230.194C616.348 230.101 616.951 229.57 617.272 228.873C617.663 229.041 618.051 229.215 618.439 229.391C621.957 232.29 626.012 234.723 629.244 237.44C630.136 238.19 631.194 238.007 631.986 237.397C632.084 237.564 632.186 237.73 632.284 237.898C632.866 238.9 634.54 238.571 634.273 237.237C633.114 231.475 629.987 226.033 626.579 221.465C625.026 219.385 623.141 217.219 620.986 215.562C620.094 213.594 618.619 212.081 616.281 211.969C616.119 211.962 615.959 211.971 615.8 211.976C614.743 212.01 613.73 212.308 612.765 212.79C612.748 212.793 612.731 212.79 612.711 212.793C611.98 212.873 611.43 213.291 611.054 213.857C610.444 214.309 609.86 214.812 609.302 215.345C608.194 216.404 607.193 217.567 606.321 218.605C602.786 222.823 599.82 227.562 597.286 232.517C597.173 232.735 597.059 232.958 596.939 233.186C596.137 233.853 595.349 234.559 594.58 235.321C591.129 238.738 589.889 243.771 589.748 248.636C589.658 251.655 590.369 255.078 592.335 257.337C592.132 258.941 593.079 260.799 594.772 260.714C601.914 260.358 608.408 258.187 614.953 255.243C618.417 253.683 621.818 251.97 625.285 250.418ZM617.976 216.84C619.195 218.986 620.657 221.097 621.557 223.441C621.877 224.278 620.711 224.87 620.35 224.039C619.862 222.913 619.288 221.792 618.525 220.847C617.745 219.883 616.986 219.27 615.999 218.589C614.307 217.423 616.77 214.717 617.976 216.84ZM609.826 220.406C609.873 220.15 609.952 219.968 610.095 219.759C610.433 219.26 611.095 219.153 611.604 219.372C613.491 220.185 615.014 222.307 616.158 224.017C616.588 224.659 615.732 225.283 615.252 224.727C613.918 223.183 612.253 222.767 610.567 221.84C610.075 221.571 609.713 221.017 609.826 220.406ZM601.037 229.608C604.109 228.933 607.804 229.988 610.611 231.305C611.256 231.607 611.059 232.807 610.302 232.639C608.79 232.301 607.335 232.237 605.798 232.194C604.265 232.15 602.58 232.365 601.093 232.001C599.874 231.703 599.711 229.9 601.037 229.608ZM596.77 240.446C600.019 239.186 603.468 238.643 606.786 237.637C607.694 237.362 608.364 238.845 607.462 239.29C604.247 240.879 600.851 241.95 597.541 243.288C595.865 243.965 595.082 241.101 596.77 240.446ZM599.721 251.291C598.761 251.947 598.1 252.912 597.129 253.523C596.178 254.122 594.584 253.255 595.019 251.946C596.663 247.003 603.973 247.895 607.285 244.95C607.805 244.487 608.42 245.371 608.019 245.876C606.653 247.595 604.973 248.742 603.035 249.62C601.917 250.126 600.746 250.589 599.721 251.291ZM611.937 250.185C611.17 250.939 610.351 251.62 609.616 252.415C608.957 253.128 608.355 253.895 607.697 254.606C606.409 255.998 604.557 253.888 605.74 252.464C607.12 250.802 609.42 250.21 611.156 249.06C611.799 248.634 612.485 249.649 611.937 250.185Z" fill="#0C0C22"/>
<path d="M658.691 220.906C659.312 219.307 660.144 217.8 661.333 216.598C661.891 216.033 662.519 215.466 663.179 215.046C663.833 214.628 664.302 214.482 664.785 213.808C666.042 212.052 664.133 209.193 662.269 210.71C660.926 211.805 660.368 213.806 659.78 215.465C659.173 217.185 658.464 218.861 657.928 220.616C657.785 221.084 658.517 221.36 658.691 220.906Z" fill="white"/>
<path d="M653.488 216.291C653.994 214.262 654.424 212.225 655.419 210.419C656.611 208.251 652.698 206.846 652.531 209.721C652.406 211.846 652.229 214.011 652.124 216.161C652.083 217.017 653.296 217.058 653.488 216.291Z" fill="white"/>
<path d="M645.002 210.043C645.513 211.243 645.802 212.513 646.057 213.799C646.193 214.489 647.286 214.309 647.21 213.607C647.075 212.375 646.823 211.162 646.681 209.93C646.57 208.943 646.452 207.608 645.917 206.789C645.393 205.984 643.924 206.245 644.047 207.379C644.148 208.309 644.639 209.189 645.002 210.043Z" fill="white"/>
<path d="M640.653 213.939C641.032 214.476 641.779 213.858 641.533 213.297C641.121 212.364 640.765 211.455 640.206 210.609C639.694 209.83 639.096 209.096 638.442 208.446C637.07 207.082 635.293 209.438 636.817 210.479C638.196 211.421 639.667 212.537 640.653 213.939Z" fill="white"/>
<path d="M615.999 218.589C616.986 219.27 617.745 219.883 618.525 220.847C619.288 221.792 619.862 222.913 620.351 224.039C620.711 224.87 621.877 224.278 621.557 223.441C620.657 221.097 619.195 218.986 617.976 216.84C616.77 214.717 614.307 217.424 615.999 218.589Z" fill="white"/>
<path d="M610.567 221.84C612.253 222.767 613.918 223.183 615.252 224.727C615.732 225.283 616.588 224.659 616.158 224.017C615.014 222.307 613.491 220.185 611.604 219.372C611.095 219.153 610.433 219.26 610.095 219.759C609.952 219.968 609.873 220.15 609.826 220.406C609.713 221.017 610.075 221.571 610.567 221.84Z" fill="white"/>
<path d="M601.093 232.001C602.58 232.365 604.265 232.15 605.798 232.194C607.335 232.237 608.79 232.301 610.302 232.639C611.059 232.807 611.255 231.608 610.611 231.305C607.804 229.988 604.109 228.933 601.037 229.608C599.711 229.9 599.874 231.703 601.093 232.001Z" fill="white"/>
<path d="M597.542 243.288C600.852 241.95 604.248 240.879 607.462 239.29C608.364 238.845 607.694 237.362 606.786 237.637C603.468 238.643 600.019 239.186 596.77 240.446C595.082 241.101 595.866 243.965 597.542 243.288Z" fill="white"/>
<path d="M608.019 245.876C608.42 245.372 607.805 244.488 607.285 244.951C603.974 247.895 596.664 247.003 595.02 251.946C594.585 253.255 596.178 254.123 597.129 253.523C598.1 252.912 598.761 251.947 599.722 251.291C600.746 250.589 601.918 250.126 603.036 249.62C604.974 248.743 606.653 247.596 608.019 245.876Z" fill="white"/>
<path d="M611.156 249.06C609.42 250.21 607.121 250.802 605.74 252.463C604.557 253.887 606.409 255.997 607.697 254.606C608.355 253.895 608.956 253.127 609.616 252.415C610.351 251.62 611.17 250.939 611.937 250.185C612.485 249.649 611.799 248.634 611.156 249.06Z" fill="white"/>
<path d="M619.897 267.798C618.543 268.511 617.168 269.187 615.832 269.926C614.636 270.589 613.18 271.637 612.661 272.974C612.162 274.258 613.832 274.986 614.655 274.238C615.076 273.856 615.198 273.42 615.537 272.972C615.95 272.426 616.416 271.92 616.883 271.427C617.941 270.311 619.04 269.422 620.303 268.582C620.766 268.275 620.385 267.542 619.897 267.798Z" fill="white"/>
<path d="M622.215 273.266C621.216 274.412 620.364 275.728 619.572 277.04C618.919 278.123 617.784 279.778 618.034 281.112C618.225 282.128 619.519 282.661 620.247 281.878C621.036 281.026 621.106 279.53 621.398 278.407C621.799 276.871 622.321 275.453 623.202 274.152C623.63 273.521 622.721 272.687 622.215 273.266Z" fill="white"/>
<path d="M630.3 275.835C628.386 278.87 626.983 282.195 625.955 285.677C625.381 287.625 628.637 288.358 628.89 286.306C629.303 282.926 629.818 279.637 631.421 276.624C631.794 275.92 630.731 275.152 630.3 275.835Z" fill="white"/>
<path d="M638.3 279.347C638.079 278.442 636.907 278.8 637.006 279.679C637.381 283.042 636.396 286.524 637.117 289.841C637.605 292.094 640.8 290.919 639.958 288.683C638.867 285.787 639.033 282.359 638.3 279.347Z" fill="white"/>
<path d="M647.449 277.341C647.233 276.264 645.537 276.297 645.574 277.467C645.628 279.088 645.742 280.685 646.012 282.282C646.244 283.657 646.532 285.647 647.543 286.653C648.8 287.904 650.721 286.579 650.044 284.853C649.07 282.369 647.985 280.005 647.449 277.341Z" fill="white"/>
<path d="M676.876 278.896C676.792 277.66 675.161 277.744 675.086 278.953C675.031 279.825 675.087 280.671 675.284 281.522C675.469 282.322 675.814 283.553 676.708 283.666C677.228 283.732 677.596 283.506 677.777 282.979C678.015 282.282 677.546 281.758 677.323 281.137C677.065 280.424 676.928 279.655 676.876 278.896Z" fill="white"/>
<path d="M683.452 279.748C683.001 278.524 681.264 279.039 681.586 280.339C681.854 281.416 682.231 282.409 682.978 283.209C683.386 283.645 684.097 283.592 684.482 283.155C684.915 282.663 684.801 282.035 684.433 281.562C684.037 281.051 683.69 280.401 683.452 279.748Z" fill="white"/>
<path d="M688.819 276.077C688.009 275.436 687.222 274.827 686.469 274.11C686.051 273.711 685.462 274.426 685.814 274.861C686.436 275.632 686.975 276.406 687.456 277.286C687.87 278.042 688.169 278.99 688.758 279.612C689.726 280.634 691.629 279.608 690.898 278.162C690.435 277.244 689.588 276.685 688.819 276.077Z" fill="white"/>
<path d="M695.663 268.627C694.452 268.51 693.209 268.547 691.995 268.608C690.782 268.668 690.793 270.777 691.996 270.867C693.018 270.944 693.994 271.023 694.946 271.39C696.881 272.139 697.588 268.812 695.663 268.627Z" fill="white"/>
<path d="M702.887 249.108C700.827 248.23 698.782 247.104 696.625 246.517C695.333 246.164 694.82 248.098 696.039 248.598C698.139 249.458 699.95 251.142 702.156 251.71C703.781 252.128 704.403 249.754 702.887 249.108Z" fill="white"/>
<path d="M700.976 239.22C701.664 238.321 700.833 236.966 699.862 236.918C699.229 236.888 698.545 237.141 697.925 237.284C697.012 237.495 696.112 237.474 695.187 237.387C693.994 237.276 693.629 239.273 694.804 239.585C696.66 240.077 699.548 241.09 700.976 239.22Z" fill="white"/>
<path d="M695.098 230.17C694.71 229.637 693.896 229.481 693.394 229.941C692.778 230.506 692.533 230.688 691.796 230.771C690.612 230.904 690.611 232.859 691.8 232.978C692.943 233.092 694.029 232.825 694.881 231.978C695.365 231.498 695.534 230.763 695.098 230.17Z" fill="white"/>
<path d="M325.716 73.4113C325.406 71.8547 324.931 70.3512 324.34 68.8893C324.024 68.11 323.668 67.3471 323.282 66.5923C322.143 64.3619 320.712 62.2392 319.079 60.2039C318.623 59.6347 318.151 59.074 317.666 58.519C317.226 58.0158 316.779 57.5188 316.318 57.0282C315.826 56.5045 315.324 55.985 314.812 55.4716C313.957 54.6157 313.074 53.7744 312.174 52.9475C311.695 52.5083 311.21 52.0732 310.722 51.6411C309.831 50.8543 308.934 50.0771 308.022 49.3141C307.462 48.8419 306.9 48.3768 306.335 47.9142C305.917 47.5696 305.5 47.2315 305.08 46.8911C304.631 46.5285 304.186 46.1652 303.739 45.8064C303.283 45.4414 302.829 45.0761 302.378 44.7156C302.294 44.6465 302.21 44.5773 302.126 44.5096C301.53 44.0312 300.94 43.5519 300.357 43.0701C299.606 42.4495 298.866 41.8248 298.138 41.1976C297.693 40.8139 297.254 40.4285 296.818 40.0428C288.411 32.6025 281.753 24.6348 278.039 14.5297C276.894 11.4138 275.038 5.55561 270.013 5.26554C269.026 5.20902 268.126 5.40887 267.296 5.77282C267.334 4.85938 267.379 3.94797 267.443 3.03657C267.47 2.65084 267.193 2.36417 266.826 2.19122C266.803 1.94473 266.79 1.69722 266.765 1.45073C266.608 -0.0833692 264.698 -0.346201 263.621 0.405526C262.679 0.0320455 261.343 0.438551 261.327 1.58725C261.297 3.61399 261.084 5.63732 260.935 7.65997C260.594 7.02604 260.24 6.39585 259.864 5.7752C259.422 5.04118 257.983 4.57918 257.296 5.42487C255.361 7.80126 254.653 9.97575 253.335 12.5585C252.891 13.431 252.063 14.3887 251.139 15.2794C250.953 15.4588 250.765 15.6362 250.572 15.8084C250.171 15.6631 249.678 15.693 249.302 16.0427C249.277 16.0651 249.252 16.088 249.225 16.1108C248.701 16.5963 248.156 17.0675 247.616 17.5417C246.979 18.1045 246.337 18.6615 245.683 19.2086C245.228 19.5923 244.771 19.9746 244.309 20.3518C243.76 20.7992 243.204 21.2408 242.648 21.681C241.759 22.381 240.865 23.0738 239.96 23.7584C239.416 24.1711 238.871 24.5844 238.32 24.9926C237.719 25.4393 237.109 25.8825 236.5 26.3258C236.001 26.6887 235.505 27.0537 235.003 27.4156C234.668 27.657 234.33 27.895 233.994 28.1364C233.499 28.4887 233.007 28.8425 232.513 29.1938C231.886 29.6412 231.258 30.0879 230.628 30.5345C230.085 30.9189 229.543 31.3036 229.001 31.6894C228.831 31.8092 228.665 31.9294 228.495 32.0492C228.034 32.3761 227.576 32.7039 227.118 33.0321C225.698 34.0457 224.287 35.0633 222.887 36.0942C222.309 36.5211 221.735 36.9549 221.161 37.3869C219.793 38.4151 218.441 39.4552 217.118 40.5194C216.672 40.8783 216.236 41.2463 215.796 41.6103C214.262 42.8774 212.765 44.1753 211.322 45.518C210.866 45.9426 210.419 46.3739 209.975 46.8056C208.242 48.4892 206.594 50.248 205.05 52.0936C204.932 52.2339 204.807 52.37 204.689 52.512C204.608 52.6121 204.519 52.7057 204.438 52.8048C204.154 53.1565 203.877 53.5119 203.603 53.8701C203.246 54.3328 202.899 54.8009 202.564 55.2731C201.91 56.1927 201.293 57.1289 200.722 58.0815C200.449 58.5333 200.189 58.9868 199.937 59.4447C199.381 60.4572 198.88 61.4881 198.428 62.5316C198.108 63.2718 197.818 64.0205 197.555 64.7753C196.348 68.254 195.781 71.8687 196.078 75.5412C196.831 84.8063 204.317 92.6872 212.25 98.8096C219.927 104.733 228.479 110.601 238.905 112.751C242.231 113.437 245.706 113.828 249.24 114.058C249.139 114.465 249.054 114.882 248.975 115.372C248.952 115.508 248.955 115.647 248.966 115.783C248.413 116.706 247.959 117.739 247.991 118.688C248.014 119.428 248.976 119.582 249.484 119.197C249.563 120.298 249.856 121.373 250.352 122.255C250.854 123.154 251.348 124.032 251.834 124.906C251.598 125.149 251.369 125.393 251.124 125.637C247.991 128.769 245.513 131.819 244.595 135.848C244.497 136.273 245.348 136.428 245.5 136.015C246.841 132.308 249.683 129.313 252.639 126.385C253.465 127.931 254.234 129.497 254.894 131.18C255.15 131.835 253.218 133.507 252.718 134.5C251.893 136.142 252.392 138.292 253.469 139.735C253.817 140.201 254.608 139.983 254.56 139.444C254.356 137.217 254.002 134.947 255.507 133.054C255.554 135.05 255.985 137.005 256.856 138.641C257.004 138.92 257.437 138.773 257.541 138.564C259.597 134.46 257.993 129.959 260 125.849C260.987 127.096 261.936 128.346 262.713 129.651C261.922 132.925 261.729 136.223 262.117 139.556C262.135 139.712 262.446 139.691 262.451 139.537C262.525 136.968 263.129 134.459 263.848 131.965C264.524 133.747 264.773 135.675 264.284 137.869C264.157 138.452 265.193 138.634 265.382 138.064C266.436 134.856 266.146 132.089 264.64 129.299C264.983 128.171 265.318 127.042 265.611 125.909C265.699 125.564 265.79 125.211 265.881 124.853C268.333 127.14 270.266 129.643 270.64 132.837C270.704 133.366 271.781 133.34 271.788 132.806C271.843 128.499 269.284 125.556 266.362 122.766C266.502 122.069 266.616 121.364 266.684 120.659C267.936 123.445 269.442 126.401 271.545 128.821C271.779 129.088 272.208 128.855 272.26 128.61C272.766 126.176 271.793 123.727 270.731 121.459C270.311 120.56 269.626 119.563 268.977 118.533C269.014 118.547 269.045 118.561 269.082 118.574C274.962 120.9 277.589 124.143 275.089 129.481C274.801 130.093 275.962 130.379 276.264 129.787C278.14 126.084 277.58 122.933 275.674 120.199C276.915 120.92 277.927 121.823 278.6 122.99C280.474 126.23 279.578 130.161 278.616 133.485C277.656 136.809 276.987 140.271 275.688 143.496C275.415 144.166 276.663 144.564 276.942 143.893C279.692 137.281 284.152 130.298 281.205 123.052C279.9 119.837 277.716 116.111 273.684 114.661C273.51 114.598 273.335 114.545 273.158 114.489C288.87 114.554 305.691 112.873 316.485 102.584C324.524 94.9209 327.681 83.2082 325.716 73.4113ZM246.28 21.6881C246.379 22.0596 246.468 22.4347 246.577 22.8038C247.08 24.5316 247.711 27.292 249.882 28.1445C249.072 29.0583 248.224 29.9581 247.353 30.8563C247.412 29.4767 246.527 27.7343 246.209 26.6693C245.821 25.3732 245.447 24.07 245.061 22.7711C245.468 22.4099 245.876 22.0511 246.28 21.6881ZM243.199 24.4247C243.408 25.5155 243.612 26.6074 243.828 27.6948C244.079 28.9736 244.15 31.6911 245.983 32.2532C245.425 32.8193 244.862 33.3862 244.302 33.9585C243.687 32.3553 242.421 30.6479 241.881 29.2892C241.505 28.3447 241.165 27.3877 240.836 26.43C241.627 25.763 242.419 25.0992 243.199 24.4247ZM235.917 30.5199C235.976 30.7157 236.03 30.9118 236.089 31.1079C236.706 33.0771 237.294 35.4228 238.762 37.1064C239.456 37.8993 241.268 37.2929 240.735 36.3312C239.444 33.9977 238.43 31.6152 237.527 29.1962C238.038 28.7747 238.55 28.3549 239.061 27.9311C239.304 28.8428 239.562 29.7532 239.841 30.6585C240.283 32.0925 240.855 34.7187 242.386 35.9601C241.236 37.2218 240.177 38.525 239.167 39.8511C238.761 37.981 237.141 35.83 236.479 34.2319C236.046 33.1904 235.629 32.1452 235.211 31.1007C235.448 30.9077 235.681 30.714 235.917 30.5199ZM254.054 119.386C253.941 118.874 253.873 118.34 253.898 117.812C254.211 117.755 254.513 117.71 254.803 117.68C255.084 118.513 255.449 119.311 255.873 120.08C255.751 120.264 255.624 120.447 255.49 120.626C255.098 121.15 254.698 121.654 254.292 122.151C254.272 121.227 254.254 120.301 254.054 119.386ZM257.33 125.458C256.769 126.432 256.334 127.526 256.028 128.677C255.642 127.669 255.152 126.673 254.791 125.733C254.646 125.35 254.553 124.962 254.483 124.572C255.295 123.792 256.238 122.95 257.103 122.052C257.532 122.669 257.981 123.275 258.444 123.873C258.037 124.367 257.656 124.889 257.33 125.458ZM259.585 122.61C259.292 122.194 259.017 121.769 258.779 121.321C258.702 121.175 258.591 120.841 258.489 120.428C258.766 120.05 259.006 119.662 259.206 119.268C259.868 119.843 260.556 120.409 261.247 120.968C260.696 121.509 260.131 122.05 259.585 122.61ZM263.346 127.256C262.595 126.244 261.744 125.304 260.932 124.342C260.964 124.302 260.987 124.26 261.018 124.221C261.597 123.478 262.171 122.804 262.718 122.155C263.239 122.575 263.754 122.998 264.263 123.425C264.019 124.711 263.693 125.988 263.346 127.256ZM261.728 118.267C262.454 117.973 263.076 117.521 263.412 116.973C263.684 117.018 263.958 117.063 264.233 117.107C263.854 117.933 263.346 118.668 262.765 119.356C262.409 119 262.064 118.637 261.728 118.267ZM264.609 120.814C264.602 120.909 264.591 121.005 264.582 121.101C264.387 120.919 264.19 120.736 263.997 120.553C264.23 120.241 264.448 119.921 264.655 119.6C264.646 120 264.637 120.404 264.609 120.814ZM281.599 111.415C293.733 106.567 302.163 97.315 302.893 85.8686C302.918 85.4706 302.081 85.427 302.045 85.8229C301.035 96.1622 291.587 104.606 280.566 109.336C287.662 103.421 291.979 94.0838 293.801 87.0513C298.288 69.7309 288.964 55.4757 280.884 40.0309C280.827 39.9216 280.625 39.9853 280.673 40.0966C286.741 53.9784 295.397 67.5449 292.959 82.7095C291.97 88.8595 289.683 95.02 286.036 100.46C282.494 105.742 277.903 109.364 271.415 111.571C269.891 111.546 268.389 111.507 266.912 111.459C269.394 108.648 270.936 105.111 272.599 101.99C274.85 97.7723 275.891 93.2037 276.243 88.6344C276.338 87.3713 273.954 87.0724 273.836 88.3563C273.423 92.8411 272.132 96.961 270.272 101.184C268.78 104.575 266.182 107.802 265.313 111.343C265.127 111.336 264.943 111.349 264.769 111.384C263.693 111.343 262.636 111.301 261.601 111.258C256.627 111.05 251.52 110.853 246.554 110.208C244.386 107.307 238.61 105.2 235.523 103.068C230.303 99.4647 226.174 95.194 224.214 89.7995C223.912 88.9687 222.438 89.3378 222.481 90.1304C222.753 94.9938 226.995 98.8685 231.029 102.15C233.672 104.3 236.6 106.179 239.509 108.079C240.103 108.468 240.725 108.909 241.371 109.34C237.311 108.481 233.42 107.19 229.868 105.182C225.308 102.604 221.159 98.9611 217.182 95.8065C212.531 92.1173 208.192 87.9045 205.302 83.1401C203.104 79.5119 202.248 75.8578 202.364 72.2575C203.931 74.4534 205.647 76.695 207.6 78.3591C207.969 78.6747 208.725 78.5436 208.641 78.0261C208.257 75.6351 206.127 73.4865 204.483 71.5503C203.866 70.8265 203.253 70.1037 202.659 69.3748C202.863 68.1921 203.172 67.0175 203.561 65.8545C204.732 67.5724 206.086 69.2951 207.717 70.5456C208.046 70.7972 208.695 70.5695 208.536 70.1725C207.733 68.1434 205.889 66.3781 204.48 64.5965C204.376 64.4634 204.276 64.3286 204.174 64.1944C204.651 63.0212 205.206 61.8592 205.832 60.7133C207.223 62.9579 208.573 65.2543 210.136 67.378C210.476 67.8397 211.279 67.5139 211.159 67.0202C210.442 64.1383 208.652 61.5651 206.844 58.9824C207.087 58.5875 207.336 58.1956 207.593 57.8047C208.771 59.6102 210.143 61.2937 211.767 62.5888C211.917 62.7094 212.164 62.5364 212.083 62.3921C211.157 60.7442 209.689 59.3062 208.521 57.7656C208.358 57.5525 208.213 57.3288 208.059 57.1109C209.297 55.2986 210.681 53.5375 212.153 51.8423C213.29 54.5599 214.54 57.2873 216.518 59.5397C216.867 59.9377 217.623 59.7542 217.525 59.2347C216.949 56.1209 215.336 53.0465 213.739 50.0801C214.943 48.7769 216.189 47.5182 217.448 46.3096C218.013 48.5202 218.21 50.904 219.573 52.8549C219.955 53.4013 220.817 53.0939 220.896 52.5621C221.263 50.0876 220.016 47.4729 219.176 45.1119C219.14 45.0128 219.095 44.9151 219.058 44.815C219.73 44.1923 220.408 43.5744 221.091 42.9612C222.706 46.9153 224.328 50.871 226.386 54.6882C226.479 54.8635 226.817 54.7951 226.744 54.6014C225.199 50.4774 223.482 46.3964 221.808 42.3075C221.999 42.1404 222.187 41.9742 222.377 41.8074C223.455 45.5596 224.75 49.2235 227.075 52.4242C227.608 53.1582 228.94 52.623 228.7 51.8325C227.52 47.9475 226.125 43.9223 224.528 39.9567C225.099 39.4671 225.664 38.971 226.24 38.4856C226.556 39.5587 226.869 40.6315 227.182 41.7036C227.753 43.6561 228.032 45.7948 229.214 47.5659C229.475 47.9567 230.344 47.9155 230.348 47.399C230.369 45.3822 229.412 43.413 228.79 41.4686C228.359 40.1252 227.932 38.7814 227.501 37.4393C227.751 37.231 228.001 37.0247 228.252 36.8187C228.622 38.0436 228.999 39.2683 229.42 40.483C229.783 41.5306 230.392 44.24 232.388 43.9751C232.635 43.9421 232.721 43.6527 232.546 43.5185C232.376 43.3874 232.215 42.2193 232.113 41.9841C231.598 40.7881 231.108 39.59 230.664 38.3753C230.328 37.4577 230.013 36.5371 229.702 35.6155C229.842 35.5011 229.979 35.3833 230.119 35.2679C230.5 36.3958 230.902 37.5146 231.312 38.6207C231.596 39.3796 233.077 44.7162 235.144 43.4664C235.269 43.3922 235.325 43.2417 235.296 43.1202C234.509 39.9703 233.168 36.9028 231.902 33.8077C232.494 33.3239 233.087 32.8405 233.678 32.3567C234.075 33.4652 234.475 34.5727 234.888 35.6778C235.545 37.4356 236.058 40.2246 238.073 41.3236C234.479 46.2551 231.369 51.4083 226.759 55.8757C226.344 56.2802 226.957 56.9665 227.519 56.621C236.249 51.2506 240.711 41.8547 247.28 34.92C253.403 28.4544 258.437 22.5049 258.076 13.9928C258.035 13.0463 256.28 13.1144 256.284 14.0568C256.307 18.8613 254.263 22.7568 251.384 26.3633C250.717 24.5544 249.315 22.7463 248.669 20.9361C248.535 20.5646 248.419 20.1894 248.297 19.8163C248.515 19.612 248.73 19.4037 248.945 19.1977C249.188 19.3267 249.476 19.3812 249.778 19.3192C249.991 20.6079 250.254 21.8866 250.982 23.0537C251.223 23.4405 251.851 23.3063 251.942 22.9134C252.321 21.2724 251.906 19.6103 251.606 17.9707C252.416 17.2098 253.23 16.4529 254.487 16.1353C254.948 16.0199 255.298 15.6321 255.372 15.2549C255.796 13.0875 256.808 10.8388 258.162 8.86518C259.047 10.7357 259.832 12.6378 260.68 14.5205C261.077 15.4009 262.257 15.5967 263.112 15.2133C263.176 16.5517 263.344 17.8784 263.831 19.1354C264.015 19.6076 264.399 19.88 264.836 20.0035C265.093 20.7706 265.365 21.5026 265.628 22.1729C266.801 25.1424 265.853 29.25 265.646 32.3185C265.458 35.1157 265.349 37.855 265.946 40.6192C265.98 40.7802 266.266 40.7315 266.277 40.5834C266.61 35.1242 268.468 29.872 268.795 24.4363C268.883 22.9587 268.808 21.5111 268.611 20.0689C268.777 20.4441 268.942 20.808 269.108 21.1505C271.61 26.3326 274.74 31.5127 275.755 37.0655C275.855 37.6079 276.909 37.4553 276.894 36.9314C276.751 32.3556 274.925 28.279 273.023 24.0196C272.016 21.7566 271.281 19.4575 270.673 17.1025C269.981 14.4299 270.848 11.7492 270.124 9.14912C270.018 8.76339 269.446 8.55333 269.006 8.6718C269.006 8.61086 269.006 8.55128 269.004 8.49034C271.263 7.16971 273.114 11.9579 273.589 12.9932C275.866 17.9666 277.418 22.9138 280.473 27.6543C284.153 33.3579 289.114 38.3627 294.427 43.097C294.336 43.2952 294.264 43.4974 294.232 43.7119C294.173 44.1075 294.754 44.2396 295.101 44.1177C295.21 44.081 295.314 44.0258 295.418 43.9734C296.389 44.8272 297.369 45.6716 298.354 46.5098C297.165 48.3057 295.686 49.9957 295.413 52.0466C295.361 52.4371 296.046 52.7592 296.43 52.5124C298.165 51.3997 299.245 49.7451 300.189 48.0667C300.32 48.1777 300.452 48.288 300.581 48.3976C300.933 48.6935 301.284 48.9924 301.638 49.2893C300.289 51.3218 298.412 53.3911 298.004 55.6384C297.918 56.1253 298.633 56.3268 299.05 56.0817C301.121 54.8588 302.16 52.5287 303.172 50.5925C303.53 50.8976 303.889 51.205 304.245 51.5145C302.203 55.2404 300.559 59.0593 300.009 62.9507C299.937 63.4744 300.835 63.5568 301.064 63.1196C302.795 59.7998 304.447 56.4695 306.103 53.1412C306.949 53.8919 307.786 54.6487 308.603 55.4185C306.602 58.8602 304.125 62.2977 303.11 66.0247C302.977 66.5153 303.879 66.8497 304.231 66.4292C306.633 63.5731 308.133 60.2203 309.902 57.0816C309.952 56.9931 310 56.9042 310.05 56.8167C311.027 57.7809 311.969 58.7645 312.869 59.7709C312.386 60.6772 311.871 61.5733 311.338 62.4608C309.732 65.1198 307.094 67.7311 306.284 70.6338C306.134 71.1741 306.878 71.5534 307.398 71.1833C310.428 69.0211 312.159 65.259 313.845 62.3349C314.01 62.0451 314.169 61.7557 314.328 61.4657C314.7 61.9205 315.061 62.3832 315.412 62.8493C314.48 64.4474 313.475 66.0237 312.447 67.6065C310.619 70.4255 307.944 73.2856 307.549 76.5138C307.493 76.985 308.282 77.2077 308.659 76.9016C311.701 74.4279 313.375 70.5119 315.328 67.4128C315.861 66.5695 316.365 65.7159 316.841 64.8519C317.1 65.2376 317.338 65.6315 317.579 66.0251C316.576 68.2925 315.303 70.4748 313.99 72.6486C312.386 75.3005 310.049 78.146 310.011 81.1597C310.002 81.7916 310.912 82.0228 311.379 81.541C313.865 78.9832 315.167 75.3747 316.873 72.4175C317.637 71.0945 318.318 69.7687 318.903 68.4202C319.339 69.303 319.717 70.2089 320.058 71.1329C316.367 76.1387 312.331 81.6557 312.69 86.91C312.721 87.37 313.488 87.6771 313.824 87.2048C316.254 83.8003 317.665 79.8391 319.792 76.283C320.187 75.6222 320.593 74.9665 320.997 74.3107C321.219 75.3168 321.373 76.345 321.45 77.3915C320.811 79.8411 319.715 82.1249 318.325 84.4128C316.923 86.7163 314.67 89.0011 314.472 91.6175C314.429 92.197 315.289 92.3621 315.747 92.0516C318.215 90.3803 319.577 87.3778 320.883 84.9568C319.694 90.5389 316.895 96.0159 313.023 100.233C305.692 108.213 293.726 110.782 281.599 111.415Z" fill="#0C0C22"/>
<path d="M220.843 72.3399C220.682 75.564 220.081 79.146 221.224 82.2914C221.292 82.478 221.621 82.4967 221.693 82.3006C222.837 79.1582 222.24 75.5865 222.077 72.3617C222.045 71.7172 220.877 71.6855 220.843 72.3399Z" fill="#0C0C22"/>
<path d="M271.789 32.8731C275.199 48.7326 279.269 64.4753 279.714 80.6534C279.725 81.0981 280.562 81.1702 280.569 80.7134C280.816 64.588 278.663 48.2355 273.187 32.6712C272.94 31.9665 271.626 32.1224 271.789 32.8731Z" fill="#0C0C22"/>
<path d="M87.84 430.626C87.4209 423.978 86.1829 417.221 82.5573 411.244C79.499 406.2 74.4098 401.861 67.8993 400.158C64.7136 399.325 61.5056 399.633 58.5361 400.612C58.0045 400.259 57.4594 399.933 56.9009 399.634C56.2627 399.292 55.6052 398.989 54.9149 398.732C54.7341 398.665 54.552 398.599 54.3669 398.538C54.0529 398.436 53.7313 398.345 53.4042 398.262C52.6725 398.079 51.9037 397.947 51.0892 397.88C50.7664 397.853 50.439 397.833 50.1013 397.827C50.0805 397.826 50.06 397.828 50.0377 397.827C49.7519 397.822 49.4675 397.824 49.1816 397.834C48.7789 397.849 48.3745 397.881 47.9732 397.922C46.6121 398.061 45.2628 398.332 43.949 398.652C43.1049 394.321 40.0065 390.032 36.7511 386.988C34.1784 384.583 30.7794 382.278 27.068 381.269C23.158 380.206 20.4166 382.458 18.8599 385.197C18.2244 386.315 19.5382 387.373 20.7306 387.528C21.0074 387.607 21.2698 387.714 21.5184 387.845C22.8276 388.443 24.8137 388.148 25.2314 386.751C25.3543 386.383 25.4551 386.01 25.5307 385.633C25.3883 384.789 25.55 384.926 26.018 386.042C27.1881 386.556 28.1672 387.393 29.0986 388.164C31.1751 389.883 32.8797 391.714 34.1874 393.913C35.627 396.334 36.1217 398.641 35.8255 400.875C35.5441 400.979 35.2702 401.091 35.0005 401.207C34.4674 401.207 33.9238 401.27 33.3981 401.294C31.3854 401.388 29.5089 401.148 27.5228 400.931C24.6171 400.613 21.6742 401.122 18.9445 401.941C16.0699 402.803 13.1698 404.686 11.4253 407.035C6.46529 408.271 3.1314 412.591 1.56006 417.508C-1.16667 426.042 0.126394 435.586 2.05327 444.128C5.40331 458.97 12.914 472.833 17.0534 487.498C17.3272 488.467 17.585 489.441 17.831 490.417C18.1657 491.747 18.4709 493.085 18.7626 494.426C18.933 495.204 19.1003 495.983 19.2573 496.764C19.5786 498.359 19.872 499.959 20.152 501.561C20.4007 502.978 20.6408 504.396 20.8687 505.814C21.1101 507.319 21.3441 508.822 21.5752 510.322C21.6062 510.528 21.6373 510.733 21.67 510.937C21.7145 511.231 21.7605 511.524 21.8048 511.817C22.0537 513.434 22.3127 515.049 22.5763 516.665C22.8384 518.285 23.1052 519.904 23.3761 521.523C23.3688 521.742 23.3553 521.962 23.3627 522.181C23.37 522.354 23.4456 522.498 23.5566 522.607C23.6187 522.975 23.6796 523.344 23.7402 523.711C24.1075 525.89 24.4748 528.069 24.8391 530.248C24.857 530.356 24.8748 530.465 24.8939 530.573C25.1308 531.993 25.3678 533.412 25.6003 534.832C25.6434 535.099 25.6864 535.372 25.7307 535.644C25.75 535.774 25.772 535.904 25.7928 536.034C26.0297 537.469 26.3215 538.903 26.9629 540.006C26.9822 540.038 27.0015 540.071 27.0206 540.103C27.5536 540.976 28.3239 541.626 29.482 541.882C29.7116 541.933 29.9559 541.967 30.218 541.986C30.8802 542.031 31.6458 541.971 32.5403 541.777C32.9535 541.689 33.3622 541.575 33.7666 541.451C35.7453 540.84 37.6204 539.826 39.3932 538.632C39.6744 538.441 39.9544 538.247 40.2314 538.047C40.7616 537.667 41.2814 537.275 41.7925 536.873C42.0962 536.634 42.3967 536.393 42.6943 536.151C43.066 535.847 43.4303 535.542 43.7918 535.238C44.2463 534.851 44.6936 534.468 45.132 534.09C45.7749 533.534 46.3984 532.994 47.0027 532.481C47.1198 532.383 47.2381 532.281 47.3538 532.183C47.6411 531.943 47.927 531.705 48.2143 531.466C48.663 531.09 49.1132 530.713 49.5621 530.339C49.9754 529.995 50.3857 529.651 50.7958 529.307C51.1985 528.968 51.6 528.628 51.9998 528.288C52.4101 527.94 52.8219 527.592 53.2276 527.242C53.8673 526.69 54.4999 526.135 55.1249 525.573C55.5071 525.231 55.8788 524.883 56.2534 524.535C56.6368 524.18 57.019 523.823 57.3951 523.462C57.8365 523.038 58.2749 522.611 58.7043 522.177C58.9576 521.922 59.2004 521.659 59.4491 521.4C59.8536 520.978 60.2578 520.557 60.6488 520.123C61.1909 519.521 61.721 518.908 62.235 518.279C62.2986 518.201 62.3566 518.119 62.4201 518.041C62.7889 517.587 63.1415 517.124 63.4939 516.662C64.1323 515.825 64.7498 514.979 65.3423 514.119C65.6799 513.627 66.0074 513.13 66.3316 512.631C67.0442 511.536 67.7298 510.43 68.3798 509.308C68.6803 508.789 68.9693 508.267 69.2581 507.743C70.8295 504.894 72.2426 501.982 73.5486 499.043C76.6722 492.02 78.851 484.79 80.7052 477.469C82.6839 469.649 84.7707 461.857 86.2325 453.954C87.6608 446.24 88.3315 438.428 87.84 430.626ZM56.7495 401.171C56.7955 401.191 56.8412 401.212 56.8872 401.232C56.8354 401.254 56.785 401.275 56.7346 401.297C56.7407 401.256 56.7437 401.213 56.7495 401.171ZM54.1458 400.27C54.3192 400.315 54.4923 400.362 54.6642 400.413C54.5813 401.039 54.5043 401.664 54.4185 402.288C54.4111 402.342 54.4229 402.395 54.4317 402.447C54.3162 402.514 54.1991 402.581 54.0837 402.649C54.1104 402.293 54.0676 401.923 54.0705 401.561C54.0761 401.127 54.1059 400.698 54.1458 400.27ZM50.8268 402.126C50.898 401.35 50.9677 400.575 51.0178 399.801C51.668 399.822 52.3079 399.895 52.9388 400.006C52.8796 400.4 52.8276 400.795 52.7936 401.194C52.7344 401.914 52.5759 402.71 52.9359 403.368C52.2485 403.824 51.5942 404.306 50.9735 404.805C50.8833 404.737 50.7884 404.673 50.6862 404.618C50.7425 403.787 50.7513 402.948 50.8268 402.126ZM49.7294 399.829C49.6064 400.477 49.4717 401.13 49.3501 401.783C49.3589 401.14 49.3352 400.494 49.3012 399.859C49.445 399.846 49.5873 399.839 49.7294 399.829ZM44.1696 401C45.3795 400.65 46.6029 400.337 47.8529 400.093C47.8204 400.595 47.7893 401.097 47.7404 401.599C47.6531 402.483 47.4308 403.37 47.2768 404.257C46.9183 404.252 46.5703 404.236 46.2356 404.204C46.2326 404.125 46.2297 404.048 46.2282 403.973C46.2236 403.088 46.2192 402.204 46.2148 401.32C46.2119 400.839 45.3247 400.783 45.3218 401.27C45.3174 402.052 45.313 402.835 45.3086 403.617C45.3086 403.75 45.2983 403.892 45.2863 404.038C44.7782 403.905 44.2703 403.8 43.7651 403.712C44.0331 402.824 44.1605 401.916 44.1696 401ZM28.7694 385.076C31.1599 385.805 33.6096 388.194 35.0254 389.578C37.5076 392.006 40.2759 395.827 40.7215 399.464C40.831 400.361 40.7985 401.246 40.5867 402.096C40.4667 402.574 40.2906 403.04 40.0505 403.491C39.3174 403.536 38.5858 403.633 37.8527 403.787C37.9815 403.47 38.0911 403.148 38.183 402.82C38.4378 401.917 38.5562 400.973 38.5579 400.018C38.5608 397.334 37.6485 394.552 36.2503 392.263C34.5085 389.415 31.7788 387.008 28.7694 385.076ZM35.3306 407.189C35.692 407.165 36.0578 407.168 36.428 407.191C36.4474 407.213 36.4562 407.238 36.4784 407.259C37.0176 407.763 37.635 408.068 38.3268 408.266C38.632 407.961 39.0851 407.913 39.4849 408.047C39.8211 407.528 40.831 407.495 41.3822 407.908C41.3851 407.907 41.388 407.907 41.3895 407.905C41.4132 407.329 42.096 406.759 42.8484 406.944C43.0601 406.997 43.2675 407.053 43.4763 407.107C43.4614 406.397 44.3679 405.712 45.4061 406.091C46.6134 406.531 47.8839 406.771 49.1222 407.13C50.7483 407.601 50.1382 409.644 48.4395 409.312C48.3862 409.302 48.3329 409.287 48.2796 409.276C48.2617 409.289 48.2439 409.3 48.2263 409.312C48.0678 409.853 47.4176 410.231 46.6386 410.132C46.3053 410.089 45.981 410.029 45.658 409.964C45.6773 410.705 44.5028 411.144 43.7399 410.829C43.5592 410.754 43.3861 410.677 43.2142 410.599C42.8173 411.129 41.8886 411.375 41.311 410.859C41.2814 410.96 41.2518 411.06 41.2223 411.163C41.0076 411.893 40.0982 411.999 39.5103 411.651C39.5074 411.69 39.503 411.73 39.5013 411.77C39.4732 413.033 37.1137 413.028 37.1731 411.767C37.1954 411.32 37.2472 410.908 37.3418 410.515C37.3477 410.487 37.3536 410.458 37.3612 410.43C37.3656 410.408 37.3714 410.387 37.3773 410.366C37.4869 409.906 37.6438 409.461 37.8602 409.018C37.7715 408.897 37.6693 408.783 37.5448 408.687C37.5419 408.611 37.527 408.536 37.5035 408.462C37.5035 408.463 37.5035 408.463 37.5049 408.464C37.5035 408.463 37.5035 408.462 37.502 408.46C37.4768 408.382 37.4399 408.306 37.3895 408.232C36.9807 407.481 36.0224 407.313 35.1027 407.37C35.1795 407.31 35.2565 407.251 35.3306 407.189ZM34.9883 409.55C34.1055 409.973 33.0983 410.346 32.34 410.921C31.561 411.513 30.6811 411.31 30.2324 410.803C29.997 410.947 29.7585 411.088 29.514 411.225C27.7974 412.192 26.2408 409.932 27.8789 408.933C27.9825 408.87 28.0833 408.809 28.187 408.746C28.2168 408.361 28.433 408.001 28.8729 407.837C29.3881 407.646 29.84 407.521 30.3496 407.537C31.2974 407.085 32.3031 406.739 33.4746 406.612C34.6344 406.486 35.135 407.45 34.9083 408.233C35.4756 408.486 35.6888 409.214 34.9883 409.55ZM15.0103 406.369C16.8025 404.676 19.3676 403.689 21.9297 403.136C25.157 402.439 28.0953 403.041 31.3049 403.337C32.2853 403.428 33.8952 403.657 35.0817 403.562C34.9156 403.952 34.7203 404.34 34.5085 404.727C32.9357 405.159 31.4414 405.492 30.0209 406.208C28.2036 405.414 26.0799 405.106 24.1796 405.915C22.4706 406.644 21.7197 407.817 21.5287 409.161C21.5258 408.919 21.5228 408.677 21.5214 408.436C21.5167 407.932 20.8577 407.741 20.4758 407.931C20.7587 407.084 19.2984 406.628 18.8866 407.404C17.4069 406.95 16.0119 406.722 14.7042 406.688C14.8059 406.582 14.8993 406.474 15.0103 406.369ZM27.5446 529.873C28.1236 528.498 28.7797 527.141 29.381 525.782C29.7529 524.942 30.1112 524.097 30.443 523.247C29.8534 525.914 28.8465 528.475 27.7727 531.047C27.6972 530.656 27.6216 530.264 27.5446 529.873ZM28.5738 536.212C28.5577 536.065 28.5427 535.918 28.5278 535.771C28.9736 534.608 29.4343 533.448 29.8859 532.287C30.3657 531.049 30.7997 529.797 31.1805 528.534C30.7036 531.181 29.6522 533.699 28.5738 536.212ZM80.1621 468.644C77.1659 481.238 73.8601 493.997 67.5227 505.726C67.1332 505.341 66.7304 504.967 66.3023 504.617C65.6966 504.121 64.8522 504.878 65.4004 505.397C65.9352 505.902 66.4001 506.436 66.8283 506.988C66.1944 508.113 65.5396 509.228 64.8466 510.331C64.1076 509.194 63.3462 508.07 62.5021 506.982C61.9274 506.243 60.6018 507.023 61.1691 507.762C62.1629 509.06 63.0471 510.406 63.9061 511.768C63.687 512.098 63.4794 512.433 63.2559 512.761C62.862 513.337 62.4488 513.894 62.0355 514.451C61.0774 512.946 60.1663 511.42 59.3 509.877C58.9104 509.183 57.5614 509.557 57.9433 510.271C58.906 512.076 59.9308 513.852 61.0031 515.611C61.0239 515.644 61.0432 515.679 61.064 515.713C60.4419 516.498 59.8005 517.266 59.1415 518.018C57.8277 515.845 56.9317 513.417 55.9898 511.237C55.7127 510.595 54.596 510.975 54.8256 511.615C55.6269 513.844 56.4104 516.926 57.9032 519.397C57.6692 519.65 57.4279 519.898 57.188 520.147C57.0931 520.007 56.9953 519.869 56.9021 519.726C55.3973 517.416 54.1859 514.969 52.8515 512.588C52.4752 511.918 51.1736 512.274 51.5377 512.967C52.8855 515.53 54.1622 518.666 55.9321 521.433C55.5589 521.804 55.1811 522.173 54.7992 522.539C54.6835 522.368 54.5681 522.197 54.4556 522.028C52.7657 519.502 51.4149 516.823 49.9813 514.191C49.614 513.517 48.4292 514.071 48.7831 514.741C50.3011 517.611 51.7688 520.495 53.5638 523.253C53.6186 523.337 53.678 523.429 53.7416 523.53C53.0706 524.151 52.3864 524.768 51.6903 525.378C51.5362 525.17 51.3851 524.959 51.2401 524.744C49.882 522.727 48.8955 520.527 47.9876 518.345C47.7106 517.682 46.5006 518.03 46.7613 518.696C47.6839 521.058 48.8021 523.962 50.4965 526.419C50.1397 526.723 49.7751 527.027 49.4137 527.329C49.1648 526.971 48.9264 526.612 48.7175 526.251C47.635 524.378 46.6975 522.449 45.5986 520.582C45.1795 519.868 43.9236 520.481 44.3292 521.189C45.4091 523.065 46.3569 524.992 47.3922 526.885C47.6455 527.349 47.9091 527.848 48.1933 528.35C48.1727 528.367 48.1532 528.383 48.1326 528.4C47.7519 528.712 47.3714 529.037 46.9877 529.366C45.9214 527.479 44.9484 525.555 43.9502 523.641C43.5947 522.959 42.4337 523.539 42.7638 524.209C43.7783 526.261 44.7794 528.317 45.868 530.34C45.2342 530.9 44.5914 531.47 43.9397 532.042C42.8674 530.197 41.8128 528.344 40.8428 526.45C40.4769 525.737 39.0875 526.068 39.446 526.806C40.465 528.914 41.4915 531.071 42.6273 533.179C42.2542 533.497 41.8749 533.812 41.4942 534.124C40.9834 533.092 40.5581 532.024 40.1715 530.958C40.0101 530.517 39.1599 530.622 39.3125 531.081C39.7211 532.318 40.1938 533.533 40.7418 534.73C40.2116 535.148 39.6739 535.556 39.1245 535.947C38.8254 535.263 38.5633 534.566 38.3366 533.861C38.1204 533.191 36.8733 533.587 37.1311 534.259C37.4362 535.055 37.7945 535.828 38.196 536.587C37.0083 537.378 35.773 538.081 34.4772 538.653C34.72 537.221 34.7868 535.769 34.6608 534.285C34.5823 533.367 32.9012 533.415 32.7724 534.296C32.5029 536.12 31.9444 537.91 31.2409 539.658C30.7951 539.688 30.4293 539.633 30.1241 539.51C30.3078 538.875 30.5017 538.246 30.7283 537.63C31.8881 534.483 32.8063 531.344 32.9323 528.034C32.9604 527.286 31.8823 527.093 31.4541 527.571C32.0466 525.41 32.4525 523.218 32.5577 520.999C32.5828 520.438 31.9696 520.125 31.472 520.187C31.9608 518.413 32.2481 516.607 32.1874 514.749C32.1564 513.786 30.4205 513.911 30.4263 514.859C30.4559 518.87 28.6535 522.506 26.8289 526.13C26.7059 525.436 26.589 524.741 26.4882 524.045C26.466 523.886 26.4437 523.728 26.4215 523.57C26.5518 522.939 26.6912 522.313 26.8614 521.7C27.8745 518.069 29.0193 514.507 30.8098 511.085C31.2245 510.292 29.85 509.612 29.3952 510.415C28.4696 512.042 27.6326 513.707 26.8731 515.396C26.9812 514.923 27.0893 514.453 27.2064 513.992C27.9869 510.926 28.6741 507.867 28.9022 504.731C28.9658 503.854 27.3751 503.726 27.2849 504.607C26.9709 507.674 26.2229 510.658 25.3641 513.646C25.2915 513.901 25.2101 514.158 25.1286 514.416C24.9078 512.859 24.6843 511.303 24.4547 509.749C24.474 509.681 24.4946 509.614 24.5154 509.548C25.7478 505.536 27.3649 501.621 29.3067 497.814C29.7466 496.953 28.1398 496.498 27.6849 497.336C26.2366 500.004 24.9541 502.73 23.8045 505.497C23.6815 504.714 23.5573 503.933 23.4282 503.151C23.5896 502.555 23.763 501.963 23.9718 501.383C25.136 498.146 26.5058 494.969 27.5514 491.701C27.7854 490.968 26.4687 490.548 26.2273 491.287C25.2512 494.26 24.0412 497.169 22.9098 500.101C22.9039 500.07 22.8995 500.04 22.8934 500.009C22.575 498.203 22.2373 496.405 21.8715 494.613C21.9975 494.184 22.1263 493.755 22.2625 493.327C23.3822 489.814 24.656 486.343 25.6615 482.804C25.8984 481.969 24.3432 481.797 24.0989 482.617C23.2727 485.402 22.1545 488.233 21.1103 491.092C20.8511 489.946 20.5785 488.804 20.2926 487.664C20.934 485.448 21.7679 483.274 22.6445 481.119C22.8592 480.593 21.7679 480.276 21.5426 480.798C20.9695 482.131 20.2777 483.6 19.629 485.131C19.0455 482.987 18.4115 480.849 17.7021 478.718C15.2465 471.343 12.1347 464.141 9.4703 456.82C5.59966 446.184 3.39745 435.608 4.46677 424.51C4.84138 420.621 5.54342 416.548 7.65981 413.033C8.26111 412.034 9.00618 411.248 9.85616 410.641C9.80579 410.994 9.77474 411.35 9.78794 411.71C9.82364 412.663 11.4008 413.031 11.8038 412.045C11.974 411.625 12.1325 411.218 12.2926 410.816C12.3592 410.926 12.5875 410.898 12.5932 410.746C12.6034 410.466 12.6272 410.16 12.6836 409.86C12.7665 409.667 12.8555 409.477 12.9443 409.289C12.9754 409.282 13.0052 409.276 13.036 409.269C13.0627 409.287 13.0849 409.306 13.1145 409.325C13.2018 409.383 13.2923 409.413 13.3825 409.432C13.024 410.072 12.6582 410.708 12.4611 411.395C12.233 412.187 13.7542 412.595 14.0916 411.827C14.499 410.904 14.9463 409.968 15.2898 409.018C15.4187 409.015 15.5505 409.02 15.6808 409.021C15.1861 409.842 14.7301 410.684 14.4413 411.563C14.1212 412.54 15.8454 413.046 16.2229 412.07C16.611 411.066 17.0732 410.105 17.584 409.153C17.7884 409.178 17.9926 409.209 18.1987 409.242C17.9899 409.866 17.8016 410.493 17.6329 411.128C17.3989 412.015 16.8863 412.99 17.661 413.743C17.8033 413.881 18.0787 413.946 18.2758 413.85C19.191 413.402 19.1556 412.674 19.3272 411.849C19.5478 410.791 19.8471 409.749 20.1995 408.718C20.1904 409.49 20.1728 410.261 20.1078 411.033C20.0439 411.78 19.7062 412.558 20.1092 413.256C20.2129 413.437 20.521 413.517 20.709 413.372C21.3563 412.867 21.3622 412.168 21.4421 411.456C21.4747 411.152 21.494 410.847 21.5074 410.542C21.5385 410.877 21.5918 411.216 21.6659 411.558C21.8317 412.315 22.8225 412.859 23.6935 412.845C26.2156 412.804 28.7557 412.497 31.278 412.395C33.002 412.325 31.7299 412.946 32.4481 413.957C33.1619 414.966 34.4564 415.251 35.7507 415.319C37.8272 415.427 40.5153 415.012 42.7621 414.075C46.4305 413.738 50.3243 412.029 51.9402 409.872C52.6791 408.884 52.6926 407.428 52.1654 406.386C52.1624 406.379 52.158 406.371 52.1534 406.364C54.5808 404.669 57.1638 403.421 59.8536 402.802C60.2862 402.702 60.7214 402.618 61.1599 402.553C64.5219 402.043 68.0365 402.534 71.6161 404.379C77.9002 407.617 81.5332 414.076 83.1209 419.891C87.486 435.862 83.9181 452.86 80.1621 468.644Z" fill="#0C0C22"/>
<path d="M21.2443 433.052C22.4691 432.275 22.844 430.785 23.3993 429.617C24.2258 427.877 25.1454 426.184 26.2473 424.554C26.6679 423.933 25.5851 423.381 25.1215 423.979C23.9915 425.436 23.0229 426.956 22.1209 428.519C21.3995 429.767 20.1527 431.289 20.3111 432.705C20.3586 433.123 20.8444 433.305 21.2443 433.052Z" fill="#0C0C22"/>
<path d="M22.2189 436.171C23.1801 435.069 23.8213 433.716 24.5233 432.493C25.9142 430.071 27.2929 427.693 27.9741 425.049C28.1668 424.303 26.8471 424.123 26.6087 424.837C25.6208 427.785 23.6746 430.353 21.9404 433.017C21.434 433.793 20.0935 434.929 20.5141 435.894C20.7527 436.442 21.7641 436.718 22.2189 436.171Z" fill="#0C0C22"/>
<path d="M22.9769 440.019C24.8563 435.845 27.5002 431.819 28.6272 427.432C28.7766 426.849 27.7667 426.604 27.5608 427.184C26.0235 431.535 22.6155 435.232 21.1613 439.596C20.8295 440.595 22.5531 440.958 22.9769 440.019Z" fill="#0C0C22"/>
<path d="M22.5165 450.586C24.239 448.282 24.7782 445.229 26.151 442.709C27.678 439.904 29.3915 437.181 30.6919 434.29C30.985 433.639 29.8284 433.183 29.513 433.838C28.1402 436.707 26.3539 439.396 24.676 442.143C24.2835 442.785 23.8169 443.506 23.3609 444.268C25.8223 439.674 28.1091 434.918 29.9886 430.144C30.2759 429.413 28.9105 429.166 28.6112 429.877C26.4828 434.943 23.3445 439.658 21.2088 444.707C20.9007 445.44 22.1982 445.9 22.7283 445.377C21.8456 447.022 21.1807 448.775 21.4947 450.322C21.5688 450.687 22.2175 450.986 22.5165 450.586Z" fill="#0C0C22"/>
<path d="M23.488 453.825C24.4373 451.821 25.04 449.717 26.0235 447.711C27.1342 445.451 28.4791 443.269 29.7513 441.071C30.0521 440.553 29.1694 440.045 28.8463 440.571C26.3952 444.555 22.8317 449.102 22.226 453.634C22.1402 454.277 23.2317 454.367 23.488 453.825Z" fill="#0C0C22"/>
<path d="M22.8365 464.364C24.6093 462.491 25.1825 459.744 26.1569 457.517C27.4216 454.631 28.9086 451.824 30.6357 449.113C30.9438 448.631 29.9723 448.161 29.6434 448.634C28.3459 450.506 27.17 452.424 26.0814 454.383C26.4044 453.562 26.7005 452.744 27.0189 451.986C27.9816 449.689 28.7 447.341 29.1279 444.934C29.2495 444.249 28.0038 444.141 27.8645 444.815C27.3297 447.421 26.3909 449.898 25.2801 452.362C24.409 454.296 22.9622 456.264 22.8067 458.344C22.7768 458.74 23.3532 458.935 23.6522 458.624C23.7782 458.492 23.8892 458.346 24.0048 458.206C22.9636 460.127 21.9623 462.197 22.0141 464.178C22.0247 464.536 22.6069 464.607 22.8365 464.364Z" fill="#0C0C22"/>
<path d="M30.039 455.13C30.319 454.343 28.8481 454.123 28.5608 454.889C27.5213 457.66 25.9573 460.236 24.4481 462.84C23.3891 464.667 21.8028 466.798 22.0131 468.886C22.0456 469.213 22.5596 469.381 22.8203 469.111C24.519 467.345 25.2448 464.703 26.397 462.636C27.7698 460.178 29.1117 457.737 30.039 455.13Z" fill="#0C0C22"/>
<path d="M30.4147 460.205C30.6842 459.443 29.2593 459.2 28.9869 459.948C28.0611 462.498 26.7874 464.934 25.7672 467.454C24.895 469.602 23.7056 472.117 24.4343 474.389C24.569 474.81 25.206 474.685 25.3422 474.348C26.2946 471.981 26.5404 469.441 27.5459 467.041C28.5042 464.759 29.5926 462.527 30.4147 460.205Z" fill="#0C0C22"/>
<path d="M30.6208 464.744C28.2554 468.454 26.1212 472.783 26.4899 477.082C26.5582 477.879 27.9962 477.773 28.0999 477.031C28.6746 472.894 29.6771 469.265 31.9935 465.543C32.4867 464.756 31.1316 463.941 30.6208 464.744Z" fill="#0C0C22"/>
<path d="M29.3322 483.224C30.5556 481.558 30.8473 479.437 31.5049 477.565C32.346 475.173 33.3694 472.832 34.4922 470.524C34.9099 469.665 33.362 469.034 32.9432 469.899C31.9139 472.024 30.9999 474.18 30.169 476.367C29.3723 478.464 28.1756 480.859 28.4155 483.077C28.4627 483.508 29.0877 483.557 29.3322 483.224Z" fill="#0C0C22"/>
<path d="M35.6995 475.172C36.0032 474.321 34.4568 473.852 34.1458 474.709C33.1403 477.479 31.7362 480.124 30.5527 482.841C29.6255 484.973 28.3725 487.735 29.2628 489.975C29.4081 490.34 30.0123 490.236 30.1558 489.941C31.2949 487.605 31.4621 484.91 32.5048 482.483C33.555 480.038 34.8063 477.666 35.6995 475.172Z" fill="#0C0C22"/>
<path d="M35.4622 481.063C33.4583 485.376 30.3778 490.175 30.3423 494.893C30.3379 495.461 31.2725 495.462 31.4561 494.98C33.1801 490.493 34.7604 486.072 36.7939 481.656C37.1402 480.903 35.8146 480.303 35.4622 481.063Z" fill="#0C0C22"/>
<path d="M34.1872 494.67C34.8524 492.634 35.4197 490.61 35.6625 488.506C35.7542 487.703 34.2851 487.605 34.1846 488.402C33.8571 490.98 32.9908 493.433 32.1599 495.918C31.5747 497.673 30.8565 499.541 31.2593 501.362C31.3453 501.752 31.973 501.77 32.142 501.422C33.1668 499.302 33.463 496.886 34.1872 494.67Z" fill="#0C0C22"/>
<path d="M35.7912 496.735C34.137 499.701 31.4445 503.36 32.2514 506.754C32.3062 506.985 32.7077 506.965 32.7742 506.754C33.2674 505.214 33.5235 503.64 34.0761 502.111C34.7026 500.379 35.6208 498.725 36.4637 497.064C36.6561 496.685 36.0074 496.349 35.7912 496.735Z" fill="#0C0C22"/>
<path d="M35.2193 502.513C34.7957 503.694 34.3661 504.873 33.9042 506.044C33.4318 507.243 32.5801 508.462 32.4793 509.724C32.4556 510.019 32.9518 510.25 33.208 510.008C34.1294 509.131 34.427 507.944 34.8491 506.844C35.3645 505.5 35.7939 504.134 36.2324 502.772C36.4101 502.22 35.4178 501.96 35.2193 502.513Z" fill="#0C0C22"/>
<path d="M34.8785 509.426C34.8711 510.249 34.455 510.991 34.7112 511.824C34.7719 512.025 35.0844 511.96 35.1421 511.798C35.4174 511.024 35.7228 510.183 35.77 509.371C35.7981 508.895 34.8829 508.938 34.8785 509.426Z" fill="#0C0C22"/>
<path d="M54.1637 412.926C54.5369 411.918 55.0183 410.94 55.547 409.985C55.8759 409.386 54.8362 408.905 54.4672 409.498C53.9163 410.387 53.423 411.296 52.9861 412.229C52.6855 412.873 52.0485 413.798 52.7181 414.387C52.8156 414.473 52.9846 414.498 53.1179 414.464C53.8823 414.27 53.9534 413.492 54.1637 412.926Z" fill="#0C0C22"/>
<path d="M57.6902 409.637C57.942 408.892 56.6343 408.407 56.3409 409.169C55.8447 410.459 55.1931 411.69 54.534 412.926C53.9565 414.006 52.896 415.347 53.253 416.555C53.3434 416.857 53.7907 417.131 54.1342 416.87C55.1131 416.125 55.3354 414.938 55.8139 413.924C56.4846 412.506 57.1926 411.108 57.6902 409.637Z" fill="#0C0C22"/>
<path d="M59.9978 411.367C60.3577 410.727 59.238 410.175 58.8529 410.817C57.9763 412.284 57.206 413.788 56.4404 415.297C55.7591 416.642 54.8231 417.986 54.4719 419.423C54.3683 419.845 55.0214 420.239 55.4007 419.865C56.4345 418.844 56.9202 417.562 57.5112 416.33C58.3108 414.664 59.084 412.992 59.9978 411.367Z" fill="#0C0C22"/>
<path d="M62.9981 413.749C63.398 412.909 61.8814 412.324 61.4772 413.165C60.5781 415.034 59.6481 416.892 58.715 418.749C57.9743 420.223 57.0072 421.672 56.9718 423.291C56.9644 423.649 57.5285 423.704 57.764 423.492C59.0243 422.353 59.5442 420.758 60.2506 419.338C61.1764 417.478 62.1049 415.62 62.9981 413.749Z" fill="#0C0C22"/>
<path d="M64.9547 417.441C65.4301 416.694 64.0216 416.179 63.5374 416.905C62.6058 418.304 61.9187 419.79 61.2849 421.3C60.7843 422.487 59.8512 424.051 60.0348 425.334C60.0984 425.787 60.7427 425.917 61.0939 425.603C62.1172 424.684 62.3512 423.042 62.8014 421.874C63.3849 420.353 64.0558 418.852 64.9547 417.441Z" fill="#0C0C22"/>
<path d="M67.0667 418.389C67.3836 417.511 65.7619 417.104 65.4418 417.984C64.1947 421.417 61.9866 425.07 61.5555 428.643C61.4875 429.206 62.5021 429.459 62.8175 428.963C64.8229 425.799 65.8286 421.82 67.0667 418.389Z" fill="#0C0C22"/>
<path d="M70.1888 426.25C70.4509 425.628 69.6675 425.136 69.1312 425.311C69.7044 423.85 70.103 422.374 70.2746 420.971C70.3815 420.096 68.7803 419.931 68.6617 420.808C68.3492 423.117 67.4266 425.189 66.2076 427.256C65.1591 429.034 63.6085 430.63 62.7449 432.473C62.4265 433.156 63.4897 433.636 64.0379 433.101C65.399 431.771 66.6194 430.16 67.6193 428.433C67.1718 429.573 66.7365 430.717 66.3159 431.865C65.6552 433.66 64.3223 435.911 64.626 437.804C64.6749 438.107 65.1148 438.26 65.3711 438.012C66.5588 436.863 66.8402 435.096 67.3469 433.666C68.2308 431.176 69.1505 428.696 70.1888 426.25Z" fill="#0C0C22"/>
<path d="M73.8352 429.833C74.155 429.151 72.7392 428.67 72.4074 429.35C70.4049 433.469 65.3872 438.979 66.5468 443.641C66.6355 443.998 67.339 444.104 67.5183 443.744C68.6485 441.471 69.0334 438.993 70.1961 436.693C71.3615 434.387 72.7451 432.168 73.8352 429.833Z" fill="#0C0C22"/>
<path d="M73.5065 434.395C71.6077 438.668 69.3979 443.037 68.1259 447.472C67.9762 447.992 68.8575 448.258 69.1536 447.793C71.6833 443.824 73.1318 439.272 75.0705 435.085C75.4791 434.2 73.9033 433.503 73.5065 434.395Z" fill="#0C0C22"/>
<path d="M70.5161 450.541C72.8369 446.669 74.6082 442.594 77.0714 438.769C77.5971 437.95 76.0422 437.319 75.5223 438.143C73.1259 441.934 70.8481 445.943 69.2218 450.018C68.9359 450.736 70.0881 451.258 70.5161 450.541Z" fill="#0C0C22"/>
<path d="M70.3887 455.939C71.2506 454.849 71.5365 453.562 72.163 452.36C72.7716 451.194 73.5419 450.084 74.272 448.97C75.6641 446.847 76.8728 444.727 77.5052 442.35C77.7407 441.47 76.1397 441.108 75.8908 441.993C75.1117 444.745 73.4766 447.111 71.8431 449.551C70.6672 451.308 68.9445 453.613 69.269 455.687C69.3445 456.176 70.0363 456.383 70.3887 455.939Z" fill="#0C0C22"/>
<path d="M77.9214 446.633C76.464 449.053 74.8748 451.411 73.3093 453.781C71.9691 455.808 70.1295 458.034 69.7681 460.361C69.7001 460.802 70.3591 460.986 70.676 460.669C72.4784 458.868 73.4959 456.373 74.854 454.309C76.4165 451.935 78.0248 449.587 79.4912 447.17C79.9891 446.349 78.4116 445.819 77.9214 446.633Z" fill="#0C0C22"/>
<path d="M71.553 464.383C72.738 462.667 73.6058 460.793 74.7404 459.044C75.8985 457.255 77.082 455.486 78.1097 453.641C78.4978 452.943 77.2835 452.296 76.894 452.999C74.9196 456.556 71.4909 460.116 70.5343 463.99C70.411 464.49 71.2109 464.878 71.553 464.383Z" fill="#0C0C22"/>
<path d="M77.6218 457.156C75.6091 460.901 71.6768 464.962 71.2103 469.138C71.1511 469.669 72.0649 470.033 72.4248 469.526C73.614 467.84 74.3295 465.912 75.3381 464.138C76.575 461.961 77.8974 459.827 78.986 457.592C79.346 456.854 78.0072 456.441 77.6218 457.156Z" fill="#0C0C22"/>
<path d="M77.1733 464.293C75.7367 466.661 72.5671 470.192 73.1403 472.982C73.1892 473.22 73.6497 473.306 73.7817 473.073C74.4659 471.869 74.6363 470.465 75.2004 469.202C75.9069 467.621 76.9276 466.148 77.8294 464.644C78.0514 464.271 77.4012 463.917 77.1733 464.293Z" fill="#0C0C22"/>
<path d="M76.0122 469.865C74.8702 471.778 73.2277 473.742 72.6531 475.848C72.5626 476.183 73.0781 476.532 73.3935 476.225C75.0612 474.594 76.2283 472.467 77.3835 470.559C77.8486 469.79 76.4758 469.087 76.0122 469.865Z" fill="#0C0C22"/>
</svg>
