<svg width="719" height="694" viewBox="0 0 719 694" fill="none" xmlns="http://www.w3.org/2000/svg">
<path d="M330.057 651.806C314.296 654.571 297.755 653.984 281.815 655.766C273.842 656.657 265.903 657.228 257.873 657.454C251.243 657.639 243.502 656.475 237.065 657.943C236.524 658.066 236.344 658.909 236.978 659.053C243.367 660.503 251.182 659.353 257.733 659.191C265.346 659.002 272.956 658.557 280.514 657.663C297.202 655.686 313.688 656.118 330.2 652.538C330.692 652.43 330.555 651.719 330.057 651.806Z" fill="#0C0C22"/>
<path d="M541.999 601.148C532.711 579.732 509.053 565.552 486.744 558.462C480.579 556.503 474.253 555.258 467.933 553.836C461.26 552.337 455.394 549.408 449.83 545.655C441.653 540.138 434.469 532.969 423.629 534.124C412.393 535.321 402.629 547.5 398.583 556.925C397.868 556.917 397.151 556.925 396.426 556.963C389.65 557.331 383.613 560.11 377.901 563.366C375.299 564.849 372.709 566.316 370.09 567.715C367.085 567.154 363.887 568.955 361.681 571.505C354.754 573.896 347.84 576.328 340.946 578.818C338.736 577.101 335.439 576.939 332.71 577.589C328.139 578.678 324.977 581.696 322.861 585.548C320.269 586.545 317.674 587.538 315.089 588.563C300.459 594.363 285.932 600.406 271.64 606.922C263.633 610.573 255.82 614.669 247.793 618.291C246.143 616.882 243.738 616.426 240.394 617.699C236.697 619.106 234.385 621.535 232.865 624.482C220.172 629.626 207.439 635.139 196.45 643.006C194.099 644.69 191.29 646.98 189.58 649.662C186.896 652.7 185.209 656.483 185.013 660.497C184.737 666.197 188.892 670.542 193.525 673.569C198.443 676.782 204.653 677.961 210.346 679.333C214.606 680.358 219.878 681.863 224.513 681.346C224.376 682.254 224.296 683.12 224.333 683.91C224.532 688.262 228.098 692.008 232.316 693.324C239.645 695.611 246.379 688.245 248.536 681.862C269.189 681.999 289.934 679.324 310.392 677C320.62 675.838 330.851 674.715 341.101 673.744C351.857 672.726 362.979 673.018 373.636 671.474C374.647 671.327 374.994 669.805 373.807 669.64C364.389 668.337 354.239 669.527 344.792 670.191C344.222 670.233 343.652 670.286 343.079 670.329C347.682 667.726 351.637 663.54 356.359 660.647C359.883 658.487 364.703 656.501 368.805 658.396C373.927 660.763 374.614 667.723 374.794 672.417C375.147 681.613 382.018 689.531 392.366 690.042C402.424 690.538 404.366 680.243 405.065 672.809C405.225 671.109 405.151 669.319 405.098 667.518C408.216 666.735 411.309 665.985 414.524 665.477C417.39 665.022 420.284 664.812 423.146 664.405C427.429 667.739 432.558 669.448 437.389 665.042C438.202 664.302 438.972 663.479 439.711 662.614C453.74 658.905 467.895 657.65 482.378 656.075C495.471 654.649 508.682 653.202 521.246 649.243C530.387 646.363 539.673 641.676 543.883 633.019C548.498 623.529 546.022 610.419 541.999 601.148ZM370.887 572.271C373.599 572.165 377.053 572.013 376.569 575.407C376.142 578.389 370.597 576.247 369.818 574.418C369.426 573.5 369.923 572.798 370.887 572.271ZM363.078 575.194C363.102 575.127 363.119 575.059 363.145 574.991C363.354 574.432 363.64 573.899 364.003 573.422C364.771 572.411 365.744 571.782 366.822 571.37C366.213 572.202 365.919 573.067 365.895 573.925C365.893 573.97 365.891 574.017 365.891 574.062C365.903 575.945 367.2 577.776 369.33 579.098C373.745 581.838 380.334 581.16 380.553 575.27C380.616 573.605 379.905 572.124 378.773 570.962C379.803 570.988 380.618 571.089 380.983 571.247C384.109 572.595 383.643 576.295 383.014 578.884C382.076 582.749 377.047 583.917 373.506 584.078C369.986 584.24 366.003 583.083 363.836 580.322C362.677 578.845 362.506 576.905 363.078 575.194ZM323.692 591.298C324.994 588.31 326.758 585.584 329.021 583.461C329.183 583.309 329.353 583.162 329.53 583.018C331.132 581.712 333.285 580.793 335.384 580.839C336.324 580.86 337.253 581.068 338.117 581.53C339.502 582.273 339.811 583.461 339.584 584.753C339.222 586.827 337.462 589.166 336.498 590.338C335.238 591.868 337.415 593.808 339.067 592.997C341.046 592.025 345.27 590.24 346.987 592.672C348.768 595.19 343.506 597.948 341.925 598.712C335.452 601.84 327.892 601.659 321.027 603.508C320.968 603.524 320.922 603.549 320.867 603.568C321.076 599.536 321.993 595.195 323.692 591.298ZM233.987 630.797C234.316 629.541 234.694 628.297 235.188 627.077C235.827 625.5 237.345 623.352 239.22 621.922C240.36 621.054 241.631 620.454 242.919 620.407C243.728 620.376 244.545 620.562 245.336 621.042C246.784 621.919 247.266 623.573 247.272 625.353C247.276 627.445 246.62 629.711 246.061 631.103C245.571 632.322 246.474 634.088 248.087 633.78C250.996 633.225 254 632.813 256.789 634.016C260.118 635.449 256.084 638.189 254.536 638.933C251.073 640.602 246.713 640.914 242.93 641.573C239.096 642.239 235.241 642.859 231.385 643.404C232.478 639.243 232.902 634.948 233.987 630.797ZM224.967 678.873C216.694 677.479 208.855 675.784 200.915 672.94C195.917 671.152 190.61 667.709 189.301 662.504C188.968 661.182 189.013 659.889 189.294 658.624C191.962 662.79 198.076 663.548 203.06 663.923C209.402 664.398 220.924 663.012 224.86 669.027C226.54 671.599 225.686 675.358 224.967 678.873ZM249.297 678.166C249.824 673.774 250.357 671.152 256.297 671.021C259.71 670.946 261.466 675.162 263.94 676.818C264.355 677.096 264.773 677.319 265.19 677.496C259.904 677.794 254.609 678.019 249.297 678.166ZM312.166 673.384C298.439 674.906 284.777 676.241 271.062 677.145C275.248 675.123 278.886 669.993 280.769 667.171C287.129 657.641 296.478 667.232 304.92 667.833C308.846 668.114 313.822 665.29 317.442 666.278C319.145 666.742 321.012 668.39 322.495 669.265C324.227 670.285 326.337 671.047 328.404 671.63C322.986 672.18 317.575 672.785 312.166 673.384ZM405.092 664.072C405.174 662.201 405.456 660.376 406.236 658.686C407.37 656.228 410.107 654.972 412.828 654.972C414.746 654.969 416.324 657.303 417.333 658.545C418.252 659.675 419.3 660.867 420.442 662.003C415.322 662.107 409.913 662.825 405.092 664.072ZM433.867 658.118C432.265 660.271 431.573 661.391 428.972 659.951C427.134 658.934 425.582 657.495 424.344 655.87C421.895 652.653 419.666 649.967 415.724 648.378C411.927 646.845 406.355 648.497 403.378 650.883C399.377 654.088 398.1 658.436 397.696 663.225C397.286 668.087 397.723 672.795 396.726 677.627C396.37 679.349 395.899 681.298 394.562 682.58C392.943 684.13 388.173 681.344 386.872 680.635C382.352 678.17 382.419 673.995 381.825 669.645C381.146 664.667 379.28 660.03 375.903 656.13C370.062 649.384 360.239 651.779 353.41 655.484C348.606 658.092 345.096 662.181 340.486 664.992C335.572 667.987 329.119 666.032 324.405 663.522C321.741 662.104 319.227 660.294 316.02 660.713C310.622 661.42 305.838 663.616 300.398 661.697C296.538 660.337 293.611 658.43 289.38 657.99C285.105 657.545 281.369 658.946 278.536 661.972C275.95 664.734 274.571 668.299 271.765 670.894C267.375 674.948 265.741 671.654 262.782 668.818C257.53 663.778 247.384 666.154 244.929 672.601C243.612 676.054 244.237 679.599 242.254 682.914C240.828 685.301 238.377 687.249 235.597 688.006C230.976 689.264 230.102 683.17 230.284 680.366C230.582 675.782 231.691 671.777 229.808 667.364C228.546 664.407 225.574 662.312 222.53 661.183C215.197 658.46 207.129 659.349 199.504 658.069C191.773 656.772 194.138 652.467 198.706 648.799C205.215 643.574 213.416 639.961 221.025 636.438C224.138 634.998 227.284 633.628 230.444 632.287C229.7 636.427 229.426 640.743 228.622 644.381C228.466 645.09 228.908 645.519 229.461 645.629C229.712 646.47 230.558 647.16 231.816 646.833C238.442 645.104 245.4 644.962 252.055 643.349C255.811 642.44 259.655 641.035 261.494 637.572C264.892 631.176 256.005 629.593 250.475 629.741C250.79 627.868 250.831 625.82 250.526 623.917C258.117 620.501 265.515 616.682 273.077 613.208C287.334 606.661 301.737 600.397 316.251 594.378C317.567 593.831 318.888 593.287 320.206 592.742C319.07 597.62 318.946 602.753 319.37 606.703C319.436 607.323 320.312 607.381 320.677 607C321.002 607.129 321.394 607.166 321.842 607.063C330.635 605.046 345.667 605.214 350.412 596.282C351.847 593.58 350.951 590.818 348.563 588.99C346.903 587.719 344.754 587.552 342.63 587.894C343.279 586.377 343.606 584.787 343.383 583.198C348.582 581.07 353.784 578.95 358.993 576.842C358.936 577.194 358.905 577.542 358.903 577.882C358.893 584.267 366.034 587.819 371.917 588.112C378.265 588.428 385.06 585.976 386.911 579.73C388.279 575.111 386.801 569.475 381.776 567.714C385.516 566.232 389.256 564.758 393 563.293C400.433 562.23 407.362 563.921 414.825 566.956C415.769 567.339 416.719 567.741 417.681 568.165C417.908 568.265 418.138 568.369 418.365 568.469C418.592 568.569 418.817 568.67 419.045 568.769C420.371 569.358 421.699 569.948 423.028 570.544C423.555 570.78 424.082 571.019 424.609 571.257C425.927 571.853 427.246 572.454 428.564 573.059C429.33 573.41 430.096 573.76 430.862 574.115C432.065 574.672 433.266 575.238 434.467 575.804C435.852 576.456 437.234 577.115 438.613 577.78C440.072 578.481 441.528 579.191 442.979 579.907C444.429 580.621 445.875 581.344 447.319 582.073C448.587 582.714 449.852 583.361 451.114 584.013C451.727 584.331 452.342 584.646 452.955 584.967C454.24 585.64 455.522 586.321 456.799 587.007C456.864 587.042 456.928 587.076 456.993 587.111C458.331 587.831 459.665 588.561 460.993 589.296C461.564 589.61 462.134 589.925 462.702 590.243C464.02 590.983 465.335 591.728 466.644 592.483C467.8 593.149 468.948 593.825 470.094 594.505C471.624 595.412 473.144 596.329 474.655 597.261C476.02 598.104 477.378 598.958 478.728 599.821C479.833 600.529 480.928 601.245 482.019 601.967C482.789 602.474 483.555 602.987 484.317 603.502C485.252 604.132 486.186 604.76 487.109 605.401C487.372 605.583 487.646 605.752 487.911 605.932C488.473 606.314 489.041 606.685 489.609 607.058C490.655 607.744 491.705 608.423 492.765 609.086C493.52 609.556 494.272 610.03 495.03 610.495C495.369 611.107 495.984 611.48 496.752 611.579C496.77 611.581 496.781 611.579 496.799 611.581C497.262 611.864 497.722 612.147 498.184 612.43C500.026 613.557 501.861 614.691 503.672 615.871C503.674 615.872 503.674 615.872 503.676 615.874C506.354 617.622 508.031 620.272 508.574 623.155C500.371 622.634 491.639 627.611 484.128 629.86C473.599 633.011 462.369 634.179 451.451 635.395C432.599 637.495 413.671 638.049 396.065 645.299C395.317 645.607 395.856 646.658 396.599 646.373C405.241 643.074 415.266 641.952 424.482 640.803C433.623 639.662 442.845 639.245 451.982 638.088C462.468 636.76 472.769 635.093 483.07 632.818C486.945 631.961 490.687 630.475 494.401 629.151C499.201 627.439 503.876 626.588 508.762 625.565C508.738 626.343 508.64 627.124 508.45 627.898C507.322 632.494 503.118 635.558 498.87 637.502C492.215 640.55 484.053 637.47 476.997 638.386C472.05 639.028 468.061 641.397 463.804 643.688C459.174 646.179 453.536 645.084 448.507 644.635C446.046 644.415 443.644 644.827 441.983 646.694C438.91 650.145 436.62 654.42 433.867 658.118ZM520.471 643.932C508.342 648.702 494.303 650.387 481.431 652.231C468.509 654.082 455.383 655.842 442.637 658.722C443.877 656.886 445.015 654.999 446.065 653.229C446.514 652.471 447.907 651.186 447.246 651.233C448.723 650.921 450.998 651.469 452.409 651.553C457.236 651.844 461.681 651.444 466.107 649.556C467.898 648.791 469.563 647.726 471.289 646.84C475.043 644.914 478.561 644.525 482.785 644.715C488.968 644.997 495.036 646.133 500.994 643.925C505.925 642.096 509.898 639.271 513.044 635.235C516.674 630.581 517.511 623.942 515.123 618.644C512.844 613.587 508.554 610.639 503.903 607.994C503.86 607.185 503.822 606.404 503.815 605.677C503.764 600.213 503.198 594.811 501.464 589.58C500.982 588.127 498.654 588.484 498.964 590.046C499.971 595.141 499.724 600.257 499.259 605.394C499.259 605.401 499.258 605.409 499.258 605.416C498.831 605.177 498.403 604.934 497.98 604.687C496.852 598.71 496.154 592.675 494.938 586.707C494.624 585.169 492.199 585.691 492.45 587.217C493.243 592.075 493.21 597.078 493.598 602.009C493.296 601.82 492.998 601.626 492.699 601.434C492.452 600.075 492.233 598.709 492.05 597.327C491.257 591.315 490.943 585.249 489.909 579.267C489.656 577.799 487.245 577.938 487.448 579.45C488.253 585.475 488.267 591.532 488.557 597.589C488.573 597.926 488.579 598.322 488.581 598.753C488.15 598.468 487.721 598.182 487.292 597.896C486.912 596.85 486.545 595.862 486.34 595.021C484.853 588.934 484.018 582.726 483.855 576.484C483.816 575.02 481.471 575.073 481.465 576.53C481.44 582.357 481.902 588.169 482.715 593.944C482.758 594.241 482.793 594.575 482.829 594.923C481.81 594.248 480.789 593.578 479.765 592.912C479.663 592.615 479.561 592.319 479.471 592.025C478.158 587.731 477.296 583.35 476.893 578.897C476.755 577.396 474.279 577.327 474.385 578.869C474.659 582.859 475.32 586.749 476.211 590.653C475.094 589.959 473.967 589.277 472.827 588.615C472.798 588.598 472.768 588.581 472.739 588.565C472.663 588.024 472.59 587.482 472.537 586.931C472.046 581.815 472.04 576.67 471.536 571.555C471.364 569.811 468.551 570.221 468.707 571.955C469.099 576.296 468.889 581.45 469.137 586.543C467.753 585.79 466.354 585.054 464.95 584.329C464.374 579.604 464.242 574.815 464.433 570.074C464.497 568.452 461.854 567.982 461.768 569.634C461.539 574.041 461.617 578.424 461.966 582.811C461.269 582.461 460.571 582.11 459.87 581.764C459.441 576.626 459.292 571.47 458.742 566.338C458.587 564.895 456.324 565.306 456.424 566.717C456.747 571.225 456.724 575.739 456.788 580.254C456.685 580.204 456.581 580.152 456.477 580.101C456.351 579.003 456.228 577.936 456.159 576.944C455.811 571.889 455.125 566.856 453.724 561.962C453.321 560.551 451.052 561.118 451.413 562.539C452.741 567.789 453.015 573.085 453.094 578.457C452.145 577.996 451.199 577.535 450.255 577.073C449.994 575.573 449.753 574.081 449.675 572.621C449.434 568.057 449.25 563.559 448.239 559.079C447.902 557.584 445.594 558.264 445.865 559.719C446.821 564.889 446.621 570.111 446.74 575.334C446.65 575.289 446.56 575.246 446.472 575.201C444.905 574.416 443.336 573.637 441.766 572.858C441.739 572.541 441.704 572.223 441.692 571.906C441.513 567.082 442.025 562.255 442.038 557.432C442.045 555.576 439.063 555.738 439.025 557.564C438.929 562.118 438.497 566.652 438.408 571.202C436.996 570.508 435.582 569.814 434.163 569.129C434.208 564.1 434.894 559.094 434.897 554.063C434.897 552.345 432.172 552.614 432.123 554.28C431.992 558.756 431.414 563.203 431.093 567.669C430.209 567.249 429.326 566.827 428.44 566.411C428.507 561.685 428.583 556.959 428.558 552.233C428.546 550.308 425.447 550.402 425.423 552.309C425.372 556.496 425.235 560.679 425.075 564.863C424.516 564.607 423.956 564.352 423.395 564.098C423.421 563.811 423.441 563.521 423.476 563.239C424.048 558.629 424.657 554.03 424.851 549.389C424.922 547.68 422.279 547.828 422.108 549.45C421.644 553.861 420.718 558.194 419.981 562.565C419.552 562.376 419.123 562.186 418.692 562.002C418.7 561.834 418.704 561.665 418.715 561.497C419.007 557.279 419.305 553.076 419.272 548.846C419.258 547.217 416.712 547.477 416.655 549.043C416.512 552.96 416.045 556.837 415.561 560.722C411.453 559.105 407.272 557.789 402.905 557.221C409.7 549.588 417.475 537.641 429.115 540.405C434.081 541.585 438.334 545.446 442.186 548.426C446.794 551.989 451.237 555.123 457.012 556.733C469.445 560.199 481.952 561.806 494.016 566.607C506.148 571.435 516.695 578.893 525.756 587.861C534.874 596.884 540.015 608.316 540.099 620.872C540.18 633.328 531.734 639.503 520.471 643.932Z" fill="#0C0C22"/>
<path d="M433.838 627.599C433.881 627.941 434.208 628.074 434.516 628.035C434.874 628.44 435.446 628.663 436.199 628.471C445.659 626.055 459.14 625.871 463.629 615.811C464.924 612.906 462.898 609.554 460.014 608.434C457.675 607.525 455.31 607.655 453.11 608.396C453.708 605.973 453.706 603.484 452.654 601.002C451.382 598.002 447.799 596.854 444.739 597.828C439.833 599.391 437.58 604.929 435.701 608.996C432.993 614.852 433.052 621.382 433.838 627.599ZM441.898 604.632C443.144 602.764 446.776 599.264 448.804 602.208C450.741 605.021 448.853 609.304 447.46 611.897C446.463 613.75 448.788 615.775 450.52 614.272C452.638 612.436 456.386 610.4 459.039 612.629C461.821 614.963 455.034 619.01 453.569 619.827C448.187 622.83 441.218 623.21 435.372 625.184C435.261 625.221 435.163 625.269 435.069 625.319C435.26 618.094 437.882 610.658 441.898 604.632Z" fill="#0C0C22"/>
<path d="M420.144 602.552C421.572 598.756 420.452 595.32 416.671 593.319C413.661 591.726 410.074 591.854 406.74 592.71C407.447 589.621 407.351 586.455 405.805 583.474C404.142 580.265 400.28 578.927 396.81 580.048C391.842 581.654 389.47 587.085 387.751 591.329C384.977 598.182 386.002 606.083 387.328 613.08C387.385 613.387 387.548 613.591 387.753 613.704C387.984 614.355 388.566 614.863 389.534 614.854C399.485 614.763 416.128 613.233 420.144 602.552ZM410.227 606.885C404.324 610.261 396.482 610.863 389.754 610.924C389.521 610.926 389.313 610.967 389.119 611.023C388.371 602.359 389.477 593.503 394.9 586.21C396.654 583.852 400.014 582.371 401.914 585.316C403.938 588.449 402.208 592.751 400.802 595.743C399.957 597.535 402.399 599.214 404.058 598.388C407.431 596.708 411.549 595.406 415.158 597.275C419.846 599.704 412.437 605.62 410.227 606.885Z" fill="#0C0C22"/>
<path d="M361.352 620.068C359.481 618.598 357.322 618.055 355.101 618.051C355.749 616.428 355.888 614.694 355.054 612.917C353.602 609.827 349.433 609.555 346.449 610.223C335.791 612.605 332.38 624.81 331.83 633.682C331.808 634.033 332.439 634.584 333.086 634.997C333.352 635.43 333.822 635.738 334.551 635.732C343.447 635.651 356.895 636.394 362.365 628.168C364.083 625.586 363.95 622.111 361.352 620.068ZM352.791 630.279C347.339 632.227 340.785 631.911 335.064 631.864C334.808 631.861 334.577 631.905 334.361 631.972C335.85 626.708 336.926 621.358 341.318 617.434C343.479 615.505 346.006 613.909 349.09 614.119C353.037 614.386 349.454 618.468 348.259 619.76C346.531 621.63 349.084 623.89 351.157 623.215C353.269 622.528 358.32 621.334 359.14 624.439C359.926 627.419 354.981 629.496 352.791 630.279Z" fill="#0C0C22"/>
<path d="M274.911 647.856C274.923 648.035 274.991 648.175 275.081 648.298C275.54 648.533 276.108 648.579 276.729 648.298C276.788 648.272 276.853 648.248 276.911 648.222C285.375 644.533 303.131 645.679 305.717 634.475C306.391 631.548 305.321 628.193 302.139 626.973C300.053 626.174 298.023 626.093 296.058 626.475C296.685 624.274 296.65 621.95 295.657 619.614C294.015 615.744 289.54 615.145 285.892 616.518C280.726 618.464 277.317 624.444 275.832 629.183C274.227 634.306 274.398 639.635 274.723 644.905C274.784 645.892 274.85 646.875 274.911 647.856ZM279.727 627.838C281.134 624.33 284.854 620.261 288.91 619.563C294.83 618.545 290.761 627.896 289.609 629.369C288.116 631.278 290.643 633.611 292.661 632.28C295.102 630.668 299.273 628.571 301.74 631.339C304.966 634.959 296.456 639.371 294.001 640.218C288.559 642.094 282.673 642.189 277.19 643.927C277.413 638.478 277.685 632.922 279.727 627.838Z" fill="#0C0C22"/>
<path d="M388.776 620.675C388.03 620.061 387.211 619.527 386.347 619.09C384.844 618.33 383.214 617.863 381.611 617.817C379.353 617.754 377.509 618.797 376.265 620.339C375.111 620.93 374.041 621.705 373.103 622.693C369.626 626.348 370.785 632.535 374.381 635.715C382.186 642.617 395.202 636.035 392.375 625.88C391.827 623.91 390.496 622.089 388.776 620.675ZM379.202 621.712C380.493 621.304 381.9 621.136 383.291 621.133C383.853 621.267 384.412 621.467 384.942 621.743C385.393 621.978 385.798 622.247 386.18 622.534C386.302 625.059 385.24 627.235 382.442 627.968C380.101 628.583 377.715 627.552 377.683 625.072C377.666 623.472 378.271 622.371 379.202 621.712ZM389.105 629.505C388.394 635.461 380.271 636.787 376.295 632.908C374.486 631.144 373.816 628.265 374.563 625.889C374.592 626.208 374.636 626.527 374.708 626.84C375.578 630.573 380.054 631.74 383.511 630.834C386.159 630.14 387.979 628.38 388.814 626.201C389.137 627.231 389.244 628.344 389.105 629.505Z" fill="#0C0C22"/>
<path d="M438.05 584.692C437.958 584.209 437.835 583.714 437.65 583.202C437.533 582.876 437.398 582.533 437.241 582.181C436.826 581.237 436.269 580.237 435.58 579.359C435.599 579.114 435.525 578.851 435.307 578.602C435.174 578.45 435.033 578.318 434.896 578.177C433.677 576.922 432.319 576.101 430.913 575.651C430.132 575.4 429.338 575.26 428.545 575.223C427.158 575.16 425.778 575.407 424.487 575.894C418.974 577.973 415.115 584.468 419.603 590.326C425.286 597.746 439.825 593.978 438.05 584.692ZM431.387 579.247C432.308 579.303 433.253 579.853 434.058 581.087C434.375 581.576 434.64 582.09 434.849 582.618C434.494 582.818 434.067 583.056 433.605 583.301C430.811 584.791 426.622 586.632 427.606 582.814C428.16 580.659 429.736 579.147 431.387 579.247ZM422.647 579.801C423.3 579.146 424.042 578.655 424.832 578.305C425.919 577.823 427.099 577.626 428.272 577.684C428.364 577.689 428.456 577.685 428.547 577.693C428.433 577.765 428.333 577.858 428.223 577.936C427.232 578.647 426.415 579.614 425.819 580.592C425.751 580.704 425.67 580.816 425.608 580.929C424.572 582.785 423.964 585.537 425.78 587.161C428.343 589.453 432.533 587.798 435.284 586.434C435.057 587.665 434.442 588.819 433.35 589.744C430.837 591.875 426.766 591.829 423.98 590.288C420.028 588.104 419.656 582.809 422.647 579.801Z" fill="#0C0C22"/>
<path d="M314.985 628.787C318.725 628.139 322.685 626.143 324.558 622.929C326.356 619.842 326.666 615.641 324.873 612.497C323.919 610.826 322.179 609.795 320.247 609.64C318.028 607.7 315.183 606.873 312.078 608.999C308.171 611.674 306.036 616.94 305.887 621.382C305.711 626.607 309.582 629.723 314.985 628.787ZM320.22 612.736C320.884 613.585 321.429 614.508 321.848 615.238C321.979 615.468 322.164 615.596 322.359 615.674C322.398 616.016 322.416 616.366 322.416 616.716C320.332 617.425 318.043 617.212 316.181 616.073C313.726 614.572 317.701 613.101 319.051 612.795C319.495 612.694 319.877 612.687 320.22 612.736ZM312.291 612.752C313.21 611.579 314.619 610.437 316.22 610.367C314.38 611.092 312.64 612.31 312.201 613.91C311.486 616.504 313.344 618.533 315.659 619.677C317.632 620.653 319.769 620.838 321.76 620.314C320.449 623.3 317.038 624.723 313.845 625.399C312.103 625.768 310.53 625.475 309.732 624C307.895 620.593 310.115 615.525 312.291 612.752Z" fill="#0C0C22"/>
<path d="M478.541 624.86C483.798 628.386 491.29 623.415 492.751 618.391C493.733 615.013 491.731 611.506 488.739 609.743C487.278 608.882 485.661 608.737 484.147 609.093C480.229 608.48 476.268 609.24 474.714 613.437C473.185 617.568 474.796 622.346 478.541 624.86ZM481.797 614.226C482.128 612.6 484.215 611.42 485.867 611.583C487.346 611.73 488.445 612.745 489.183 613.886C489.199 613.911 489.205 613.937 489.221 613.961C488.86 613.962 488.486 614.095 488.155 614.417C487.081 615.459 481.186 617.211 481.797 614.226ZM477.052 614.915C477.421 613.006 478.62 611.966 480.154 611.462C479.866 611.775 479.603 612.111 479.374 612.463C477.828 614.856 479.163 617.547 481.776 618.486C484.474 619.457 487.593 618.888 489.713 617.086C488.966 620.611 484.46 623.976 480.918 622.592C478.054 621.473 476.52 617.665 477.052 614.915Z" fill="#0C0C22"/>
<path d="M667.298 86.5466C667.902 86.6347 667.743 86.4819 667.298 86.5466V86.5466Z" fill="#0C0C22"/>
<path d="M718.119 135.252C718.089 134.73 718.041 134.217 717.991 133.705C718.346 130.524 718.442 127.32 718.251 124.139C717.047 103.961 701.205 91.1279 685.562 82.5746C677.324 78.0694 668.301 74.9834 659.201 73.1765C653.426 72.0302 647.026 71.2462 641.111 72.3904C637.031 72.2122 632.895 72.4351 628.683 73.2201C614.549 75.8543 600.585 84.0421 590.319 94.5407C580.008 105.086 575.758 118.923 576.993 133.826C576.548 137.795 576.541 141.89 576.962 146.066C578.214 158.465 584.073 169.469 592.915 177.552C608.634 191.922 631.376 196.409 652.147 195.509C652.853 195.477 653.556 195.441 654.257 195.398C654.514 195.383 654.771 195.368 655.027 195.352C655.691 195.306 656.351 195.255 657.008 195.199C657.651 195.145 658.292 195.085 658.929 195.021C659.611 194.952 660.286 194.878 660.96 194.799C661.309 194.758 661.662 194.72 662.009 194.676C662.131 194.66 662.253 194.642 662.376 194.626C663.129 194.529 663.88 194.429 664.632 194.32C665.116 194.249 665.599 194.17 666.082 194.094C666.665 194.003 667.249 193.909 667.832 193.809C667.956 193.788 668.078 193.765 668.2 193.744C668.46 193.698 668.721 193.653 668.979 193.605C669.246 193.556 669.515 193.512 669.78 193.462C670.25 193.373 670.717 193.274 671.185 193.18C671.383 193.138 671.581 193.099 671.779 193.058C672.43 192.921 673.078 192.776 673.724 192.627C673.83 192.602 673.934 192.577 674.039 192.553C674.308 192.49 674.577 192.43 674.846 192.364C674.996 192.328 675.148 192.292 675.298 192.255C675.423 192.223 675.547 192.187 675.672 192.155C675.956 192.083 676.237 192.005 676.519 191.929C676.849 191.843 677.179 191.76 677.506 191.668C677.921 191.552 678.334 191.424 678.747 191.302C679.257 191.15 679.767 191.004 680.272 190.842C680.62 190.729 680.962 190.604 681.308 190.487C681.666 190.367 682.024 190.247 682.379 190.121C682.73 189.997 683.077 189.866 683.423 189.736C683.647 189.652 683.866 189.564 684.088 189.479C684.21 189.431 684.334 189.385 684.457 189.337C685.017 189.116 685.575 188.885 686.133 188.647C686.143 188.642 686.154 188.637 686.164 188.632C686.278 188.584 686.39 188.533 686.503 188.484C686.47 188.658 686.438 188.832 686.408 189.006C686.446 188.83 686.485 188.653 686.523 188.475C687.281 188.144 688.034 187.796 688.782 187.432C688.817 187.415 688.851 187.397 688.888 187.38C688.992 187.329 689.096 187.278 689.201 187.225C689.508 187.073 689.819 186.931 690.125 186.772C690.619 186.514 691.102 186.236 691.589 185.963C691.662 185.921 691.736 185.883 691.808 185.842C692.054 185.703 692.303 185.572 692.546 185.43C692.626 185.382 692.703 185.329 692.783 185.282C693.139 185.071 693.489 184.846 693.84 184.627C694.186 184.41 694.536 184.199 694.877 183.973C695.209 183.754 695.533 183.517 695.861 183.29C696.135 183.099 696.412 182.914 696.684 182.718C696.693 182.711 696.703 182.704 696.712 182.697C696.953 182.522 697.19 182.34 697.427 182.161C697.739 181.926 698.046 181.683 698.353 181.44C698.7 181.164 699.051 180.89 699.393 180.603C699.429 180.622 699.463 180.642 699.498 180.66C699.523 180.59 699.547 180.52 699.569 180.449C699.918 180.153 700.264 179.85 700.606 179.543C700.783 179.386 700.962 179.24 701.135 179.079C701.141 179.074 701.15 179.068 701.155 179.062C701.181 179.038 701.208 179.018 701.233 178.995C701.72 178.542 702.194 178.077 702.664 177.603C703.408 176.851 704.127 176.074 704.825 175.272C705.026 175.038 705.231 174.804 705.43 174.565C706.052 173.821 706.653 173.059 707.232 172.277C707.514 171.897 707.792 171.514 708.063 171.127C715.212 160.913 718.873 147.877 718.119 135.252ZM589.838 167.789C586.502 163.398 584.14 158.391 582.648 153.096C585.329 158.091 588.845 162.597 593.047 166.438C609.33 181.326 633.152 185.607 654.51 184.277C654.106 186.481 653.746 188.692 653.314 190.891C653.264 191.142 653.197 191.41 653.121 191.69C630.684 192.825 604.371 186.918 589.838 167.789ZM655.024 191.578C655.428 189.143 655.591 186.643 655.874 184.187C656.669 184.129 657.461 184.062 658.249 183.987C657.993 185.586 657.715 187.181 657.374 188.765C657.18 189.672 656.944 190.567 656.666 191.448C656.121 191.494 655.574 191.539 655.024 191.578ZM658.237 191.307C658.264 191.175 658.292 191.049 658.32 190.932C658.851 188.625 659.139 186.251 659.376 183.875C660.088 183.802 660.8 183.722 661.507 183.636C661.031 186.143 660.51 188.641 659.969 191.133C659.391 191.194 658.813 191.252 658.237 191.307ZM661.489 190.961C661.92 188.475 662.329 185.984 662.696 183.487C663.548 183.374 664.398 183.257 665.246 183.131C664.841 185.28 664.375 187.418 663.859 189.549C663.768 189.922 663.663 190.306 663.548 190.701C662.861 190.794 662.174 190.88 661.489 190.961ZM669.52 186.806C669.385 187.414 669.188 188.086 668.974 188.789C669.237 186.571 669.43 184.289 669.572 182.408C669.892 182.349 670.209 182.288 670.529 182.226C670.19 183.751 669.857 185.279 669.52 186.806ZM665.268 190.461C665.293 190.317 665.319 190.175 665.346 190.036C665.347 190.174 665.346 190.312 665.352 190.448C665.324 190.453 665.296 190.456 665.268 190.461ZM666.409 190.285C666.476 190.106 666.549 189.933 666.611 189.751C666.586 189.923 666.56 190.094 666.537 190.265C666.494 190.272 666.451 190.278 666.409 190.285ZM671.767 189.291C671.789 189.139 671.812 188.986 671.835 188.837C672.195 186.486 672.49 184.126 672.779 181.764C673.402 181.627 674.024 181.478 674.645 181.328C674.246 183.596 673.72 185.841 673.198 188.073C673.129 188.365 673.036 188.688 672.932 189.031C672.544 189.12 672.155 189.206 671.767 189.291ZM677.23 180.662C677.053 181.412 676.883 182.165 676.715 182.916C676.763 182.202 676.791 181.487 676.821 180.772C676.956 180.735 677.093 180.7 677.23 180.662ZM678.28 187.606C678.747 185.092 679.157 182.566 679.424 180.023C680.276 179.762 681.122 179.485 681.963 179.193C681.54 180.905 681.12 182.616 680.685 184.324C680.452 185.243 680.205 186.158 679.955 187.071C679.4 187.258 678.841 187.434 678.28 187.606ZM682.905 185.999C683.214 183.855 683.503 181.663 683.621 179.479C683.689 179.159 683.757 178.839 683.823 178.518C684.627 178.212 685.424 177.891 686.216 177.552C686.01 179.444 685.714 181.328 685.37 183.204C685.171 183.846 684.925 184.545 684.669 185.275C684.084 185.526 683.497 185.767 682.905 185.999ZM699.662 169.368C699.124 170.958 698.618 172.56 698.118 174.164C698.426 172.767 698.706 171.364 698.958 169.955C699.195 169.763 699.429 169.566 699.662 169.368ZM709.61 157.855C709.482 158.602 709.336 159.345 709.167 160.082C709.259 159.452 709.337 158.82 709.407 158.187C709.475 158.078 709.541 157.965 709.61 157.855ZM703.91 170.372C704.36 169.115 704.858 167.881 705.437 166.68C705.366 166.924 705.297 167.167 705.222 167.41C705.001 168.13 704.759 168.843 704.507 169.554C704.31 169.827 704.113 170.104 703.91 170.372ZM694.515 179.7C694.779 178.784 695.042 177.867 695.311 176.951C695.187 177.557 695.06 178.161 694.934 178.766C694.854 179.035 694.773 179.303 694.689 179.571C694.631 179.614 694.573 179.658 694.515 179.7ZM703.482 167.136C703.515 166.649 703.554 166.161 703.568 165.68C703.978 165.245 704.387 164.812 704.783 164.362C704.301 165.266 703.876 166.195 703.482 167.136ZM693.154 179.075C693.497 177.214 693.785 175.349 694.028 173.477C694.349 173.275 694.674 173.082 694.991 172.871C694.366 174.931 693.79 177.019 693.154 179.075ZM689.816 182.733C689.86 182.524 689.898 182.312 689.943 182.108C690.448 179.765 690.907 177.412 691.348 175.054C691.468 174.988 691.589 174.922 691.709 174.855C691.266 177.483 690.622 180.065 689.962 182.652C689.914 182.68 689.866 182.705 689.816 182.733ZM688.749 176.397C688.89 176.33 689.029 176.261 689.168 176.192C688.956 176.761 688.745 177.331 688.534 177.902C688.613 177.401 688.684 176.901 688.749 176.397ZM687.509 183.962C687.982 181.88 688.499 179.818 689.135 177.799C688.957 178.648 688.785 179.499 688.601 180.346C688.347 181.499 688.014 182.682 687.672 183.878C687.618 183.905 687.563 183.934 687.509 183.962ZM711.434 156.488C711.46 155.887 711.469 155.282 711.465 154.671C711.964 153.744 712.447 152.805 712.896 151.848C712.483 153.416 711.989 154.964 711.434 156.488ZM714.244 134.573C713.426 140.712 711.426 146.737 708.537 152.184C708.193 152.312 707.905 152.626 707.885 153.111C707.88 153.211 707.871 153.308 707.865 153.408C705.652 157.334 702.97 160.927 699.931 164.007C699.294 164.653 698.645 165.284 697.978 165.883C697.893 165.96 697.805 166.032 697.721 166.108C696.698 167.009 695.647 167.855 694.566 168.646C694.247 168.878 693.927 169.108 693.603 169.332C693.403 169.472 693.197 169.606 692.995 169.742C692.807 169.866 692.622 169.995 692.434 170.116C692.366 170.159 692.299 170.199 692.232 170.243C692.234 170.222 692.234 170.201 692.236 170.18C692.231 170.203 692.228 170.225 692.224 170.248C691.877 170.469 691.531 170.687 691.18 170.899C690.936 171.046 690.69 171.189 690.445 171.333C689.998 171.593 689.547 171.845 689.092 172.091C688.577 172.369 688.058 172.639 687.533 172.9C687.522 172.716 687.501 172.533 687.486 172.351C687.468 172.551 687.443 172.752 687.424 172.952C687.209 173.059 686.992 173.164 686.776 173.267C686.685 173.31 686.597 173.355 686.506 173.397C686.217 173.534 685.924 173.666 685.631 173.796C685.322 173.934 685.013 174.07 684.704 174.202C684.317 174.368 683.929 174.529 683.538 174.686C683.372 174.753 683.203 174.821 683.033 174.886C682.863 174.953 682.691 175.021 682.519 175.087C681.589 175.441 680.649 175.772 679.701 176.083C679.59 176.12 679.478 176.155 679.366 176.191C679.012 176.306 678.659 176.417 678.303 176.525C678.314 176.388 678.319 176.25 678.329 176.112C678.293 176.258 678.258 176.404 678.222 176.55C677.781 176.683 677.341 176.813 676.896 176.938C676.689 176.998 676.479 177.058 676.269 177.115C676.146 177.149 676.02 177.182 675.897 177.215C675.656 177.278 675.416 177.342 675.177 177.404C674.542 177.567 673.903 177.723 673.265 177.871C673.176 177.893 673.087 177.913 672.996 177.933C672.635 178.015 672.272 178.097 671.908 178.175C671.753 178.208 671.599 178.241 671.443 178.274C670.915 178.384 670.384 178.491 669.855 178.592C669.377 178.684 668.899 178.772 668.421 178.857C668.291 178.88 668.159 178.904 668.027 178.926C667.825 178.876 667.611 178.905 667.44 179.025C667.302 179.048 667.163 179.072 667.025 179.094C666.646 179.155 666.269 179.214 665.892 179.272C663.838 179.584 661.784 179.841 659.746 180.056C659.442 180.087 659.138 180.119 658.835 180.149C658.364 180.196 657.893 180.241 657.424 180.284C634.162 182.402 605.413 177.003 589.971 156.676C584.697 149.734 581.832 141.265 581.064 132.522C580.649 127.8 580.838 123 581.612 118.312C581.661 118.009 581.724 117.71 581.782 117.409C584.838 101.579 598.731 89.9803 611.58 83.0289C619.054 78.986 626.871 76.3835 634.997 75.5377C636.156 75.4172 637.325 75.3412 638.496 75.2932C641.032 75.1878 643.596 75.2455 646.188 75.4925C656.402 76.4713 666.358 79.6776 676.285 82.5731C677.695 83.2227 679.097 83.8911 680.48 84.592C694.185 91.5289 708.913 101.325 713.296 117.713C713.449 118.285 713.587 118.862 713.715 119.439C714.797 124.383 714.919 129.516 714.244 134.573Z" fill="#0C0C22"/>
<path d="M644.134 118.12C643.898 119.02 645.232 119.634 645.714 118.865C648.363 114.623 646.195 109.901 644.076 105.927C643.398 104.653 642.602 103.327 641.802 101.957C642.025 101.589 642.134 101.152 642.069 100.687C642.105 100.936 642.293 100.863 642.551 100.621C643.207 100.004 644.319 98.2612 644.605 97.731C644.625 97.6929 644.646 97.6545 644.658 97.6305C644.536 97.8914 645.004 98.1665 645.763 98.439C646.577 98.7309 647.732 99.0187 648.87 99.2816C650.717 99.7081 652.519 100.067 652.742 100.268C653.439 100.89 653.754 101.72 653.832 102.661C654.065 105.502 652.115 109.372 651.817 111.72C651.685 112.759 652.116 113.597 652.766 114.122C652.445 115.461 652.102 116.794 651.713 118.108C651.561 118.624 652.07 119.241 652.554 118.831C654.2 117.437 655.672 115.813 657.449 114.605C658.782 113.701 660.281 112.265 660.892 110.677C662.068 107.621 662.331 103.234 664.201 100.481C664.592 100.237 664.933 99.8824 665.162 99.3932C665.171 99.3741 665.178 99.3557 665.186 99.3377C665.211 99.3155 665.231 99.2904 665.256 99.2688C667.082 97.6875 669.182 96.6675 670.84 94.8328C671.505 94.0959 671.78 93.262 671.798 92.4083C671.804 92.1984 671.793 91.9887 671.769 91.7776C671.707 91.2397 671.559 90.7006 671.346 90.1817C670.964 89.247 670.389 88.3739 669.801 87.6778C668.932 86.648 667.666 86.4542 666.64 86.8346C666.65 86.8076 666.66 86.7807 666.672 86.7549C666.907 86.6295 667.122 86.5727 667.298 86.5478C667.282 86.545 667.277 86.5458 667.258 86.5427C666.749 86.4626 666.244 86.3467 665.739 86.2387C664.445 85.961 663.171 85.6007 661.857 85.4489C658.841 85.101 655.901 84.583 652.92 84.0077C650.655 83.5719 648.895 83.014 646.47 83.1909C645.287 83.2783 644.112 83.4317 642.947 83.6203C642.291 83.5705 641.635 83.5343 640.979 83.5055C639.253 83.839 637.573 84.3504 635.958 85.0516C635.498 85.1535 635.039 85.2552 634.579 85.3543C633.709 85.5439 632.791 86.0998 632.377 86.9698C632.256 87.2281 632.173 87.5117 632.155 87.8236C631.817 93.8829 634.62 98.8358 637.902 103.548C640.699 107.566 645.575 112.625 644.134 118.12ZM657.929 100.617C658.464 98.8612 659.173 97.1855 659.781 95.465C660.368 93.8062 660.926 91.805 662.27 90.7098C664.133 89.1935 666.042 92.0525 664.786 93.8079C664.302 94.4824 663.833 94.6286 663.179 95.0456C662.519 95.4658 661.891 96.0323 661.333 96.5979C660.145 97.8006 659.313 99.3073 658.692 100.906C658.517 101.36 657.785 101.084 657.929 100.617ZM652.531 89.7208C652.698 86.8466 656.611 88.2514 655.419 90.4188C654.424 92.2254 653.994 94.2627 653.488 96.2908C653.296 97.0586 652.083 97.0171 652.125 96.1612C652.229 94.0117 652.405 91.8464 652.531 89.7208ZM645.917 86.7885C646.452 87.6076 646.57 88.9426 646.681 89.9303C646.823 91.162 647.075 92.3745 647.21 93.6067C647.286 94.3088 646.193 94.4891 646.056 93.7989C645.802 92.5129 645.513 91.243 645.002 90.0432C644.639 89.1893 644.148 88.3089 644.047 87.3787C643.924 86.2454 645.392 85.9837 645.917 86.7885ZM638.442 88.4464C639.096 89.0961 639.694 89.8303 640.206 90.6093C640.765 91.4557 641.121 92.3645 641.533 93.2973C641.78 93.8583 641.032 94.4756 640.653 93.9392C639.667 92.5374 638.196 91.421 636.818 90.4794C635.293 89.4381 637.07 87.0824 638.442 88.4464Z" fill="#0C0C22"/>
<path d="M709.788 121.51C709.093 119.841 707.945 118.59 706.893 117C706.692 116.695 706.47 116.409 706.243 116.128C706.198 116.072 706.153 116.014 706.104 115.956C704.303 113.819 701.861 112.274 700.396 109.842C700.295 109.676 700.205 109.505 700.116 109.333C699.883 108.868 699.695 108.397 699.521 107.928C698.954 106.4 698.51 104.925 696.929 104.003C696.921 103.998 696.913 103.995 696.904 103.989C695.008 102.89 692.954 102.413 690.879 102.384C688.279 102.349 685.644 103.015 683.239 104.054C680.124 105.4 677.313 107.86 674.952 110.352C673.616 111.764 672.205 113.098 670.811 114.448C666.362 116.52 661.419 117.203 657.69 120.918C657.463 121.143 657.34 121.391 657.298 121.64C657.284 121.723 657.278 121.806 657.28 121.888C657.316 122.873 658.529 123.75 659.504 123.133C659.83 122.928 660.155 122.741 660.478 122.564C663.935 120.656 667.292 120.218 671.173 119.331C671.202 119.325 671.23 119.316 671.258 119.309C675.461 118.303 679.245 114.058 683.463 112.576C684.426 112.237 685.414 112.042 686.433 112.065C686.491 112.066 686.547 112.068 686.603 112.071C686.945 112.087 687.289 112.124 687.641 112.191C687.659 112.289 687.688 112.387 687.711 112.485C687.816 112.921 687.961 113.358 688.138 113.799C689.106 116.205 690.993 118.675 692.153 121.025C692.204 121.127 692.254 121.23 692.302 121.332C692.387 121.513 692.467 121.694 692.542 121.874C692.303 122.105 692.07 122.319 691.841 122.522C691.777 122.579 691.716 122.629 691.654 122.684C689.015 124.974 687.057 125.451 684.185 125.459C683.195 125.463 682.097 125.412 680.82 125.362C680.622 125.353 680.425 125.336 680.228 125.323C677.205 125.132 674.228 124.45 671.188 124.388C670.361 124.371 669.694 124.405 669.164 124.48C665.873 124.942 668.002 126.989 671.747 128.457C674.288 129.453 676.905 130.248 679.519 130.992C684.744 132.48 690.073 133.573 695.254 135.223C697.898 136.064 700.823 138.077 703.614 138.126C706.55 138.178 708.342 135.368 709.172 132.723C710.118 129.711 710.828 126.519 710.31 123.347C710.2 122.669 710.019 122.067 709.788 121.51ZM691.8 112.978C690.61 112.86 690.612 110.904 691.796 110.772C692.533 110.688 692.778 110.507 693.394 109.941C693.896 109.482 694.71 109.638 695.098 110.17C695.534 110.764 695.365 111.498 694.881 111.979C694.029 112.825 692.943 113.092 691.8 112.978ZM694.804 119.584C693.628 119.272 693.994 117.276 695.187 117.387C696.112 117.474 697.011 117.495 697.925 117.284C698.545 117.141 699.229 116.888 699.862 116.918C700.833 116.966 701.664 118.321 700.976 119.22C699.548 121.09 696.66 120.077 694.804 119.584ZM702.156 131.71C699.95 131.142 698.139 129.458 696.039 128.598C694.82 128.097 695.333 126.164 696.625 126.517C698.783 127.104 700.827 128.23 702.887 129.108C704.403 129.754 703.781 132.128 702.156 131.71Z" fill="#0C0C22"/>
<path d="M697.381 145.277C697.341 145.208 697.302 145.135 697.261 145.067C690.027 133.25 673.782 136.418 662.923 132.648C661.552 132.172 660.798 134.253 662.122 134.865C667.057 137.142 672.343 138.472 677.421 140.331C680.777 141.557 685.328 143.523 687.622 146.903C687.356 146.876 687.086 146.857 686.813 146.851C685.246 146.812 684.1 148.042 684.261 149.722C684.269 149.791 684.281 149.858 684.29 149.928C683.752 150.2 683.304 150.68 683.128 151.256C683.068 151.453 682.98 151.664 682.875 151.882C682.808 152.021 682.736 152.163 682.653 152.309C681.915 153.63 680.632 155.229 679.781 156.796C678.946 155.596 678.105 154.402 677.257 153.208C673.75 148.263 670.107 143.955 665.292 140.52C664.365 139.065 663.375 137.664 662.256 136.374C660.604 134.468 657.208 136.375 658.443 138.88C658.992 139.993 659.589 141.159 660.228 142.325C664.885 151.63 669.438 162.527 678.453 167.23C679.077 167.555 679.711 167.435 680.215 167.073C680.429 167.168 680.657 167.238 680.894 167.269C681.368 167.333 681.85 167.33 682.335 167.283C682.776 167.5 683.248 167.655 683.75 167.724C685.241 167.931 686.166 167.061 686.735 165.843C687.648 165.396 688.522 164.91 689.324 164.484C692.672 162.71 695.904 160.627 698.991 158.387C701.618 156.483 703.127 154.273 701.701 150.699C700.934 148.78 699.321 146.656 697.381 145.277ZM677.776 162.979C677.596 163.506 677.228 163.732 676.708 163.666C675.814 163.553 675.468 162.322 675.284 161.522C675.087 160.671 675.031 159.825 675.086 158.953C675.161 157.744 676.792 157.66 676.876 158.896C676.928 159.656 677.065 160.425 677.323 161.138C677.546 161.758 678.015 162.282 677.776 162.979ZM684.482 163.155C684.097 163.592 683.386 163.645 682.978 163.209C682.231 162.409 681.854 161.416 681.586 160.339C681.264 159.039 683.001 158.524 683.451 159.748C683.69 160.401 684.036 161.051 684.433 161.562C684.801 162.035 684.915 162.663 684.482 163.155ZM688.758 159.612C688.17 158.99 687.87 158.042 687.456 157.286C686.974 156.406 686.436 155.633 685.814 154.861C685.462 154.426 686.051 153.711 686.469 154.11C687.222 154.827 688.009 155.436 688.819 156.077C689.588 156.684 690.435 157.244 690.898 158.162C691.629 159.608 689.725 160.634 688.758 159.612ZM694.945 151.39C693.994 151.023 693.018 150.944 691.996 150.867C690.793 150.777 690.782 148.668 691.994 148.608C693.209 148.547 694.451 148.51 695.662 148.626C697.588 148.812 696.881 152.139 694.945 151.39Z" fill="#0C0C22"/>
<path d="M652.675 148.817C651.731 145.624 650.837 142.33 650.736 138.965C650.688 137.417 648.608 137.351 648.075 138.588C646.913 141.292 645.721 144.192 644.701 147.184C643.882 145.319 641.517 145.425 640.683 147.219C639.34 150.107 637.492 151.721 635.23 148.67C634.535 147.732 633.404 147.579 632.504 148.074C633.094 145.552 633.855 143.1 635.196 141.021C635.664 140.913 636.09 140.804 636.432 140.685C639.135 139.735 641.157 137.351 642.718 134.719C643.306 134.483 643.51 133.948 643.439 133.432C643.942 132.478 644.394 131.517 644.798 130.602C645.459 129.1 643.451 128 642.512 129.202C641.131 130.969 639.272 132.278 637.203 133.326C636.948 133.416 636.69 133.506 636.435 133.604C635.716 133.086 634.804 132.91 633.862 133.4C632.879 133.91 631.902 134.431 630.926 134.957C630.312 134.591 629.54 134.498 628.675 134.898C620.988 138.693 613.182 140.643 607.07 147.306C606.395 148.042 606.249 148.857 606.434 149.598C604.565 152.004 603.541 154.849 604.458 158.14C605.518 161.953 610.608 162.943 613.726 163.625C618.485 164.665 621.742 166.004 625.014 169.998C627.772 173.368 630.655 175.716 634.89 176.489C639.082 177.252 643.418 175.531 647.646 174.787C648.148 174.699 648.649 174.623 649.148 174.569C650.976 174.368 652.778 174.43 654.533 175.043C655.543 175.397 656.88 175.265 657.513 174.204C660.293 169.549 657.762 163.398 655.873 158.921C654.524 155.722 653.663 152.162 652.675 148.817ZM615.537 152.972C615.198 153.42 615.076 153.856 614.656 154.238C613.833 154.986 612.162 154.258 612.661 152.975C613.18 151.638 614.636 150.589 615.832 149.926C617.168 149.187 618.543 148.511 619.897 147.798C620.385 147.542 620.766 148.275 620.303 148.582C619.04 149.422 617.941 150.311 616.883 151.427C616.416 151.92 615.95 152.427 615.537 152.972ZM623.201 154.153C622.32 155.453 621.799 156.871 621.397 158.407C621.106 159.53 621.036 161.026 620.246 161.878C619.518 162.662 618.225 162.128 618.033 161.113C617.784 159.778 618.919 158.123 619.571 157.041C620.363 155.728 621.216 154.412 622.215 153.267C622.72 152.687 623.63 153.521 623.201 154.153ZM631.42 156.625C629.818 159.638 629.303 162.927 628.89 166.306C628.637 168.358 625.381 167.626 625.955 165.677C626.983 162.195 628.386 158.87 630.3 155.835C630.731 155.153 631.794 155.92 631.42 156.625ZM637.116 169.842C636.396 166.524 637.381 163.042 637.006 159.679C636.907 158.8 638.079 158.442 638.3 159.347C639.032 162.359 638.866 165.787 639.957 168.683C640.799 170.919 637.604 172.094 637.116 169.842ZM647.542 166.653C646.531 165.647 646.244 163.657 646.012 162.282C645.742 160.685 645.627 159.088 645.574 157.467C645.537 156.297 647.233 156.264 647.449 157.341C647.985 160.005 649.07 162.37 650.044 164.853C650.721 166.579 648.799 167.904 647.542 166.653Z" fill="#0C0C22"/>
<path d="M625.285 130.418C629.04 128.736 632.892 127.702 636.771 126.455C638.731 125.825 638.987 122.404 636.595 122.353C635.554 122.33 634.497 122.399 633.436 122.517C633.608 121.93 633.366 121.243 632.606 121.231C630.191 121.193 627.819 120.784 625.4 120.94C622.734 121.114 620.403 121.959 617.888 122.86C616.848 123.233 615.778 123.637 614.686 124.028C614.69 123.854 614.68 123.688 614.659 123.528C614.659 123.516 614.654 123.503 614.653 123.49C614.538 122.695 614.117 122.073 613.5 121.659C613.248 121.489 612.961 121.354 612.648 121.258C613.013 121.006 613.327 120.764 613.602 120.511C614.483 119.702 614.952 118.787 615.28 117.113C615.28 117.11 615.28 117.107 615.282 117.104C615.334 116.833 615.267 116.284 615.163 115.608C615.014 114.646 614.794 113.431 614.729 112.393C614.718 112.197 614.712 112.008 614.712 111.828C614.714 111.378 614.763 110.992 614.88 110.706C614.999 110.417 615.18 110.224 615.464 110.194C616.348 110.101 616.951 109.57 617.272 108.873C617.663 109.041 618.051 109.215 618.439 109.391C621.957 112.29 626.012 114.723 629.244 117.44C630.136 118.19 631.194 118.007 631.986 117.397C632.084 117.564 632.186 117.73 632.284 117.898C632.866 118.9 634.54 118.571 634.273 117.237C633.114 111.475 629.987 106.033 626.579 101.465C625.026 99.3849 623.141 97.2194 620.986 95.5621C620.094 93.5944 618.619 92.0805 616.281 91.9691C616.119 91.9619 615.959 91.9707 615.8 91.9757C614.743 92.0102 613.73 92.3078 612.765 92.7899C612.748 92.7926 612.731 92.7904 612.711 92.7931C611.98 92.8725 611.43 93.2914 611.054 93.8574C610.444 94.3093 609.86 94.8124 609.302 95.3454C608.194 96.4042 607.193 97.5665 606.321 98.605C602.786 102.823 599.82 107.562 597.286 112.517C597.173 112.735 597.059 112.958 596.939 113.186C596.137 113.853 595.349 114.559 594.58 115.321C591.129 118.738 589.889 123.771 589.748 128.636C589.658 131.655 590.369 135.078 592.335 137.337C592.132 138.941 593.079 140.799 594.772 140.714C601.914 140.358 608.408 138.187 614.953 135.243C618.417 133.683 621.818 131.97 625.285 130.418ZM617.976 96.84C619.195 98.9858 620.657 101.097 621.557 103.441C621.877 104.278 620.711 104.87 620.35 104.039C619.862 102.913 619.288 101.792 618.525 100.847C617.745 99.8827 616.986 99.2701 615.999 98.5886C614.307 97.4235 616.77 94.7168 617.976 96.84ZM609.826 100.406C609.873 100.15 609.952 99.9684 610.095 99.759C610.433 99.2596 611.095 99.1532 611.604 99.3723C613.491 100.185 615.014 102.307 616.158 104.017C616.588 104.659 615.732 105.283 615.252 104.727C613.918 103.183 612.253 102.767 610.567 101.84C610.075 101.571 609.713 101.017 609.826 100.406ZM601.037 109.608C604.109 108.933 607.804 109.988 610.611 111.305C611.256 111.607 611.059 112.807 610.302 112.639C608.79 112.301 607.335 112.237 605.798 112.194C604.265 112.15 602.58 112.365 601.093 112.001C599.874 111.703 599.711 109.9 601.037 109.608ZM596.77 120.446C600.019 119.186 603.468 118.643 606.786 117.637C607.694 117.362 608.364 118.845 607.462 119.29C604.247 120.879 600.851 121.95 597.541 123.288C595.865 123.965 595.082 121.101 596.77 120.446ZM599.721 131.291C598.761 131.947 598.1 132.912 597.129 133.523C596.178 134.122 594.584 133.255 595.019 131.946C596.663 127.003 603.973 127.895 607.285 124.95C607.805 124.487 608.42 125.371 608.019 125.876C606.653 127.595 604.973 128.742 603.035 129.62C601.917 130.126 600.746 130.589 599.721 131.291ZM611.937 130.185C611.17 130.939 610.351 131.62 609.616 132.415C608.957 133.128 608.355 133.895 607.697 134.606C606.409 135.998 604.557 133.888 605.74 132.464C607.12 130.802 609.42 130.21 611.156 129.06C611.799 128.634 612.485 129.649 611.937 130.185Z" fill="#0C0C22"/>
<path d="M658.691 100.906C659.312 99.3073 660.144 97.8003 661.333 96.5979C661.891 96.0326 662.519 95.466 663.179 95.0456C663.833 94.6283 664.302 94.4824 664.785 93.8079C666.042 92.0525 664.133 89.1935 662.269 90.7098C660.926 91.805 660.368 93.8062 659.78 95.465C659.173 97.1855 658.464 98.8612 657.928 100.616C657.785 101.084 658.517 101.36 658.691 100.906Z" fill="white"/>
<path d="M653.488 96.2905C653.994 94.2624 654.424 92.2254 655.419 90.4186C656.611 88.2514 652.698 86.8464 652.531 89.7205C652.406 91.8464 652.229 94.0114 652.124 96.1609C652.083 97.0169 653.296 97.0583 653.488 96.2905Z" fill="white"/>
<path d="M645.002 90.0432C645.513 91.2433 645.802 92.513 646.057 93.799C646.193 94.4894 647.286 94.3089 647.21 93.6067C647.075 92.3745 646.823 91.1617 646.681 89.9303C646.57 88.9426 646.452 87.6076 645.917 86.7885C645.393 85.9837 643.924 86.2451 644.047 87.3787C644.148 88.3089 644.639 89.1893 645.002 90.0432Z" fill="white"/>
<path d="M640.653 93.9389C641.032 94.4755 641.779 93.858 641.533 93.297C641.121 92.3639 640.765 91.4554 640.206 90.609C639.694 89.83 639.096 89.0957 638.442 88.4461C637.07 87.0821 635.293 89.4378 636.817 90.4788C638.196 91.421 639.667 92.5371 640.653 93.9389Z" fill="white"/>
<path d="M615.999 98.5886C616.986 99.2701 617.745 99.8827 618.525 100.847C619.288 101.792 619.862 102.913 620.351 104.039C620.711 104.87 621.877 104.278 621.557 103.441C620.657 101.097 619.195 98.9858 617.976 96.84C616.77 94.7168 614.307 97.4235 615.999 98.5886Z" fill="white"/>
<path d="M610.567 101.84C612.253 102.767 613.918 103.183 615.252 104.727C615.732 105.283 616.588 104.659 616.158 104.017C615.014 102.307 613.491 100.185 611.604 99.3723C611.095 99.1535 610.433 99.2597 610.095 99.7591C609.952 99.9682 609.873 100.15 609.826 100.406C609.713 101.017 610.075 101.571 610.567 101.84Z" fill="white"/>
<path d="M601.093 112.001C602.58 112.365 604.265 112.15 605.798 112.194C607.335 112.237 608.79 112.301 610.302 112.639C611.059 112.807 611.255 111.608 610.611 111.305C607.804 109.988 604.109 108.933 601.037 109.608C599.711 109.9 599.874 111.703 601.093 112.001Z" fill="white"/>
<path d="M597.542 123.288C600.852 121.95 604.248 120.879 607.462 119.29C608.364 118.845 607.694 117.362 606.786 117.637C603.468 118.643 600.019 119.186 596.77 120.446C595.082 121.101 595.866 123.965 597.542 123.288Z" fill="white"/>
<path d="M608.019 125.876C608.42 125.372 607.805 124.488 607.285 124.951C603.974 127.895 596.664 127.003 595.02 131.946C594.585 133.255 596.178 134.123 597.129 133.523C598.1 132.912 598.761 131.947 599.722 131.291C600.746 130.589 601.918 130.126 603.036 129.62C604.974 128.743 606.653 127.596 608.019 125.876Z" fill="white"/>
<path d="M611.156 129.06C609.42 130.21 607.121 130.802 605.74 132.463C604.557 133.887 606.409 135.997 607.697 134.606C608.355 133.895 608.956 133.127 609.616 132.415C610.351 131.62 611.17 130.939 611.937 130.185C612.485 129.649 611.799 128.634 611.156 129.06Z" fill="white"/>
<path d="M619.897 147.798C618.543 148.511 617.168 149.187 615.832 149.926C614.636 150.589 613.18 151.637 612.661 152.974C612.162 154.258 613.832 154.986 614.655 154.238C615.076 153.856 615.198 153.42 615.537 152.972C615.95 152.426 616.416 151.92 616.883 151.427C617.941 150.311 619.04 149.422 620.303 148.582C620.766 148.275 620.385 147.542 619.897 147.798Z" fill="white"/>
<path d="M622.215 153.266C621.216 154.412 620.364 155.728 619.572 157.04C618.919 158.123 617.784 159.778 618.034 161.112C618.225 162.128 619.519 162.661 620.247 161.878C621.036 161.026 621.106 159.53 621.398 158.407C621.799 156.871 622.321 155.453 623.202 154.152C623.63 153.521 622.721 152.687 622.215 153.266Z" fill="white"/>
<path d="M630.3 155.835C628.386 158.87 626.983 162.195 625.955 165.677C625.381 167.625 628.637 168.358 628.89 166.306C629.303 162.926 629.818 159.637 631.421 156.624C631.794 155.92 630.731 155.152 630.3 155.835Z" fill="white"/>
<path d="M638.3 159.347C638.079 158.442 636.907 158.8 637.006 159.679C637.381 163.042 636.396 166.524 637.117 169.841C637.605 172.094 640.8 170.919 639.958 168.683C638.867 165.787 639.033 162.359 638.3 159.347Z" fill="white"/>
<path d="M647.449 157.341C647.233 156.264 645.537 156.297 645.574 157.467C645.628 159.088 645.742 160.685 646.012 162.282C646.244 163.657 646.532 165.647 647.543 166.653C648.8 167.904 650.721 166.579 650.044 164.853C649.07 162.369 647.985 160.005 647.449 157.341Z" fill="white"/>
<path d="M676.876 158.896C676.792 157.66 675.161 157.744 675.086 158.953C675.031 159.825 675.087 160.671 675.284 161.522C675.469 162.322 675.814 163.553 676.708 163.666C677.228 163.732 677.596 163.506 677.777 162.979C678.015 162.282 677.546 161.758 677.323 161.137C677.065 160.424 676.928 159.655 676.876 158.896Z" fill="white"/>
<path d="M683.452 159.748C683.001 158.524 681.264 159.039 681.586 160.339C681.854 161.416 682.231 162.409 682.978 163.209C683.386 163.645 684.097 163.592 684.482 163.155C684.915 162.663 684.801 162.035 684.433 161.562C684.037 161.051 683.69 160.401 683.452 159.748Z" fill="white"/>
<path d="M688.819 156.077C688.009 155.436 687.222 154.827 686.469 154.11C686.051 153.711 685.462 154.426 685.814 154.861C686.436 155.632 686.975 156.406 687.456 157.286C687.87 158.042 688.169 158.99 688.758 159.612C689.726 160.634 691.629 159.608 690.898 158.162C690.435 157.244 689.588 156.685 688.819 156.077Z" fill="white"/>
<path d="M695.663 148.627C694.452 148.51 693.209 148.547 691.995 148.608C690.782 148.668 690.793 150.777 691.996 150.867C693.018 150.944 693.994 151.023 694.946 151.39C696.881 152.139 697.588 148.812 695.663 148.627Z" fill="white"/>
<path d="M702.887 129.108C700.827 128.23 698.782 127.104 696.625 126.517C695.333 126.164 694.82 128.098 696.039 128.598C698.139 129.458 699.95 131.142 702.156 131.71C703.781 132.128 704.403 129.754 702.887 129.108Z" fill="white"/>
<path d="M700.976 119.22C701.664 118.321 700.833 116.966 699.862 116.918C699.229 116.888 698.545 117.141 697.925 117.284C697.012 117.495 696.112 117.474 695.187 117.387C693.994 117.276 693.629 119.273 694.804 119.585C696.66 120.077 699.548 121.09 700.976 119.22Z" fill="white"/>
<path d="M695.098 110.17C694.71 109.637 693.896 109.481 693.394 109.941C692.778 110.506 692.533 110.688 691.796 110.771C690.612 110.904 690.611 112.859 691.8 112.978C692.943 113.092 694.029 112.825 694.881 111.978C695.365 111.498 695.534 110.763 695.098 110.17Z" fill="white"/>
<path d="M289.716 73.4113C289.406 71.8547 288.931 70.3512 288.34 68.8893C288.024 68.11 287.668 67.3471 287.282 66.5923C286.143 64.3619 284.712 62.2392 283.079 60.2039C282.623 59.6347 282.151 59.074 281.666 58.519C281.226 58.0158 280.779 57.5188 280.318 57.0282C279.826 56.5045 279.324 55.985 278.812 55.4716C277.957 54.6157 277.074 53.7744 276.174 52.9475C275.695 52.5083 275.21 52.0732 274.722 51.6411C273.831 50.8543 272.934 50.0771 272.022 49.3141C271.462 48.8419 270.9 48.3768 270.335 47.9142C269.917 47.5696 269.5 47.2315 269.08 46.8911C268.631 46.5285 268.186 46.1652 267.739 45.8064C267.283 45.4414 266.829 45.0761 266.378 44.7156C266.294 44.6465 266.21 44.5773 266.126 44.5096C265.53 44.0312 264.94 43.5519 264.357 43.0701C263.606 42.4495 262.866 41.8248 262.138 41.1976C261.693 40.8139 261.254 40.4285 260.818 40.0428C252.411 32.6025 245.753 24.6348 242.039 14.5297C240.894 11.4138 239.038 5.55561 234.013 5.26554C233.026 5.20902 232.126 5.40887 231.296 5.77282C231.334 4.85938 231.379 3.94797 231.443 3.03657C231.47 2.65084 231.193 2.36417 230.826 2.19122C230.803 1.94473 230.79 1.69722 230.765 1.45073C230.608 -0.0833692 228.698 -0.346201 227.621 0.405526C226.679 0.0320455 225.343 0.438551 225.327 1.58725C225.297 3.61399 225.084 5.63732 224.935 7.65997C224.594 7.02604 224.24 6.39585 223.864 5.7752C223.422 5.04118 221.983 4.57918 221.296 5.42487C219.361 7.80126 218.653 9.97575 217.335 12.5585C216.891 13.431 216.063 14.3887 215.139 15.2794C214.953 15.4588 214.765 15.6362 214.572 15.8084C214.171 15.6631 213.678 15.693 213.302 16.0427C213.277 16.0651 213.252 16.088 213.225 16.1108C212.701 16.5963 212.156 17.0675 211.616 17.5417C210.979 18.1045 210.337 18.6615 209.683 19.2086C209.228 19.5923 208.771 19.9746 208.309 20.3518C207.76 20.7992 207.204 21.2408 206.648 21.681C205.759 22.381 204.865 23.0738 203.96 23.7584C203.416 24.1711 202.871 24.5844 202.32 24.9926C201.719 25.4393 201.109 25.8825 200.5 26.3258C200.001 26.6887 199.505 27.0537 199.003 27.4156C198.668 27.657 198.33 27.895 197.994 28.1364C197.499 28.4887 197.007 28.8425 196.513 29.1938C195.886 29.6412 195.258 30.0879 194.628 30.5345C194.085 30.9189 193.543 31.3036 193.001 31.6894C192.831 31.8092 192.665 31.9294 192.495 32.0492C192.034 32.3761 191.576 32.7039 191.118 33.0321C189.698 34.0457 188.287 35.0633 186.887 36.0942C186.309 36.5211 185.735 36.9549 185.161 37.3869C183.793 38.4151 182.441 39.4552 181.118 40.5194C180.672 40.8783 180.236 41.2463 179.796 41.6103C178.262 42.8774 176.765 44.1753 175.322 45.518C174.866 45.9426 174.419 46.3739 173.975 46.8056C172.242 48.4892 170.594 50.248 169.05 52.0936C168.932 52.2339 168.807 52.37 168.689 52.512C168.608 52.6121 168.519 52.7057 168.438 52.8048C168.154 53.1565 167.877 53.5119 167.603 53.8701C167.246 54.3328 166.899 54.8009 166.564 55.2731C165.91 56.1927 165.293 57.1289 164.722 58.0815C164.449 58.5333 164.189 58.9868 163.937 59.4447C163.381 60.4572 162.88 61.4881 162.428 62.5316C162.108 63.2718 161.818 64.0205 161.555 64.7753C160.348 68.254 159.781 71.8687 160.078 75.5412C160.831 84.8063 168.317 92.6872 176.25 98.8096C183.927 104.733 192.479 110.601 202.905 112.751C206.231 113.437 209.706 113.828 213.24 114.058C213.139 114.465 213.054 114.882 212.975 115.372C212.952 115.508 212.955 115.647 212.966 115.783C212.413 116.706 211.959 117.739 211.991 118.688C212.014 119.428 212.976 119.582 213.484 119.197C213.563 120.298 213.856 121.373 214.352 122.255C214.854 123.154 215.348 124.032 215.834 124.906C215.598 125.149 215.369 125.393 215.124 125.637C211.991 128.769 209.513 131.819 208.595 135.848C208.497 136.273 209.348 136.428 209.5 136.015C210.841 132.308 213.683 129.313 216.639 126.385C217.465 127.931 218.234 129.497 218.894 131.18C219.15 131.835 217.218 133.507 216.718 134.5C215.893 136.142 216.392 138.292 217.469 139.735C217.817 140.201 218.608 139.983 218.56 139.444C218.356 137.217 218.002 134.947 219.507 133.054C219.554 135.05 219.985 137.005 220.856 138.641C221.004 138.92 221.437 138.773 221.541 138.564C223.597 134.46 221.993 129.959 224 125.849C224.987 127.096 225.936 128.346 226.713 129.651C225.922 132.925 225.729 136.223 226.117 139.556C226.135 139.712 226.446 139.691 226.451 139.537C226.525 136.968 227.129 134.459 227.848 131.965C228.524 133.747 228.773 135.675 228.284 137.869C228.157 138.452 229.193 138.634 229.382 138.064C230.436 134.856 230.146 132.089 228.64 129.299C228.983 128.171 229.318 127.042 229.611 125.909C229.699 125.564 229.79 125.211 229.881 124.853C232.333 127.14 234.266 129.643 234.64 132.837C234.704 133.366 235.781 133.34 235.788 132.806C235.843 128.499 233.284 125.556 230.362 122.766C230.502 122.069 230.616 121.364 230.684 120.659C231.936 123.445 233.442 126.401 235.545 128.821C235.779 129.088 236.208 128.855 236.26 128.61C236.766 126.176 235.793 123.727 234.731 121.459C234.311 120.56 233.626 119.563 232.977 118.533C233.014 118.547 233.045 118.561 233.082 118.574C238.962 120.9 241.589 124.143 239.089 129.481C238.801 130.093 239.962 130.379 240.264 129.787C242.14 126.084 241.58 122.933 239.674 120.199C240.915 120.92 241.927 121.823 242.6 122.99C244.474 126.23 243.578 130.161 242.616 133.485C241.656 136.809 240.987 140.271 239.688 143.496C239.415 144.166 240.663 144.564 240.942 143.893C243.692 137.281 248.152 130.298 245.205 123.052C243.9 119.837 241.716 116.111 237.684 114.661C237.51 114.598 237.335 114.545 237.158 114.489C252.87 114.554 269.691 112.873 280.485 102.584C288.524 94.9209 291.681 83.2082 289.716 73.4113ZM210.28 21.6881C210.379 22.0596 210.468 22.4347 210.577 22.8038C211.08 24.5316 211.711 27.292 213.882 28.1445C213.072 29.0583 212.224 29.9581 211.353 30.8563C211.412 29.4767 210.527 27.7343 210.209 26.6693C209.821 25.3732 209.447 24.07 209.061 22.7711C209.468 22.4099 209.876 22.0511 210.28 21.6881ZM207.199 24.4247C207.408 25.5155 207.612 26.6074 207.828 27.6948C208.079 28.9736 208.15 31.6911 209.983 32.2532C209.425 32.8193 208.862 33.3862 208.302 33.9585C207.687 32.3553 206.421 30.6479 205.881 29.2892C205.505 28.3447 205.165 27.3877 204.836 26.43C205.627 25.763 206.419 25.0992 207.199 24.4247ZM199.917 30.5199C199.976 30.7157 200.03 30.9118 200.089 31.1079C200.706 33.0771 201.294 35.4228 202.762 37.1064C203.456 37.8993 205.268 37.2929 204.735 36.3312C203.444 33.9977 202.43 31.6152 201.527 29.1962C202.038 28.7747 202.55 28.3549 203.061 27.9311C203.304 28.8428 203.562 29.7532 203.841 30.6585C204.283 32.0925 204.855 34.7187 206.386 35.9601C205.236 37.2218 204.177 38.525 203.167 39.8511C202.761 37.981 201.141 35.83 200.479 34.2319C200.046 33.1904 199.629 32.1452 199.211 31.1007C199.448 30.9077 199.681 30.714 199.917 30.5199ZM218.054 119.386C217.941 118.874 217.873 118.34 217.898 117.812C218.211 117.755 218.513 117.71 218.803 117.68C219.084 118.513 219.449 119.311 219.873 120.08C219.751 120.264 219.624 120.447 219.49 120.626C219.098 121.15 218.698 121.654 218.292 122.151C218.272 121.227 218.254 120.301 218.054 119.386ZM221.33 125.458C220.769 126.432 220.334 127.526 220.028 128.677C219.642 127.669 219.152 126.673 218.791 125.733C218.646 125.35 218.553 124.962 218.483 124.572C219.295 123.792 220.238 122.95 221.103 122.052C221.532 122.669 221.981 123.275 222.444 123.873C222.037 124.367 221.656 124.889 221.33 125.458ZM223.585 122.61C223.292 122.194 223.017 121.769 222.779 121.321C222.702 121.175 222.591 120.841 222.489 120.428C222.766 120.05 223.006 119.662 223.206 119.268C223.868 119.843 224.556 120.409 225.247 120.968C224.696 121.509 224.131 122.05 223.585 122.61ZM227.346 127.256C226.595 126.244 225.744 125.304 224.932 124.342C224.964 124.302 224.987 124.26 225.018 124.221C225.597 123.478 226.171 122.804 226.718 122.155C227.239 122.575 227.754 122.998 228.263 123.425C228.019 124.711 227.693 125.988 227.346 127.256ZM225.728 118.267C226.454 117.973 227.076 117.521 227.412 116.973C227.684 117.018 227.958 117.063 228.233 117.107C227.854 117.933 227.346 118.668 226.765 119.356C226.409 119 226.064 118.637 225.728 118.267ZM228.609 120.814C228.602 120.909 228.591 121.005 228.582 121.101C228.387 120.919 228.19 120.736 227.997 120.553C228.23 120.241 228.448 119.921 228.655 119.6C228.646 120 228.637 120.404 228.609 120.814ZM245.599 111.415C257.733 106.567 266.163 97.315 266.893 85.8686C266.918 85.4706 266.081 85.427 266.045 85.8229C265.035 96.1622 255.587 104.606 244.566 109.336C251.662 103.421 255.979 94.0838 257.801 87.0513C262.288 69.7309 252.964 55.4757 244.884 40.0309C244.827 39.9216 244.625 39.9853 244.673 40.0966C250.741 53.9784 259.397 67.5449 256.959 82.7095C255.97 88.8595 253.683 95.02 250.036 100.46C246.494 105.742 241.903 109.364 235.415 111.571C233.891 111.546 232.389 111.507 230.912 111.459C233.394 108.648 234.936 105.111 236.599 101.99C238.85 97.7723 239.891 93.2037 240.243 88.6344C240.338 87.3713 237.954 87.0724 237.836 88.3563C237.423 92.8411 236.132 96.961 234.272 101.184C232.78 104.575 230.182 107.802 229.313 111.343C229.127 111.336 228.943 111.349 228.769 111.384C227.693 111.343 226.636 111.301 225.601 111.258C220.627 111.05 215.52 110.853 210.554 110.208C208.386 107.307 202.61 105.2 199.523 103.068C194.303 99.4647 190.174 95.194 188.214 89.7995C187.912 88.9687 186.438 89.3378 186.481 90.1304C186.753 94.9938 190.995 98.8685 195.029 102.15C197.672 104.3 200.6 106.179 203.509 108.079C204.103 108.468 204.725 108.909 205.371 109.34C201.311 108.481 197.42 107.19 193.868 105.182C189.308 102.604 185.159 98.9611 181.182 95.8065C176.531 92.1173 172.192 87.9045 169.302 83.1401C167.104 79.5119 166.248 75.8578 166.364 72.2575C167.931 74.4534 169.647 76.695 171.6 78.3591C171.969 78.6747 172.725 78.5436 172.641 78.0261C172.257 75.6351 170.127 73.4865 168.483 71.5503C167.866 70.8265 167.253 70.1037 166.659 69.3748C166.863 68.1921 167.172 67.0175 167.561 65.8545C168.732 67.5724 170.086 69.2951 171.717 70.5456C172.046 70.7972 172.695 70.5695 172.536 70.1725C171.733 68.1434 169.889 66.3781 168.48 64.5965C168.376 64.4634 168.276 64.3286 168.174 64.1944C168.651 63.0212 169.206 61.8592 169.832 60.7133C171.223 62.9579 172.573 65.2543 174.136 67.378C174.476 67.8397 175.279 67.5139 175.159 67.0202C174.442 64.1383 172.652 61.5651 170.844 58.9824C171.087 58.5875 171.336 58.1956 171.593 57.8047C172.771 59.6102 174.143 61.2937 175.767 62.5888C175.917 62.7094 176.164 62.5364 176.083 62.3921C175.157 60.7442 173.689 59.3062 172.521 57.7656C172.358 57.5525 172.213 57.3288 172.059 57.1109C173.297 55.2986 174.681 53.5375 176.153 51.8423C177.29 54.5599 178.54 57.2873 180.518 59.5397C180.867 59.9377 181.623 59.7542 181.525 59.2347C180.949 56.1209 179.336 53.0465 177.739 50.0801C178.943 48.7769 180.189 47.5182 181.448 46.3096C182.013 48.5202 182.21 50.904 183.573 52.8549C183.955 53.4013 184.817 53.0939 184.896 52.5621C185.263 50.0876 184.016 47.4729 183.176 45.1119C183.14 45.0128 183.095 44.9151 183.058 44.815C183.73 44.1923 184.408 43.5744 185.091 42.9612C186.706 46.9153 188.328 50.871 190.386 54.6882C190.479 54.8635 190.817 54.7951 190.744 54.6014C189.199 50.4774 187.482 46.3964 185.808 42.3075C185.999 42.1404 186.187 41.9742 186.377 41.8074C187.455 45.5596 188.75 49.2235 191.075 52.4242C191.608 53.1582 192.94 52.623 192.7 51.8325C191.52 47.9475 190.125 43.9223 188.528 39.9567C189.099 39.4671 189.664 38.971 190.24 38.4856C190.556 39.5587 190.869 40.6315 191.182 41.7036C191.753 43.6561 192.032 45.7948 193.214 47.5659C193.475 47.9567 194.344 47.9155 194.348 47.399C194.369 45.3822 193.412 43.413 192.79 41.4686C192.359 40.1252 191.932 38.7814 191.501 37.4393C191.751 37.231 192.001 37.0247 192.252 36.8187C192.622 38.0436 192.999 39.2683 193.42 40.483C193.783 41.5306 194.392 44.24 196.388 43.9751C196.635 43.9421 196.721 43.6527 196.546 43.5185C196.376 43.3874 196.215 42.2193 196.113 41.9841C195.598 40.7881 195.108 39.59 194.664 38.3753C194.328 37.4577 194.013 36.5371 193.702 35.6155C193.842 35.5011 193.979 35.3833 194.119 35.2679C194.5 36.3958 194.902 37.5146 195.312 38.6207C195.596 39.3796 197.077 44.7162 199.144 43.4664C199.269 43.3922 199.325 43.2417 199.296 43.1202C198.509 39.9703 197.168 36.9028 195.902 33.8077C196.494 33.3239 197.087 32.8405 197.678 32.3567C198.075 33.4652 198.475 34.5727 198.888 35.6778C199.545 37.4356 200.058 40.2246 202.073 41.3236C198.479 46.2551 195.369 51.4083 190.759 55.8757C190.344 56.2802 190.957 56.9665 191.519 56.621C200.249 51.2506 204.711 41.8547 211.28 34.92C217.403 28.4544 222.437 22.5049 222.076 13.9928C222.035 13.0463 220.28 13.1144 220.284 14.0568C220.307 18.8613 218.263 22.7568 215.384 26.3633C214.717 24.5544 213.315 22.7463 212.669 20.9361C212.535 20.5646 212.419 20.1894 212.297 19.8163C212.515 19.612 212.73 19.4037 212.945 19.1977C213.188 19.3267 213.476 19.3812 213.778 19.3192C213.991 20.6079 214.254 21.8866 214.982 23.0537C215.223 23.4405 215.851 23.3063 215.942 22.9134C216.321 21.2724 215.906 19.6103 215.606 17.9707C216.416 17.2098 217.23 16.4529 218.487 16.1353C218.948 16.0199 219.298 15.6321 219.372 15.2549C219.796 13.0875 220.808 10.8388 222.162 8.86518C223.047 10.7357 223.832 12.6378 224.68 14.5205C225.077 15.4009 226.257 15.5967 227.112 15.2133C227.176 16.5517 227.344 17.8784 227.831 19.1354C228.015 19.6076 228.399 19.88 228.836 20.0035C229.093 20.7706 229.365 21.5026 229.628 22.1729C230.801 25.1424 229.853 29.25 229.646 32.3185C229.458 35.1157 229.349 37.855 229.946 40.6192C229.98 40.7802 230.266 40.7315 230.277 40.5834C230.61 35.1242 232.468 29.872 232.795 24.4363C232.883 22.9587 232.808 21.5111 232.611 20.0689C232.777 20.4441 232.942 20.808 233.108 21.1505C235.61 26.3326 238.74 31.5127 239.755 37.0655C239.855 37.6079 240.909 37.4553 240.894 36.9314C240.751 32.3556 238.925 28.279 237.023 24.0196C236.016 21.7566 235.281 19.4575 234.673 17.1025C233.981 14.4299 234.848 11.7492 234.124 9.14912C234.018 8.76339 233.446 8.55333 233.006 8.6718C233.006 8.61086 233.006 8.55128 233.004 8.49034C235.263 7.16971 237.114 11.9579 237.589 12.9932C239.866 17.9666 241.418 22.9138 244.473 27.6543C248.153 33.3579 253.114 38.3627 258.427 43.097C258.336 43.2952 258.264 43.4974 258.232 43.7119C258.173 44.1075 258.754 44.2396 259.101 44.1177C259.21 44.081 259.314 44.0258 259.418 43.9734C260.389 44.8272 261.369 45.6716 262.354 46.5098C261.165 48.3057 259.686 49.9957 259.413 52.0466C259.361 52.4371 260.046 52.7592 260.43 52.5124C262.165 51.3997 263.245 49.7451 264.189 48.0667C264.32 48.1777 264.452 48.288 264.581 48.3976C264.933 48.6935 265.284 48.9924 265.638 49.2893C264.289 51.3218 262.412 53.3911 262.004 55.6384C261.918 56.1253 262.633 56.3268 263.05 56.0817C265.121 54.8588 266.16 52.5287 267.172 50.5925C267.53 50.8976 267.889 51.205 268.245 51.5145C266.203 55.2404 264.559 59.0593 264.009 62.9507C263.937 63.4744 264.835 63.5568 265.064 63.1196C266.795 59.7998 268.447 56.4695 270.103 53.1412C270.949 53.8919 271.786 54.6487 272.603 55.4185C270.602 58.8602 268.125 62.2977 267.11 66.0247C266.977 66.5153 267.879 66.8497 268.231 66.4292C270.633 63.5731 272.133 60.2203 273.902 57.0816C273.952 56.9931 274 56.9042 274.05 56.8167C275.027 57.7809 275.969 58.7645 276.869 59.7709C276.386 60.6772 275.871 61.5733 275.338 62.4608C273.732 65.1198 271.094 67.7311 270.284 70.6338C270.134 71.1741 270.878 71.5534 271.398 71.1833C274.428 69.0211 276.159 65.259 277.845 62.3349C278.01 62.0451 278.169 61.7557 278.328 61.4657C278.7 61.9205 279.061 62.3832 279.412 62.8493C278.48 64.4474 277.475 66.0237 276.447 67.6065C274.619 70.4255 271.944 73.2856 271.549 76.5138C271.493 76.985 272.282 77.2077 272.659 76.9016C275.701 74.4279 277.375 70.5119 279.328 67.4128C279.861 66.5695 280.365 65.7159 280.841 64.8519C281.1 65.2376 281.338 65.6315 281.579 66.0251C280.576 68.2925 279.303 70.4748 277.99 72.6486C276.386 75.3005 274.049 78.146 274.011 81.1597C274.002 81.7916 274.912 82.0228 275.379 81.541C277.865 78.9832 279.167 75.3747 280.873 72.4175C281.637 71.0945 282.318 69.7687 282.903 68.4202C283.339 69.303 283.717 70.2089 284.058 71.1329C280.367 76.1387 276.331 81.6557 276.69 86.91C276.721 87.37 277.488 87.6771 277.824 87.2048C280.254 83.8003 281.665 79.8391 283.792 76.283C284.187 75.6222 284.593 74.9665 284.997 74.3107C285.219 75.3168 285.373 76.345 285.45 77.3915C284.811 79.8411 283.715 82.1249 282.325 84.4128C280.923 86.7163 278.67 89.0011 278.472 91.6175C278.429 92.197 279.289 92.3621 279.747 92.0516C282.215 90.3803 283.577 87.3778 284.883 84.9568C283.694 90.5389 280.895 96.0159 277.023 100.233C269.692 108.213 257.726 110.782 245.599 111.415Z" fill="#0C0C22"/>
<path d="M184.843 72.3399C184.682 75.564 184.081 79.146 185.224 82.2914C185.292 82.478 185.621 82.4967 185.693 82.3006C186.837 79.1582 186.24 75.5865 186.077 72.3617C186.045 71.7172 184.877 71.6855 184.843 72.3399Z" fill="#0C0C22"/>
<path d="M235.789 32.8731C239.199 48.7326 243.269 64.4753 243.714 80.6534C243.725 81.0981 244.562 81.1702 244.569 80.7134C244.816 64.588 242.663 48.2355 237.187 32.6712C236.94 31.9665 235.626 32.1224 235.789 32.8731Z" fill="#0C0C22"/>
<path d="M87.84 310.626C87.4209 303.978 86.1829 297.221 82.5573 291.244C79.499 286.2 74.4098 281.861 67.8993 280.158C64.7136 279.325 61.5056 279.633 58.5361 280.612C58.0045 280.259 57.4594 279.933 56.9009 279.634C56.2627 279.292 55.6052 278.989 54.9149 278.732C54.7341 278.665 54.552 278.599 54.3669 278.538C54.0529 278.436 53.7313 278.345 53.4042 278.262C52.6725 278.079 51.9037 277.947 51.0892 277.88C50.7664 277.853 50.439 277.833 50.1013 277.827C50.0805 277.826 50.06 277.828 50.0377 277.827C49.7519 277.822 49.4675 277.824 49.1816 277.834C48.7789 277.849 48.3745 277.881 47.9732 277.922C46.6121 278.061 45.2628 278.332 43.949 278.652C43.1049 274.321 40.0065 270.032 36.7511 266.988C34.1784 264.583 30.7794 262.278 27.068 261.269C23.158 260.206 20.4166 262.458 18.8599 265.197C18.2244 266.315 19.5382 267.373 20.7306 267.528C21.0074 267.607 21.2698 267.714 21.5184 267.845C22.8276 268.443 24.8137 268.148 25.2314 266.751C25.3543 266.383 25.4551 266.01 25.5307 265.633C25.3883 264.789 25.55 264.926 26.018 266.042C27.1881 266.556 28.1672 267.393 29.0986 268.164C31.1751 269.883 32.8797 271.714 34.1874 273.913C35.627 276.334 36.1217 278.641 35.8255 280.875C35.5441 280.979 35.2702 281.091 35.0005 281.207C34.4674 281.207 33.9238 281.27 33.3981 281.294C31.3854 281.388 29.5089 281.148 27.5228 280.931C24.6171 280.613 21.6742 281.122 18.9445 281.941C16.0699 282.803 13.1698 284.686 11.4253 287.035C6.46529 288.271 3.1314 292.591 1.56006 297.508C-1.16667 306.042 0.126394 315.586 2.05327 324.128C5.40331 338.97 12.914 352.833 17.0534 367.498C17.3272 368.467 17.585 369.441 17.831 370.417C18.1657 371.747 18.4709 373.085 18.7626 374.426C18.933 375.204 19.1003 375.983 19.2573 376.764C19.5786 378.359 19.872 379.959 20.152 381.561C20.4007 382.978 20.6408 384.396 20.8687 385.814C21.1101 387.319 21.3441 388.822 21.5752 390.322C21.6062 390.528 21.6373 390.733 21.67 390.937C21.7145 391.231 21.7605 391.524 21.8048 391.817C22.0537 393.434 22.3127 395.049 22.5763 396.665C22.8384 398.285 23.1052 399.904 23.3761 401.523C23.3688 401.742 23.3553 401.962 23.3627 402.181C23.37 402.354 23.4456 402.498 23.5566 402.607C23.6187 402.975 23.6796 403.344 23.7402 403.711C24.1075 405.89 24.4748 408.069 24.8391 410.248C24.857 410.356 24.8748 410.465 24.8939 410.573C25.1308 411.993 25.3678 413.412 25.6003 414.832C25.6434 415.099 25.6864 415.372 25.7307 415.644C25.75 415.774 25.772 415.904 25.7928 416.034C26.0297 417.469 26.3215 418.903 26.9629 420.006C26.9822 420.038 27.0015 420.071 27.0206 420.103C27.5536 420.976 28.3239 421.626 29.482 421.882C29.7116 421.933 29.9559 421.967 30.218 421.986C30.8802 422.031 31.6458 421.971 32.5403 421.777C32.9535 421.689 33.3622 421.575 33.7666 421.451C35.7453 420.84 37.6204 419.826 39.3932 418.632C39.6744 418.441 39.9544 418.247 40.2314 418.047C40.7616 417.667 41.2814 417.275 41.7925 416.873C42.0962 416.634 42.3967 416.393 42.6943 416.151C43.066 415.847 43.4303 415.542 43.7918 415.238C44.2463 414.851 44.6936 414.468 45.132 414.09C45.7749 413.534 46.3984 412.994 47.0027 412.481C47.1198 412.383 47.2381 412.281 47.3538 412.183C47.6411 411.943 47.927 411.705 48.2143 411.466C48.663 411.09 49.1132 410.713 49.5621 410.339C49.9754 409.995 50.3857 409.651 50.7958 409.307C51.1985 408.968 51.6 408.628 51.9998 408.288C52.4101 407.94 52.8219 407.592 53.2276 407.242C53.8673 406.69 54.4999 406.135 55.1249 405.573C55.5071 405.231 55.8788 404.883 56.2534 404.535C56.6368 404.18 57.019 403.823 57.3951 403.462C57.8365 403.038 58.2749 402.611 58.7043 402.177C58.9576 401.922 59.2004 401.659 59.4491 401.4C59.8536 400.978 60.2578 400.557 60.6488 400.123C61.1909 399.521 61.721 398.908 62.235 398.279C62.2986 398.201 62.3566 398.119 62.4201 398.041C62.7889 397.587 63.1415 397.124 63.4939 396.662C64.1323 395.825 64.7498 394.979 65.3423 394.119C65.6799 393.627 66.0074 393.13 66.3316 392.631C67.0442 391.536 67.7298 390.43 68.3798 389.308C68.6803 388.789 68.9693 388.267 69.2581 387.743C70.8295 384.894 72.2426 381.982 73.5486 379.043C76.6722 372.02 78.851 364.79 80.7052 357.469C82.6839 349.649 84.7707 341.857 86.2325 333.954C87.6608 326.24 88.3315 318.428 87.84 310.626ZM56.7495 281.171C56.7955 281.191 56.8412 281.212 56.8872 281.232C56.8354 281.254 56.785 281.275 56.7346 281.297C56.7407 281.256 56.7437 281.213 56.7495 281.171ZM54.1458 280.27C54.3192 280.315 54.4923 280.362 54.6642 280.413C54.5813 281.039 54.5043 281.664 54.4185 282.288C54.4111 282.342 54.4229 282.395 54.4317 282.447C54.3162 282.514 54.1991 282.581 54.0837 282.649C54.1104 282.293 54.0676 281.923 54.0705 281.561C54.0761 281.127 54.1059 280.698 54.1458 280.27ZM50.8268 282.126C50.898 281.35 50.9677 280.575 51.0178 279.801C51.668 279.822 52.3079 279.895 52.9388 280.006C52.8796 280.4 52.8276 280.795 52.7936 281.194C52.7344 281.914 52.5759 282.71 52.9359 283.368C52.2485 283.824 51.5942 284.306 50.9735 284.805C50.8833 284.737 50.7884 284.673 50.6862 284.618C50.7425 283.787 50.7513 282.948 50.8268 282.126ZM49.7294 279.829C49.6064 280.477 49.4717 281.13 49.3501 281.783C49.3589 281.14 49.3352 280.494 49.3012 279.859C49.445 279.846 49.5873 279.839 49.7294 279.829ZM44.1696 281C45.3795 280.65 46.6029 280.337 47.8529 280.093C47.8204 280.595 47.7893 281.097 47.7404 281.599C47.6531 282.483 47.4308 283.37 47.2768 284.257C46.9183 284.252 46.5703 284.236 46.2356 284.204C46.2326 284.125 46.2297 284.048 46.2282 283.973C46.2236 283.088 46.2192 282.204 46.2148 281.32C46.2119 280.839 45.3247 280.783 45.3218 281.27C45.3174 282.052 45.313 282.835 45.3086 283.617C45.3086 283.75 45.2983 283.892 45.2863 284.038C44.7782 283.905 44.2703 283.8 43.7651 283.712C44.0331 282.824 44.1605 281.916 44.1696 281ZM28.7694 265.076C31.1599 265.805 33.6096 268.194 35.0254 269.578C37.5076 272.006 40.2759 275.827 40.7215 279.464C40.831 280.361 40.7985 281.246 40.5867 282.096C40.4667 282.574 40.2906 283.04 40.0505 283.491C39.3174 283.536 38.5858 283.633 37.8527 283.787C37.9815 283.47 38.0911 283.148 38.183 282.82C38.4378 281.917 38.5562 280.973 38.5579 280.018C38.5608 277.334 37.6485 274.552 36.2503 272.263C34.5085 269.415 31.7788 267.008 28.7694 265.076ZM35.3306 287.189C35.692 287.165 36.0578 287.168 36.428 287.191C36.4474 287.213 36.4562 287.238 36.4784 287.259C37.0176 287.763 37.635 288.068 38.3268 288.266C38.632 287.961 39.0851 287.913 39.4849 288.047C39.8211 287.528 40.831 287.495 41.3822 287.908C41.3851 287.907 41.388 287.907 41.3895 287.905C41.4132 287.329 42.096 286.759 42.8484 286.944C43.0601 286.997 43.2675 287.053 43.4763 287.107C43.4614 286.397 44.3679 285.712 45.4061 286.091C46.6134 286.531 47.8839 286.771 49.1222 287.13C50.7483 287.601 50.1382 289.644 48.4395 289.312C48.3862 289.302 48.3329 289.287 48.2796 289.276C48.2617 289.289 48.2439 289.3 48.2263 289.312C48.0678 289.853 47.4176 290.231 46.6386 290.132C46.3053 290.089 45.981 290.029 45.658 289.964C45.6773 290.705 44.5028 291.144 43.7399 290.829C43.5592 290.754 43.3861 290.677 43.2142 290.599C42.8173 291.129 41.8886 291.375 41.311 290.859C41.2814 290.96 41.2518 291.06 41.2223 291.163C41.0076 291.893 40.0982 291.999 39.5103 291.651C39.5074 291.69 39.503 291.73 39.5013 291.77C39.4732 293.033 37.1137 293.028 37.1731 291.767C37.1954 291.32 37.2472 290.908 37.3418 290.515C37.3477 290.487 37.3536 290.458 37.3612 290.43C37.3656 290.408 37.3714 290.387 37.3773 290.366C37.4869 289.906 37.6438 289.461 37.8602 289.018C37.7715 288.897 37.6693 288.783 37.5448 288.687C37.5419 288.611 37.527 288.536 37.5035 288.462C37.5035 288.463 37.5035 288.463 37.5049 288.464C37.5035 288.463 37.5035 288.462 37.502 288.46C37.4768 288.382 37.4399 288.306 37.3895 288.232C36.9807 287.481 36.0224 287.313 35.1027 287.37C35.1795 287.31 35.2565 287.251 35.3306 287.189ZM34.9883 289.55C34.1055 289.973 33.0983 290.346 32.34 290.921C31.561 291.513 30.6811 291.31 30.2324 290.803C29.997 290.947 29.7585 291.088 29.514 291.225C27.7974 292.192 26.2408 289.932 27.8789 288.933C27.9825 288.87 28.0833 288.809 28.187 288.746C28.2168 288.361 28.433 288.001 28.8729 287.837C29.3881 287.646 29.84 287.521 30.3496 287.537C31.2974 287.085 32.3031 286.739 33.4746 286.612C34.6344 286.486 35.135 287.45 34.9083 288.233C35.4756 288.486 35.6888 289.214 34.9883 289.55ZM15.0103 286.369C16.8025 284.676 19.3676 283.689 21.9297 283.136C25.157 282.439 28.0953 283.041 31.3049 283.337C32.2853 283.428 33.8952 283.657 35.0817 283.562C34.9156 283.952 34.7203 284.34 34.5085 284.727C32.9357 285.159 31.4414 285.492 30.0209 286.208C28.2036 285.414 26.0799 285.106 24.1796 285.915C22.4706 286.644 21.7197 287.817 21.5287 289.161C21.5258 288.919 21.5228 288.677 21.5214 288.436C21.5167 287.932 20.8577 287.741 20.4758 287.931C20.7587 287.084 19.2984 286.628 18.8866 287.404C17.4069 286.95 16.0119 286.722 14.7042 286.688C14.8059 286.582 14.8993 286.474 15.0103 286.369ZM27.5446 409.873C28.1236 408.498 28.7797 407.141 29.381 405.782C29.7529 404.942 30.1112 404.097 30.443 403.247C29.8534 405.914 28.8465 408.475 27.7727 411.047C27.6972 410.656 27.6216 410.264 27.5446 409.873ZM28.5738 416.212C28.5577 416.065 28.5427 415.918 28.5278 415.771C28.9736 414.608 29.4343 413.448 29.8859 412.287C30.3657 411.049 30.7997 409.797 31.1805 408.534C30.7036 411.181 29.6522 413.699 28.5738 416.212ZM80.1621 348.644C77.1659 361.238 73.8601 373.997 67.5227 385.726C67.1332 385.341 66.7304 384.967 66.3023 384.617C65.6966 384.121 64.8522 384.878 65.4004 385.397C65.9352 385.902 66.4001 386.436 66.8283 386.988C66.1944 388.113 65.5396 389.228 64.8466 390.331C64.1076 389.194 63.3462 388.07 62.5021 386.982C61.9274 386.243 60.6018 387.023 61.1691 387.762C62.1629 389.06 63.0471 390.406 63.9061 391.768C63.687 392.098 63.4794 392.433 63.2559 392.761C62.862 393.337 62.4488 393.894 62.0355 394.451C61.0774 392.946 60.1663 391.42 59.3 389.877C58.9104 389.183 57.5614 389.557 57.9433 390.271C58.906 392.076 59.9308 393.852 61.0031 395.611C61.0239 395.644 61.0432 395.679 61.064 395.713C60.4419 396.498 59.8005 397.266 59.1415 398.018C57.8277 395.845 56.9317 393.417 55.9898 391.237C55.7127 390.595 54.596 390.975 54.8256 391.615C55.6269 393.844 56.4104 396.926 57.9032 399.397C57.6692 399.65 57.4279 399.898 57.188 400.147C57.0931 400.007 56.9953 399.869 56.9021 399.726C55.3973 397.416 54.1859 394.969 52.8515 392.588C52.4752 391.918 51.1736 392.274 51.5377 392.967C52.8855 395.53 54.1622 398.666 55.9321 401.433C55.5589 401.804 55.1811 402.173 54.7992 402.539C54.6835 402.368 54.5681 402.197 54.4556 402.028C52.7657 399.502 51.4149 396.823 49.9813 394.191C49.614 393.517 48.4292 394.071 48.7831 394.741C50.3011 397.611 51.7688 400.495 53.5638 403.253C53.6186 403.337 53.678 403.429 53.7416 403.53C53.0706 404.151 52.3864 404.768 51.6903 405.378C51.5362 405.17 51.3851 404.959 51.2401 404.744C49.882 402.727 48.8955 400.527 47.9876 398.345C47.7106 397.682 46.5006 398.03 46.7613 398.696C47.6839 401.058 48.8021 403.962 50.4965 406.419C50.1397 406.723 49.7751 407.027 49.4137 407.329C49.1648 406.971 48.9264 406.612 48.7175 406.251C47.635 404.378 46.6975 402.449 45.5986 400.582C45.1795 399.868 43.9236 400.481 44.3292 401.189C45.4091 403.065 46.3569 404.992 47.3922 406.885C47.6455 407.349 47.9091 407.848 48.1933 408.35C48.1727 408.367 48.1532 408.383 48.1326 408.4C47.7519 408.712 47.3714 409.037 46.9877 409.366C45.9214 407.479 44.9484 405.555 43.9502 403.641C43.5947 402.959 42.4337 403.539 42.7638 404.209C43.7783 406.261 44.7794 408.317 45.868 410.34C45.2342 410.9 44.5914 411.47 43.9397 412.042C42.8674 410.197 41.8128 408.344 40.8428 406.45C40.4769 405.737 39.0875 406.068 39.446 406.806C40.465 408.914 41.4915 411.071 42.6273 413.179C42.2542 413.497 41.8749 413.812 41.4942 414.124C40.9834 413.092 40.5581 412.024 40.1715 410.958C40.0101 410.517 39.1599 410.622 39.3125 411.081C39.7211 412.318 40.1938 413.533 40.7418 414.73C40.2116 415.148 39.6739 415.556 39.1245 415.947C38.8254 415.263 38.5633 414.566 38.3366 413.861C38.1204 413.191 36.8733 413.587 37.1311 414.259C37.4362 415.055 37.7945 415.828 38.196 416.587C37.0083 417.378 35.773 418.081 34.4772 418.653C34.72 417.221 34.7868 415.769 34.6608 414.285C34.5823 413.367 32.9012 413.415 32.7724 414.296C32.5029 416.12 31.9444 417.91 31.2409 419.658C30.7951 419.688 30.4293 419.633 30.1241 419.51C30.3078 418.875 30.5017 418.246 30.7283 417.63C31.8881 414.483 32.8063 411.344 32.9323 408.034C32.9604 407.286 31.8823 407.093 31.4541 407.571C32.0466 405.41 32.4525 403.218 32.5577 400.999C32.5828 400.438 31.9696 400.125 31.472 400.187C31.9608 398.413 32.2481 396.607 32.1874 394.749C32.1564 393.786 30.4205 393.911 30.4263 394.859C30.4559 398.87 28.6535 402.506 26.8289 406.13C26.7059 405.436 26.589 404.741 26.4882 404.045C26.466 403.886 26.4437 403.728 26.4215 403.57C26.5518 402.939 26.6912 402.313 26.8614 401.7C27.8745 398.069 29.0193 394.507 30.8098 391.085C31.2245 390.292 29.85 389.612 29.3952 390.415C28.4696 392.042 27.6326 393.707 26.8731 395.396C26.9812 394.923 27.0893 394.453 27.2064 393.992C27.9869 390.926 28.6741 387.867 28.9022 384.731C28.9658 383.854 27.3751 383.726 27.2849 384.607C26.9709 387.674 26.2229 390.658 25.3641 393.646C25.2915 393.901 25.2101 394.158 25.1286 394.416C24.9078 392.859 24.6843 391.303 24.4547 389.749C24.474 389.681 24.4946 389.614 24.5154 389.548C25.7478 385.536 27.3649 381.621 29.3067 377.814C29.7466 376.953 28.1398 376.498 27.6849 377.336C26.2366 380.004 24.9541 382.73 23.8045 385.497C23.6815 384.714 23.5573 383.933 23.4282 383.151C23.5896 382.555 23.763 381.963 23.9718 381.383C25.136 378.146 26.5058 374.969 27.5514 371.701C27.7854 370.968 26.4687 370.548 26.2273 371.287C25.2512 374.26 24.0412 377.169 22.9098 380.101C22.9039 380.07 22.8995 380.04 22.8934 380.009C22.575 378.203 22.2373 376.405 21.8715 374.613C21.9975 374.184 22.1263 373.755 22.2625 373.327C23.3822 369.814 24.656 366.343 25.6615 362.804C25.8984 361.969 24.3432 361.797 24.0989 362.617C23.2727 365.402 22.1545 368.233 21.1103 371.092C20.8511 369.946 20.5785 368.804 20.2926 367.664C20.934 365.448 21.7679 363.274 22.6445 361.119C22.8592 360.593 21.7679 360.276 21.5426 360.798C20.9695 362.131 20.2777 363.6 19.629 365.131C19.0455 362.987 18.4115 360.849 17.7021 358.718C15.2465 351.343 12.1347 344.141 9.4703 336.82C5.59966 326.184 3.39745 315.608 4.46677 304.51C4.84138 300.621 5.54342 296.548 7.65981 293.033C8.26111 292.034 9.00618 291.248 9.85616 290.641C9.80579 290.994 9.77474 291.35 9.78794 291.71C9.82364 292.663 11.4008 293.031 11.8038 292.045C11.974 291.625 12.1325 291.218 12.2926 290.816C12.3592 290.926 12.5875 290.898 12.5932 290.746C12.6034 290.466 12.6272 290.16 12.6836 289.86C12.7665 289.667 12.8555 289.477 12.9443 289.289C12.9754 289.282 13.0052 289.276 13.036 289.269C13.0627 289.287 13.0849 289.306 13.1145 289.325C13.2018 289.383 13.2923 289.413 13.3825 289.432C13.024 290.072 12.6582 290.708 12.4611 291.395C12.233 292.187 13.7542 292.595 14.0916 291.827C14.499 290.904 14.9463 289.968 15.2898 289.018C15.4187 289.015 15.5505 289.02 15.6808 289.021C15.1861 289.842 14.7301 290.684 14.4413 291.563C14.1212 292.54 15.8454 293.046 16.2229 292.07C16.611 291.066 17.0732 290.105 17.584 289.153C17.7884 289.178 17.9926 289.209 18.1987 289.242C17.9899 289.866 17.8016 290.493 17.6329 291.128C17.3989 292.015 16.8863 292.99 17.661 293.743C17.8033 293.881 18.0787 293.946 18.2758 293.85C19.191 293.402 19.1556 292.674 19.3272 291.849C19.5478 290.791 19.8471 289.749 20.1995 288.718C20.1904 289.49 20.1728 290.261 20.1078 291.033C20.0439 291.78 19.7062 292.558 20.1092 293.256C20.2129 293.437 20.521 293.517 20.709 293.372C21.3563 292.867 21.3622 292.168 21.4421 291.456C21.4747 291.152 21.494 290.847 21.5074 290.542C21.5385 290.877 21.5918 291.216 21.6659 291.558C21.8317 292.315 22.8225 292.859 23.6935 292.845C26.2156 292.804 28.7557 292.497 31.278 292.395C33.002 292.325 31.7299 292.946 32.4481 293.957C33.1619 294.966 34.4564 295.251 35.7507 295.319C37.8272 295.427 40.5153 295.012 42.7621 294.075C46.4305 293.738 50.3243 292.029 51.9402 289.872C52.6791 288.884 52.6926 287.428 52.1654 286.386C52.1624 286.379 52.158 286.371 52.1534 286.364C54.5808 284.669 57.1638 283.421 59.8536 282.802C60.2862 282.702 60.7214 282.618 61.1599 282.553C64.5219 282.043 68.0365 282.534 71.6161 284.379C77.9002 287.617 81.5332 294.076 83.1209 299.891C87.486 315.862 83.9181 332.86 80.1621 348.644Z" fill="#0C0C22"/>
<path d="M21.2443 313.052C22.4691 312.275 22.844 310.785 23.3993 309.617C24.2258 307.877 25.1454 306.184 26.2473 304.554C26.6679 303.933 25.5851 303.381 25.1215 303.979C23.9915 305.436 23.0229 306.956 22.1209 308.519C21.3995 309.767 20.1527 311.289 20.3111 312.705C20.3586 313.123 20.8444 313.305 21.2443 313.052Z" fill="#0C0C22"/>
<path d="M22.2189 316.171C23.1801 315.069 23.8213 313.716 24.5233 312.493C25.9142 310.071 27.2929 307.693 27.9741 305.049C28.1668 304.303 26.8471 304.123 26.6087 304.837C25.6208 307.785 23.6746 310.353 21.9404 313.017C21.434 313.793 20.0935 314.929 20.5141 315.894C20.7527 316.442 21.7641 316.718 22.2189 316.171Z" fill="#0C0C22"/>
<path d="M22.9769 320.019C24.8563 315.845 27.5002 311.819 28.6272 307.432C28.7766 306.849 27.7667 306.604 27.5608 307.184C26.0235 311.535 22.6155 315.232 21.1613 319.596C20.8295 320.595 22.5531 320.958 22.9769 320.019Z" fill="#0C0C22"/>
<path d="M22.5165 330.586C24.239 328.282 24.7782 325.229 26.151 322.709C27.678 319.904 29.3915 317.181 30.6919 314.29C30.985 313.639 29.8284 313.183 29.513 313.838C28.1402 316.707 26.3539 319.396 24.676 322.143C24.2835 322.785 23.8169 323.506 23.3609 324.268C25.8223 319.674 28.1091 314.918 29.9886 310.144C30.2759 309.413 28.9105 309.166 28.6112 309.877C26.4828 314.943 23.3445 319.658 21.2088 324.707C20.9007 325.44 22.1982 325.9 22.7283 325.377C21.8456 327.022 21.1807 328.775 21.4947 330.322C21.5688 330.687 22.2175 330.986 22.5165 330.586Z" fill="#0C0C22"/>
<path d="M23.488 333.825C24.4373 331.821 25.04 329.717 26.0235 327.711C27.1342 325.451 28.4791 323.269 29.7513 321.071C30.0521 320.553 29.1694 320.045 28.8463 320.571C26.3952 324.555 22.8317 329.102 22.226 333.634C22.1402 334.277 23.2317 334.367 23.488 333.825Z" fill="#0C0C22"/>
<path d="M22.8365 344.364C24.6093 342.491 25.1825 339.744 26.1569 337.517C27.4216 334.631 28.9086 331.824 30.6357 329.113C30.9438 328.631 29.9723 328.161 29.6434 328.634C28.3459 330.506 27.17 332.424 26.0814 334.383C26.4044 333.562 26.7005 332.744 27.0189 331.986C27.9816 329.689 28.7 327.341 29.1279 324.934C29.2495 324.249 28.0038 324.141 27.8645 324.815C27.3297 327.421 26.3909 329.898 25.2801 332.362C24.409 334.296 22.9622 336.264 22.8067 338.344C22.7768 338.74 23.3532 338.935 23.6522 338.624C23.7782 338.492 23.8892 338.346 24.0048 338.206C22.9636 340.127 21.9623 342.197 22.0141 344.178C22.0247 344.536 22.6069 344.607 22.8365 344.364Z" fill="#0C0C22"/>
<path d="M30.039 335.13C30.319 334.343 28.8481 334.123 28.5608 334.889C27.5213 337.66 25.9573 340.236 24.4481 342.84C23.3891 344.667 21.8028 346.798 22.0131 348.886C22.0456 349.213 22.5596 349.381 22.8203 349.111C24.519 347.345 25.2448 344.703 26.397 342.636C27.7698 340.178 29.1117 337.737 30.039 335.13Z" fill="#0C0C22"/>
<path d="M30.4147 340.205C30.6842 339.443 29.2593 339.2 28.9869 339.948C28.0611 342.498 26.7874 344.934 25.7672 347.454C24.895 349.602 23.7056 352.117 24.4343 354.389C24.569 354.81 25.206 354.685 25.3422 354.348C26.2946 351.981 26.5404 349.441 27.5459 347.041C28.5042 344.759 29.5926 342.527 30.4147 340.205Z" fill="#0C0C22"/>
<path d="M30.6208 344.744C28.2554 348.454 26.1212 352.783 26.4899 357.082C26.5582 357.879 27.9962 357.773 28.0999 357.031C28.6746 352.894 29.6771 349.265 31.9935 345.543C32.4867 344.756 31.1316 343.941 30.6208 344.744Z" fill="#0C0C22"/>
<path d="M29.3322 363.224C30.5556 361.558 30.8473 359.437 31.5049 357.565C32.346 355.173 33.3694 352.832 34.4922 350.524C34.9099 349.665 33.362 349.034 32.9432 349.899C31.9139 352.024 30.9999 354.18 30.169 356.367C29.3723 358.464 28.1756 360.859 28.4155 363.077C28.4627 363.508 29.0877 363.557 29.3322 363.224Z" fill="#0C0C22"/>
<path d="M35.6995 355.172C36.0032 354.321 34.4568 353.852 34.1458 354.709C33.1403 357.479 31.7362 360.124 30.5527 362.841C29.6255 364.973 28.3725 367.735 29.2628 369.975C29.4081 370.34 30.0123 370.236 30.1558 369.941C31.2949 367.605 31.4621 364.91 32.5048 362.483C33.555 360.038 34.8063 357.666 35.6995 355.172Z" fill="#0C0C22"/>
<path d="M35.4622 361.063C33.4583 365.376 30.3778 370.175 30.3423 374.893C30.3379 375.461 31.2725 375.462 31.4561 374.98C33.1801 370.493 34.7604 366.072 36.7939 361.656C37.1402 360.903 35.8146 360.303 35.4622 361.063Z" fill="#0C0C22"/>
<path d="M34.1872 374.67C34.8524 372.634 35.4197 370.61 35.6625 368.506C35.7542 367.703 34.2851 367.605 34.1846 368.402C33.8571 370.98 32.9908 373.433 32.1599 375.918C31.5747 377.673 30.8565 379.541 31.2593 381.362C31.3453 381.752 31.973 381.77 32.142 381.422C33.1668 379.302 33.463 376.886 34.1872 374.67Z" fill="#0C0C22"/>
<path d="M35.7912 376.735C34.137 379.701 31.4445 383.36 32.2514 386.754C32.3062 386.985 32.7077 386.965 32.7742 386.754C33.2674 385.214 33.5235 383.64 34.0761 382.111C34.7026 380.379 35.6208 378.725 36.4637 377.064C36.6561 376.685 36.0074 376.349 35.7912 376.735Z" fill="#0C0C22"/>
<path d="M35.2193 382.513C34.7957 383.694 34.3661 384.873 33.9042 386.044C33.4318 387.243 32.5801 388.462 32.4793 389.724C32.4556 390.019 32.9518 390.25 33.208 390.008C34.1294 389.131 34.427 387.944 34.8491 386.844C35.3645 385.5 35.7939 384.134 36.2324 382.772C36.4101 382.22 35.4178 381.96 35.2193 382.513Z" fill="#0C0C22"/>
<path d="M34.8785 389.426C34.8711 390.249 34.455 390.991 34.7112 391.824C34.7719 392.025 35.0844 391.96 35.1421 391.798C35.4174 391.024 35.7228 390.183 35.77 389.371C35.7981 388.895 34.8829 388.938 34.8785 389.426Z" fill="#0C0C22"/>
<path d="M54.1637 292.926C54.5369 291.918 55.0183 290.94 55.547 289.985C55.8759 289.386 54.8362 288.905 54.4672 289.498C53.9163 290.387 53.423 291.296 52.9861 292.229C52.6855 292.873 52.0485 293.798 52.7181 294.387C52.8156 294.473 52.9846 294.498 53.1179 294.464C53.8823 294.27 53.9534 293.492 54.1637 292.926Z" fill="#0C0C22"/>
<path d="M57.6902 289.637C57.942 288.892 56.6343 288.407 56.3409 289.169C55.8447 290.459 55.1931 291.69 54.534 292.926C53.9565 294.006 52.896 295.347 53.253 296.555C53.3434 296.857 53.7907 297.131 54.1342 296.87C55.1131 296.125 55.3354 294.938 55.8139 293.924C56.4846 292.506 57.1926 291.108 57.6902 289.637Z" fill="#0C0C22"/>
<path d="M59.9978 291.367C60.3577 290.727 59.238 290.175 58.8529 290.817C57.9763 292.284 57.206 293.788 56.4404 295.297C55.7591 296.642 54.8231 297.986 54.4719 299.423C54.3683 299.845 55.0214 300.239 55.4007 299.865C56.4345 298.844 56.9202 297.562 57.5112 296.33C58.3108 294.664 59.084 292.992 59.9978 291.367Z" fill="#0C0C22"/>
<path d="M62.9981 293.749C63.398 292.909 61.8814 292.324 61.4772 293.165C60.5781 295.034 59.6481 296.892 58.715 298.749C57.9743 300.223 57.0072 301.672 56.9718 303.291C56.9644 303.649 57.5285 303.704 57.764 303.492C59.0243 302.353 59.5442 300.758 60.2506 299.338C61.1764 297.478 62.1049 295.62 62.9981 293.749Z" fill="#0C0C22"/>
<path d="M64.9547 297.441C65.4301 296.694 64.0216 296.179 63.5374 296.905C62.6058 298.304 61.9187 299.79 61.2849 301.3C60.7843 302.487 59.8512 304.051 60.0348 305.334C60.0984 305.787 60.7427 305.917 61.0939 305.603C62.1172 304.684 62.3512 303.042 62.8014 301.874C63.3849 300.353 64.0558 298.852 64.9547 297.441Z" fill="#0C0C22"/>
<path d="M67.0667 298.389C67.3836 297.511 65.7619 297.104 65.4418 297.984C64.1947 301.417 61.9866 305.07 61.5555 308.643C61.4875 309.206 62.5021 309.459 62.8175 308.963C64.8229 305.799 65.8286 301.82 67.0667 298.389Z" fill="#0C0C22"/>
<path d="M70.1888 306.25C70.4509 305.628 69.6675 305.136 69.1312 305.311C69.7044 303.85 70.103 302.374 70.2746 300.971C70.3815 300.096 68.7803 299.931 68.6617 300.808C68.3492 303.117 67.4266 305.189 66.2076 307.256C65.1591 309.034 63.6085 310.63 62.7449 312.473C62.4265 313.156 63.4897 313.636 64.0379 313.101C65.399 311.771 66.6194 310.16 67.6193 308.433C67.1718 309.573 66.7365 310.717 66.3159 311.865C65.6552 313.66 64.3223 315.911 64.626 317.804C64.6749 318.107 65.1148 318.26 65.3711 318.012C66.5588 316.863 66.8402 315.096 67.3469 313.666C68.2308 311.176 69.1505 308.696 70.1888 306.25Z" fill="#0C0C22"/>
<path d="M73.8352 309.833C74.155 309.151 72.7392 308.67 72.4074 309.35C70.4049 313.469 65.3872 318.979 66.5468 323.641C66.6355 323.998 67.339 324.104 67.5183 323.744C68.6485 321.471 69.0334 318.993 70.1961 316.693C71.3615 314.387 72.7451 312.168 73.8352 309.833Z" fill="#0C0C22"/>
<path d="M73.5065 314.395C71.6077 318.668 69.3979 323.037 68.1259 327.472C67.9762 327.992 68.8575 328.258 69.1536 327.793C71.6833 323.824 73.1318 319.272 75.0705 315.085C75.4791 314.2 73.9033 313.503 73.5065 314.395Z" fill="#0C0C22"/>
<path d="M70.5161 330.541C72.8369 326.669 74.6082 322.594 77.0714 318.769C77.5971 317.95 76.0422 317.319 75.5223 318.143C73.1259 321.934 70.8481 325.943 69.2218 330.018C68.9359 330.736 70.0881 331.258 70.5161 330.541Z" fill="#0C0C22"/>
<path d="M70.3887 335.939C71.2506 334.849 71.5365 333.562 72.163 332.36C72.7716 331.194 73.5419 330.084 74.272 328.97C75.6641 326.847 76.8728 324.727 77.5052 322.35C77.7407 321.47 76.1397 321.108 75.8908 321.993C75.1117 324.745 73.4766 327.111 71.8431 329.551C70.6672 331.308 68.9445 333.613 69.269 335.687C69.3445 336.176 70.0363 336.383 70.3887 335.939Z" fill="#0C0C22"/>
<path d="M77.9214 326.633C76.464 329.053 74.8748 331.411 73.3093 333.781C71.9691 335.808 70.1295 338.034 69.7681 340.361C69.7001 340.802 70.3591 340.986 70.676 340.669C72.4784 338.868 73.4959 336.373 74.854 334.309C76.4165 331.935 78.0248 329.587 79.4912 327.17C79.9891 326.349 78.4116 325.819 77.9214 326.633Z" fill="#0C0C22"/>
<path d="M71.553 344.383C72.738 342.667 73.6058 340.793 74.7404 339.044C75.8985 337.255 77.082 335.486 78.1097 333.641C78.4978 332.943 77.2835 332.296 76.894 332.999C74.9196 336.556 71.4909 340.116 70.5343 343.99C70.411 344.49 71.2109 344.878 71.553 344.383Z" fill="#0C0C22"/>
<path d="M77.6218 337.156C75.6091 340.901 71.6768 344.962 71.2103 349.138C71.1511 349.669 72.0649 350.033 72.4248 349.526C73.614 347.84 74.3295 345.912 75.3381 344.138C76.575 341.961 77.8974 339.827 78.986 337.592C79.346 336.854 78.0072 336.441 77.6218 337.156Z" fill="#0C0C22"/>
<path d="M77.1733 344.293C75.7367 346.661 72.5671 350.192 73.1403 352.982C73.1892 353.22 73.6497 353.306 73.7817 353.073C74.4659 351.869 74.6363 350.465 75.2004 349.202C75.9069 347.621 76.9276 346.148 77.8294 344.644C78.0514 344.271 77.4012 343.917 77.1733 344.293Z" fill="#0C0C22"/>
<path d="M76.0122 349.865C74.8702 351.778 73.2277 353.742 72.6531 355.848C72.5626 356.183 73.0781 356.532 73.3935 356.225C75.0612 354.594 76.2283 352.467 77.3835 350.559C77.8486 349.79 76.4758 349.087 76.0122 349.865Z" fill="#0C0C22"/>
</svg>
