<svg width="873" height="824" viewBox="0 0 873 824" fill="none" xmlns="http://www.w3.org/2000/svg">
<path d="M384.057 781.806C368.296 784.571 351.755 783.984 335.815 785.766C327.842 786.657 319.903 787.228 311.873 787.454C305.243 787.639 297.502 786.475 291.065 787.943C290.524 788.066 290.344 788.909 290.978 789.053C297.367 790.503 305.182 789.353 311.733 789.191C319.346 789.002 326.956 788.557 334.514 787.663C351.202 785.686 367.688 786.118 384.2 782.538C384.692 782.43 384.555 781.719 384.057 781.806Z" fill="#0C0C22"/>
<path d="M595.999 731.148C586.711 709.732 563.053 695.552 540.744 688.462C534.579 686.503 528.253 685.258 521.933 683.836C515.26 682.337 509.394 679.408 503.83 675.655C495.653 670.138 488.469 662.969 477.629 664.124C466.393 665.321 456.629 677.5 452.583 686.925C451.868 686.917 451.151 686.925 450.426 686.963C443.65 687.331 437.613 690.11 431.901 693.366C429.299 694.849 426.709 696.316 424.09 697.715C421.085 697.154 417.887 698.955 415.681 701.505C408.754 703.896 401.84 706.328 394.946 708.818C392.736 707.101 389.439 706.939 386.71 707.589C382.139 708.678 378.977 711.696 376.861 715.548C374.269 716.545 371.674 717.538 369.089 718.563C354.459 724.363 339.932 730.406 325.64 736.922C317.633 740.573 309.82 744.669 301.793 748.291C300.143 746.882 297.738 746.426 294.394 747.699C290.697 749.106 288.385 751.535 286.865 754.482C274.172 759.626 261.439 765.139 250.45 773.006C248.099 774.69 245.29 776.98 243.58 779.662C240.896 782.7 239.209 786.483 239.013 790.497C238.737 796.197 242.892 800.542 247.525 803.569C252.443 806.782 258.653 807.961 264.346 809.333C268.606 810.358 273.878 811.863 278.513 811.346C278.376 812.254 278.296 813.12 278.333 813.91C278.532 818.262 282.098 822.008 286.316 823.324C293.645 825.611 300.379 818.245 302.536 811.862C323.189 811.999 343.934 809.324 364.392 807C374.62 805.838 384.851 804.715 395.101 803.744C405.857 802.726 416.979 803.018 427.636 801.474C428.647 801.327 428.994 799.805 427.807 799.64C418.389 798.337 408.239 799.527 398.792 800.191C398.222 800.233 397.652 800.286 397.079 800.329C401.682 797.726 405.637 793.54 410.359 790.647C413.883 788.487 418.703 786.501 422.805 788.396C427.927 790.763 428.614 797.723 428.794 802.417C429.147 811.613 436.018 819.531 446.366 820.042C456.424 820.538 458.366 810.243 459.065 802.809C459.225 801.109 459.151 799.319 459.098 797.518C462.216 796.735 465.309 795.985 468.524 795.477C471.39 795.022 474.284 794.812 477.146 794.405C481.429 797.739 486.558 799.448 491.389 795.042C492.202 794.302 492.972 793.479 493.711 792.614C507.74 788.905 521.895 787.65 536.378 786.075C549.471 784.649 562.682 783.202 575.246 779.243C584.387 776.363 593.673 771.676 597.883 763.019C602.498 753.529 600.022 740.419 595.999 731.148ZM424.887 702.271C427.599 702.165 431.053 702.013 430.569 705.407C430.142 708.389 424.597 706.247 423.818 704.418C423.426 703.5 423.923 702.798 424.887 702.271ZM417.078 705.194C417.102 705.127 417.119 705.059 417.145 704.991C417.354 704.432 417.64 703.899 418.003 703.422C418.771 702.411 419.744 701.782 420.822 701.37C420.213 702.202 419.919 703.067 419.895 703.925C419.893 703.97 419.891 704.017 419.891 704.062C419.903 705.945 421.2 707.776 423.33 709.098C427.745 711.838 434.334 711.16 434.553 705.27C434.616 703.605 433.905 702.124 432.773 700.962C433.803 700.988 434.618 701.089 434.983 701.247C438.109 702.595 437.643 706.295 437.014 708.884C436.076 712.749 431.047 713.917 427.506 714.078C423.986 714.24 420.003 713.083 417.836 710.322C416.677 708.845 416.506 706.905 417.078 705.194ZM377.692 721.298C378.994 718.31 380.758 715.584 383.021 713.461C383.183 713.309 383.353 713.162 383.53 713.018C385.132 711.712 387.285 710.793 389.384 710.839C390.324 710.86 391.253 711.068 392.117 711.53C393.502 712.273 393.811 713.461 393.584 714.753C393.222 716.827 391.462 719.166 390.498 720.338C389.238 721.868 391.415 723.808 393.067 722.997C395.046 722.025 399.27 720.24 400.987 722.672C402.768 725.19 397.506 727.948 395.925 728.712C389.452 731.84 381.892 731.659 375.027 733.508C374.968 733.524 374.922 733.549 374.867 733.568C375.076 729.536 375.993 725.195 377.692 721.298ZM287.987 760.797C288.316 759.541 288.694 758.297 289.188 757.077C289.827 755.5 291.345 753.352 293.22 751.922C294.36 751.054 295.631 750.454 296.919 750.407C297.728 750.376 298.545 750.562 299.336 751.042C300.784 751.919 301.266 753.573 301.272 755.353C301.276 757.445 300.62 759.711 300.061 761.103C299.571 762.322 300.474 764.088 302.087 763.78C304.996 763.225 308 762.813 310.789 764.016C314.118 765.449 310.084 768.189 308.536 768.933C305.073 770.602 300.713 770.914 296.93 771.573C293.096 772.239 289.241 772.859 285.385 773.404C286.478 769.243 286.902 764.948 287.987 760.797ZM278.967 808.873C270.694 807.479 262.855 805.784 254.915 802.94C249.917 801.152 244.61 797.709 243.301 792.504C242.968 791.182 243.013 789.889 243.294 788.624C245.962 792.79 252.076 793.548 257.06 793.923C263.402 794.398 274.924 793.012 278.86 799.027C280.54 801.599 279.686 805.358 278.967 808.873ZM303.297 808.166C303.824 803.774 304.357 801.152 310.297 801.021C313.71 800.946 315.466 805.162 317.94 806.818C318.355 807.096 318.773 807.319 319.19 807.496C313.904 807.794 308.609 808.019 303.297 808.166ZM366.166 803.384C352.439 804.906 338.777 806.241 325.062 807.145C329.248 805.123 332.886 799.993 334.769 797.171C341.129 787.641 350.478 797.232 358.92 797.833C362.846 798.114 367.822 795.29 371.442 796.278C373.145 796.742 375.012 798.39 376.495 799.265C378.227 800.285 380.337 801.047 382.404 801.63C376.986 802.18 371.575 802.785 366.166 803.384ZM459.092 794.072C459.174 792.201 459.456 790.376 460.236 788.686C461.37 786.228 464.107 784.972 466.828 784.972C468.746 784.969 470.324 787.303 471.333 788.545C472.252 789.675 473.3 790.867 474.442 792.003C469.322 792.107 463.913 792.825 459.092 794.072ZM487.867 788.118C486.265 790.271 485.573 791.391 482.972 789.951C481.134 788.934 479.582 787.495 478.344 785.87C475.895 782.653 473.666 779.967 469.724 778.378C465.927 776.845 460.355 778.497 457.378 780.883C453.377 784.088 452.1 788.436 451.696 793.225C451.286 798.087 451.723 802.795 450.726 807.627C450.37 809.349 449.899 811.298 448.562 812.58C446.943 814.13 442.173 811.344 440.872 810.635C436.352 808.17 436.419 803.995 435.825 799.645C435.146 794.667 433.28 790.03 429.903 786.13C424.062 779.384 414.239 781.779 407.41 785.484C402.606 788.092 399.096 792.181 394.486 794.992C389.572 797.987 383.119 796.032 378.405 793.522C375.741 792.104 373.227 790.294 370.02 790.713C364.622 791.42 359.838 793.616 354.398 791.697C350.538 790.337 347.611 788.43 343.38 787.99C339.105 787.545 335.369 788.946 332.536 791.972C329.95 794.734 328.571 798.299 325.765 800.894C321.375 804.948 319.741 801.654 316.782 798.818C311.53 793.778 301.384 796.154 298.929 802.601C297.612 806.054 298.237 809.599 296.254 812.914C294.828 815.301 292.377 817.249 289.597 818.006C284.976 819.264 284.102 813.17 284.284 810.366C284.582 805.782 285.691 801.777 283.808 797.364C282.546 794.407 279.574 792.312 276.53 791.183C269.197 788.46 261.129 789.349 253.504 788.069C245.773 786.772 248.138 782.467 252.706 778.799C259.215 773.574 267.416 769.961 275.025 766.438C278.138 764.998 281.284 763.628 284.444 762.287C283.7 766.427 283.426 770.743 282.622 774.381C282.466 775.09 282.908 775.519 283.461 775.629C283.712 776.47 284.558 777.16 285.816 776.833C292.442 775.104 299.4 774.962 306.055 773.349C309.811 772.44 313.655 771.035 315.494 767.572C318.892 761.176 310.005 759.593 304.475 759.741C304.79 757.868 304.831 755.82 304.526 753.917C312.117 750.501 319.515 746.682 327.077 743.208C341.334 736.661 355.737 730.397 370.251 724.378C371.567 723.831 372.888 723.287 374.206 722.742C373.07 727.62 372.946 732.753 373.37 736.703C373.436 737.323 374.312 737.381 374.677 737C375.002 737.129 375.394 737.166 375.842 737.063C384.635 735.046 399.667 735.214 404.412 726.282C405.847 723.58 404.951 720.818 402.563 718.99C400.903 717.719 398.754 717.552 396.63 717.894C397.279 716.377 397.606 714.787 397.383 713.198C402.582 711.07 407.784 708.95 412.993 706.842C412.936 707.194 412.905 707.542 412.903 707.882C412.893 714.267 420.034 717.819 425.917 718.112C432.265 718.428 439.06 715.976 440.911 709.73C442.279 705.111 440.801 699.475 435.776 697.714C439.516 696.232 443.256 694.758 447 693.293C454.433 692.23 461.362 693.921 468.825 696.956C469.769 697.339 470.719 697.741 471.681 698.165C471.908 698.265 472.138 698.369 472.365 698.469C472.592 698.569 472.817 698.67 473.045 698.769C474.371 699.358 475.699 699.948 477.028 700.544C477.555 700.78 478.082 701.019 478.609 701.257C479.927 701.853 481.246 702.454 482.564 703.059C483.33 703.41 484.096 703.76 484.862 704.115C486.065 704.672 487.266 705.238 488.467 705.804C489.852 706.456 491.234 707.115 492.613 707.78C494.072 708.481 495.528 709.191 496.979 709.907C498.429 710.621 499.875 711.344 501.319 712.073C502.587 712.714 503.852 713.361 505.114 714.013C505.727 714.331 506.342 714.646 506.955 714.967C508.24 715.64 509.522 716.321 510.799 717.007C510.864 717.042 510.928 717.076 510.993 717.111C512.331 717.831 513.665 718.561 514.993 719.296C515.564 719.61 516.134 719.925 516.702 720.243C518.02 720.983 519.335 721.728 520.644 722.483C521.8 723.149 522.948 723.825 524.094 724.505C525.624 725.412 527.144 726.329 528.655 727.261C530.02 728.104 531.378 728.958 532.728 729.821C533.833 730.529 534.928 731.245 536.019 731.967C536.789 732.474 537.555 732.987 538.317 733.502C539.252 734.132 540.186 734.76 541.109 735.401C541.372 735.583 541.646 735.752 541.911 735.932C542.473 736.314 543.041 736.685 543.609 737.058C544.655 737.744 545.705 738.423 546.765 739.086C547.52 739.556 548.272 740.03 549.03 740.495C549.369 741.107 549.984 741.48 550.752 741.579C550.77 741.581 550.781 741.579 550.799 741.581C551.262 741.864 551.722 742.147 552.184 742.43C554.026 743.557 555.861 744.691 557.672 745.871C557.674 745.872 557.674 745.872 557.676 745.874C560.354 747.622 562.031 750.272 562.574 753.155C554.371 752.634 545.639 757.611 538.128 759.86C527.599 763.011 516.369 764.179 505.451 765.395C486.599 767.495 467.671 768.049 450.065 775.299C449.317 775.607 449.856 776.658 450.599 776.373C459.241 773.074 469.266 771.952 478.482 770.803C487.623 769.662 496.845 769.245 505.982 768.088C516.468 766.76 526.769 765.093 537.07 762.818C540.945 761.961 544.687 760.475 548.401 759.151C553.201 757.439 557.876 756.588 562.762 755.565C562.738 756.343 562.64 757.124 562.45 757.898C561.322 762.494 557.118 765.558 552.87 767.502C546.215 770.55 538.053 767.47 530.997 768.386C526.05 769.028 522.061 771.397 517.804 773.688C513.174 776.179 507.536 775.084 502.507 774.635C500.046 774.415 497.644 774.827 495.983 776.694C492.91 780.145 490.62 784.42 487.867 788.118ZM574.471 773.932C562.342 778.702 548.303 780.387 535.431 782.231C522.509 784.082 509.383 785.842 496.637 788.722C497.877 786.886 499.015 784.999 500.065 783.229C500.514 782.471 501.907 781.186 501.246 781.233C502.723 780.921 504.998 781.469 506.409 781.553C511.236 781.844 515.681 781.444 520.107 779.556C521.898 778.791 523.563 777.726 525.289 776.84C529.043 774.914 532.561 774.525 536.785 774.715C542.968 774.997 549.036 776.133 554.994 773.925C559.925 772.096 563.898 769.271 567.044 765.235C570.674 760.581 571.511 753.942 569.123 748.644C566.844 743.587 562.554 740.639 557.903 737.994C557.86 737.185 557.822 736.404 557.815 735.677C557.764 730.213 557.198 724.811 555.464 719.58C554.982 718.127 552.654 718.484 552.964 720.046C553.971 725.141 553.724 730.257 553.259 735.394C553.259 735.401 553.258 735.409 553.258 735.416C552.831 735.177 552.403 734.934 551.98 734.687C550.852 728.71 550.154 722.675 548.938 716.707C548.624 715.169 546.199 715.691 546.45 717.217C547.243 722.075 547.21 727.078 547.598 732.009C547.296 731.82 546.998 731.626 546.699 731.434C546.452 730.075 546.233 728.709 546.05 727.327C545.257 721.315 544.943 715.249 543.909 709.267C543.656 707.799 541.245 707.938 541.448 709.45C542.253 715.475 542.267 721.532 542.557 727.589C542.573 727.926 542.579 728.322 542.581 728.753C542.15 728.468 541.721 728.182 541.292 727.896C540.912 726.85 540.545 725.862 540.34 725.021C538.853 718.934 538.018 712.726 537.855 706.484C537.816 705.02 535.471 705.073 535.465 706.53C535.44 712.357 535.902 718.169 536.715 723.944C536.758 724.241 536.793 724.575 536.829 724.923C535.81 724.248 534.789 723.578 533.765 722.912C533.663 722.615 533.561 722.319 533.471 722.025C532.158 717.731 531.296 713.35 530.893 708.897C530.755 707.396 528.279 707.327 528.385 708.869C528.659 712.859 529.32 716.749 530.211 720.653C529.094 719.959 527.967 719.277 526.827 718.615C526.798 718.598 526.768 718.581 526.739 718.565C526.663 718.024 526.59 717.482 526.537 716.931C526.046 711.815 526.04 706.67 525.536 701.555C525.364 699.811 522.551 700.221 522.707 701.955C523.099 706.296 522.889 711.45 523.137 716.543C521.753 715.79 520.354 715.054 518.95 714.329C518.374 709.604 518.242 704.815 518.433 700.074C518.497 698.452 515.854 697.982 515.768 699.634C515.539 704.041 515.617 708.424 515.966 712.811C515.269 712.461 514.571 712.11 513.87 711.764C513.441 706.626 513.292 701.47 512.742 696.338C512.587 694.895 510.324 695.306 510.424 696.717C510.747 701.225 510.724 705.739 510.788 710.254C510.685 710.204 510.581 710.152 510.477 710.101C510.351 709.003 510.228 707.936 510.159 706.944C509.811 701.889 509.125 696.856 507.724 691.962C507.321 690.551 505.052 691.118 505.413 692.539C506.741 697.789 507.015 703.085 507.094 708.457C506.145 707.996 505.199 707.535 504.255 707.073C503.994 705.573 503.753 704.081 503.675 702.621C503.434 698.057 503.25 693.559 502.239 689.079C501.902 687.584 499.594 688.264 499.865 689.719C500.821 694.889 500.621 700.111 500.74 705.334C500.65 705.289 500.56 705.246 500.472 705.201C498.905 704.416 497.336 703.637 495.766 702.858C495.739 702.541 495.704 702.223 495.692 701.906C495.513 697.082 496.025 692.255 496.038 687.432C496.045 685.576 493.063 685.738 493.025 687.564C492.929 692.118 492.497 696.652 492.408 701.202C490.996 700.508 489.582 699.814 488.163 699.129C488.208 694.1 488.894 689.094 488.897 684.063C488.897 682.345 486.172 682.614 486.123 684.28C485.992 688.756 485.414 693.203 485.093 697.669C484.209 697.249 483.326 696.827 482.44 696.411C482.507 691.685 482.583 686.959 482.558 682.233C482.546 680.308 479.447 680.402 479.423 682.309C479.372 686.496 479.235 690.679 479.075 694.863C478.516 694.607 477.956 694.352 477.395 694.098C477.421 693.811 477.441 693.521 477.476 693.239C478.048 688.629 478.657 684.03 478.851 679.389C478.922 677.68 476.279 677.828 476.108 679.45C475.644 683.861 474.718 688.194 473.981 692.565C473.552 692.376 473.123 692.186 472.692 692.002C472.7 691.834 472.704 691.665 472.715 691.497C473.007 687.279 473.305 683.076 473.272 678.846C473.258 677.217 470.712 677.477 470.655 679.043C470.512 682.96 470.045 686.837 469.561 690.722C465.453 689.105 461.272 687.789 456.905 687.221C463.7 679.588 471.475 667.641 483.115 670.405C488.081 671.585 492.334 675.446 496.186 678.426C500.794 681.989 505.237 685.123 511.012 686.733C523.445 690.199 535.952 691.806 548.016 696.607C560.148 701.435 570.695 708.893 579.756 717.861C588.874 726.884 594.015 738.316 594.099 750.872C594.18 763.328 585.734 769.503 574.471 773.932Z" fill="#0C0C22"/>
<path d="M487.838 757.599C487.881 757.941 488.208 758.074 488.516 758.035C488.874 758.44 489.446 758.663 490.199 758.471C499.659 756.055 513.14 755.871 517.629 745.811C518.924 742.906 516.898 739.554 514.014 738.434C511.675 737.525 509.31 737.655 507.11 738.396C507.708 735.973 507.706 733.484 506.654 731.002C505.382 728.002 501.799 726.854 498.739 727.828C493.833 729.391 491.58 734.929 489.701 738.996C486.993 744.852 487.052 751.382 487.838 757.599ZM495.898 734.632C497.144 732.764 500.776 729.264 502.804 732.208C504.741 735.021 502.853 739.304 501.46 741.897C500.463 743.75 502.788 745.775 504.52 744.272C506.638 742.436 510.386 740.4 513.039 742.629C515.821 744.963 509.034 749.01 507.569 749.827C502.187 752.83 495.218 753.21 489.372 755.184C489.261 755.221 489.163 755.269 489.069 755.319C489.26 748.094 491.882 740.658 495.898 734.632Z" fill="#0C0C22"/>
<path d="M474.144 732.552C475.572 728.756 474.452 725.32 470.671 723.319C467.661 721.726 464.074 721.854 460.74 722.71C461.447 719.621 461.351 716.455 459.805 713.474C458.142 710.265 454.28 708.927 450.81 710.048C445.842 711.654 443.47 717.085 441.751 721.329C438.977 728.182 440.002 736.083 441.328 743.08C441.385 743.387 441.548 743.591 441.753 743.704C441.984 744.355 442.566 744.863 443.534 744.854C453.485 744.763 470.128 743.233 474.144 732.552ZM464.227 736.885C458.324 740.261 450.482 740.863 443.754 740.924C443.521 740.926 443.313 740.967 443.119 741.023C442.371 732.359 443.477 723.503 448.9 716.21C450.654 713.852 454.014 712.371 455.914 715.316C457.938 718.449 456.208 722.751 454.802 725.743C453.957 727.535 456.399 729.214 458.058 728.388C461.431 726.708 465.549 725.406 469.158 727.275C473.846 729.704 466.437 735.62 464.227 736.885Z" fill="#0C0C22"/>
<path d="M415.352 750.068C413.481 748.598 411.322 748.055 409.101 748.051C409.749 746.428 409.888 744.694 409.054 742.917C407.602 739.827 403.433 739.555 400.449 740.223C389.791 742.605 386.38 754.81 385.83 763.682C385.808 764.033 386.439 764.584 387.086 764.997C387.352 765.43 387.822 765.738 388.551 765.732C397.447 765.651 410.895 766.394 416.365 758.168C418.083 755.586 417.95 752.111 415.352 750.068ZM406.791 760.279C401.339 762.227 394.785 761.911 389.064 761.864C388.808 761.861 388.577 761.905 388.361 761.972C389.85 756.708 390.926 751.358 395.318 747.434C397.479 745.505 400.006 743.909 403.09 744.119C407.037 744.386 403.454 748.468 402.259 749.76C400.531 751.63 403.084 753.89 405.157 753.215C407.269 752.528 412.32 751.334 413.14 754.439C413.926 757.419 408.981 759.496 406.791 760.279Z" fill="#0C0C22"/>
<path d="M328.911 777.856C328.923 778.035 328.991 778.175 329.081 778.298C329.54 778.533 330.108 778.579 330.729 778.298C330.788 778.272 330.853 778.248 330.911 778.222C339.375 774.533 357.131 775.679 359.717 764.475C360.391 761.548 359.321 758.193 356.139 756.973C354.053 756.174 352.023 756.093 350.058 756.475C350.685 754.274 350.65 751.95 349.657 749.614C348.015 745.744 343.54 745.145 339.892 746.518C334.726 748.464 331.317 754.444 329.832 759.183C328.227 764.306 328.398 769.635 328.723 774.905C328.784 775.892 328.85 776.875 328.911 777.856ZM333.727 757.838C335.134 754.33 338.854 750.261 342.91 749.563C348.83 748.545 344.761 757.896 343.609 759.369C342.116 761.278 344.643 763.611 346.661 762.28C349.102 760.668 353.273 758.571 355.74 761.339C358.966 764.959 350.456 769.371 348.001 770.218C342.559 772.094 336.673 772.189 331.19 773.927C331.413 768.478 331.685 762.922 333.727 757.838Z" fill="#0C0C22"/>
<path d="M442.776 750.675C442.03 750.061 441.211 749.527 440.347 749.09C438.844 748.33 437.214 747.863 435.611 747.817C433.353 747.754 431.509 748.797 430.265 750.339C429.111 750.93 428.041 751.705 427.103 752.693C423.626 756.348 424.785 762.535 428.381 765.715C436.186 772.617 449.202 766.035 446.375 755.88C445.827 753.91 444.496 752.089 442.776 750.675ZM433.202 751.712C434.493 751.304 435.9 751.136 437.291 751.133C437.853 751.267 438.412 751.467 438.942 751.743C439.393 751.978 439.798 752.247 440.18 752.534C440.302 755.059 439.24 757.235 436.442 757.968C434.101 758.583 431.715 757.552 431.683 755.072C431.666 753.472 432.271 752.371 433.202 751.712ZM443.105 759.505C442.394 765.461 434.271 766.787 430.295 762.908C428.486 761.144 427.816 758.265 428.563 755.889C428.592 756.208 428.636 756.527 428.708 756.84C429.578 760.573 434.054 761.74 437.511 760.834C440.159 760.14 441.979 758.38 442.814 756.201C443.137 757.231 443.244 758.344 443.105 759.505Z" fill="#0C0C22"/>
<path d="M492.05 714.692C491.958 714.209 491.835 713.714 491.65 713.202C491.533 712.876 491.398 712.533 491.241 712.181C490.826 711.237 490.269 710.237 489.58 709.359C489.599 709.114 489.525 708.851 489.307 708.602C489.174 708.45 489.033 708.318 488.896 708.177C487.677 706.922 486.319 706.101 484.913 705.651C484.132 705.4 483.338 705.26 482.545 705.223C481.158 705.16 479.778 705.407 478.487 705.894C472.974 707.973 469.115 714.468 473.603 720.326C479.286 727.746 493.825 723.978 492.05 714.692ZM485.387 709.247C486.308 709.303 487.253 709.853 488.058 711.087C488.375 711.576 488.64 712.09 488.849 712.618C488.494 712.818 488.067 713.056 487.605 713.301C484.811 714.791 480.622 716.632 481.606 712.814C482.16 710.659 483.736 709.147 485.387 709.247ZM476.647 709.801C477.3 709.146 478.042 708.655 478.832 708.305C479.919 707.823 481.099 707.626 482.272 707.684C482.364 707.689 482.456 707.685 482.547 707.693C482.433 707.765 482.333 707.858 482.223 707.936C481.232 708.647 480.415 709.614 479.819 710.592C479.751 710.704 479.67 710.816 479.608 710.929C478.572 712.785 477.964 715.537 479.78 717.161C482.343 719.453 486.533 717.798 489.284 716.434C489.057 717.665 488.442 718.819 487.35 719.744C484.837 721.875 480.766 721.829 477.98 720.288C474.028 718.104 473.656 712.809 476.647 709.801Z" fill="#0C0C22"/>
<path d="M368.985 758.787C372.725 758.139 376.685 756.143 378.558 752.929C380.356 749.842 380.666 745.641 378.873 742.497C377.919 740.826 376.179 739.795 374.247 739.64C372.028 737.7 369.183 736.873 366.078 738.999C362.171 741.674 360.036 746.94 359.887 751.382C359.711 756.607 363.582 759.723 368.985 758.787ZM374.22 742.736C374.884 743.585 375.429 744.508 375.848 745.238C375.979 745.468 376.164 745.596 376.359 745.674C376.398 746.016 376.416 746.366 376.416 746.716C374.332 747.425 372.043 747.212 370.181 746.073C367.726 744.572 371.701 743.101 373.051 742.795C373.495 742.694 373.877 742.687 374.22 742.736ZM366.291 742.752C367.21 741.579 368.619 740.437 370.22 740.367C368.38 741.092 366.64 742.31 366.201 743.91C365.486 746.504 367.344 748.533 369.659 749.677C371.632 750.653 373.769 750.838 375.76 750.314C374.449 753.3 371.038 754.723 367.845 755.399C366.103 755.768 364.53 755.475 363.732 754C361.895 750.593 364.115 745.525 366.291 742.752Z" fill="#0C0C22"/>
<path d="M532.541 754.86C537.798 758.386 545.29 753.415 546.751 748.391C547.733 745.013 545.731 741.506 542.739 739.743C541.278 738.882 539.661 738.737 538.147 739.093C534.229 738.48 530.268 739.24 528.714 743.437C527.185 747.568 528.796 752.346 532.541 754.86ZM535.797 744.226C536.128 742.6 538.215 741.42 539.867 741.583C541.346 741.73 542.445 742.745 543.183 743.886C543.199 743.911 543.205 743.937 543.221 743.961C542.86 743.962 542.486 744.095 542.155 744.417C541.081 745.459 535.186 747.211 535.797 744.226ZM531.052 744.915C531.421 743.006 532.62 741.966 534.154 741.462C533.866 741.775 533.603 742.111 533.374 742.463C531.828 744.856 533.163 747.547 535.776 748.486C538.474 749.457 541.593 748.888 543.713 747.086C542.966 750.611 538.46 753.976 534.918 752.592C532.054 751.473 530.52 747.665 531.052 744.915Z" fill="#0C0C22"/>
<path d="M821.298 26.5466C821.902 26.6347 821.743 26.4819 821.298 26.5466V26.5466Z" fill="#0C0C22"/>
<path d="M872.12 75.2521C872.09 74.7302 872.041 74.2167 871.992 73.7052C872.347 70.5243 872.442 67.3195 872.251 64.139C871.048 43.9607 855.206 31.1279 839.563 22.5746C831.325 18.0694 822.301 14.9834 813.201 13.1765C807.427 12.0302 801.026 11.2462 795.111 12.3904C791.031 12.2122 786.895 12.4351 782.683 13.2201C768.549 15.8543 754.585 24.0421 744.319 34.5407C734.008 45.0857 729.759 58.9227 730.994 73.8258C730.548 77.7947 730.541 81.8901 730.962 86.0658C732.215 98.4652 738.073 109.469 746.916 117.552C762.634 131.922 785.376 136.409 806.147 135.509C806.853 135.477 807.556 135.441 808.257 135.398C808.514 135.383 808.771 135.368 809.028 135.352C809.691 135.306 810.351 135.255 811.008 135.199C811.652 135.145 812.293 135.085 812.93 135.021C813.611 134.952 814.287 134.878 814.96 134.799C815.309 134.758 815.662 134.72 816.009 134.676C816.131 134.66 816.253 134.642 816.377 134.626C817.13 134.529 817.881 134.429 818.632 134.32C819.117 134.249 819.6 134.17 820.082 134.094C820.666 134.003 821.249 133.909 821.833 133.809C821.956 133.788 822.078 133.765 822.2 133.744C822.461 133.698 822.721 133.653 822.98 133.605C823.247 133.556 823.516 133.512 823.781 133.462C824.251 133.373 824.717 133.274 825.185 133.18C825.383 133.138 825.581 133.099 825.779 133.058C826.431 132.921 827.078 132.776 827.725 132.627C827.831 132.602 827.935 132.577 828.04 132.553C828.309 132.49 828.578 132.43 828.847 132.364C828.997 132.328 829.148 132.292 829.298 132.255C829.424 132.223 829.548 132.187 829.673 132.155C829.957 132.083 830.237 132.005 830.519 131.929C830.849 131.843 831.179 131.76 831.506 131.668C831.922 131.552 832.335 131.424 832.747 131.302C833.257 131.15 833.767 131.004 834.272 130.842C834.621 130.729 834.963 130.604 835.308 130.487C835.666 130.367 836.025 130.247 836.38 130.121C836.73 129.997 837.077 129.866 837.424 129.736C837.647 129.652 837.867 129.564 838.089 129.479C838.21 129.431 838.335 129.385 838.457 129.337C839.017 129.116 839.576 128.885 840.133 128.647C840.143 128.642 840.154 128.637 840.164 128.632C840.278 128.584 840.391 128.533 840.503 128.484C840.47 128.658 840.438 128.832 840.408 129.006C840.447 128.83 840.485 128.653 840.523 128.475C841.282 128.144 842.034 127.796 842.782 127.432C842.817 127.415 842.852 127.397 842.888 127.38C842.992 127.329 843.097 127.278 843.201 127.225C843.509 127.073 843.82 126.931 844.126 126.772C844.619 126.514 845.103 126.236 845.589 125.963C845.662 125.921 845.737 125.883 845.808 125.842C846.055 125.703 846.303 125.572 846.546 125.43C846.626 125.382 846.704 125.329 846.783 125.282C847.14 125.071 847.489 124.846 847.84 124.627C848.187 124.41 848.536 124.199 848.878 123.973C849.209 123.754 849.533 123.517 849.862 123.29C850.135 123.099 850.412 122.914 850.684 122.718C850.694 122.711 850.704 122.704 850.712 122.697C850.953 122.522 851.19 122.34 851.427 122.161C851.739 121.926 852.047 121.683 852.354 121.44C852.701 121.164 853.051 120.89 853.393 120.603C853.429 120.622 853.464 120.642 853.498 120.66C853.524 120.59 853.548 120.52 853.57 120.449C853.919 120.153 854.264 119.85 854.607 119.543C854.783 119.386 854.962 119.24 855.135 119.079C855.142 119.074 855.15 119.068 855.155 119.062C855.182 119.038 855.208 119.018 855.233 118.995C855.72 118.542 856.195 118.077 856.664 117.603C857.408 116.851 858.128 116.074 858.825 115.272C859.027 115.038 859.232 114.804 859.43 114.565C860.053 113.821 860.654 113.059 861.232 112.277C861.514 111.897 861.792 111.514 862.063 111.127C869.212 100.913 872.873 87.8775 872.12 75.2521ZM743.839 107.789C740.502 103.398 738.14 98.3914 736.649 93.0961C739.33 98.0913 742.846 102.597 747.047 106.438C763.33 121.326 787.152 125.607 808.511 124.277C808.106 126.481 807.746 128.692 807.314 130.891C807.265 131.142 807.198 131.41 807.122 131.69C784.685 132.825 758.371 126.918 743.839 107.789ZM809.025 131.578C809.429 129.143 809.592 126.643 809.874 124.187C810.669 124.129 811.461 124.062 812.25 123.987C811.994 125.586 811.715 127.181 811.374 128.765C811.18 129.672 810.945 130.567 810.666 131.448C810.121 131.494 809.575 131.539 809.025 131.578ZM812.237 131.307C812.265 131.175 812.293 131.049 812.32 130.932C812.851 128.625 813.139 126.251 813.376 123.875C814.089 123.802 814.801 123.722 815.507 123.636C815.032 126.143 814.51 128.641 813.969 131.133C813.391 131.194 812.813 131.252 812.237 131.307ZM815.49 130.961C815.92 128.475 816.33 125.984 816.696 123.487C817.548 123.374 818.398 123.257 819.247 123.131C818.842 125.28 818.376 127.418 817.86 129.549C817.768 129.922 817.664 130.306 817.549 130.701C816.862 130.794 816.175 130.88 815.49 130.961ZM823.521 126.806C823.385 127.414 823.188 128.086 822.974 128.789C823.237 126.571 823.43 124.289 823.573 122.408C823.893 122.349 824.209 122.288 824.529 122.226C824.19 123.751 823.858 125.279 823.521 126.806ZM819.269 130.461C819.293 130.317 819.32 130.175 819.346 130.036C819.348 130.174 819.346 130.312 819.353 130.448C819.325 130.453 819.297 130.456 819.269 130.461ZM820.409 130.285C820.477 130.106 820.55 129.933 820.611 129.751C820.586 129.923 820.561 130.094 820.537 130.265C820.494 130.272 820.452 130.278 820.409 130.285ZM825.768 129.291C825.789 129.139 825.812 128.986 825.836 128.837C826.196 126.486 826.49 124.126 826.779 121.764C827.403 121.627 828.025 121.478 828.645 121.328C828.247 123.596 827.72 125.841 827.199 128.073C827.129 128.365 827.037 128.688 826.932 129.031C826.545 129.12 826.155 129.206 825.768 129.291ZM831.231 120.662C831.054 121.412 830.884 122.165 830.715 122.916C830.763 122.202 830.792 121.487 830.821 120.772C830.957 120.735 831.094 120.7 831.231 120.662ZM832.28 127.606C832.747 125.092 833.157 122.566 833.424 120.023C834.276 119.762 835.123 119.485 835.963 119.193C835.54 120.905 835.12 122.616 834.686 124.324C834.453 125.243 834.205 126.158 833.956 127.071C833.401 127.258 832.841 127.434 832.28 127.606ZM836.906 125.999C837.214 123.855 837.503 121.663 837.621 119.479C837.689 119.159 837.757 118.839 837.824 118.518C838.628 118.212 839.425 117.891 840.217 117.552C840.01 119.444 839.715 121.328 839.37 123.204C839.172 123.846 838.925 124.545 838.67 125.275C838.084 125.526 837.497 125.767 836.906 125.999ZM853.663 109.368C853.124 110.958 852.618 112.56 852.119 114.164C852.427 112.767 852.706 111.364 852.958 109.955C853.196 109.763 853.43 109.566 853.663 109.368ZM863.61 97.8552C863.483 98.6019 863.336 99.3451 863.168 100.082C863.259 99.4522 863.337 98.8199 863.407 98.1874C863.476 98.0785 863.541 97.9649 863.61 97.8552ZM857.911 110.372C858.36 109.115 858.858 107.881 859.438 106.68C859.366 106.924 859.297 107.167 859.222 107.41C859.001 108.13 858.759 108.843 858.507 109.554C858.31 109.827 858.113 110.104 857.911 110.372ZM848.515 119.7C848.78 118.784 849.042 117.867 849.311 116.951C849.187 117.557 849.06 118.161 848.934 118.766C848.854 119.035 848.774 119.303 848.69 119.571C848.632 119.614 848.574 119.658 848.515 119.7ZM857.482 107.136C857.516 106.649 857.555 106.161 857.568 105.68C857.978 105.245 858.388 104.812 858.783 104.362C858.302 105.266 857.876 106.195 857.482 107.136ZM847.155 119.075C847.497 117.214 847.786 115.349 848.028 113.477C848.35 113.275 848.675 113.082 848.991 112.871C848.366 114.931 847.791 117.019 847.155 119.075ZM843.817 122.733C843.86 122.524 843.899 122.312 843.944 122.108C844.449 119.765 844.907 117.412 845.348 115.054C845.469 114.988 845.59 114.922 845.709 114.855C845.266 117.483 844.623 120.065 843.962 122.652C843.914 122.68 843.866 122.705 843.817 122.733ZM842.75 116.397C842.891 116.33 843.03 116.261 843.169 116.192C842.956 116.761 842.745 117.331 842.535 117.902C842.613 117.401 842.685 116.901 842.75 116.397ZM841.509 123.962C841.983 121.88 842.499 119.818 843.135 117.799C842.957 118.648 842.786 119.499 842.601 120.346C842.347 121.499 842.014 122.682 841.673 123.878C841.618 123.905 841.564 123.934 841.509 123.962ZM865.434 96.4881C865.461 95.8874 865.469 95.2815 865.465 94.6707C865.965 93.7435 866.448 92.8055 866.897 91.8481C866.483 93.4164 865.99 94.964 865.434 96.4881ZM868.245 74.5732C867.427 80.7121 865.426 86.7367 862.537 92.1841C862.194 92.3125 861.905 92.6259 861.885 93.1112C861.881 93.2108 861.871 93.3083 861.865 93.4076C859.652 97.334 856.97 100.927 853.932 104.007C853.294 104.653 852.645 105.284 851.979 105.883C851.894 105.96 851.806 106.032 851.721 106.108C850.699 107.009 849.648 107.855 848.566 108.646C848.247 108.878 847.927 109.108 847.604 109.332C847.403 109.472 847.198 109.606 846.995 109.742C846.808 109.866 846.622 109.995 846.435 110.116C846.367 110.159 846.299 110.199 846.233 110.243C846.235 110.222 846.235 110.201 846.237 110.18C846.231 110.203 846.228 110.225 846.225 110.248C845.878 110.469 845.532 110.687 845.181 110.899C844.937 111.046 844.69 111.189 844.445 111.333C843.998 111.593 843.548 111.845 843.093 112.091C842.578 112.369 842.058 112.639 841.534 112.9C841.523 112.716 841.502 112.533 841.486 112.351C841.469 112.551 841.443 112.752 841.425 112.952C841.21 113.059 840.993 113.164 840.776 113.267C840.685 113.31 840.598 113.355 840.507 113.397C840.217 113.534 839.924 113.666 839.632 113.796C839.322 113.934 839.013 114.07 838.704 114.202C838.318 114.368 837.929 114.529 837.539 114.686C837.372 114.753 837.204 114.821 837.033 114.886C836.863 114.953 836.691 115.021 836.519 115.087C835.589 115.441 834.649 115.772 833.701 116.083C833.591 116.12 833.478 116.155 833.366 116.191C833.013 116.306 832.66 116.417 832.303 116.525C832.315 116.388 832.32 116.25 832.329 116.112C832.293 116.258 832.259 116.404 832.222 116.55C831.782 116.683 831.341 116.813 830.897 116.938C830.689 116.998 830.48 117.058 830.27 117.115C830.146 117.149 830.021 117.182 829.897 117.215C829.656 117.278 829.417 117.342 829.178 117.404C828.542 117.567 827.904 117.723 827.266 117.871C827.176 117.893 827.087 117.913 826.997 117.933C826.636 118.015 826.273 118.097 825.908 118.175C825.754 118.208 825.6 118.241 825.443 118.274C824.916 118.384 824.385 118.491 823.856 118.592C823.378 118.684 822.9 118.772 822.421 118.857C822.291 118.88 822.159 118.904 822.028 118.926C821.826 118.876 821.612 118.905 821.441 119.025C821.302 119.048 821.164 119.072 821.026 119.094C820.647 119.155 820.269 119.214 819.892 119.272C817.839 119.584 815.785 119.841 813.746 120.056C813.443 120.087 813.138 120.119 812.835 120.149C812.364 120.196 811.893 120.241 811.424 120.284C788.163 122.402 759.413 117.003 743.971 96.6758C738.698 89.7339 735.832 81.2653 735.064 72.5219C734.65 67.8003 734.838 62.9997 735.612 58.3124C735.662 58.0094 735.725 57.7101 735.782 57.409C738.838 41.579 752.731 29.9803 765.58 23.0289C773.055 18.986 780.872 16.3835 788.997 15.5377C790.157 15.4172 791.325 15.3412 792.497 15.2932C795.033 15.1878 797.596 15.2455 800.189 15.4925C810.403 16.4713 820.359 19.6776 830.285 22.5731C831.696 23.2227 833.097 23.8911 834.48 24.592C848.185 31.5289 862.913 41.3252 867.297 57.7129C867.449 58.285 867.587 58.8617 867.715 59.4386C868.797 64.3832 868.92 69.5158 868.245 74.5732Z" fill="#0C0C22"/>
<path d="M798.134 58.1195C797.898 59.0204 799.233 59.6335 799.714 58.8654C802.363 54.6233 800.195 49.9006 798.076 45.9272C797.399 44.6534 796.602 43.3273 795.802 41.9574C796.026 41.5885 796.134 41.1518 796.069 40.6871C796.106 40.936 796.294 40.8634 796.552 40.6214C797.207 40.0039 798.32 38.2612 798.606 37.731C798.626 37.6929 798.646 37.6545 798.658 37.6305C798.537 37.8914 799.004 38.1665 799.764 38.439C800.578 38.7309 801.732 39.0187 802.871 39.2816C804.718 39.7081 806.52 40.0669 806.743 40.2677C807.439 40.8899 807.755 41.7196 807.832 42.6608C808.065 45.5023 806.115 49.3716 805.818 51.7204C805.685 52.759 806.116 53.5973 806.766 54.1222C806.446 55.4613 806.103 56.7944 805.714 58.1076C805.561 58.6239 806.071 59.2413 806.554 58.8312C808.201 57.437 809.672 55.8131 811.45 54.605C812.783 53.701 814.282 52.2647 814.893 50.6768C816.069 47.621 816.332 43.2337 818.201 40.4805C818.592 40.2375 818.934 39.8824 819.163 39.3932C819.171 39.3741 819.178 39.3557 819.187 39.3377C819.212 39.3155 819.232 39.2904 819.256 39.2688C821.083 37.6875 823.182 36.6675 824.84 34.8328C825.506 34.0959 825.78 33.262 825.799 32.4083C825.804 32.1984 825.794 31.9887 825.77 31.7776C825.707 31.2397 825.559 30.7006 825.346 30.1817C824.964 29.247 824.389 28.3739 823.802 27.6778C822.932 26.648 821.667 26.4542 820.641 26.8346C820.651 26.8076 820.661 26.7807 820.673 26.7549C820.908 26.6295 821.122 26.5727 821.299 26.5478C821.282 26.545 821.277 26.5458 821.259 26.5427C820.75 26.4626 820.245 26.3467 819.74 26.2387C818.445 25.961 817.171 25.6007 815.858 25.4489C812.842 25.101 809.902 24.583 806.92 24.0077C804.656 23.5719 802.896 23.014 800.471 23.1909C799.287 23.2783 798.113 23.4317 796.947 23.6203C796.292 23.5705 795.636 23.5343 794.98 23.5055C793.254 23.839 791.573 24.3504 789.958 25.0516C789.498 25.1535 789.04 25.2552 788.579 25.3543C787.709 25.5439 786.791 26.0998 786.378 26.9698C786.256 27.2281 786.174 27.5117 786.156 27.8236C785.818 33.8829 788.621 38.8358 791.902 43.5484C794.7 47.5662 799.576 52.6254 798.134 58.1195ZM811.929 40.6165C812.465 38.8612 813.174 37.1855 813.781 35.465C814.368 33.8062 814.927 31.805 816.27 30.7098C818.134 29.1935 820.042 32.0525 818.786 33.8079C818.303 34.4824 817.834 34.6286 817.179 35.0456C816.52 35.4658 815.891 36.0323 815.334 36.5979C814.145 37.8006 813.313 39.3073 812.692 40.9063C812.517 41.3596 811.785 41.0842 811.929 40.6165ZM806.532 29.7208C806.699 26.8466 810.612 28.2514 809.42 30.4188C808.425 32.2254 807.994 34.2627 807.489 36.2908C807.297 37.0586 806.083 37.0171 806.125 36.1612C806.229 34.0117 806.406 31.8464 806.532 29.7208ZM799.918 26.7885C800.453 27.6076 800.57 28.9426 800.682 29.9303C800.823 31.162 801.076 32.3745 801.21 33.6067C801.286 34.3088 800.193 34.4891 800.057 33.7989C799.802 32.5129 799.513 31.243 799.003 30.0432C798.639 29.1893 798.148 28.3089 798.047 27.3787C797.924 26.2454 799.393 25.9837 799.918 26.7885ZM792.442 28.4464C793.096 29.0961 793.694 29.8303 794.206 30.6093C794.766 31.4557 795.121 32.3645 795.533 33.2973C795.78 33.8583 795.032 34.4756 794.654 33.9392C793.667 32.5374 792.197 31.421 790.818 30.4794C789.294 29.4381 791.071 27.0824 792.442 28.4464Z" fill="#0C0C22"/>
<path d="M863.789 61.5097C863.093 59.8407 861.945 58.5899 860.893 56.9995C860.693 56.6953 860.471 56.4093 860.244 56.1285C860.198 56.0723 860.153 56.0139 860.104 55.9557C858.304 53.8186 855.862 52.274 854.397 49.8424C854.295 49.6756 854.205 49.5047 854.117 49.3334C853.884 48.8684 853.695 48.3971 853.521 47.9285C852.954 46.3997 852.511 44.9249 850.93 44.0027C850.921 43.9983 850.913 43.9948 850.905 43.9895C849.009 42.89 846.955 42.4129 844.879 42.384C842.279 42.3489 839.645 43.0152 837.239 44.0543C834.124 45.3998 831.314 47.8599 828.952 50.3524C827.616 51.7636 826.206 53.0979 824.811 54.4482C820.363 56.52 815.42 57.2027 811.69 60.9177C811.464 61.1434 811.341 61.3913 811.298 61.6402C811.284 61.723 811.278 61.8056 811.28 61.8877C811.317 62.8727 812.53 63.7496 813.504 63.1331C813.831 62.9276 814.155 62.7413 814.478 62.5637C817.935 60.6561 821.292 60.2178 825.173 59.3307C825.203 59.325 825.231 59.3155 825.259 59.3092C829.462 58.3035 833.246 54.0576 837.464 52.576C838.427 52.2366 839.414 52.0424 840.434 52.0651C840.491 52.0658 840.547 52.0682 840.603 52.0709C840.945 52.087 841.29 52.1242 841.641 52.1911C841.66 52.2893 841.688 52.3873 841.712 52.4852C841.816 52.9207 841.961 53.3584 842.138 53.7994C843.107 56.2049 844.994 58.6746 846.153 61.0248C846.205 61.1273 846.255 61.2298 846.303 61.3318C846.388 61.5134 846.468 61.694 846.543 61.8737C846.303 62.1053 846.071 62.3189 845.841 62.5221C845.778 62.5786 845.716 62.6286 845.655 62.6837C843.016 64.9742 841.058 65.4507 838.186 65.4593C837.196 65.4634 836.098 65.4119 834.82 65.3619C834.623 65.3535 834.426 65.3365 834.229 65.3235C831.206 65.1325 828.229 64.4501 825.188 64.3879C824.361 64.3715 823.695 64.4051 823.164 64.48C819.874 64.9424 822.003 66.9893 825.747 68.4569C828.288 69.4532 830.905 70.2485 833.52 70.9925C838.744 72.4796 844.074 73.5734 849.255 75.223C851.898 76.0644 854.823 78.0772 857.614 78.1258C860.551 78.1782 862.342 75.3682 863.173 72.7233C864.118 69.7109 864.829 66.5195 864.31 63.3466C864.201 62.6694 864.019 62.0671 863.789 61.5097ZM845.8 52.9782C844.611 52.8596 844.613 50.9042 845.797 50.7716C846.533 50.6879 846.779 50.5068 847.394 49.9412C847.896 49.4815 848.71 49.6377 849.099 50.1699C849.534 50.7637 849.366 51.4978 848.881 51.9788C848.029 52.8249 846.944 53.092 845.8 52.9782ZM848.804 59.5842C847.629 59.2722 847.994 57.2759 849.187 57.3868C850.112 57.4738 851.012 57.4948 851.925 57.2839C852.545 57.1406 853.229 56.8878 853.862 56.9177C854.834 56.9661 855.665 58.3205 854.976 59.2196C853.548 61.0901 850.661 60.0774 848.804 59.5842ZM856.156 71.7097C853.951 71.1419 852.14 69.4582 850.04 68.5976C848.82 68.0973 849.334 66.1638 850.625 66.5166C852.783 67.1038 854.827 68.2295 856.888 69.1078C858.403 69.7538 857.781 72.1276 856.156 71.7097Z" fill="#0C0C22"/>
<path d="M851.382 85.2771C851.342 85.2078 851.303 85.1347 851.261 85.0668C844.028 73.2503 827.782 76.4182 816.923 72.6483C815.552 72.1725 814.799 74.2532 816.122 74.8647C821.058 77.1418 826.343 78.4724 831.422 80.3313C834.777 81.5569 839.328 83.5228 841.622 86.903C841.356 86.8756 841.087 86.8575 840.814 86.8508C839.247 86.8124 838.101 88.0423 838.262 89.7215C838.269 89.7913 838.282 89.8576 838.291 89.9277C837.753 90.2004 837.305 90.6798 837.128 91.256C837.068 91.4534 836.98 91.6635 836.876 91.882C836.809 92.0206 836.736 92.1628 836.654 92.3093C835.916 93.6296 834.632 95.2289 833.781 96.7956C832.947 95.596 832.106 94.4018 831.258 93.2079C827.751 88.2625 824.108 83.9545 819.293 80.5197C818.366 79.0654 817.376 77.6644 816.256 76.3742C814.604 74.468 811.208 76.3746 812.444 78.8801C812.993 79.9933 813.589 81.1592 814.228 82.3251C818.885 91.6304 823.439 102.527 832.454 107.23C833.077 107.555 833.711 107.435 834.216 107.073C834.43 107.168 834.658 107.238 834.894 107.269C835.369 107.333 835.851 107.33 836.335 107.283C836.777 107.5 837.248 107.655 837.751 107.724C839.242 107.931 840.167 107.061 840.735 105.843C841.649 105.396 842.523 104.91 843.324 104.484C846.672 102.71 849.904 100.627 852.992 98.3872C855.618 96.483 857.128 94.2733 855.702 90.6989C854.934 88.7796 853.321 86.6562 851.382 85.2771ZM831.777 102.979C831.596 103.506 831.229 103.732 830.708 103.666C829.815 103.553 829.469 102.322 829.284 101.521C829.087 100.671 829.031 99.8245 829.086 98.9532C829.161 97.7436 830.792 97.6598 830.876 98.896C830.928 99.6555 831.066 100.425 831.323 101.138C831.546 101.758 832.015 102.282 831.777 102.979ZM838.482 103.155C838.097 103.592 837.386 103.645 836.978 103.209C836.231 102.409 835.855 101.416 835.586 100.339C835.265 99.0387 837.001 98.5239 837.452 99.7483C837.691 100.401 838.037 101.051 838.434 101.562C838.801 102.035 838.916 102.663 838.482 103.155ZM842.758 99.6115C842.17 98.9897 841.87 98.0424 841.456 97.2859C840.975 96.4064 840.437 95.6325 839.814 94.8609C839.462 94.4259 840.051 93.7108 840.47 94.1098C841.222 94.8268 842.01 95.4363 842.819 96.0772C843.589 96.6845 844.436 97.244 844.899 98.1618C845.63 99.6078 843.726 100.634 842.758 99.6115ZM848.946 91.3896C847.994 91.0226 847.018 90.9437 845.996 90.8674C844.793 90.7771 844.782 88.6683 845.995 88.6084C847.21 88.5467 848.452 88.5102 849.663 88.6265C851.589 88.8123 850.881 92.1394 848.946 91.3896Z" fill="#0C0C22"/>
<path d="M806.675 88.8171C805.731 85.6243 804.838 82.3303 804.736 78.9651C804.689 77.4166 802.609 77.3508 802.076 78.5883C800.914 81.2923 799.722 84.1921 798.701 87.1843C797.882 85.3188 795.518 85.4247 794.684 87.2185C793.341 90.107 791.492 91.7214 789.231 88.6699C788.536 87.7318 787.405 87.579 786.504 88.0743C787.095 85.5522 787.856 83.0998 789.196 81.0208C789.665 80.9126 790.09 80.8045 790.432 80.6847C793.136 79.7347 795.158 77.3507 796.718 74.7186C797.307 74.4831 797.511 73.9481 797.439 73.432C797.943 72.4775 798.395 71.5167 798.799 70.6022C799.46 69.1004 797.451 67.9996 796.513 69.2023C795.131 70.9695 793.272 72.2777 791.204 73.3257C790.948 73.4159 790.69 73.5062 790.436 73.6043C789.717 73.0857 788.804 72.9099 787.862 73.3996C786.879 73.9098 785.903 74.4307 784.926 74.9565C784.312 74.5907 783.54 74.4978 782.675 74.8976C774.989 78.6927 767.182 80.643 761.07 87.3055C760.396 88.0423 760.249 88.857 760.434 89.5985C758.566 92.0038 757.542 94.8488 758.458 98.1404C759.519 101.953 764.609 102.943 767.726 103.625C772.485 104.665 775.743 106.004 779.015 109.998C781.773 113.368 784.656 115.716 788.89 116.489C793.082 117.252 797.418 115.531 801.646 114.787C802.149 114.699 802.649 114.623 803.148 114.569C804.977 114.368 806.778 114.43 808.533 115.043C809.543 115.397 810.881 115.265 811.513 114.204C814.294 109.549 811.763 103.398 809.873 98.921C808.525 95.7219 807.664 92.1623 806.675 88.8171ZM769.538 92.972C769.199 93.4196 769.077 93.8561 768.656 94.2376C767.833 94.9859 766.162 94.2577 766.661 92.9745C767.181 91.6375 768.637 90.5892 769.832 89.9263C771.169 89.187 772.543 88.511 773.897 87.7984C774.385 87.5418 774.767 88.2752 774.304 88.5819C773.041 89.422 771.941 90.3107 770.884 91.4268C770.417 91.92 769.95 92.4266 769.538 92.972ZM777.202 94.1528C776.321 95.4533 775.799 96.8712 775.398 98.4069C775.107 99.5301 775.036 101.026 774.246 101.878C773.519 102.662 772.225 102.128 772.033 101.113C771.784 99.7778 772.919 98.123 773.572 97.0407C774.364 95.7279 775.216 94.4124 776.215 93.2668C776.721 92.6873 777.63 93.5211 777.202 94.1528ZM785.421 96.6248C783.818 99.6375 783.304 102.927 782.89 106.306C782.637 108.358 779.381 107.626 779.955 105.677C780.983 102.195 782.386 98.8701 784.3 95.8349C784.731 95.1525 785.795 95.9202 785.421 96.6248ZM791.117 109.842C790.396 106.524 791.382 103.042 791.007 99.6791C790.907 98.7996 792.079 98.442 792.3 99.3471C793.033 102.359 792.867 105.787 793.958 108.683C794.8 110.919 791.605 112.094 791.117 109.842ZM801.543 106.653C800.532 105.647 800.245 103.657 800.013 102.282C799.742 100.685 799.628 99.0877 799.575 97.4669C799.537 96.2975 801.234 96.2637 801.449 97.3413C801.985 100.005 803.071 102.37 804.045 104.853C804.722 106.579 802.8 107.904 801.543 106.653Z" fill="#0C0C22"/>
<path d="M779.286 70.4175C783.041 68.7361 786.892 67.702 790.772 66.4554C792.732 65.8255 792.988 62.4038 790.595 62.3527C789.554 62.33 788.497 62.3993 787.437 62.5175C787.608 61.93 787.367 61.2434 786.607 61.2307C784.191 61.1935 781.819 60.7835 779.401 60.9398C776.734 61.1138 774.404 61.9585 771.888 62.8601C770.849 63.2334 769.779 63.6366 768.687 64.0277C768.69 63.8535 768.681 63.6875 768.66 63.5277C768.66 63.5157 768.655 63.5032 768.654 63.4902C768.538 62.6952 768.118 62.0728 767.501 61.6588C767.248 61.4894 766.962 61.3544 766.649 61.2582C767.014 61.0059 767.328 60.764 767.602 60.5106C768.483 59.702 768.953 58.7866 769.28 57.1127C769.28 57.1101 769.28 57.1066 769.282 57.1041C769.335 56.8334 769.267 56.284 769.163 55.608C769.015 54.6458 768.794 53.431 768.729 52.3932C768.718 52.1967 768.713 52.0083 768.713 51.8277C768.715 51.3785 768.764 50.992 768.881 50.7057C768.999 50.4165 769.181 50.2243 769.464 50.1945C770.349 50.1013 770.952 49.5702 771.273 48.8727C771.664 49.0412 772.052 49.2152 772.439 49.3908C775.958 52.2905 780.013 54.7227 783.244 57.4396C784.136 58.1902 785.195 58.0069 785.986 57.3969C786.085 57.5645 786.187 57.7295 786.285 57.8983C786.867 58.9002 788.54 58.5713 788.273 57.237C787.114 51.4751 783.988 46.0334 780.579 41.465C779.027 39.3849 777.141 37.2194 774.986 35.5621C774.095 33.5944 772.619 32.0805 770.282 31.9691C770.119 31.9619 769.96 31.9707 769.8 31.9757C768.744 32.0102 767.73 32.3078 766.766 32.7899C766.749 32.7926 766.731 32.7904 766.711 32.7931C765.98 32.8725 765.431 33.2914 765.054 33.8574C764.445 34.3093 763.86 34.8124 763.303 35.3454C762.195 36.4042 761.194 37.5665 760.321 38.605C756.786 42.8228 753.82 47.5617 751.286 52.517C751.173 52.7346 751.059 52.9581 750.939 53.1862C750.137 53.8527 749.349 54.5593 748.58 55.3214C745.13 58.7376 743.89 63.7707 743.748 68.6358C743.658 71.6551 744.369 75.0779 746.336 77.3371C746.133 78.9414 747.08 80.7989 748.773 80.7144C755.914 80.3584 762.409 78.1869 768.954 75.2426C772.417 73.6826 775.818 71.9699 779.286 70.4175ZM771.977 36.84C773.195 38.9858 774.657 41.0971 775.557 43.4407C775.878 44.2783 774.711 44.8698 774.351 44.0387C773.862 42.9129 773.289 41.7916 772.525 40.8466C771.745 39.8827 770.986 39.2701 769.999 38.5886C768.307 37.4235 770.77 34.7168 771.977 36.84ZM763.826 40.4056C763.874 40.1504 763.953 39.9684 764.095 39.759C764.434 39.2596 765.096 39.1532 765.605 39.3723C767.492 40.1846 769.014 42.3072 770.159 44.017C770.589 44.6589 769.732 45.2826 769.252 44.7265C767.918 43.1827 766.254 42.767 764.567 41.8402C764.075 41.5711 763.714 41.0173 763.826 40.4056ZM755.038 49.6081C758.11 48.9326 761.805 49.988 764.611 51.3051C765.256 51.6074 765.059 52.8071 764.303 52.6386C762.791 52.3007 761.336 52.2374 759.798 52.1939C758.266 52.1495 756.581 52.3652 755.093 52.0011C753.874 51.7033 753.712 49.9003 755.038 49.6081ZM750.771 60.4464C754.019 59.1861 757.468 58.6426 760.786 57.637C761.694 57.3618 762.364 58.8445 761.463 59.29C758.248 60.8785 754.852 61.9503 751.542 63.2882C749.866 63.9653 749.082 61.1015 750.771 60.4464ZM753.722 71.2907C752.761 71.9472 752.1 72.9119 751.129 73.523C750.178 74.1223 748.585 73.2548 749.02 71.9455C750.664 67.0027 757.974 67.8947 761.285 64.9504C761.805 64.4874 762.42 65.3713 762.019 65.876C760.654 67.5953 758.974 68.7423 757.036 69.6202C755.918 70.1262 754.746 70.5886 753.722 71.2907ZM765.937 70.1855C765.17 70.9393 764.351 71.6205 763.617 72.415C762.957 73.1277 762.356 73.895 761.697 74.606C760.409 75.9976 758.558 73.8878 759.741 72.4635C761.121 70.8021 763.421 70.2098 765.156 69.06C765.8 68.6339 766.485 69.6494 765.937 70.1855Z" fill="#0C0C22"/>
<path d="M812.692 40.9063C813.313 39.3073 814.145 37.8003 815.333 36.5979C815.891 36.0326 816.52 35.466 817.179 35.0456C817.834 34.6283 818.302 34.4824 818.786 33.8079C820.042 32.0525 818.133 29.1935 816.27 30.7098C814.926 31.805 814.368 33.8062 813.781 35.465C813.173 37.1855 812.464 38.8612 811.929 40.6165C811.785 41.0842 812.517 41.3596 812.692 40.9063Z" fill="white"/>
<path d="M807.489 36.2905C807.994 34.2624 808.425 32.2254 809.42 30.4186C810.612 28.2514 806.699 26.8464 806.532 29.7205C806.406 31.8464 806.229 34.0114 806.125 36.1609C806.084 37.0169 807.297 37.0583 807.489 36.2905Z" fill="white"/>
<path d="M799.003 30.0432C799.513 31.2433 799.802 32.513 800.057 33.799C800.193 34.4894 801.286 34.3089 801.211 33.6067C801.075 32.3745 800.823 31.1617 800.682 29.9303C800.57 28.9426 800.453 27.6076 799.918 26.7885C799.393 25.9837 797.925 26.2451 798.048 27.3787C798.148 28.3089 798.64 29.1893 799.003 30.0432Z" fill="white"/>
<path d="M794.654 33.9389C795.032 34.4755 795.78 33.858 795.533 33.297C795.121 32.3639 794.766 31.4554 794.206 30.609C793.694 29.83 793.096 29.0957 792.442 28.4461C791.071 27.0821 789.294 29.4378 790.818 30.4788C792.197 31.421 793.667 32.5371 794.654 33.9389Z" fill="white"/>
<path d="M769.999 38.5886C770.986 39.2701 771.745 39.8827 772.525 40.8467C773.289 41.7917 773.863 42.913 774.351 44.0387C774.711 44.8698 775.878 44.2783 775.557 43.4407C774.657 41.0968 773.195 38.9858 771.977 36.84C770.771 34.7168 768.307 37.4235 769.999 38.5886Z" fill="white"/>
<path d="M764.567 41.8402C766.254 42.767 767.918 43.1827 769.252 44.7266C769.732 45.2826 770.589 44.6589 770.159 44.017C769.014 42.3069 767.492 40.1846 765.605 39.3723C765.096 39.1535 764.434 39.2597 764.095 39.7591C763.953 39.9682 763.874 40.1504 763.826 40.4056C763.714 41.0174 764.075 41.5711 764.567 41.8402Z" fill="white"/>
<path d="M755.093 52.0011C756.581 52.3649 758.266 52.1496 759.798 52.1939C761.335 52.2375 762.79 52.3008 764.303 52.6386C765.059 52.8074 765.256 51.6077 764.611 51.3051C761.805 49.9881 758.11 48.9326 755.037 49.6081C753.712 49.9003 753.874 51.7033 755.093 52.0011Z" fill="white"/>
<path d="M751.542 63.2882C754.852 61.9502 758.248 60.8785 761.463 59.29C762.365 58.8445 761.694 57.3618 760.787 57.637C757.468 58.6426 754.019 59.1861 750.771 60.4464C749.083 61.1015 749.866 63.9653 751.542 63.2882Z" fill="white"/>
<path d="M762.02 65.8763C762.421 65.3716 761.806 64.4877 761.286 64.9506C757.974 67.895 750.664 67.0029 749.02 71.9458C748.585 73.2547 750.179 74.1226 751.13 73.5233C752.101 72.9122 752.762 71.9475 753.722 71.291C754.747 70.5889 755.918 70.1265 757.036 69.6205C758.974 68.7426 760.654 67.5955 762.02 65.8763Z" fill="white"/>
<path d="M765.156 69.0597C763.421 70.2096 761.121 70.8018 759.741 72.4633C758.558 73.8875 760.41 75.9973 761.698 74.6058C762.356 73.895 762.957 73.1275 763.617 72.4147C764.352 71.6202 765.171 70.939 765.938 70.1852C766.485 69.6494 765.8 68.6339 765.156 69.0597Z" fill="white"/>
<path d="M773.897 87.7983C772.543 88.5106 771.168 89.187 769.832 89.9263C768.637 90.5892 767.18 91.6375 766.661 92.9745C766.163 94.2576 767.833 94.9859 768.656 94.2376C769.077 93.8561 769.199 93.4198 769.537 92.972C769.95 92.4265 770.417 91.9203 770.883 91.4267C771.941 90.3106 773.04 89.422 774.304 88.5819C774.766 88.2752 774.385 87.5418 773.897 87.7983Z" fill="white"/>
<path d="M776.216 93.2664C775.217 94.412 774.364 95.7275 773.572 97.0403C772.92 98.1226 771.785 99.7775 772.034 101.112C772.226 102.128 773.519 102.661 774.247 101.878C775.037 101.026 775.107 99.53 775.399 98.4065C775.8 96.8708 776.322 95.4529 777.202 94.1524C777.631 93.521 776.721 92.6872 776.216 93.2664Z" fill="white"/>
<path d="M784.3 95.8345C782.386 98.8697 780.983 102.195 779.955 105.677C779.381 107.625 782.637 108.358 782.89 106.306C783.304 102.926 783.818 99.6375 785.421 96.6245C785.795 95.9202 784.731 95.1525 784.3 95.8345Z" fill="white"/>
<path d="M792.3 99.3471C792.079 98.4419 790.907 98.7996 791.007 99.6791C791.382 103.042 790.396 106.524 791.117 109.841C791.605 112.094 794.8 110.919 793.958 108.683C792.867 105.787 793.033 102.359 792.3 99.3471Z" fill="white"/>
<path d="M801.449 97.3413C801.234 96.2637 799.538 96.2974 799.575 97.4668C799.628 99.0877 799.742 100.685 800.013 102.282C800.245 103.657 800.532 105.647 801.543 106.653C802.8 107.904 804.722 106.579 804.045 104.852C803.071 102.369 801.985 100.005 801.449 97.3413Z" fill="white"/>
<path d="M830.876 98.896C830.792 97.6601 829.162 97.7436 829.086 98.9532C829.032 99.8245 829.087 100.671 829.285 101.521C829.469 102.322 829.815 103.553 830.708 103.666C831.229 103.732 831.597 103.506 831.777 102.979C832.016 102.282 831.547 101.758 831.324 101.137C831.065 100.424 830.928 99.6552 830.876 98.896Z" fill="white"/>
<path d="M837.452 99.7483C837.001 98.5239 835.265 99.0387 835.587 100.339C835.855 101.416 836.231 102.409 836.978 103.21C837.386 103.645 838.097 103.592 838.482 103.155C838.916 102.663 838.801 102.035 838.434 101.562C838.037 101.051 837.691 100.401 837.452 99.7483Z" fill="white"/>
<path d="M842.819 96.0772C842.01 95.4364 841.222 94.8269 840.47 94.1098C840.052 93.7109 839.462 94.4259 839.814 94.8609C840.437 95.6323 840.975 96.4062 841.457 97.2859C841.87 98.0425 842.17 98.99 842.758 99.6116C843.726 100.634 845.63 99.6078 844.899 98.1621C844.436 97.2443 843.589 96.6848 842.819 96.0772Z" fill="white"/>
<path d="M849.663 88.6265C848.452 88.5102 847.21 88.5468 845.995 88.6084C844.782 88.6684 844.793 90.7771 845.996 90.8674C847.019 90.944 847.995 91.0227 848.946 91.3896C850.881 92.1394 851.589 88.8123 849.663 88.6265Z" fill="white"/>
<path d="M856.887 69.1081C854.827 68.2298 852.783 67.1041 850.625 66.5169C849.334 66.1641 848.82 68.0977 850.04 68.5979C852.14 69.4582 853.951 71.1422 856.156 71.7101C857.781 72.1276 858.403 69.7539 856.887 69.1081Z" fill="white"/>
<path d="M854.977 59.2199C855.665 58.3209 854.834 56.9664 853.863 56.9181C853.23 56.8881 852.546 57.1407 851.926 57.2842C851.012 57.4952 850.113 57.4739 849.188 57.3872C847.995 57.2763 847.629 59.2726 848.805 59.5846C850.661 60.0774 853.548 61.0902 854.977 59.2199Z" fill="white"/>
<path d="M849.098 50.1697C848.71 49.6375 847.896 49.4812 847.394 49.941C846.779 50.5065 846.533 50.6876 845.797 50.7713C844.613 50.9039 844.611 52.8593 845.8 52.9779C846.944 53.0917 848.029 52.8246 848.881 51.9782C849.366 51.4976 849.534 50.7635 849.098 50.1697Z" fill="white"/>
<path d="M473.716 76.4113C473.406 74.8547 472.931 73.3512 472.34 71.8893C472.024 71.11 471.668 70.3471 471.282 69.5923C470.143 67.3619 468.712 65.2392 467.079 63.2039C466.623 62.6347 466.151 62.074 465.666 61.519C465.226 61.0158 464.779 60.5188 464.318 60.0282C463.826 59.5045 463.324 58.985 462.812 58.4716C461.957 57.6157 461.074 56.7744 460.174 55.9475C459.695 55.5083 459.21 55.0732 458.722 54.6411C457.831 53.8543 456.934 53.0771 456.022 52.3141C455.462 51.8419 454.9 51.3768 454.335 50.9142C453.917 50.5696 453.5 50.2315 453.08 49.8911C452.631 49.5285 452.186 49.1652 451.739 48.8064C451.283 48.4414 450.829 48.0761 450.378 47.7156C450.294 47.6465 450.21 47.5773 450.126 47.5096C449.53 47.0312 448.94 46.5519 448.357 46.0701C447.606 45.4495 446.866 44.8248 446.138 44.1976C445.693 43.8139 445.254 43.4285 444.818 43.0428C436.411 35.6025 429.753 27.6348 426.039 17.5297C424.894 14.4138 423.038 8.55561 418.013 8.26554C417.026 8.20902 416.126 8.40887 415.296 8.77282C415.334 7.85938 415.379 6.94797 415.443 6.03657C415.47 5.65084 415.193 5.36417 414.826 5.19122C414.803 4.94473 414.79 4.69722 414.765 4.45073C414.608 2.91663 412.698 2.6538 411.621 3.40553C410.679 3.03205 409.343 3.43855 409.327 4.58725C409.297 6.61399 409.084 8.63732 408.935 10.66C408.594 10.026 408.24 9.39585 407.864 8.7752C407.422 8.04118 405.983 7.57918 405.296 8.42487C403.361 10.8013 402.653 12.9758 401.335 15.5585C400.891 16.431 400.063 17.3887 399.139 18.2794C398.953 18.4588 398.765 18.6362 398.572 18.8084C398.171 18.6631 397.678 18.693 397.302 19.0427C397.277 19.0651 397.252 19.088 397.225 19.1108C396.701 19.5963 396.156 20.0675 395.616 20.5417C394.979 21.1045 394.337 21.6615 393.683 22.2086C393.228 22.5923 392.771 22.9746 392.309 23.3518C391.76 23.7992 391.204 24.2408 390.648 24.681C389.759 25.381 388.865 26.0738 387.96 26.7584C387.416 27.1711 386.871 27.5844 386.32 27.9926C385.719 28.4393 385.109 28.8825 384.5 29.3258C384.001 29.6887 383.505 30.0537 383.003 30.4156C382.668 30.657 382.33 30.895 381.994 31.1364C381.499 31.4887 381.007 31.8425 380.513 32.1938C379.886 32.6412 379.258 33.0879 378.628 33.5345C378.085 33.9189 377.543 34.3036 377.001 34.6894C376.831 34.8092 376.665 34.9294 376.495 35.0492C376.034 35.3761 375.576 35.7039 375.118 36.0321C373.698 37.0457 372.287 38.0633 370.887 39.0942C370.309 39.5211 369.735 39.9549 369.161 40.3869C367.793 41.4151 366.441 42.4552 365.118 43.5194C364.672 43.8783 364.236 44.2463 363.796 44.6103C362.262 45.8774 360.765 47.1753 359.322 48.518C358.866 48.9426 358.419 49.3739 357.975 49.8056C356.242 51.4892 354.594 53.248 353.05 55.0936C352.932 55.2339 352.807 55.37 352.689 55.512C352.608 55.6121 352.519 55.7057 352.438 55.8048C352.154 56.1565 351.877 56.5119 351.603 56.8701C351.246 57.3328 350.899 57.8009 350.564 58.2731C349.91 59.1927 349.293 60.1289 348.722 61.0815C348.449 61.5333 348.189 61.9868 347.937 62.4447C347.381 63.4572 346.88 64.4881 346.428 65.5316C346.108 66.2718 345.818 67.0205 345.555 67.7753C344.348 71.254 343.781 74.8687 344.078 78.5412C344.831 87.8063 352.317 95.6872 360.25 101.81C367.927 107.733 376.479 113.601 386.905 115.751C390.231 116.437 393.706 116.828 397.24 117.058C397.139 117.465 397.054 117.882 396.975 118.372C396.952 118.508 396.955 118.647 396.966 118.783C396.413 119.706 395.959 120.739 395.991 121.688C396.014 122.428 396.976 122.582 397.484 122.197C397.563 123.298 397.856 124.373 398.352 125.255C398.854 126.154 399.348 127.032 399.834 127.906C399.598 128.149 399.369 128.393 399.124 128.637C395.991 131.769 393.513 134.819 392.595 138.848C392.497 139.273 393.348 139.428 393.5 139.015C394.841 135.308 397.683 132.313 400.639 129.385C401.465 130.931 402.234 132.497 402.894 134.18C403.15 134.835 401.218 136.507 400.718 137.5C399.893 139.142 400.392 141.292 401.469 142.735C401.817 143.201 402.608 142.983 402.56 142.444C402.356 140.217 402.002 137.947 403.507 136.054C403.554 138.05 403.985 140.005 404.856 141.641C405.004 141.92 405.437 141.773 405.541 141.564C407.597 137.46 405.993 132.959 408 128.849C408.987 130.096 409.936 131.346 410.713 132.651C409.922 135.925 409.729 139.223 410.117 142.556C410.135 142.712 410.446 142.691 410.451 142.537C410.525 139.968 411.129 137.459 411.848 134.965C412.524 136.747 412.773 138.675 412.284 140.869C412.157 141.452 413.193 141.634 413.382 141.064C414.436 137.856 414.146 135.089 412.64 132.299C412.983 131.171 413.318 130.042 413.611 128.909C413.699 128.564 413.79 128.211 413.881 127.853C416.333 130.14 418.266 132.643 418.64 135.837C418.704 136.366 419.781 136.34 419.788 135.806C419.843 131.499 417.284 128.556 414.362 125.766C414.502 125.069 414.616 124.364 414.684 123.659C415.936 126.445 417.442 129.401 419.545 131.821C419.779 132.088 420.208 131.855 420.26 131.61C420.766 129.176 419.793 126.727 418.731 124.459C418.311 123.56 417.626 122.563 416.977 121.533C417.014 121.547 417.045 121.561 417.082 121.574C422.962 123.9 425.589 127.143 423.089 132.481C422.801 133.093 423.962 133.379 424.264 132.787C426.14 129.084 425.58 125.933 423.674 123.199C424.915 123.92 425.927 124.823 426.6 125.99C428.474 129.23 427.578 133.161 426.616 136.485C425.656 139.809 424.987 143.271 423.688 146.496C423.415 147.166 424.663 147.564 424.942 146.893C427.692 140.281 432.152 133.298 429.205 126.052C427.9 122.837 425.716 119.111 421.684 117.661C421.51 117.598 421.335 117.545 421.158 117.489C436.87 117.554 453.691 115.873 464.485 105.584C472.524 97.9209 475.681 86.2082 473.716 76.4113ZM394.28 24.6881C394.379 25.0596 394.468 25.4347 394.577 25.8038C395.08 27.5316 395.711 30.292 397.882 31.1445C397.072 32.0583 396.224 32.9581 395.353 33.8563C395.412 32.4767 394.527 30.7343 394.209 29.6693C393.821 28.3732 393.447 27.07 393.061 25.7711C393.468 25.4099 393.876 25.0511 394.28 24.6881ZM391.199 27.4247C391.408 28.5155 391.612 29.6074 391.828 30.6948C392.079 31.9736 392.15 34.6911 393.983 35.2532C393.425 35.8193 392.862 36.3862 392.302 36.9585C391.687 35.3553 390.421 33.6479 389.881 32.2892C389.505 31.3447 389.165 30.3877 388.836 29.43C389.627 28.763 390.419 28.0992 391.199 27.4247ZM383.917 33.5199C383.976 33.7157 384.03 33.9118 384.089 34.1079C384.706 36.0771 385.294 38.4228 386.762 40.1064C387.456 40.8993 389.268 40.2929 388.735 39.3312C387.444 36.9977 386.43 34.6152 385.527 32.1962C386.038 31.7747 386.55 31.3549 387.061 30.9311C387.304 31.8428 387.562 32.7532 387.841 33.6585C388.283 35.0925 388.855 37.7187 390.386 38.9601C389.236 40.2218 388.177 41.525 387.167 42.8511C386.761 40.981 385.141 38.83 384.479 37.2319C384.046 36.1904 383.629 35.1452 383.211 34.1007C383.448 33.9077 383.681 33.714 383.917 33.5199ZM402.054 122.386C401.941 121.874 401.873 121.34 401.898 120.812C402.211 120.755 402.513 120.71 402.803 120.68C403.084 121.513 403.449 122.311 403.873 123.08C403.751 123.264 403.624 123.447 403.49 123.626C403.098 124.15 402.698 124.654 402.292 125.151C402.272 124.227 402.254 123.301 402.054 122.386ZM405.33 128.458C404.769 129.432 404.334 130.526 404.028 131.677C403.642 130.669 403.152 129.673 402.791 128.733C402.646 128.35 402.553 127.962 402.483 127.572C403.295 126.792 404.238 125.95 405.103 125.052C405.532 125.669 405.981 126.275 406.444 126.873C406.037 127.367 405.656 127.889 405.33 128.458ZM407.585 125.61C407.292 125.194 407.017 124.769 406.779 124.321C406.702 124.175 406.591 123.841 406.489 123.428C406.766 123.05 407.006 122.662 407.206 122.268C407.868 122.843 408.556 123.409 409.247 123.968C408.696 124.509 408.131 125.05 407.585 125.61ZM411.346 130.256C410.595 129.244 409.744 128.304 408.932 127.342C408.964 127.302 408.987 127.26 409.018 127.221C409.597 126.478 410.171 125.804 410.718 125.155C411.239 125.575 411.754 125.998 412.263 126.425C412.019 127.711 411.693 128.988 411.346 130.256ZM409.728 121.267C410.454 120.973 411.076 120.521 411.412 119.973C411.684 120.018 411.958 120.063 412.233 120.107C411.854 120.933 411.346 121.668 410.765 122.356C410.409 122 410.064 121.637 409.728 121.267ZM412.609 123.814C412.602 123.909 412.591 124.005 412.582 124.101C412.387 123.919 412.19 123.736 411.997 123.553C412.23 123.241 412.448 122.921 412.655 122.6C412.646 123 412.637 123.404 412.609 123.814ZM429.599 114.415C441.733 109.567 450.163 100.315 450.893 88.8686C450.918 88.4706 450.081 88.427 450.045 88.8229C449.035 99.1622 439.587 107.606 428.566 112.336C435.662 106.421 439.979 97.0838 441.801 90.0513C446.288 72.7309 436.964 58.4757 428.884 43.0309C428.827 42.9216 428.625 42.9853 428.673 43.0966C434.741 56.9784 443.397 70.5449 440.959 85.7095C439.97 91.8595 437.683 98.02 434.036 103.46C430.494 108.742 425.903 112.364 419.415 114.571C417.891 114.546 416.389 114.507 414.912 114.459C417.394 111.648 418.936 108.111 420.599 104.99C422.85 100.772 423.891 96.2037 424.243 91.6344C424.338 90.3713 421.954 90.0724 421.836 91.3563C421.423 95.8411 420.132 99.961 418.272 104.184C416.78 107.575 414.182 110.802 413.313 114.343C413.127 114.336 412.943 114.349 412.769 114.384C411.693 114.343 410.636 114.301 409.601 114.258C404.627 114.05 399.52 113.853 394.554 113.208C392.386 110.307 386.61 108.2 383.523 106.068C378.303 102.465 374.174 98.194 372.214 92.7995C371.912 91.9687 370.438 92.3378 370.481 93.1304C370.753 97.9938 374.995 101.869 379.029 105.15C381.672 107.3 384.6 109.179 387.509 111.079C388.103 111.468 388.725 111.909 389.371 112.34C385.311 111.481 381.42 110.19 377.868 108.182C373.308 105.604 369.159 101.961 365.182 98.8065C360.531 95.1173 356.192 90.9045 353.302 86.1401C351.104 82.5119 350.248 78.8578 350.364 75.2575C351.931 77.4534 353.647 79.695 355.6 81.3591C355.969 81.6747 356.725 81.5436 356.641 81.0261C356.257 78.6351 354.127 76.4865 352.483 74.5503C351.866 73.8265 351.253 73.1037 350.659 72.3748C350.863 71.1921 351.172 70.0175 351.561 68.8545C352.732 70.5724 354.086 72.2951 355.717 73.5456C356.046 73.7972 356.695 73.5695 356.536 73.1725C355.733 71.1434 353.889 69.3781 352.48 67.5965C352.376 67.4634 352.276 67.3286 352.174 67.1944C352.651 66.0212 353.206 64.8592 353.832 63.7133C355.223 65.9579 356.573 68.2543 358.136 70.378C358.476 70.8397 359.279 70.5139 359.159 70.0202C358.442 67.1383 356.652 64.5651 354.844 61.9824C355.087 61.5875 355.336 61.1956 355.593 60.8047C356.771 62.6102 358.143 64.2937 359.767 65.5888C359.917 65.7094 360.164 65.5364 360.083 65.3921C359.157 63.7442 357.689 62.3062 356.521 60.7656C356.358 60.5525 356.213 60.3288 356.059 60.1109C357.297 58.2986 358.681 56.5375 360.153 54.8423C361.29 57.5599 362.54 60.2873 364.518 62.5397C364.867 62.9377 365.623 62.7542 365.525 62.2347C364.949 59.1209 363.336 56.0465 361.739 53.0801C362.943 51.7769 364.189 50.5182 365.448 49.3096C366.013 51.5202 366.21 53.904 367.573 55.8549C367.955 56.4013 368.817 56.0939 368.896 55.5621C369.263 53.0876 368.016 50.4729 367.176 48.1119C367.14 48.0128 367.095 47.9151 367.058 47.815C367.73 47.1923 368.408 46.5744 369.091 45.9612C370.706 49.9153 372.328 53.871 374.386 57.6882C374.479 57.8635 374.817 57.7951 374.744 57.6014C373.199 53.4774 371.482 49.3964 369.808 45.3075C369.999 45.1404 370.187 44.9742 370.377 44.8074C371.455 48.5596 372.75 52.2235 375.075 55.4242C375.608 56.1582 376.94 55.623 376.7 54.8325C375.52 50.9475 374.125 46.9223 372.528 42.9567C373.099 42.4671 373.664 41.971 374.24 41.4856C374.556 42.5587 374.869 43.6315 375.182 44.7036C375.753 46.6561 376.032 48.7948 377.214 50.5659C377.475 50.9567 378.344 50.9155 378.348 50.399C378.369 48.3822 377.412 46.413 376.79 44.4686C376.359 43.1252 375.932 41.7814 375.501 40.4393C375.751 40.231 376.001 40.0247 376.252 39.8187C376.622 41.0436 376.999 42.2683 377.42 43.483C377.783 44.5306 378.392 47.24 380.388 46.9751C380.635 46.9421 380.721 46.6527 380.546 46.5185C380.376 46.3874 380.215 45.2193 380.113 44.9841C379.598 43.7881 379.108 42.59 378.664 41.3753C378.328 40.4577 378.013 39.5371 377.702 38.6155C377.842 38.5011 377.979 38.3833 378.119 38.2679C378.5 39.3958 378.902 40.5146 379.312 41.6207C379.596 42.3796 381.077 47.7162 383.144 46.4664C383.269 46.3922 383.325 46.2417 383.296 46.1202C382.509 42.9703 381.168 39.9028 379.902 36.8077C380.494 36.3239 381.087 35.8405 381.678 35.3567C382.075 36.4652 382.475 37.5727 382.888 38.6778C383.545 40.4356 384.058 43.2246 386.073 44.3236C382.479 49.2551 379.369 54.4083 374.759 58.8757C374.344 59.2802 374.957 59.9665 375.519 59.621C384.249 54.2506 388.711 44.8547 395.28 37.92C401.403 31.4544 406.437 25.5049 406.076 16.9928C406.035 16.0463 404.28 16.1144 404.284 17.0568C404.307 21.8613 402.263 25.7568 399.384 29.3633C398.717 27.5544 397.315 25.7463 396.669 23.9361C396.535 23.5646 396.419 23.1894 396.297 22.8163C396.515 22.612 396.73 22.4037 396.945 22.1977C397.188 22.3267 397.476 22.3812 397.778 22.3192C397.991 23.6079 398.254 24.8866 398.982 26.0537C399.223 26.4405 399.851 26.3063 399.942 25.9134C400.321 24.2724 399.906 22.6103 399.606 20.9707C400.416 20.2098 401.23 19.4529 402.487 19.1353C402.948 19.0199 403.298 18.6321 403.372 18.2549C403.796 16.0875 404.808 13.8388 406.162 11.8652C407.047 13.7357 407.832 15.6378 408.68 17.5205C409.077 18.4009 410.257 18.5967 411.112 18.2133C411.176 19.5517 411.344 20.8784 411.831 22.1354C412.015 22.6076 412.399 22.88 412.836 23.0035C413.093 23.7706 413.365 24.5026 413.628 25.1729C414.801 28.1424 413.853 32.25 413.646 35.3185C413.458 38.1157 413.349 40.855 413.946 43.6192C413.98 43.7802 414.266 43.7315 414.277 43.5834C414.61 38.1242 416.468 32.872 416.795 27.4363C416.883 25.9587 416.808 24.5111 416.611 23.0689C416.777 23.4441 416.942 23.808 417.108 24.1505C419.61 29.3326 422.74 34.5127 423.755 40.0655C423.855 40.6079 424.909 40.4553 424.894 39.9314C424.751 35.3556 422.925 31.279 421.023 27.0196C420.016 24.7566 419.281 22.4575 418.673 20.1025C417.981 17.4299 418.848 14.7492 418.124 12.1491C418.018 11.7634 417.446 11.5533 417.006 11.6718C417.006 11.6109 417.006 11.5513 417.004 11.4903C419.263 10.1697 421.114 14.9579 421.589 15.9932C423.866 20.9666 425.418 25.9138 428.473 30.6543C432.153 36.3579 437.114 41.3627 442.427 46.097C442.336 46.2952 442.264 46.4974 442.232 46.7119C442.173 47.1075 442.754 47.2396 443.101 47.1177C443.21 47.081 443.314 47.0258 443.418 46.9734C444.389 47.8272 445.369 48.6716 446.354 49.5098C445.165 51.3057 443.686 52.9957 443.413 55.0466C443.361 55.4371 444.046 55.7592 444.43 55.5124C446.165 54.3997 447.245 52.7451 448.189 51.0667C448.32 51.1777 448.452 51.288 448.581 51.3976C448.933 51.6935 449.284 51.9924 449.638 52.2893C448.289 54.3218 446.412 56.3911 446.004 58.6384C445.918 59.1253 446.633 59.3268 447.05 59.0817C449.121 57.8588 450.16 55.5287 451.172 53.5925C451.53 53.8976 451.889 54.205 452.245 54.5145C450.203 58.2404 448.559 62.0593 448.009 65.9507C447.937 66.4744 448.835 66.5568 449.064 66.1196C450.795 62.7998 452.447 59.4695 454.103 56.1412C454.949 56.8919 455.786 57.6487 456.603 58.4185C454.602 61.8602 452.125 65.2977 451.11 69.0247C450.977 69.5153 451.879 69.8497 452.231 69.4292C454.633 66.5731 456.133 63.2203 457.902 60.0816C457.952 59.9931 458 59.9042 458.05 59.8167C459.027 60.7809 459.969 61.7645 460.869 62.7709C460.386 63.6772 459.871 64.5733 459.338 65.4608C457.732 68.1198 455.094 70.7311 454.284 73.6338C454.134 74.1741 454.878 74.5534 455.398 74.1833C458.428 72.0211 460.159 68.259 461.845 65.3349C462.01 65.0451 462.169 64.7557 462.328 64.4657C462.7 64.9205 463.061 65.3832 463.412 65.8493C462.48 67.4474 461.475 69.0237 460.447 70.6065C458.619 73.4255 455.944 76.2856 455.549 79.5138C455.493 79.985 456.282 80.2077 456.659 79.9016C459.701 77.4279 461.375 73.5119 463.328 70.4128C463.861 69.5695 464.365 68.7159 464.841 67.8519C465.1 68.2376 465.338 68.6315 465.579 69.0251C464.576 71.2925 463.303 73.4748 461.99 75.6486C460.386 78.3005 458.049 81.146 458.011 84.1597C458.002 84.7916 458.912 85.0228 459.379 84.541C461.865 81.9832 463.167 78.3747 464.873 75.4175C465.637 74.0945 466.318 72.7687 466.903 71.4202C467.339 72.303 467.717 73.2089 468.058 74.1329C464.367 79.1387 460.331 84.6557 460.69 89.91C460.721 90.37 461.488 90.6771 461.824 90.2048C464.254 86.8003 465.665 82.8391 467.792 79.283C468.187 78.6222 468.593 77.9665 468.997 77.3107C469.219 78.3168 469.373 79.345 469.45 80.3915C468.811 82.8411 467.715 85.1249 466.325 87.4128C464.923 89.7163 462.67 92.0011 462.472 94.6175C462.429 95.197 463.289 95.3621 463.747 95.0516C466.215 93.3803 467.577 90.3778 468.883 87.9568C467.694 93.5389 464.895 99.0159 461.023 103.233C453.692 111.213 441.726 113.782 429.599 114.415Z" fill="#0C0C22"/>
<path d="M368.843 75.3399C368.682 78.564 368.081 82.146 369.224 85.2914C369.292 85.478 369.621 85.4967 369.693 85.3006C370.837 82.1582 370.24 78.5865 370.077 75.3617C370.045 74.7172 368.877 74.6855 368.843 75.3399Z" fill="#0C0C22"/>
<path d="M419.789 35.8731C423.199 51.7326 427.269 67.4753 427.714 83.6534C427.725 84.0981 428.562 84.1702 428.569 83.7134C428.816 67.588 426.663 51.2355 421.187 35.6712C420.94 34.9665 419.626 35.1224 419.789 35.8731Z" fill="#0C0C22"/>
<path d="M87.84 49.6255C87.4209 42.9778 86.1829 36.2208 82.5573 30.2439C79.499 25.2005 74.4098 20.8608 67.8993 19.1582C64.7136 18.3248 61.5056 18.6325 58.5361 19.6116C58.0045 19.2591 57.4594 18.9334 56.9009 18.6337C56.2627 18.2924 55.6052 17.9886 54.9149 17.7319C54.7341 17.6647 54.552 17.5987 54.3669 17.5378C54.0529 17.4356 53.7313 17.3447 53.4042 17.2624C52.6725 17.0794 51.9037 16.9474 51.0892 16.8795C50.7664 16.8528 50.439 16.8334 50.1013 16.8267C50.0805 16.826 50.06 16.8279 50.0377 16.8267C49.7519 16.8217 49.4675 16.8242 49.1816 16.8341C48.7789 16.8491 48.3745 16.8814 47.9732 16.9225C46.6121 17.0607 45.2628 17.3324 43.949 17.6524C43.1049 13.3207 40.0065 9.03157 36.7511 5.98789C34.1784 3.58339 30.7794 1.27842 27.068 0.268664C23.158 -0.79436 20.4166 1.45816 18.8599 4.19727C18.2244 5.31458 19.5382 6.37329 20.7306 6.52835C21.0074 6.60732 21.2698 6.71385 21.5184 6.84547C22.8276 7.44269 24.8137 7.14757 25.2314 5.75057C25.3543 5.38306 25.4551 5.01001 25.5307 4.63325C25.3883 3.78945 25.55 3.9258 26.018 5.04188C27.1881 5.55622 28.1672 6.39344 29.0986 7.16444C31.1751 8.88329 32.8797 10.7144 34.1874 12.9135C35.627 15.3342 36.1217 17.6413 35.8255 19.8747C35.5441 19.9793 35.2702 20.0914 35.0005 20.2072C34.4674 20.2072 33.9238 20.2701 33.3981 20.2944C31.3854 20.388 29.5089 20.1482 27.5228 19.9306C24.6171 19.6131 21.6742 20.1225 18.9445 20.9408C16.0699 21.8027 13.1698 23.686 11.4253 26.0352C6.46529 27.2708 3.1314 31.5905 1.56006 36.5083C-1.16667 45.0419 0.126394 54.5857 2.05327 63.1281C5.40331 77.97 12.914 91.8331 17.0534 106.498C17.3272 107.467 17.585 108.441 17.831 109.417C18.1657 110.747 18.4709 112.085 18.7626 113.426C18.933 114.204 19.1003 114.983 19.2573 115.764C19.5786 117.359 19.872 118.959 20.152 120.561C20.4007 121.978 20.6408 123.396 20.8687 124.814C21.1101 126.319 21.3441 127.822 21.5752 129.322C21.6062 129.528 21.6373 129.733 21.67 129.937C21.7145 130.231 21.7605 130.524 21.8048 130.817C22.0537 132.434 22.3127 134.049 22.5763 135.665C22.8384 137.285 23.1052 138.904 23.3761 140.523C23.3688 140.742 23.3553 140.962 23.3627 141.181C23.37 141.354 23.4456 141.498 23.5566 141.607C23.6187 141.975 23.6796 142.344 23.7402 142.711C24.1075 144.89 24.4748 147.069 24.8391 149.248C24.857 149.356 24.8748 149.465 24.8939 149.573C25.1308 150.993 25.3678 152.412 25.6003 153.832C25.6434 154.099 25.6864 154.372 25.7307 154.644C25.75 154.774 25.772 154.904 25.7928 155.034C26.0297 156.469 26.3215 157.903 26.9629 159.006C26.9822 159.038 27.0015 159.071 27.0206 159.103C27.5536 159.976 28.3239 160.626 29.482 160.882C29.7116 160.933 29.9559 160.967 30.218 160.986C30.8802 161.031 31.6458 160.971 32.5403 160.777C32.9535 160.689 33.3622 160.575 33.7666 160.451C35.7453 159.84 37.6204 158.826 39.3932 157.632C39.6744 157.441 39.9544 157.247 40.2314 157.047C40.7616 156.667 41.2814 156.275 41.7925 155.873C42.0962 155.634 42.3967 155.393 42.6943 155.151C43.066 154.847 43.4303 154.542 43.7918 154.238C44.2463 153.851 44.6936 153.468 45.132 153.09C45.7749 152.534 46.3984 151.994 47.0027 151.481C47.1198 151.383 47.2381 151.281 47.3538 151.183C47.6411 150.943 47.927 150.705 48.2143 150.466C48.663 150.09 49.1132 149.713 49.5621 149.339C49.9754 148.995 50.3857 148.651 50.7958 148.307C51.1985 147.968 51.6 147.628 51.9998 147.288C52.4101 146.94 52.8219 146.592 53.2276 146.242C53.8673 145.69 54.4999 145.135 55.1249 144.573C55.5071 144.231 55.8788 143.883 56.2534 143.535C56.6368 143.18 57.019 142.823 57.3951 142.462C57.8365 142.038 58.2749 141.611 58.7043 141.177C58.9576 140.922 59.2004 140.659 59.4491 140.4C59.8536 139.978 60.2578 139.557 60.6488 139.123C61.1909 138.521 61.721 137.908 62.235 137.279C62.2986 137.201 62.3566 137.119 62.4201 137.041C62.7889 136.587 63.1415 136.124 63.4939 135.662C64.1323 134.825 64.7498 133.979 65.3423 133.119C65.6799 132.627 66.0074 132.13 66.3316 131.631C67.0442 130.536 67.7298 129.43 68.3798 128.308C68.6803 127.789 68.9693 127.267 69.2581 126.743C70.8295 123.894 72.2426 120.982 73.5486 118.043C76.6722 111.02 78.851 103.79 80.7052 96.4687C82.6839 88.6493 84.7707 80.8569 86.2325 72.9541C87.6608 65.2404 88.3315 57.428 87.84 49.6255ZM56.7495 20.1714C56.7955 20.1914 56.8412 20.2119 56.8872 20.2325C56.8354 20.2543 56.785 20.2755 56.7346 20.2973C56.7407 20.2555 56.7437 20.2132 56.7495 20.1714ZM54.1458 19.2702C54.3192 19.3151 54.4923 19.3624 54.6642 19.4134C54.5813 20.0388 54.5043 20.664 54.4185 21.2881C54.4111 21.3422 54.4229 21.3946 54.4317 21.4475C54.3162 21.5135 54.1991 21.5808 54.0837 21.6492C54.1104 21.293 54.0676 20.9231 54.0705 20.5607C54.0761 20.1272 54.1059 19.6976 54.1458 19.2702ZM50.8268 21.1261C50.898 20.3501 50.9677 19.5752 51.0178 18.8005C51.668 18.8217 52.3079 18.8951 52.9388 19.006C52.8796 19.4002 52.8276 19.7951 52.7936 20.1942C52.7344 20.9142 52.5759 21.7101 52.9359 22.3684C52.2485 22.8237 51.5942 23.3058 50.9735 23.8051C50.8833 23.7366 50.7884 23.6731 50.6862 23.6176C50.7425 22.7865 50.7513 21.9483 50.8268 21.1261ZM49.7294 18.8293C49.6064 19.4769 49.4717 20.1297 49.3501 20.783C49.3589 20.1404 49.3352 19.4944 49.3012 18.8591C49.445 18.8456 49.5873 18.8392 49.7294 18.8293ZM44.1696 20.0001C45.3795 19.6501 46.6029 19.3375 47.8529 19.0926C47.8204 19.5952 47.7893 20.0972 47.7404 20.5992C47.6531 21.4835 47.4308 22.3705 47.2768 23.2566C46.9183 23.2523 46.5703 23.2361 46.2356 23.2038C46.2326 23.1252 46.2297 23.0481 46.2282 22.9726C46.2236 22.0883 46.2192 21.2044 46.2148 20.3201C46.2119 19.8393 45.3247 19.7831 45.3218 20.2703C45.3174 21.0524 45.313 21.8347 45.3086 22.617C45.3086 22.7503 45.2983 22.8924 45.2863 23.038C44.7782 22.9048 44.2703 22.8001 43.7651 22.7116C44.0331 21.8236 44.1605 20.9163 44.1696 20.0001ZM28.7694 4.07572C31.1599 4.80497 33.6096 7.19405 35.0254 8.57789C37.5076 11.0056 40.2759 14.8271 40.7215 18.4643C40.831 19.3611 40.7985 20.2463 40.5867 21.0962C40.4667 21.574 40.2906 22.0404 40.0505 22.4914C39.3174 22.5362 38.5858 22.6333 37.8527 22.7865C37.9815 22.4702 38.0911 22.1475 38.183 21.8199C38.4378 20.9167 38.5562 19.9734 38.5579 19.0179C38.5608 16.3343 37.6485 13.5516 36.2503 11.2629C34.5085 8.41481 31.7788 6.00825 28.7694 4.07572ZM35.3306 26.189C35.692 26.1648 36.0578 26.1685 36.428 26.1909C36.4474 26.2133 36.4562 26.2382 36.4784 26.2594C37.0176 26.7626 37.635 27.0678 38.3268 27.2658C38.632 26.9607 39.0851 26.9134 39.4849 27.0466C39.8211 26.5284 40.831 26.4949 41.3822 26.9084C41.3851 26.9072 41.388 26.9066 41.3895 26.9047C41.4132 26.3293 42.096 25.7588 42.8484 25.9443C43.0601 25.9966 43.2675 26.0527 43.4763 26.1074C43.4614 25.3975 44.3679 24.7122 45.4061 25.0911C46.6134 25.5314 47.8839 25.7712 49.1222 26.13C50.7483 26.601 50.1382 28.6435 48.4395 28.3122C48.3862 28.3017 48.3329 28.2873 48.2796 28.276C48.2617 28.2892 48.2439 28.2997 48.2263 28.3122C48.0678 28.8535 47.4176 29.2315 46.6386 29.1324C46.3053 29.0894 45.981 29.0285 45.658 28.9635C45.6773 29.7053 44.5028 30.1438 43.7399 29.8293C43.5592 29.7545 43.3861 29.6767 43.2142 29.5988C42.8173 30.1294 41.8886 30.3747 41.311 29.8591C41.2814 29.9601 41.2518 30.0596 41.2223 30.1631C41.0076 30.893 40.0982 30.9995 39.5103 30.6507C39.5074 30.69 39.503 30.7299 39.5013 30.7698C39.4732 32.0329 37.1137 32.0278 37.1731 30.7673C37.1954 30.3196 37.2472 29.9079 37.3418 29.5155C37.3477 29.4867 37.3536 29.4581 37.3612 29.4295C37.3656 29.4083 37.3714 29.3872 37.3773 29.366C37.4869 28.9063 37.6438 28.4611 37.8602 28.0183C37.7715 27.8968 37.6693 27.7829 37.5448 27.687C37.5419 27.6109 37.527 27.5363 37.5035 27.4616C37.5035 27.4629 37.5035 27.4635 37.5049 27.4641C37.5035 27.4629 37.5035 27.4616 37.502 27.4602C37.4768 27.3818 37.4399 27.3057 37.3895 27.2323C36.9807 26.4813 36.0224 26.3131 35.1027 26.3704C35.1795 26.3104 35.2565 26.2505 35.3306 26.189ZM34.9883 28.5499C34.1055 28.973 33.0983 29.346 32.34 29.9212C31.561 30.5129 30.6811 30.3099 30.2324 29.803C29.997 29.947 29.7585 30.0882 29.514 30.2252C27.7974 31.1924 26.2408 28.9323 27.8789 27.9332C27.9825 27.8696 28.0833 27.8088 28.187 27.7463C28.2168 27.3613 28.433 27.0008 28.8729 26.8371C29.3881 26.6458 29.84 26.5208 30.3496 26.537C31.2974 26.0848 32.3031 25.7387 33.4746 25.6116C34.6344 25.4859 35.135 26.4498 34.9083 27.2334C35.4756 27.4863 35.6888 28.2137 34.9883 28.5499ZM15.0103 25.3687C16.8025 23.676 19.3676 22.6894 21.9297 22.1362C25.157 21.4386 28.0953 22.041 31.3049 22.3367C32.2853 22.4276 33.8952 22.6569 35.0817 22.5623C34.9156 22.9523 34.7203 23.3395 34.5085 23.727C32.9357 24.1586 31.4414 24.4918 30.0209 25.2079C28.2036 24.4145 26.0799 24.1056 24.1796 24.9152C22.4706 25.6445 21.7197 26.8173 21.5287 28.1613C21.5258 27.919 21.5228 27.6774 21.5214 27.4363C21.5167 26.9319 20.8577 26.7412 20.4758 26.9306C20.7587 26.0835 19.2984 25.6278 18.8866 26.4037C17.4069 25.9503 16.0119 25.7218 14.7042 25.6881C14.8059 25.5817 14.8993 25.474 15.0103 25.3687ZM27.5446 148.873C28.1236 147.498 28.7797 146.141 29.381 144.782C29.7529 143.942 30.1112 143.097 30.443 142.247C29.8534 144.914 28.8465 147.475 27.7727 150.047C27.6972 149.656 27.6216 149.264 27.5446 148.873ZM28.5738 155.212C28.5577 155.065 28.5427 154.918 28.5278 154.771C28.9736 153.608 29.4343 152.448 29.8859 151.287C30.3657 150.049 30.7997 148.797 31.1805 147.534C30.7036 150.181 29.6522 152.699 28.5738 155.212ZM80.1621 87.6439C77.1659 100.238 73.8601 112.997 67.5227 124.726C67.1332 124.341 66.7304 123.967 66.3023 123.617C65.6966 123.121 64.8522 123.878 65.4004 124.397C65.9352 124.902 66.4001 125.436 66.8283 125.988C66.1944 127.113 65.5396 128.228 64.8466 129.331C64.1076 128.194 63.3462 127.07 62.5021 125.982C61.9274 125.243 60.6018 126.023 61.1691 126.762C62.1629 128.06 63.0471 129.406 63.9061 130.768C63.687 131.098 63.4794 131.433 63.2559 131.761C62.862 132.337 62.4488 132.894 62.0355 133.451C61.0774 131.946 60.1663 130.42 59.3 128.877C58.9104 128.183 57.5614 128.557 57.9433 129.271C58.906 131.076 59.9308 132.852 61.0031 134.611C61.0239 134.644 61.0432 134.679 61.064 134.713C60.4419 135.498 59.8005 136.266 59.1415 137.018C57.8277 134.845 56.9317 132.417 55.9898 130.237C55.7127 129.595 54.596 129.975 54.8256 130.615C55.6269 132.844 56.4104 135.926 57.9032 138.397C57.6692 138.65 57.4279 138.898 57.188 139.147C57.0931 139.007 56.9953 138.869 56.9021 138.726C55.3973 136.416 54.1859 133.969 52.8515 131.588C52.4752 130.918 51.1736 131.274 51.5377 131.967C52.8855 134.53 54.1622 137.666 55.9321 140.433C55.5589 140.804 55.1811 141.173 54.7992 141.539C54.6835 141.368 54.5681 141.197 54.4556 141.028C52.7657 138.502 51.4149 135.823 49.9813 133.191C49.614 132.517 48.4292 133.071 48.7831 133.741C50.3011 136.611 51.7688 139.495 53.5638 142.253C53.6186 142.337 53.678 142.429 53.7416 142.53C53.0706 143.151 52.3864 143.768 51.6903 144.378C51.5362 144.17 51.3851 143.959 51.2401 143.744C49.882 141.727 48.8955 139.527 47.9876 137.345C47.7106 136.682 46.5006 137.03 46.7613 137.696C47.6839 140.058 48.8021 142.962 50.4965 145.419C50.1397 145.723 49.7751 146.027 49.4137 146.329C49.1648 145.971 48.9264 145.612 48.7175 145.251C47.635 143.378 46.6975 141.449 45.5986 139.582C45.1795 138.868 43.9236 139.481 44.3292 140.189C45.4091 142.065 46.3569 143.992 47.3922 145.885C47.6455 146.349 47.9091 146.848 48.1933 147.35C48.1727 147.367 48.1532 147.383 48.1326 147.4C47.7519 147.712 47.3714 148.037 46.9877 148.366C45.9214 146.479 44.9484 144.555 43.9502 142.641C43.5947 141.959 42.4337 142.539 42.7638 143.209C43.7783 145.261 44.7794 147.317 45.868 149.34C45.2342 149.9 44.5914 150.47 43.9397 151.042C42.8674 149.197 41.8128 147.344 40.8428 145.45C40.4769 144.737 39.0875 145.068 39.446 145.806C40.465 147.914 41.4915 150.071 42.6273 152.179C42.2542 152.497 41.8749 152.812 41.4942 153.124C40.9834 152.092 40.5581 151.024 40.1715 149.958C40.0101 149.517 39.1599 149.622 39.3125 150.081C39.7211 151.318 40.1938 152.533 40.7418 153.73C40.2116 154.148 39.6739 154.556 39.1245 154.947C38.8254 154.263 38.5633 153.566 38.3366 152.861C38.1204 152.191 36.8733 152.587 37.1311 153.259C37.4362 154.055 37.7945 154.828 38.196 155.587C37.0083 156.378 35.773 157.081 34.4772 157.653C34.72 156.221 34.7868 154.769 34.6608 153.285C34.5823 152.367 32.9012 152.415 32.7724 153.296C32.5029 155.12 31.9444 156.91 31.2409 158.658C30.7951 158.688 30.4293 158.633 30.1241 158.51C30.3078 157.875 30.5017 157.246 30.7283 156.63C31.8881 153.483 32.8063 150.344 32.9323 147.034C32.9604 146.286 31.8823 146.093 31.4541 146.571C32.0466 144.41 32.4525 142.218 32.5577 139.999C32.5828 139.438 31.9696 139.125 31.472 139.187C31.9608 137.413 32.2481 135.607 32.1874 133.749C32.1564 132.786 30.4205 132.911 30.4263 133.859C30.4559 137.87 28.6535 141.506 26.8289 145.13C26.7059 144.436 26.589 143.741 26.4882 143.045C26.466 142.886 26.4437 142.728 26.4215 142.57C26.5518 141.939 26.6912 141.313 26.8614 140.7C27.8745 137.069 29.0193 133.507 30.8098 130.085C31.2245 129.292 29.85 128.612 29.3952 129.415C28.4696 131.042 27.6326 132.707 26.8731 134.396C26.9812 133.923 27.0893 133.453 27.2064 132.992C27.9869 129.926 28.6741 126.867 28.9022 123.731C28.9658 122.854 27.3751 122.726 27.2849 123.607C26.9709 126.674 26.2229 129.658 25.3641 132.646C25.2915 132.901 25.2101 133.158 25.1286 133.416C24.9078 131.859 24.6843 130.303 24.4547 128.749C24.474 128.681 24.4946 128.614 24.5154 128.548C25.7478 124.536 27.3649 120.621 29.3067 116.814C29.7466 115.953 28.1398 115.498 27.6849 116.336C26.2366 119.004 24.9541 121.73 23.8045 124.497C23.6815 123.714 23.5573 122.933 23.4282 122.151C23.5896 121.555 23.763 120.963 23.9718 120.383C25.136 117.146 26.5058 113.969 27.5514 110.701C27.7854 109.968 26.4687 109.548 26.2273 110.287C25.2512 113.26 24.0412 116.169 22.9098 119.101C22.9039 119.07 22.8995 119.04 22.8934 119.009C22.575 117.203 22.2373 115.405 21.8715 113.613C21.9975 113.184 22.1263 112.755 22.2625 112.327C23.3822 108.814 24.656 105.343 25.6615 101.804C25.8984 100.969 24.3432 100.797 24.0989 101.617C23.2727 104.402 22.1545 107.233 21.1103 110.092C20.8511 108.946 20.5785 107.804 20.2926 106.664C20.934 104.448 21.7679 102.274 22.6445 100.119C22.8592 99.593 21.7679 99.2761 21.5426 99.7984C20.9695 101.131 20.2777 102.6 19.629 104.131C19.0455 101.987 18.4115 99.849 17.7021 97.7176C15.2465 90.3431 12.1347 83.1409 9.4703 75.8205C5.59966 65.1845 3.39745 54.6081 4.46677 43.5096C4.84138 39.6209 5.54342 35.5477 7.65981 32.0333C8.26111 31.0336 9.00618 30.2484 9.85616 29.6411C9.80579 29.9943 9.77474 30.3498 9.78794 30.7099C9.82364 31.6629 11.4008 32.0315 11.8038 31.0449C11.974 30.6252 12.1325 30.218 12.2926 29.8155C12.3592 29.9264 12.5875 29.8978 12.5932 29.7458C12.6034 29.4655 12.6272 29.1603 12.6836 28.8597C12.7665 28.6672 12.8555 28.4774 12.9443 28.2886C12.9754 28.2818 13.0052 28.2756 13.036 28.2686C13.0627 28.2873 13.0849 28.306 13.1145 28.3246C13.2018 28.3832 13.2923 28.413 13.3825 28.4317C13.024 29.0719 12.6582 29.7078 12.4611 30.3953C12.233 31.1875 13.7542 31.5955 14.0916 30.8269C14.499 29.904 14.9463 28.9685 15.2898 28.0175C15.4187 28.015 15.5505 28.02 15.6808 28.0206C15.1861 28.8416 14.7301 29.6835 14.4413 30.5629C14.1212 31.5395 15.8454 32.0463 16.2229 31.0698C16.611 30.0664 17.0732 29.1054 17.584 28.1526C17.7884 28.1783 17.9926 28.2088 18.1987 28.2417C17.9899 28.8658 17.8016 29.4935 17.6329 30.1281C17.3989 31.0151 16.8863 31.9897 17.661 32.7432C17.8033 32.8808 18.0787 32.9456 18.2758 32.8498C19.191 32.402 19.1556 31.6738 19.3272 30.8494C19.5478 29.7907 19.8471 28.7492 20.1995 27.7179C20.1904 28.4901 20.1728 29.2611 20.1078 30.0329C20.0439 30.7796 19.7062 31.5582 20.1092 32.2562C20.2129 32.4368 20.521 32.5172 20.709 32.3716C21.3563 31.8665 21.3622 31.1683 21.4421 30.4559C21.4747 30.152 21.494 29.8468 21.5074 29.5416C21.5385 29.8766 21.5918 30.2162 21.6659 30.5579C21.8317 31.3154 22.8225 31.8589 23.6935 31.8453C26.2156 31.8042 28.7557 31.4972 31.278 31.3952C33.002 31.3255 31.7299 31.9457 32.4481 32.9571C33.1619 33.966 34.4564 34.2513 35.7507 34.3185C37.8272 34.4269 40.5153 34.0121 42.7621 33.0754C46.4305 32.7379 50.3243 31.0289 51.9402 28.8722C52.6791 27.8838 52.6926 26.4276 52.1654 25.3864C52.1624 25.379 52.158 25.3714 52.1534 25.364C54.5808 23.6688 57.1638 22.4213 59.8536 21.8016C60.2862 21.7019 60.7214 21.6184 61.1599 21.5526C64.5219 21.043 68.0365 21.5339 71.6161 23.3786C77.9002 26.6172 81.5332 33.0756 83.1209 38.8914C87.486 54.8621 83.9181 71.8596 80.1621 87.6439Z" fill="#0C0C22"/>
<path d="M21.244 52.0521C22.4688 51.2749 22.8437 49.7851 23.399 48.6166C24.2255 46.8766 25.1452 45.1839 26.247 43.5545C26.6676 42.933 25.5849 42.3806 25.1212 42.979C23.9913 44.4363 23.0227 45.9561 22.1206 47.5186C21.3993 48.7674 20.1524 50.2894 20.3109 51.7051C20.3583 52.123 20.8442 52.3048 21.244 52.0521Z" fill="#0C0C22"/>
<path d="M22.2189 55.171C23.1801 54.0693 23.8213 52.7159 24.5233 51.4926C25.9142 49.0707 27.2929 46.6927 27.9741 44.0488C28.1668 43.3027 26.8471 43.1234 26.6087 43.8372C25.6208 46.7854 23.6746 49.3526 21.9404 52.0171C21.434 52.793 20.0935 53.929 20.5141 54.8944C20.7527 55.442 21.7641 55.7178 22.2189 55.171Z" fill="#0C0C22"/>
<path d="M22.9771 59.0187C24.8566 54.8454 27.5004 50.8189 28.6275 46.4319C28.7769 45.8491 27.767 45.6042 27.5611 46.1839C26.0237 50.5349 22.6157 54.2318 21.1615 58.5959C20.8297 59.5954 22.5534 59.958 22.9771 59.0187Z" fill="#0C0C22"/>
<path d="M22.5163 69.5865C24.2388 67.2821 24.7779 64.2292 26.1507 61.7093C27.6778 58.9036 29.3912 56.1813 30.6916 53.2903C30.9848 52.639 29.8282 52.183 29.5127 52.838C28.14 55.7067 26.3537 58.3958 24.6757 61.1425C24.2833 61.7852 23.8167 62.5064 23.3607 63.2682C25.8221 58.6739 28.1089 53.9181 29.9883 49.1437C30.2757 48.4126 28.9102 48.166 28.6109 48.8771C26.4825 53.943 23.3443 58.6576 21.2086 63.7072C20.9005 64.4396 22.1979 64.9004 22.7281 64.3772C21.8453 66.0221 21.1804 67.7746 21.4944 69.3222C21.5685 69.6872 22.2172 69.9862 22.5163 69.5865Z" fill="#0C0C22"/>
<path d="M23.4882 72.8249C24.4375 70.8209 25.0403 68.717 26.0238 66.7115C27.1344 64.4507 28.4793 62.269 29.7516 60.0711C30.0524 59.5535 29.1696 59.0453 28.8466 59.571C26.3954 63.5551 22.8319 68.1021 22.2262 72.6343C22.1404 73.2772 23.232 73.3668 23.4882 72.8249Z" fill="#0C0C22"/>
<path d="M22.8365 83.364C24.6093 81.4914 25.1825 78.744 26.1569 76.5174C27.4216 73.6307 28.9086 70.8243 30.6357 68.1128C30.9438 67.6307 29.9723 67.1606 29.6434 67.6344C28.3459 69.5065 27.17 71.4242 26.0814 73.3828C26.4044 72.5619 26.7005 71.7442 27.0189 70.9864C27.9816 68.6894 28.7 66.3415 29.1279 63.9337C29.2495 63.2486 28.0038 63.1415 27.8645 63.8154C27.3297 66.4213 26.3909 68.8975 25.2801 71.3625C24.409 73.2956 22.9622 75.2638 22.8067 77.3437C22.7768 77.7398 23.3532 77.9354 23.6522 77.624C23.7782 77.492 23.8892 77.3462 24.0048 77.2061C22.9636 79.1274 21.9623 81.1971 22.0141 83.1775C22.0247 83.536 22.6069 83.6069 22.8365 83.364Z" fill="#0C0C22"/>
<path d="M30.0388 74.1298C30.3187 73.3425 28.8479 73.1227 28.5606 73.8894C27.5211 76.6601 25.9571 79.2362 24.4479 81.8395C23.3888 83.6668 21.8026 85.7982 22.0129 87.8855C22.0454 88.2131 22.5594 88.3814 22.82 88.1109C24.5188 86.3454 25.2445 83.7028 26.3968 81.6363C27.7695 79.1782 29.1115 76.7369 30.0388 74.1298Z" fill="#0C0C22"/>
<path d="M30.4149 79.2049C30.6844 78.4425 29.2595 78.1997 28.9871 78.9483C28.0613 81.4979 26.7876 83.9337 25.7674 86.4544C24.8952 88.6025 23.7058 91.1172 24.4345 93.3893C24.5692 93.8096 25.2062 93.6846 25.3424 93.3481C26.2949 90.9815 26.5406 88.4412 27.5461 86.0415C28.5044 83.7589 29.5928 81.5267 30.4149 79.2049Z" fill="#0C0C22"/>
<path d="M30.6208 83.7439C28.2554 87.4545 26.1212 91.7829 26.4899 96.0817C26.5582 96.8788 27.9962 96.7729 28.0999 96.0311C28.6746 91.8937 29.6771 88.2654 31.9935 84.5435C32.4867 83.7558 31.1316 82.9412 30.6208 83.7439Z" fill="#0C0C22"/>
<path d="M29.3325 102.224C30.5558 100.558 30.8476 98.437 31.5051 96.5649C32.3463 94.1734 33.3696 91.8316 34.4925 89.5242C34.9101 88.6647 33.3623 88.0344 32.9434 88.8988C31.9142 91.0244 31.0001 93.1805 30.1692 95.3666C29.3726 97.4643 28.1758 99.8595 28.4157 102.077C28.4629 102.508 29.0879 102.557 29.3325 102.224Z" fill="#0C0C22"/>
<path d="M35.6993 94.1722C36.003 93.3208 34.4566 92.8519 34.1456 93.7095C33.1401 96.479 31.736 99.1241 30.5525 101.841C29.6252 103.973 28.3723 106.735 29.2626 108.975C29.4078 109.34 30.0121 109.236 30.1556 108.941C31.2946 106.605 31.4619 103.91 32.5045 101.483C33.5548 99.0376 34.806 96.6658 35.6993 94.1722Z" fill="#0C0C22"/>
<path d="M35.4625 100.063C33.4586 104.376 30.378 109.175 30.3425 113.893C30.3381 114.461 31.2727 114.462 31.4564 113.98C33.1803 109.493 34.7607 105.072 36.7942 100.656C37.1404 99.9031 35.8148 99.3028 35.4625 100.063Z" fill="#0C0C22"/>
<path d="M34.1872 113.67C34.8524 111.634 35.4197 109.61 35.6625 107.506C35.7542 106.703 34.2851 106.605 34.1846 107.402C33.8571 109.98 32.9908 112.433 32.1599 114.918C31.5747 116.673 30.8565 118.541 31.2593 120.362C31.3453 120.752 31.973 120.77 32.142 120.422C33.1668 118.302 33.463 115.886 34.1872 113.67Z" fill="#0C0C22"/>
<path d="M35.791 115.735C34.1368 118.701 31.4442 122.36 32.2512 125.754C32.306 125.985 32.7075 125.965 32.774 125.754C33.2672 124.214 33.5232 122.64 34.0759 121.111C34.7023 119.379 35.6205 117.725 36.4634 116.064C36.6559 115.685 36.0071 115.349 35.791 115.735Z" fill="#0C0C22"/>
<path d="M35.2193 121.513C34.7957 122.694 34.3661 123.874 33.9042 125.044C33.4318 126.243 32.5801 127.462 32.4793 128.724C32.4556 129.019 32.9518 129.25 33.208 129.008C34.1294 128.131 34.427 126.944 34.8491 125.844C35.3645 124.5 35.7939 123.134 36.2324 121.772C36.4101 121.22 35.4178 120.96 35.2193 121.513Z" fill="#0C0C22"/>
<path d="M34.8787 128.426C34.8714 129.249 34.4552 129.991 34.7115 130.824C34.7721 131.025 35.0846 130.96 35.1423 130.798C35.4177 130.024 35.7231 129.183 35.7703 128.371C35.7984 127.895 34.8831 127.938 34.8787 128.426Z" fill="#0C0C22"/>
<path d="M54.1637 31.9255C54.5369 30.9178 55.0183 29.9402 55.547 28.9847C55.8759 28.3862 54.8362 27.9048 54.4672 28.4977C53.9163 29.3872 53.423 30.2963 52.9861 31.2294C52.6855 31.8733 52.0485 32.7975 52.7181 33.3867C52.8156 33.4733 52.9846 33.4976 53.1179 33.4638C53.8823 33.2701 53.9534 32.4923 54.1637 31.9255Z" fill="#0C0C22"/>
<path d="M57.6899 28.6372C57.9418 27.8923 56.6341 27.4065 56.3406 28.1695C55.8445 29.4592 55.1928 30.69 54.5338 31.9256C53.9562 33.0061 52.8957 34.3469 53.2527 35.5552C53.3432 35.8573 53.7904 36.1306 54.134 35.8702C55.1129 35.1253 55.3351 33.9377 55.8137 32.9244C56.4844 31.5058 57.1923 30.1082 57.6899 28.6372Z" fill="#0C0C22"/>
<path d="M59.9975 30.3673C60.3575 29.7271 59.2378 29.1753 58.8527 29.8167C57.976 31.2835 57.2058 32.7876 56.4402 34.2973C55.7589 35.6419 54.8228 36.986 54.4717 38.4227C54.368 38.8449 55.0212 39.2386 55.4004 38.8649C56.4343 37.8436 56.9199 36.5618 57.5109 35.3299C58.3106 33.6637 59.0837 31.9922 59.9975 30.3673Z" fill="#0C0C22"/>
<path d="M62.9981 32.7488C63.398 31.9093 61.8814 31.3238 61.4772 32.1653C60.5781 34.0343 59.6481 35.8916 58.715 37.7486C57.9743 39.2228 57.0072 40.672 56.9718 42.2913C56.9644 42.6487 57.5285 42.7037 57.764 42.4918C59.0243 41.3527 59.5442 39.7577 60.2506 38.3378C61.1764 36.4783 62.1049 34.6204 62.9981 32.7488Z" fill="#0C0C22"/>
<path d="M64.9547 36.4409C65.4301 35.6942 64.0216 35.179 63.5374 35.9054C62.6058 37.3042 61.9187 38.7901 61.2849 40.2998C60.7843 41.4868 59.8512 43.0506 60.0348 44.3343C60.0984 44.7865 60.7427 44.9171 61.0939 44.6033C62.1172 43.684 62.3512 42.0423 62.8014 40.874C63.3849 39.3526 64.0558 37.8521 64.9547 36.4409Z" fill="#0C0C22"/>
<path d="M67.0667 37.3887C67.3836 36.5106 65.7619 36.1038 65.4418 36.984C64.1947 40.4168 61.9866 44.0702 61.5555 47.6426C61.4875 48.2057 62.5021 48.4591 62.8175 47.9628C64.8229 44.7988 65.8286 40.8199 67.0667 37.3887Z" fill="#0C0C22"/>
<path d="M70.1888 45.2499C70.4509 44.6284 69.6675 44.1362 69.1312 44.3106C69.7044 42.8497 70.103 41.3741 70.2746 39.9709C70.3815 39.0965 68.7803 38.9307 68.6617 39.8079C68.3492 42.1171 67.4266 44.1887 66.2076 46.2563C65.1591 48.0344 63.6085 49.6301 62.7449 51.4729C62.4265 52.1555 63.4897 52.6357 64.0379 52.1008C65.399 50.771 66.6194 49.16 67.6193 47.4335C67.1718 48.5732 66.7365 49.7167 66.3159 50.8652C65.6552 52.6596 64.3223 54.9108 64.626 56.8043C64.6749 57.107 65.1148 57.2602 65.3711 57.0122C66.5588 55.8632 66.8402 54.0963 67.3469 52.6663C68.2308 50.1761 69.1505 47.6961 70.1888 45.2499Z" fill="#0C0C22"/>
<path d="M73.8352 48.8334C74.155 48.1508 72.7392 47.67 72.4074 48.3501C70.4049 52.4693 65.3872 57.9792 66.5468 62.6408C66.6355 62.9984 67.339 63.1041 67.5183 62.7436C68.6485 60.4709 69.0334 57.9934 70.1961 55.6927C71.3615 53.3868 72.7451 51.1682 73.8352 48.8334Z" fill="#0C0C22"/>
<path d="M73.5065 53.3948C71.6077 57.6685 69.3979 62.0367 68.1259 66.4723C67.9762 66.9918 68.8575 67.2577 69.1536 66.7931C71.6833 62.824 73.1318 58.2718 75.0705 54.0849C75.4791 53.1998 73.9033 52.503 73.5065 53.3948Z" fill="#0C0C22"/>
<path d="M70.5161 69.5408C72.8369 65.669 74.6082 61.594 77.0714 57.7686C77.5971 56.9497 76.0422 56.3194 75.5223 57.1428C73.1259 60.9344 70.8481 64.9428 69.2218 69.0185C68.9359 69.736 70.0881 70.2577 70.5161 69.5408Z" fill="#0C0C22"/>
<path d="M70.3887 74.9388C71.2506 73.8489 71.5365 72.5615 72.163 71.3602C72.7716 70.1944 73.5419 69.0839 74.272 67.9696C75.6641 65.8471 76.8728 63.7266 77.5052 61.3505C77.7407 60.4699 76.1397 60.1079 75.8908 60.993C75.1117 63.7445 73.4766 66.1111 71.8431 68.5508C70.6672 70.3077 68.9445 72.6133 69.269 74.6867C69.3445 75.1761 70.0363 75.3835 70.3887 74.9388Z" fill="#0C0C22"/>
<path d="M77.9214 65.6334C76.464 68.053 74.8748 70.411 73.3093 72.7813C71.9691 74.8079 70.1295 77.0338 69.7681 79.3606C69.7001 79.8015 70.3591 79.986 70.676 79.6695C72.4784 77.8678 73.4959 75.3734 74.854 73.3095C76.4165 70.9354 78.0248 68.5874 79.4912 66.1696C79.9891 65.3494 78.4116 64.8195 77.9214 65.6334Z" fill="#0C0C22"/>
<path d="M71.553 83.3827C72.738 81.667 73.6058 79.7928 74.7404 78.0442C75.8985 76.2554 77.082 74.4862 78.1097 72.6414C78.4978 71.9432 77.2835 71.2956 76.894 71.9992C74.9196 75.556 71.4909 79.1158 70.5343 82.9897C70.411 83.4897 71.2109 83.8784 71.553 83.3827Z" fill="#0C0C22"/>
<path d="M77.6218 76.1563C75.6091 79.9011 71.6768 83.9625 71.2103 88.1377C71.1511 88.6695 72.0649 89.0327 72.4248 88.5258C73.614 86.8404 74.3295 84.9122 75.3381 83.1385C76.575 80.9612 77.8974 78.8269 78.986 76.5921C79.346 75.8544 78.0072 75.4408 77.6218 76.1563Z" fill="#0C0C22"/>
<path d="M77.1733 83.2929C75.7367 85.6608 72.5671 89.1921 73.1403 91.9817C73.1892 92.2203 73.6497 92.3063 73.7817 92.0733C74.4659 90.8687 74.6363 89.465 75.2004 88.2018C75.9069 86.6212 76.9276 85.1483 77.8294 83.6441C78.0514 83.2711 77.4012 82.9174 77.1733 83.2929Z" fill="#0C0C22"/>
<path d="M76.0122 88.8647C74.8702 90.7779 73.2277 92.7423 72.6531 94.8479C72.5626 95.183 73.0781 95.5324 73.3935 95.2249C75.0612 93.5937 76.2283 91.467 77.3835 89.5591C77.8486 88.7898 76.4758 88.0873 76.0122 88.8647Z" fill="#0C0C22"/>
</svg>
