<svg width="300" height="172" viewBox="0 0 300 172" fill="none" xmlns="http://www.w3.org/2000/svg">
<path d="M75.1522 11.0434C74.0295 23.4037 72.8585 35.7351 72.2596 48.1321C71.5868 62.0741 70.948 76.0312 70.6853 89.9814C73.4261 89.6246 76.0562 89.0816 78.5753 88.3249C79.6284 87.8901 80.7044 87.4796 81.7915 87.0847C82.2728 73.1235 82.6916 59.1513 82.8987 45.1871C82.9032 44.8822 82.9057 44.5785 82.9102 44.2737C85.5614 43.3695 88.1035 42.1282 90.1415 41.2073C95.417 38.8225 100.229 35.9662 104.731 32.8908C112.636 27.4899 122.225 19.3129 121.434 10.9637C120.532 1.42971 103.212 -0.939041 92.5274 0.305216C88.5916 0.763662 84.7438 1.58973 81.0566 2.71821C81.0522 2.67995 81.0496 2.64269 81.0451 2.60426C80.8181 0.154009 75.8633 3.08184 75.7312 4.57395C75.7312 4.5831 75.7298 4.59208 75.7298 4.60007C66.1807 8.44778 58.1063 14.3292 53.0222 21.0469C51.8911 22.541 51.0623 24.1264 50.4788 25.7569C51.5617 26.5609 52.933 27.244 54.4004 27.8339C57.4476 20.7729 65.945 14.5817 75.1522 11.0434ZM99.2973 8.46209C103.568 9.39711 108.099 10.8498 109.75 13.9017C111.004 16.2191 109.757 18.4123 108.364 20.4234C106.486 23.1327 103.358 25.7493 100.014 28.202C96.4103 30.8452 93.1318 32.7837 88.316 35.1C86.7406 35.8577 84.9137 36.4985 82.9751 37.1317C82.995 32.8149 82.9737 28.4988 82.8687 24.1785C82.7466 19.1036 82.2243 14.0581 81.6933 9.00936C87.4077 7.62687 93.4144 7.17358 99.2973 8.46209Z" fill="#0C0C22"/>
<path d="M89.4232 75.1809C87.6022 76.0101 86.9749 78.7011 90.0247 77.7305C92.8194 76.8414 95.0861 75.5532 97.0233 74.0213C97.645 77.9406 98.9195 82.5952 102.699 85.6411C108.405 90.2379 116.421 82.7294 118.672 79.5158C119.637 78.137 119.629 75.9053 116.725 75.9699C114.316 76.0228 112.123 77.2882 110.715 78.7042C109.753 77.8005 109.198 76.6186 108.673 75.5991C107.146 72.636 106.496 69.5741 106.491 66.4337C106.488 63.9824 106.548 61.5468 106.744 59.099C107.1 54.6695 106.54 50.4213 106.273 46.0124C106.141 43.8562 101.729 46.2496 101.45 47.4138C99.8899 53.8816 97.3821 60.6354 96.8258 67.3486C95.2794 70.388 93.5025 73.3235 89.4232 75.1809Z" fill="#0C0C22"/>
<path d="M153.376 36.2596C141.709 37.3357 130.993 39.5349 120.526 43.3803C119.027 43.9309 116.591 47.0663 119.942 46.5101C128.266 45.1297 136.932 43.69 145.53 43.2547C143.674 47.8788 140.776 52.2761 137.851 56.6587C129.619 58.4712 121.725 61.0032 115.138 64.8911C114.323 65.3717 113.772 66.7416 115.455 66.2302C121.437 64.4106 127.778 63.2811 134.171 62.2884C130.495 68.1606 127.546 74.1683 127.737 80.8135C127.801 83.0084 130.898 82.7283 132.912 82.0995C140.731 79.6562 149.159 77.689 156.064 74.0178L154.155 68.5968C154.02 68.6603 153.894 68.7232 153.781 68.7843C149.258 71.2442 143.616 72.7085 138.172 74.1905C138.725 69.5217 140.935 65.147 143.628 60.85C146.279 60.4374 148.915 60.0026 151.511 59.5029C154.856 58.8592 159.369 53.1233 153.51 53.9408C151.556 54.2133 149.586 54.5076 147.616 54.8248C151.287 49.3838 154.833 43.9035 155.818 37.9338C155.974 36.9839 154.684 36.1385 153.376 36.2596Z" fill="#0C0C22"/>
<path d="M175.161 58.2455C173.775 60.4913 172.314 62.7099 170.837 64.9259C170.318 65.7063 169.784 66.4811 169.238 67.2518C168.955 67.6482 167.3 69.694 168.525 68.2613C166.37 70.7831 167.252 73.8912 172.152 72.2122C179.837 69.5791 190.63 69.6243 197.543 65.8372C196.916 64.0791 196.402 62.3028 195.966 60.5065C195.279 60.7291 194.599 60.9679 193.902 61.1452C191.456 61.7689 188.912 62.2152 186.397 62.6768C184.372 63.0491 182.352 63.4233 180.352 63.8405C181.745 61.7651 183.035 59.6523 184.318 57.5545C185.529 55.5757 186.715 53.5819 187.851 51.572C191.305 50.7896 194.615 49.7001 196.37 47.8362C196.87 47.3052 197.402 46.4991 196.708 45.9294C196.612 45.8494 196.514 45.7697 196.417 45.6902C195.97 45.3234 195.012 45.3517 194.443 45.4937C193.167 45.8111 191.888 46.1203 190.608 46.4258C191.626 44.4047 192.572 42.3684 193.41 40.3121C194.643 37.2795 197.387 30.8173 190.825 29.9871C186.505 29.4405 181.871 30.5387 177.76 31.3836C173.913 32.1744 170.142 33.1327 166.34 34.0066C164.807 34.3588 161.035 36.6861 163.007 37.9873C165.278 39.4854 168.947 38.6139 171.611 38.2401C175.321 37.7198 178.958 36.9148 182.752 36.7646C183.287 36.7435 185.297 37.0448 184.992 36.675C185.052 36.7485 185.099 36.7989 185.134 36.8332C185.135 36.8503 185.137 36.8684 185.141 36.8925C185.191 37.236 185.155 37.5867 185.124 37.9302C185.108 38.1187 184.859 39.0778 184.616 39.8229C184.24 40.9725 183.787 42.1094 183.309 43.2399C182.527 45.0887 181.64 46.9163 180.687 48.728C175.289 49.9757 169.91 51.2562 164.628 52.7761C163.631 53.0632 160.689 55.8375 163.177 55.5659C168.22 55.0148 173.128 54.3885 178.036 53.4773C177.099 55.0753 176.136 56.6648 175.161 58.2455Z" fill="#0C0C22"/>
<path d="M213.143 61.4172C219.327 63.7476 226.058 60.6213 230.24 57.4007C231.672 56.297 232.813 55.087 233.741 53.8053C234.138 55.4708 234.505 57.1392 234.783 58.8188C234.912 59.6001 235.295 60.1194 235.847 60.4268C238.913 58.5207 242.386 57.1292 245.934 55.7861C246.097 55.3862 246.164 54.9937 246.096 54.6251C245.189 49.7648 243.765 44.9579 242.345 40.1627C241.608 37.6757 240.991 35.1634 240.4 32.6568C239.956 30.7678 239.789 28.8192 238.476 27.1436C238.419 27.0338 238.339 26.933 238.238 26.8455C238.22 26.8244 238.207 26.8021 238.189 26.7815C238.183 26.786 238.179 26.7901 238.173 26.7941C237.911 26.5962 237.516 26.4747 236.955 26.4869C236.179 26.504 235.414 26.7296 234.726 27.0621C232.425 24.8505 229.636 23.161 225.363 22.9323C220.584 22.6758 216.093 25.1977 212.918 27.4202C204.439 33.3531 200.902 42.2292 203.409 50.3791C204.679 54.5056 207.627 59.3393 213.143 61.4172ZM215.839 30.5535C217.459 28.7329 219.669 27.0771 222.806 26.7259C226.297 26.3355 229.626 27.7037 232.213 29.3776C229.537 33.9674 230.484 39.264 231.425 44.0545C231.485 44.3548 231.551 44.6535 231.616 44.9533C230.674 47.5724 229.359 50.0982 227.593 52.4135C222.093 59.6257 214.69 50.2836 212.79 46.2107C210.327 40.9349 211.677 35.2308 215.839 30.5535Z" fill="#0C0C22"/>
<path d="M102.418 42.683C103.328 42.9338 103.953 43.3031 104.85 43.696C106.7 44.5071 108.802 43.5852 110.149 42.5948C111.048 41.9349 113.25 39.666 111.514 38.797C109.932 38.0045 108.131 37.3079 106.151 37.2696C104.665 37.241 103.29 37.4641 102.056 38.0732C101.351 38.4219 100.706 38.8632 100.21 39.3649C99.7198 39.8596 99.7751 40.1865 99.7184 40.7306C99.6319 41.5593 99.9227 41.8464 100.943 42.1548C101.516 42.3273 101.787 42.5086 102.418 42.683Z" fill="#0C0C22"/>
<path d="M124.437 147.325C124.701 147.29 124.933 147.268 125.146 147.257C125.153 147.24 124.964 147.256 124.437 147.325Z" fill="#0C0C22"/>
<path d="M125.146 147.256C125.121 147.314 122.646 147.766 122.479 147.828C120.525 148.551 119.943 149.176 118.234 149.668C114.098 150.857 109.681 151.515 105.45 152.512C99.3057 153.96 93.6215 156.665 87.9129 158.799C82.9767 160.643 77.9707 162.33 72.7038 163.58C71.5896 145.102 76.235 119.017 74.7547 100.569C72.7678 101.611 65.3575 102.334 63.1278 103.149C58.6853 122.679 60.8384 150.415 62.1101 170.139C62.2165 171.794 64.1198 172.252 66.1467 171.877C72.914 170.625 79.301 168.571 85.5527 166.378C91.1774 164.407 96.7696 161.609 102.694 160.179C110.771 158.229 126.784 156.647 127.773 148.951C127.793 148.455 127.566 148.028 127.093 147.668C126.352 147.33 125.853 147.222 125.146 147.256Z" fill="#0C0C22"/>
<path d="M96.8363 142.584C106.577 146.463 116.76 139.139 121.157 133.695C125.962 127.747 127.372 119.87 122.14 113.862C120.406 111.872 117.93 110.302 115.088 109.326C114.421 108.981 113.71 108.65 112.91 108.341C110.116 107.264 106.795 106.9 103.67 107.232C96.4412 107.999 91.1673 112 87.7566 116.326C81.0336 124.851 84.4216 137.64 96.8363 142.584ZM99.2973 112.751C100.038 112.424 100.807 112.178 101.592 112C103.998 112.751 106.807 112.315 109.261 113.253C111.228 114.005 112.911 114.917 114.379 116.116C117.378 118.566 117.71 121.595 117.619 124.694C117.537 127.567 116.269 130.308 114.346 132.812C113.637 133.737 112.714 134.519 111.745 135.222C111.679 135.269 111.369 135.462 111.163 135.592C110.859 135.763 110.547 135.925 110.23 136.083C110.934 135.73 109.129 136.409 109.369 136.35C106.942 136.944 103.747 136.223 101.121 134.559C96.3055 131.507 93.6103 126.717 93.3745 122.207C93.1913 118.726 94.9244 114.685 99.2973 112.751Z" fill="#0C0C22"/>
<path d="M149.378 100.071C149.033 100.589 148.814 101.141 148.771 101.709C148.254 108.523 147.152 115.281 145.726 122.013C143.36 119.792 141.255 117.42 139.271 115.046C137.419 112.831 135.636 110.581 133.566 108.461C132.288 107.152 131.039 105.719 129.389 104.629C127.239 105.076 125.05 105.39 122.836 105.501C122.702 110.608 127.592 116.174 131.016 120.477C134.607 124.989 138.567 129.505 144.169 132.899C147.118 134.686 152.198 131.018 152.628 129.042C154.838 118.887 156.871 108.662 157.703 98.3979C157.73 98.0554 157.649 97.7834 157.49 97.5677C154.758 98.4172 152.165 99.4011 149.378 100.071Z" fill="#0C0C22"/>
<path d="M198.69 113.814C196.356 113.866 194.59 115.324 193.518 116.631C191.629 118.933 189.802 119.563 186.219 118.718C182.536 117.85 179.21 115.283 177.207 113.014C176.342 112.035 175.626 110.991 175.047 109.911C175.169 109.9 175.291 109.891 175.413 109.878C178.543 109.544 181.614 109.087 184.639 108.423C190.13 107.219 196.564 104.575 197.641 100.181C198.537 96.5304 196.716 92.4137 191.399 91.2042C185.982 89.9726 179.592 91.9423 175.119 93.9865C169.6 96.5103 165.242 100.279 164.032 104.928C162.641 110.274 164.673 115.392 168.748 119.887C171.993 123.467 177.436 126.184 183.6 126.047C191.312 125.876 197.312 121.168 200.159 116.49C200.796 115.442 200.945 113.765 198.69 113.814ZM173.392 103.391C173.442 100.607 174.904 99.5165 177.937 98.0465C180.323 96.8889 183.615 96.2643 186.421 96.8591C188.881 97.3804 190.983 100.158 190.17 101.949C190.085 101.995 189.951 102.066 189.743 102.173C189.142 102.482 188.342 102.691 187.677 102.922C185.538 103.664 183.214 104.091 180.973 104.642C178.522 105.244 176.115 105.845 173.753 106.529C173.506 105.492 173.372 104.442 173.392 103.391Z" fill="#0C0C22"/>
<path d="M219.068 99.5164C218.097 95.7765 217.402 91.6196 219.111 87.9601C222.421 88.1884 225.728 88.1113 229.106 87.943C235.642 87.6175 242.423 87.0261 248.615 85.4483C258.452 82.9422 273.922 77.4023 272.854 68.3771C272.799 67.9035 272.569 67.4068 271.834 67.2647C267.687 66.4598 263.388 65.7443 259.358 66.3665C259.429 67.6919 259.23 68.9856 258.715 70.2726C258.839 70.2671 258.959 70.2549 259.083 70.2514C259.573 70.2368 266.148 70.9208 266.08 71.3259C265.853 72.6749 265.163 73.8104 263.878 74.7785C260.772 77.1205 255.346 77.9602 251.076 78.6046C240.734 80.1647 230.457 80.9048 219.944 81.5637C217.508 81.7164 215.267 83.1178 214.268 84.6552C213.996 85.0744 213.747 85.4961 213.509 85.9198C213.145 85.4184 212.755 84.9258 212.321 84.4468C211.769 83.8363 211.021 83.6379 210 83.8756C206.774 84.6293 203.355 84.6353 200.167 85.465C199.251 85.7038 196.672 87.8321 198.92 87.8653C201.381 87.9016 203.794 88.3414 206.238 88.4452C207.59 93.2406 208.699 98.0559 209.624 102.905C210.601 108.013 211.494 113.36 214.633 118.067C214.849 118.389 215.114 118.633 215.416 118.81C218.079 117.785 220.689 116.687 223.333 115.641C224.056 114.708 224.406 113.751 224.097 112.991C222.279 108.524 220.258 104.097 219.068 99.5164Z" fill="#0C0C22"/>
<path d="M49.4571 75.1084C44.1047 72.192 37.4413 70.6122 30.9976 69.3655C24.1949 68.0492 17.0928 67.5267 10.0588 68.0023C9.01133 68.0728 9.02961 69.182 10.1014 69.1705C16.1803 69.1055 22.2136 70.7074 27.8826 72.122C33.9129 73.6267 39.8514 75.6967 44.8262 78.5717C48.1952 80.5197 52.8704 76.9683 49.4571 75.1084Z" fill="#0C0C22"/>
<path d="M41.0218 93.9238C45.4885 94.6602 46.7998 90.1324 42.2936 89.5592C28.4084 87.7925 14.5306 91.33 0.682435 91.3374C-0.150851 91.3379 -0.264271 92.2099 0.583075 92.2618C14.0396 93.0866 27.787 91.7403 41.0218 93.9238Z" fill="#0C0C22"/>
<path d="M45.9698 110.14C47.6998 108.933 46.4183 107.244 44.2863 107.019C41.5186 106.728 38.3779 107.889 35.6952 108.39C32.4506 108.995 29.29 109.687 25.9957 110.172C19.3747 111.147 12.8389 112.341 6.24033 113.374C5.1078 113.551 5.55326 114.689 6.65204 114.588C13.4177 113.974 20.263 113.885 27.039 113.255C30.3557 112.946 33.7451 112.778 37.0265 112.324C40.0001 111.913 43.7384 111.697 45.9698 110.14Z" fill="#0C0C22"/>
<path d="M47.0357 125.932C46.1814 125.509 44.7151 125.372 43.9018 125.955C38.0629 130.141 33.6516 135.225 27.7586 139.329C27.046 139.824 27.9332 140.697 28.7351 140.219C34.8992 136.542 40.5026 132.148 47.0768 128.852C48.0106 128.384 48.3028 127.431 47.8786 126.702C47.6802 126.361 47.4643 126.145 47.0357 125.932Z" fill="#0C0C22"/>
<path d="M299.598 100.112C288.979 97.4408 277.647 96.2943 266.411 95.847C262.536 95.6928 261.361 99.9148 265.336 100.132C276.641 100.751 288.039 100.72 299.357 101.071C300.065 101.093 300.25 100.275 299.598 100.112Z" fill="#0C0C22"/>
<path d="M287.761 116.313C278.642 116.344 268.557 113.67 260.289 111.095C256.934 110.049 254.933 114.232 258.376 114.805C268.335 116.459 277.496 118.715 287.875 117.829C289.076 117.726 288.981 116.309 287.761 116.313Z" fill="#0C0C22"/>
<path d="M263.439 131.874C257.153 128.942 253.451 123.846 246.017 122.064C243.006 121.342 242.047 124.8 245.036 125.501C251.718 127.067 256.314 130.95 262.493 133.229C263.746 133.691 264.55 132.393 263.439 131.874Z" fill="#0C0C22"/>
<path d="M234.002 133.379C232.83 131.603 232.285 129.727 231.274 127.923C230.502 126.544 227.229 127.096 227.681 128.598C228.846 132.461 232.847 136.018 236.057 139.143C236.787 139.852 238.154 139.059 237.553 138.341C236.201 136.725 235.123 135.076 234.002 133.379Z" fill="#0C0C22"/>
<path d="M165.759 12.0649C164.836 9.6917 161.51 8.12307 158.07 8.57437C154.993 8.97792 152.616 10.3553 150.986 12.13C149.259 10.1723 146.833 8.61629 143.458 8.03092C139.677 7.37403 135.689 8.41085 133.6 10.7457C130.988 13.666 133.126 17.9248 135.952 20.3402C139.646 23.4978 145.363 25.0972 148.805 28.2271C149.634 28.9809 150.329 29.8245 150.833 30.7993C151.245 30.3535 151.676 29.9244 152.127 29.5113C155.007 26.8706 158.581 24.8128 161.823 22.1977C165.212 19.4623 167.164 15.6799 165.759 12.0649ZM162.249 17.1847C160.545 21.4167 154.53 23.7084 150.381 26.8764C149.247 25.6009 147.782 24.4786 145.991 23.4454C141.969 21.1256 137.765 19.0153 136.314 15.281C135.407 12.9456 137.083 10.6162 140.658 10.4419C144.877 10.2368 147.866 13.1904 149.108 15.6633C149.729 16.9011 152.326 17.2053 152.919 15.7425C153.811 13.5329 155.752 10.9819 159.442 10.9458C163.692 10.9044 162.96 15.4169 162.249 17.1847Z" fill="#0C0C22"/>
</svg>
