<svg width="362" height="160" viewBox="0 0 362 160" fill="none" xmlns="http://www.w3.org/2000/svg">
<path d="M145.057 117.806C129.295 120.571 112.755 119.984 96.8149 121.766C88.8416 122.657 80.9029 123.228 72.8723 123.454C66.2427 123.639 58.502 122.475 52.0645 123.943C51.5237 124.066 51.3435 124.909 51.9782 125.053C58.3668 126.503 66.1816 125.353 72.733 125.191C80.3462 125.002 87.9556 124.557 95.5139 123.663C112.202 121.686 128.688 122.118 145.199 118.538C145.692 118.43 145.554 117.719 145.057 117.806Z" fill="#0C0C22"/>
<path d="M356.999 67.1476C347.711 45.7324 324.053 31.5516 301.744 24.4624C295.579 22.5028 289.253 21.2576 282.933 19.8364C276.26 18.3365 270.394 15.4084 264.83 11.655C256.653 6.13806 249.469 -1.0311 238.629 0.123715C227.393 1.32082 217.629 13.5003 213.583 22.9245C212.868 22.9172 212.151 22.9245 211.426 22.9634C204.65 23.3309 198.613 26.1101 192.901 29.3661C190.299 30.8492 187.709 32.3157 185.09 33.715C182.085 33.1545 178.887 34.9551 176.681 37.5047C169.754 39.8958 162.84 42.328 155.946 44.8176C153.736 43.1013 150.439 42.9388 147.71 43.5886C143.139 44.6781 139.977 47.6963 137.861 51.5485C135.269 52.5451 132.674 53.5381 130.089 54.563C115.459 60.3631 100.932 66.4059 86.6398 72.9217C78.6329 76.5731 70.82 80.6686 62.793 84.2915C61.1434 82.8823 58.7378 82.4262 55.3936 83.6993C51.6967 85.1061 49.385 87.5352 47.8647 90.482C35.1715 95.6257 22.4392 101.139 11.4503 109.006C9.09935 110.69 6.29011 112.98 4.57966 115.662C1.89559 118.7 0.20873 122.483 0.0130367 126.497C-0.263198 132.197 3.89198 136.542 8.52522 139.569C13.4428 142.782 19.6532 143.961 25.3464 145.333C29.6058 146.358 34.8778 147.863 39.513 147.346C39.3759 148.254 39.2956 149.12 39.3328 149.91C39.5324 154.262 43.0982 158.008 47.3162 159.324C54.6454 161.611 61.3792 154.245 63.536 147.862C84.1892 147.999 104.934 145.324 125.392 143C135.62 141.838 145.851 140.715 156.101 139.744C166.857 138.726 177.979 139.018 188.636 137.474C189.647 137.327 189.994 135.805 188.807 135.64C179.389 134.337 169.239 135.527 159.792 136.191C159.222 136.233 158.652 136.286 158.079 136.329C162.682 133.726 166.637 129.54 171.359 126.647C174.883 124.487 179.703 122.501 183.805 124.396C188.927 126.763 189.614 133.723 189.794 138.417C190.147 147.613 197.018 155.531 207.366 156.042C217.424 156.538 219.366 146.243 220.065 138.809C220.225 137.109 220.151 135.319 220.098 133.518C223.216 132.735 226.309 131.985 229.524 131.477C232.39 131.022 235.284 130.812 238.146 130.405C242.429 133.739 247.558 135.448 252.389 131.042C253.202 130.302 253.972 129.479 254.711 128.614C268.74 124.905 282.895 123.65 297.378 122.075C310.471 120.649 323.682 119.202 336.246 115.243C345.387 112.363 354.673 107.676 358.883 99.019C363.498 89.5295 361.022 76.4186 356.999 67.1476ZM185.887 38.2705C188.599 38.1645 192.053 38.0134 191.569 41.4074C191.142 44.3894 185.597 42.2465 184.818 40.4178C184.426 39.5002 184.923 38.7977 185.887 38.2705ZM178.078 41.1941C178.102 41.1272 178.119 41.0586 178.145 40.9909C178.354 40.4322 178.64 39.8992 179.003 39.4223C179.771 38.4106 180.744 37.782 181.822 37.3701C181.213 38.2019 180.919 39.0668 180.895 39.9246C180.893 39.97 180.891 40.0166 180.891 40.0619C180.903 41.9452 182.2 43.7762 184.33 45.098C188.745 47.8376 195.334 47.1597 195.553 41.2704C195.616 39.6053 194.905 38.1241 193.773 36.9619C194.803 36.9879 195.618 37.0891 195.983 37.2469C199.109 38.5954 198.643 42.2952 198.014 44.8838C197.076 48.7494 192.047 49.9171 188.506 50.0783C184.986 50.2398 181.003 49.0834 178.836 46.3221C177.677 44.8445 177.506 42.9054 178.078 41.1941ZM138.692 57.2983C139.994 54.3104 141.758 51.5837 144.021 49.461C144.183 49.309 144.353 49.1622 144.53 49.0185C146.132 47.7116 148.285 46.7928 150.384 46.8394C151.324 46.8596 152.253 47.0677 153.117 47.5299C154.502 48.2725 154.811 49.4613 154.584 50.7525C154.222 52.8271 152.462 55.1658 151.498 56.3381C150.238 57.8678 152.415 59.8084 154.067 58.9974C156.046 58.0247 160.27 56.24 161.987 58.6716C163.768 61.19 158.506 63.9483 156.925 64.712C150.452 67.8397 142.892 67.6594 136.027 69.5084C135.968 69.5241 135.922 69.5492 135.867 69.5676C136.076 65.5356 136.993 61.1952 138.692 57.2983ZM48.9868 96.797C49.3161 95.5411 49.6942 94.2968 50.1878 93.0773C50.8266 91.4995 52.3446 89.3517 54.2197 87.9223C55.3599 87.0537 56.6315 86.454 57.9188 86.4068C58.7278 86.3761 59.5445 86.5618 60.3364 87.0424C61.7842 87.9186 62.2661 89.5733 62.2719 91.3533C62.2758 93.4448 61.6195 95.7112 61.0612 97.1035C60.5712 98.3224 61.4743 100.088 63.0871 99.7803C65.9963 99.2246 68.9996 98.8131 71.7895 100.016C75.1179 101.449 71.084 104.189 69.5362 104.933C66.0726 106.602 61.7133 106.914 57.9305 107.573C54.0962 108.239 50.2409 108.859 46.3852 109.404C47.4782 105.243 47.9016 100.948 48.9868 96.797ZM39.9671 144.873C31.6937 143.479 23.8549 141.784 15.915 138.94C10.9172 137.152 5.6102 133.709 4.30149 128.504C3.96832 127.182 4.01327 125.889 4.29371 124.624C6.96193 128.79 13.0763 129.548 18.0605 129.923C24.4022 130.398 35.9242 129.012 39.8601 135.027C41.5401 137.599 40.6858 141.358 39.9671 144.873ZM64.2974 144.166C64.8244 139.774 65.3571 137.152 71.2975 137.021C74.7103 136.946 76.466 141.162 78.9402 142.818C79.3555 143.096 79.7727 143.319 80.19 143.496C74.904 143.794 69.6086 144.019 64.2974 144.166ZM127.166 139.384C113.439 140.906 99.7774 142.241 86.0618 143.145C90.2483 141.123 93.8863 135.993 95.7695 133.171C102.129 123.641 111.478 133.232 119.92 133.833C123.846 134.114 128.822 131.29 132.442 132.278C134.145 132.742 136.012 134.39 137.495 135.265C139.227 136.285 141.337 137.047 143.404 137.63C137.986 138.18 132.575 138.785 127.166 139.384ZM220.092 130.072C220.174 128.201 220.456 126.376 221.236 124.686C222.37 122.228 225.107 120.972 227.828 120.972C229.746 120.969 231.324 123.303 232.333 124.545C233.252 125.675 234.3 126.867 235.442 128.003C230.322 128.107 224.913 128.825 220.092 130.072ZM248.867 124.118C247.265 126.271 246.573 127.391 243.972 125.951C242.134 124.934 240.582 123.495 239.344 121.87C236.895 118.653 234.666 115.967 230.724 114.378C226.927 112.845 221.355 114.497 218.378 116.883C214.377 120.088 213.1 124.436 212.696 129.225C212.286 134.087 212.723 138.795 211.726 143.627C211.37 145.349 210.899 147.298 209.562 148.58C207.943 150.13 203.173 147.344 201.872 146.635C197.352 144.17 197.419 139.995 196.825 135.645C196.146 130.667 194.28 126.03 190.903 122.13C185.062 115.384 175.239 117.779 168.41 121.484C163.606 124.092 160.096 128.181 155.486 130.992C150.572 133.987 144.119 132.032 139.405 129.522C136.741 128.104 134.227 126.294 131.02 126.713C125.622 127.42 120.838 129.616 115.398 127.697C111.538 126.337 108.611 124.43 104.38 123.99C100.105 123.545 96.3685 124.946 93.536 127.972C90.9499 130.734 89.5707 134.299 86.765 136.894C82.3747 140.948 80.7409 137.654 77.7822 134.818C72.5298 129.778 62.3835 132.154 59.9288 138.601C58.6123 142.054 59.2373 145.599 57.2544 148.914C55.8283 151.301 53.3774 153.249 50.5973 154.006C45.9757 155.264 45.102 149.17 45.2841 146.366C45.5817 141.782 46.6909 137.777 44.808 133.364C43.5462 130.407 40.5743 128.312 37.5299 127.183C30.1967 124.46 22.129 125.349 14.5041 124.069C6.77336 122.772 9.13783 118.467 13.7064 114.799C20.2147 109.574 28.4157 105.961 36.0248 102.438C39.1381 100.998 42.2844 99.6277 45.4443 98.2868C44.7 102.427 44.4257 106.743 43.6222 110.381C43.4657 111.09 43.9085 111.519 44.461 111.629C44.7116 112.47 45.5581 113.16 46.8158 112.833C53.4415 111.104 60.4004 110.962 67.0553 109.349C70.811 108.44 74.6549 107.035 76.4945 103.572C79.8918 97.1758 71.005 95.5926 65.4745 95.7409C65.7902 93.868 65.8313 91.8201 65.5256 89.9172C73.1172 86.5015 80.5148 82.6815 88.0773 79.2085C102.334 72.6606 116.737 66.3968 131.251 60.3775C132.567 59.8311 133.888 59.287 135.206 58.7415C134.07 63.6197 133.946 68.7533 134.37 72.7026C134.436 73.3226 135.312 73.3808 135.677 72.9995C136.002 73.1295 136.394 73.166 136.842 73.063C145.635 71.0457 160.667 71.214 165.412 62.2817C166.847 59.5804 165.951 56.8184 163.563 54.9899C161.903 53.7193 159.754 53.5516 157.63 53.8939C158.279 52.3766 158.606 50.7875 158.383 49.1978C163.582 47.0705 168.784 44.9497 173.993 42.8417C173.936 43.1935 173.905 43.5417 173.903 43.8825C173.893 50.2671 181.034 53.8192 186.917 54.1125C193.265 54.4278 200.06 51.9757 201.911 45.7303C203.279 41.111 201.801 35.4752 196.776 33.7135C200.516 32.2323 204.256 30.7581 208 29.2929C215.433 28.23 222.362 29.9211 229.825 32.9562C230.769 33.3393 231.719 33.7414 232.681 34.1653C232.908 34.2655 233.138 34.3688 233.365 34.4687C233.592 34.5689 233.817 34.67 234.045 34.7693C235.371 35.3578 236.699 35.9484 238.028 36.5439C238.555 36.7805 239.082 37.0192 239.609 37.2567C240.927 37.8525 242.246 38.4541 243.564 39.0591C244.33 39.4103 245.096 39.76 245.862 40.1153C247.065 40.6721 248.266 41.2376 249.467 41.8036C250.852 42.4561 252.234 43.1151 253.613 43.7798C255.072 44.4814 256.528 45.1905 257.979 45.9068C259.429 46.6215 260.875 47.3436 262.319 48.073C263.587 48.7135 264.852 49.3611 266.114 50.0127C266.727 50.3311 267.342 50.6456 267.955 50.9668C269.24 51.6398 270.522 52.3211 271.799 53.007C271.864 53.0419 271.928 53.0756 271.993 53.1109C273.331 53.8311 274.665 54.5605 275.993 55.2958C276.564 55.6102 277.134 55.925 277.702 56.2434C279.02 56.9832 280.335 57.7277 281.644 58.4831C282.8 59.1494 283.948 59.8252 285.094 60.5047C286.624 61.4122 288.144 62.3292 289.655 63.2612C291.02 64.104 292.378 64.9575 293.728 65.8209C294.833 66.5285 295.928 67.2454 297.019 67.9668C297.789 68.4744 298.555 68.9868 299.317 69.5023C300.252 70.1315 301.186 70.7601 302.109 71.401C302.372 71.583 302.646 71.7519 302.911 71.9318C303.473 72.3143 304.041 72.6854 304.609 73.0584C305.655 73.7437 306.705 74.4231 307.765 75.0857C308.52 75.5562 309.272 76.0297 310.03 76.4949C310.369 77.1073 310.984 77.4803 311.752 77.5789C311.77 77.5814 311.781 77.579 311.799 77.5808C312.262 77.864 312.722 78.1472 313.184 78.4297C315.026 79.557 316.861 80.6912 318.672 81.8706C318.674 81.8718 318.674 81.8724 318.676 81.8743C321.354 83.6221 323.031 86.2722 323.574 89.155C315.371 88.6337 306.639 93.6109 299.128 95.8598C288.599 99.0107 277.369 100.179 266.451 101.395C247.599 103.495 228.671 104.049 211.065 111.299C210.317 111.607 210.856 112.658 211.599 112.373C220.241 109.074 230.266 107.952 239.482 106.803C248.623 105.662 257.845 105.245 266.982 104.088C277.468 102.76 287.769 101.093 298.07 98.8182C301.945 97.961 305.687 96.4749 309.401 95.1506C314.201 93.4392 318.876 92.5875 323.762 91.5645C323.738 92.3433 323.64 93.1239 323.45 93.8977C322.322 98.4943 318.118 101.558 313.87 103.502C307.215 106.55 299.053 103.47 291.997 104.386C287.05 105.028 283.061 107.397 278.804 109.688C274.174 112.179 268.536 111.084 263.507 110.635C261.046 110.415 258.644 110.827 256.983 112.694C253.91 116.145 251.62 120.42 248.867 124.118ZM335.471 109.932C323.342 114.702 309.303 116.387 296.431 118.231C283.509 120.082 270.383 121.842 257.637 124.722C258.877 122.886 260.015 120.999 261.065 119.229C261.514 118.471 262.907 117.186 262.246 117.233C263.723 116.921 265.998 117.469 267.409 117.553C272.236 117.844 276.681 117.444 281.107 115.556C282.898 114.791 284.563 113.726 286.289 112.84C290.043 110.914 293.561 110.525 297.785 110.715C303.968 110.997 310.036 112.133 315.994 109.925C320.925 108.096 324.898 105.271 328.044 101.235C331.674 96.5807 332.511 89.9417 330.123 84.6436C327.844 79.5873 323.554 76.6387 318.903 73.9941C318.86 73.1847 318.822 72.4037 318.815 71.6774C318.764 66.2129 318.198 60.8106 316.464 55.5799C315.982 54.1275 313.654 54.4836 313.964 56.0457C314.971 61.1409 314.724 66.2567 314.259 71.3939C314.259 71.4009 314.258 71.4089 314.258 71.416C313.831 71.1766 313.403 70.9336 312.98 70.6875C311.852 64.7099 311.154 58.6753 309.938 52.7066C309.624 51.1693 307.199 51.6913 307.45 53.2169C308.243 58.0749 308.21 63.0782 308.598 68.0094C308.296 67.8197 307.998 67.6264 307.699 67.4342C307.452 66.0747 307.233 64.7093 307.05 63.3274C306.257 57.3149 305.943 51.2493 304.909 45.2666C304.656 43.7994 302.245 43.9377 302.448 45.4504C303.253 51.4752 303.267 57.5322 303.557 63.5891C303.573 63.9256 303.579 64.3219 303.581 64.7534C303.15 64.4684 302.721 64.1824 302.292 63.8962C301.912 62.8505 301.545 61.8621 301.34 61.0211C299.853 54.9341 299.018 48.7258 298.855 42.484C298.816 41.0197 296.471 41.0733 296.465 42.5303C296.44 48.3574 296.902 54.1695 297.715 59.9441C297.758 60.2408 297.793 60.5755 297.829 60.9227C296.81 60.2476 295.789 59.5776 294.765 58.9122C294.663 58.6149 294.561 58.3189 294.471 58.0247C293.158 53.7309 292.296 49.3501 291.893 44.8969C291.755 43.3955 289.279 43.3265 289.385 44.8691C289.659 48.8594 290.32 52.7489 291.211 56.6529C290.094 55.9593 288.967 55.2774 287.827 54.6148C287.798 54.5979 287.768 54.5814 287.739 54.5645C287.663 54.0242 287.59 53.4823 287.537 52.931C287.046 47.8152 287.04 42.6697 286.536 37.5546C286.364 35.8107 283.551 36.2205 283.707 37.9555C284.099 42.2965 283.889 47.4496 284.137 52.5433C282.753 51.7897 281.354 51.0538 279.95 50.3287C279.374 45.6043 279.242 40.8152 279.433 36.074C279.497 34.4518 276.854 33.9823 276.768 35.6339C276.539 40.0408 276.617 44.4237 276.966 48.811C276.269 48.4607 275.571 48.1101 274.87 47.764C274.441 42.6256 274.292 37.4697 273.742 32.3383C273.587 30.8948 271.324 31.3061 271.424 32.7168C271.747 37.2248 271.724 41.739 271.788 46.2537C271.685 46.2038 271.581 46.1517 271.477 46.1014C271.351 45.0027 271.228 43.9364 271.159 42.9441C270.811 37.8893 270.125 32.856 268.724 27.9618C268.321 26.5508 266.052 27.1181 266.413 28.5392C267.741 33.7886 268.015 39.0846 268.094 44.4574C267.145 43.9962 266.199 43.5349 265.255 43.0728C264.994 41.5735 264.753 40.0812 264.675 38.6206C264.434 34.0568 264.25 29.5592 263.239 25.0788C262.902 23.5844 260.594 24.2638 260.865 25.7193C261.821 30.889 261.621 36.1114 261.74 41.3341C261.65 41.2894 261.56 41.2461 261.472 41.2014C259.905 40.4159 258.336 39.6374 256.766 38.8581C256.739 38.5406 256.704 38.223 256.692 37.9058C256.513 33.0825 257.025 28.2551 257.038 23.4324C257.045 21.5757 254.063 21.7375 254.025 23.5641C253.929 28.1175 253.497 32.6525 253.408 37.2022C251.996 36.508 250.582 35.8138 249.163 35.1285C249.208 30.1001 249.894 25.0938 249.897 20.0632C249.897 18.3454 247.172 18.6142 247.123 20.2802C246.992 24.756 246.414 29.2034 246.093 33.6688C245.209 33.2486 244.326 32.8272 243.44 32.411C243.507 27.6851 243.583 22.9589 243.558 18.2326C243.546 16.3079 240.447 16.4024 240.423 18.309C240.372 22.4958 240.235 26.6789 240.075 30.8629C239.516 30.6067 238.956 30.3524 238.395 30.0983C238.421 29.8105 238.441 29.5209 238.476 29.2386C239.048 24.6295 239.657 20.0295 239.851 15.3891C239.922 13.6805 237.279 13.8279 237.108 15.4501C236.644 19.861 235.718 24.1943 234.981 28.565C234.552 28.3756 234.123 28.1862 233.692 28.0023C233.7 27.8343 233.704 27.6645 233.715 27.4975C234.007 23.2791 234.305 19.0758 234.272 14.846C234.258 13.2174 231.712 13.477 231.655 15.0431C231.512 18.9596 231.045 22.8369 230.561 26.7218C226.453 25.1051 222.272 23.7888 217.905 23.2209C224.7 15.5877 232.475 3.64147 244.115 6.40469C249.081 7.58463 253.334 11.4463 257.186 14.4259C261.794 17.989 266.237 21.1233 272.012 22.7327C284.445 26.1986 296.952 27.8061 309.016 32.6065C321.148 37.4348 331.695 44.8933 340.756 53.8611C349.874 62.8842 355.015 74.3155 355.099 86.872C355.18 99.3279 346.734 105.503 335.471 109.932Z" fill="#0C0C22"/>
<path d="M248.838 93.5989C248.882 93.9406 249.209 94.0743 249.516 94.0353C249.875 94.4399 250.447 94.6627 251.199 94.4711C260.66 92.0546 274.14 91.871 278.629 81.8114C279.924 78.9063 277.898 75.5537 275.014 74.4345C272.675 73.5251 270.31 73.6551 268.11 74.3955C268.708 71.9725 268.706 69.4842 267.654 67.0023C266.382 64.0022 262.799 62.8535 259.739 63.8281C254.833 65.3912 252.58 70.9293 250.701 74.9956C247.994 80.8518 248.053 87.382 248.838 93.5989ZM256.898 70.632C258.144 68.7637 261.776 65.2643 263.804 68.2083C265.742 71.0206 263.853 75.3039 262.46 77.8971C261.463 79.7497 263.789 81.7753 265.52 80.2723C267.638 78.4365 271.386 76.3999 274.039 78.6286C276.821 80.9631 270.034 85.0095 268.569 85.8272C263.187 88.8298 256.219 89.2105 250.372 91.1836C250.261 91.2206 250.163 91.2691 250.069 91.3193C250.26 84.0944 252.882 76.658 256.898 70.632Z" fill="#0C0C22"/>
<path d="M235.144 68.5519C236.572 64.7555 235.451 61.3196 231.67 59.3189C228.661 57.7261 225.074 57.8543 221.739 58.7102C222.447 55.6212 222.351 52.4553 220.805 49.4742C219.141 46.2654 215.28 44.9273 211.81 46.0484C206.842 47.6537 204.47 53.0845 202.751 57.3289C199.977 64.1818 201.002 72.0825 202.328 79.0801C202.385 79.3872 202.547 79.5907 202.753 79.7044C202.984 80.355 203.566 80.8625 204.534 80.8537C214.485 80.7626 231.128 79.2333 235.144 68.5519ZM225.226 72.8846C219.324 76.2614 211.481 76.8627 204.754 76.924C204.52 76.9258 204.313 76.9666 204.119 77.0233C203.37 68.3588 204.477 59.5028 209.9 52.2095C211.654 49.8521 215.014 48.3709 216.914 51.3155C218.938 54.4493 217.208 58.751 215.801 61.7425C214.957 63.5348 217.398 65.2143 219.057 64.3884C222.431 62.7076 226.549 61.4057 230.158 63.2749C234.846 65.7044 227.437 71.6204 225.226 72.8846Z" fill="#0C0C22"/>
<path d="M176.352 86.0684C174.481 84.5976 172.322 84.0555 170.101 84.0512C170.749 82.4278 170.888 80.6937 170.053 78.917C168.602 75.8265 164.433 75.5553 161.449 76.2228C150.791 78.605 147.38 90.81 146.83 99.6816C146.808 100.033 147.439 100.584 148.086 100.997C148.352 101.43 148.822 101.738 149.551 101.732C158.447 101.651 171.895 102.394 177.365 94.1683C179.083 91.5863 178.95 88.1108 176.352 86.0684ZM167.791 96.2794C162.338 98.2268 155.785 97.9111 150.064 97.8639C149.808 97.8608 149.576 97.9053 149.361 97.9718C150.85 92.7077 151.925 87.3581 156.318 83.4336C158.479 81.505 161.006 79.9085 164.09 80.1188C168.037 80.3857 164.454 84.468 163.259 85.7598C161.531 87.6299 164.084 89.8902 166.157 89.2154C168.268 88.5276 173.319 87.3339 174.14 90.4394C174.926 93.4187 169.981 95.4957 167.791 96.2794Z" fill="#0C0C22"/>
<path d="M89.9112 113.856C89.9228 114.035 89.9914 114.175 90.0813 114.298C90.54 114.533 91.108 114.579 91.7294 114.298C91.7882 114.272 91.8526 114.248 91.9115 114.222C100.375 110.533 118.131 111.679 120.717 100.475C121.391 97.5485 120.321 94.1935 117.139 92.9728C115.053 92.1738 113.023 92.0929 111.058 92.4754C111.685 90.2736 111.65 87.9505 110.657 85.6136C109.015 81.7437 104.54 81.1445 100.892 82.5182C95.7257 84.4637 92.3168 90.444 90.8318 95.1831C89.2271 100.307 89.3975 105.635 89.7229 110.905C89.7838 111.892 89.8504 112.875 89.9112 113.856ZM94.7269 93.8383C96.1336 90.33 99.854 86.2606 103.91 85.5627C109.83 84.5446 105.761 93.8956 104.609 95.3695C103.116 97.2779 105.643 99.6111 107.661 98.2804C110.102 96.6683 114.273 94.5714 116.74 97.3395C119.966 100.959 111.456 105.371 109.001 106.218C103.559 108.094 97.6733 108.189 92.1896 109.927C92.4128 104.478 92.6852 98.9216 94.7269 93.8383Z" fill="#0C0C22"/>
<path d="M203.776 86.6749C203.029 86.0614 202.211 85.5275 201.346 85.0898C199.844 84.3297 198.214 83.8627 196.611 83.8173C194.353 83.7539 192.509 84.7965 191.265 86.3393C190.111 86.9296 189.041 87.7053 188.103 88.6931C184.625 92.3481 185.785 98.535 189.38 101.715C197.185 108.617 210.202 102.035 207.375 91.8799C206.826 89.9104 205.496 88.0893 203.776 86.6749ZM194.202 87.7118C195.493 87.3041 196.899 87.1365 198.291 87.1334C198.853 87.267 199.411 87.4675 199.942 87.7433C200.393 87.9781 200.798 88.2475 201.18 88.534C201.302 91.0594 200.24 93.2348 197.442 93.9679C195.101 94.5827 192.715 93.552 192.683 91.072C192.666 89.4722 193.271 88.3713 194.202 87.7118ZM204.105 95.5052C203.394 101.461 195.271 102.787 191.295 98.9077C189.486 97.1443 188.816 94.2646 189.563 91.8894C189.592 92.2084 189.635 92.5268 189.708 92.84C190.577 96.573 195.054 97.7401 198.51 96.8344C201.159 96.1399 202.979 94.3801 203.814 92.2013C204.137 93.2311 204.244 94.344 204.105 95.5052Z" fill="#0C0C22"/>
<path d="M253.05 50.6924C252.958 50.2091 252.835 49.7145 252.65 49.202C252.533 48.8762 252.398 48.5327 252.241 48.1812C251.826 47.2372 251.269 46.2365 250.58 45.3588C250.599 45.1136 250.525 44.8509 250.307 44.6021C250.174 44.4501 250.033 44.318 249.896 44.177C248.677 42.922 247.319 42.1009 245.913 41.6507C245.132 41.4 244.338 41.2599 243.545 41.2235C242.158 41.1603 240.778 41.4074 239.487 41.8937C233.974 43.9729 230.115 50.4681 234.603 56.3264C240.286 63.7457 254.825 59.9778 253.05 50.6924ZM246.387 45.2472C247.308 45.303 248.253 45.8534 249.058 47.087C249.375 47.5762 249.64 48.0901 249.849 48.6182C249.494 48.8177 249.067 49.0555 248.605 49.3007C245.811 50.7911 241.622 52.6318 242.606 48.8143C243.16 46.6589 244.736 45.1467 246.387 45.2472ZM237.647 45.8013C238.3 45.1458 239.042 44.6551 239.832 44.3051C240.919 43.8233 242.099 43.6256 243.272 43.6842C243.364 43.6891 243.456 43.6851 243.547 43.6934C243.433 43.7648 243.333 43.8576 243.223 43.9358C242.232 44.6465 241.415 45.6138 240.819 46.5921C240.751 46.7042 240.67 46.8164 240.608 46.9292C239.572 48.7846 238.964 51.5371 240.78 53.1614C243.343 55.4533 247.533 53.7983 250.284 52.4339C250.057 53.6647 249.442 54.8192 248.35 55.7438C245.837 57.8748 241.766 57.8285 238.98 56.2884C235.028 54.1045 234.656 48.8085 237.647 45.8013Z" fill="#0C0C22"/>
<path d="M129.985 94.7871C133.725 94.1389 137.685 92.1425 139.558 88.9288C141.356 85.8419 141.666 81.641 139.873 78.4972C138.919 76.8259 137.179 75.7952 135.247 75.6395C133.028 73.6995 130.183 72.873 127.078 74.999C123.171 77.6743 121.036 82.9405 120.887 87.382C120.711 92.6075 124.582 95.7225 129.985 94.7871ZM135.22 78.7359C135.884 79.5849 136.429 80.5083 136.848 81.238C136.979 81.4679 137.164 81.596 137.359 81.6744C137.398 82.0155 137.416 82.3658 137.416 82.7165C135.332 83.4247 133.043 83.212 131.181 82.0729C128.726 80.5723 132.701 79.1009 134.051 78.7951C134.495 78.6939 134.877 78.6872 135.22 78.7359ZM127.291 78.7518C128.21 77.5793 129.619 76.437 131.22 76.3671C129.38 77.092 127.64 78.3102 127.201 79.9097C126.486 82.5041 128.344 84.5327 130.659 85.6771C132.632 86.6529 134.769 86.8383 136.76 86.3139C135.449 89.2996 132.038 90.7232 128.845 91.399C127.103 91.7683 125.53 91.475 124.732 89.9996C122.895 86.5928 125.115 81.5252 127.291 78.7518Z" fill="#0C0C22"/>
<path d="M293.541 90.8596C298.798 94.386 306.29 89.4145 307.751 84.3907C308.733 81.0133 306.731 77.5057 303.739 75.7434C302.278 74.8819 300.661 74.7373 299.147 75.0928C295.229 74.4798 291.268 75.2399 289.714 79.4374C288.185 83.5675 289.796 88.3462 293.541 90.8596ZM296.797 80.2263C297.128 78.5998 299.215 77.4196 300.867 77.5829C302.346 77.7297 303.445 78.7448 304.183 79.8864C304.199 79.9109 304.205 79.9367 304.221 79.9606C303.86 79.9624 303.486 80.0951 303.155 80.4172C302.081 81.4587 296.186 83.2108 296.797 80.2263ZM292.052 80.9147C292.421 79.0062 293.62 77.966 295.154 77.4619C294.866 77.7754 294.603 78.1107 294.374 78.4634C292.828 80.8555 294.163 83.5473 296.776 84.4864C299.474 85.4573 302.593 84.8875 304.713 83.0864C303.966 86.6115 299.46 89.9757 295.918 88.5917C293.054 87.4727 291.52 83.6647 292.052 80.9147Z" fill="#0C0C22"/>
</svg>
